<svg xmlns="http://www.w3.org/2000/svg" xmlns:xlink="http://www.w3.org/1999/xlink" xmlns:lucid="lucid" width="1858.6" height="1582.16"><g transform="translate(-12 -80)" lucid:page-tab-id="0_0"><path d="M1058.46 180c0 44.18-35.82 80-80 80s-80-35.82-80-80 35.82-80 80-80 80 35.82 80 80z" stroke="#000" stroke-width="2" fill="#fff"/><use xlink:href="#a" transform="matrix(1,0,0,1,903.4584623967152,105) translate(16.625 80.025)"/><use xlink:href="#b" transform="matrix(1,0,0,1,903.4584623967152,105) translate(53.625 80.025)"/><path d="M438.46 120h160v120h-160z" stroke="#000" stroke-width="2" fill="#fff"/><use xlink:href="#c" transform="matrix(1,0,0,1,443.4584623967153,125) translate(29.074999999999996 48.775)"/><use xlink:href="#b" transform="matrix(1,0,0,1,443.4584623967153,125) translate(35.125 70.375)"/><path d="M1458.46 120h160v120h-160z" stroke="#000" stroke-width="2" fill="#fff"/><use xlink:href="#d" transform="matrix(1,0,0,1,1463.4584623967153,125) translate(48.525 59.0875)"/><path d="M898.46 480h160v120h-160z" stroke="#000" stroke-width="2" fill="#fff"/><use xlink:href="#e" transform="matrix(1,0,0,1,903.4584623967152,485) translate(51.875 59.0875)"/><path d="M1154.95 212.33h-83.3v-2h83.3zm301.5 0h-100.8v-2h100.8z"/><path d="M1457.46 212.33h-1.03v-2h1.03zM1070.64 215.97l-14.27-4.64 14.27-4.63z"/><path d="M1071.64 217.35l-18.5-6.02 18.5-6zm-12.03-6.02l10.04 3.26v-6.53z"/><use xlink:href="#f" transform="matrix(1,0,0,1,1154.9473799848076,200.5333333333333) translate(0 14.4)"/><use xlink:href="#g" transform="matrix(1,0,0,1,1154.9473799848076,200.5333333333333) translate(78.85000000000001 14.4)"/><use xlink:href="#h" transform="matrix(1,0,0,1,1154.9473799848076,200.5333333333333) translate(159.75 14.4)"/><path d="M1026.8 478h-2V344.2h2zm0-155.4h-2V264.2h2z"/><path d="M1026.8 479h-2v-1.03h2zM1030.43 263.22h-9.27l4.63-14.27z"/><path d="M1031.8 264.22h-12.02l6-18.5zm-9.27-2h6.52l-3.26-10.03z"/><use xlink:href="#i" transform="matrix(1,0,0,1,1033.7917957300485,351.55820283819065) translate(0 14.4)"/><use xlink:href="#j" transform="matrix(1,0,0,1,1033.7917957300485,351.55820283819065) translate(42.95 14.4)"/><path d="M32 977.34h240v60H32z" fill="none"/><use xlink:href="#k" transform="matrix(1,0,0,1,32,977.3447730823211) translate(97.1 33.6)"/><use xlink:href="#l" transform="matrix(1,0,0,1,32,977.3447730823211) translate(186.05 33.6)"/><path d="M40.48 911.52h240v60h-240z" fill="none"/><use xlink:href="#m" transform="matrix(1,0,0,1,40.47733477093993,911.522889319281) translate(85.25 33.6)"/><use xlink:href="#n" transform="matrix(1,0,0,1,40.47733477093993,911.522889319281) translate(148.1 33.6)"/><path d="M1119.56 960.35h240v60h-240z" fill="none"/><use xlink:href="#o" transform="matrix(1,0,0,1,1119.5594380694674,960.3516851220099) translate(57.125 33.6)"/><use xlink:href="#p" transform="matrix(1,0,0,1,1119.5594380694674,960.3516851220099) translate(94.025 33.6)"/><use xlink:href="#q" transform="matrix(1,0,0,1,1119.5594380694674,960.3516851220099) translate(119.025 33.6)"/><path d="M924.26 1582.16h134.2v60h-134.2z" fill="none"/><use xlink:href="#r" transform="matrix(1,0,0,1,924.2640916692371,1582.159986) translate(0 22.799999999999997)"/><use xlink:href="#s" transform="matrix(1,0,0,1,924.2640916692371,1582.159986) translate(0 44.4)"/><path d="M1023.56 1198.42h240v60h-240z" fill="none"/><use xlink:href="#t" transform="matrix(1,0,0,1,1023.5594380694674,1198.4200071215341) translate(0 33.6)"/><use xlink:href="#u" transform="matrix(1,0,0,1,1023.5594380694674,1198.4200071215341) translate(35 33.6)"/><use xlink:href="#v" transform="matrix(1,0,0,1,1023.5594380694674,1198.4200071215341) translate(80.95 33.6)"/><path d="M632.86 938.18h240v60h-240z" fill="none"/><use xlink:href="#t" transform="matrix(1,0,0,1,632.8614324720859,938.1827762347643) translate(55.525000000000006 33.6)"/><use xlink:href="#w" transform="matrix(1,0,0,1,632.8614324720859,938.1827762347643) translate(90.525 33.6)"/><use xlink:href="#h" transform="matrix(1,0,0,1,632.8614324720859,938.1827762347643) translate(143.525 33.6)"/><path d="M398.46 900h200v236.84h-200z" stroke="#000" stroke-width="2" fill="#fff"/><path d="M588.46 910h-15v20h15z" stroke="#000" fill="#fff"/><path d="M578.46 913.33h-10v3.34h10zm0 10h-10v3.34h10z" stroke="#000" fill="#fff"/><use xlink:href="#x" transform="matrix(1,0,0,1,398.4584623967153,899.9999999999998) translate(44.07999999999999 125.49375)"/><use xlink:href="#y" transform="matrix(1,0,0,1,398.4584623967153,899.9999999999998) translate(121.03 125.49375)"/><path d="M860.24 900h268.4v236.84h-268.4z" stroke="#000" stroke-width="2" fill="#fff"/><path d="M1118.63 910h-15v20h15z" stroke="#000" fill="#fff"/><path d="M1108.63 913.33h-10v3.34h10zm0 10h-10v3.34h10z" stroke="#000" fill="#fff"/><use xlink:href="#z" transform="matrix(1,0,0,1,860.2434838096175,900.0000000000001) translate(90.05499999999999 125.49375)"/><path d="M1384.44 900h193.27v236.84h-193.26z" stroke="#000" stroke-width="2" fill="#fff"/><path d="M1567.7 910h-15v20h15z" stroke="#000" fill="#fff"/><path d="M1557.7 913.33h-10v3.34h10zm0 10h-10v3.34h10z" stroke="#000" fill="#fff"/><use xlink:href="#x" transform="matrix(1,0,0,1,1384.4353086677015,899.9999999999999) translate(37.55499999999999 125.49375)"/><use xlink:href="#A" transform="matrix(1,0,0,1,1384.4353086677015,899.9999999999999) translate(114.505 125.49375)"/><path d="M862.44 1320h266.2v156.84h-266.2z" stroke="#000" stroke-width="2" fill="#fff"/><path d="M1118.63 1330h-15v20h15z" stroke="#000" fill="#fff"/><path d="M1108.63 1333.33h-10v3.34h10zm0 10h-10v3.34h10z" stroke="#000" fill="#fff"/><use xlink:href="#x" transform="matrix(1,0,0,1,862.4400836614689,1320) translate(22.179999999999986 83.0875)"/><use xlink:href="#B" transform="matrix(1,0,0,1,862.4400836614689,1320) translate(99.13 83.0875)"/><use xlink:href="#C" transform="matrix(1,0,0,1,862.4400836614689,1320) translate(188.03 83.0875)"/><path d="M994.44 1203.42v11M994.44 1248.42v5" stroke="#000" stroke-width="2" fill="none"/><path d="M1008.44 1228.42c0 7.73-6.27 14-14 14-7.74 0-14-6.27-14-14s6.26-14 14-14c7.73 0 14 6.27 14 14z" stroke="#000" stroke-width="2" fill="#fff"/><path d="M974.44 1228.42c0 11.05 8.95 20 20 20 11.04 0 20-8.95 20-20" stroke="#000" stroke-width="2" fill="none"/><path d="M995.24 1203.42v11h-1.6v-11z" fill="none"/><path d="M725.3 1018.42h11M770.3 1018.42h5" stroke="#000" stroke-width="2" fill="none"/><path d="M750.3 1004.42c7.74 0 14 6.27 14 14s-6.26 14-14 14c-7.72 0-14-6.27-14-14s6.28-14 14-14z" stroke="#000" stroke-width="2" fill="#fff"/><path d="M750.3 1038.42c11.06 0 20-8.95 20-20s-8.94-20-20-20" stroke="#000" stroke-width="2" fill="none"/><path d="M725.3 1017.62h11v1.6h-11z" fill="none"/><path d="M1264.56 1034.34h-11M1219.56 1034.34h-5" stroke="#000" stroke-width="2" fill="none"/><path d="M1239.56 1048.34c-7.73 0-14-6.27-14-14s6.27-14 14-14 14 6.27 14 14-6.27 14-14 14z" stroke="#000" stroke-width="2" fill="#fff"/><path d="M1239.56 1014.34c-11.05 0-20 8.95-20 20 0 11.04 8.95 20 20 20" stroke="#000" stroke-width="2" fill="none"/><path d="M1264.56 1035.14h-11v-1.6h11z" fill="none"/><path d="M320 942.56h10m-30-20c11.05 0 20 8.96 20 20 0 11.05-8.95 20-20 20" stroke="#000" stroke-width="2" fill="none"/><path d="M300 922.56c11.05 0 20 8.96 20 20 0 11.05-8.95 20-20 20zM320 941.76h10v1.6h-10z" fill="none"/><path d="M964.2 1520.58v10m0 40c-11.04 0-20-8.95-20-20s8.96-20 20-20c11.06 0 20 8.95 20 20s-8.94 20-20 20z" stroke="#000" stroke-width="2" fill="#fff"/><path d="M965 1520.58v10h-1.6v-10z" fill="none"/><path d="M320 1007.34h10m-30-20c11.05 0 20 8.96 20 20 0 11.05-8.95 20-20 20" stroke="#000" stroke-width="2" fill="none"/><path d="M300 987.34c11.05 0 20 8.96 20 20 0 11.05-8.95 20-20 20zM320 1006.54h10v1.6h-10zM1678 988.42h172.6v60H1678z" fill="none"/><use xlink:href="#D" transform="matrix(1,0,0,1,1677.9999992829316,988.4200071215341) translate(0 33.6)"/><use xlink:href="#E" transform="matrix(1,0,0,1,1677.9999992829316,988.4200071215341) translate(59.95 33.6)"/><use xlink:href="#F" transform="matrix(1,0,0,1,1677.9999992829316,988.4200071215341) translate(99.85 33.6)"/><use xlink:href="#G" transform="matrix(1,0,0,1,1677.9999992829316,988.4200071215341) translate(114.85 33.6)"/><g fill="none"><path d="M1648 1018.42h-10m30 20c-11.05 0-20-8.95-20-20s8.95-20 20-20" stroke="#000" stroke-width="2"/><path d="M1668 1038.42c-11.05 0-20-8.95-20-20s8.95-20 20-20zM1648 1019.22h-10v-1.6h10z"/></g><path d="M998.04 738.42h95.4v100h-95.4z" fill="none"/><use xlink:href="#H" transform="matrix(1,0,0,1,998.04034372054,738.4200071215339) translate(22.5 42.8)"/><use xlink:href="#h" transform="matrix(1,0,0,1,998.04034372054,738.4200071215339) translate(27.525 64.4)"/><path d="M1045.74 870v-10m0-40c11.05 0 20 8.95 20 20s-8.95 20-20 20c-11.04 0-20-8.95-20-20s8.96-20 20-20z" stroke="#000" stroke-width="2" fill="#fff"/><path d="M1044.94 870v-10h1.6v10zM1031.95 1582.16h134.2v60h-134.2z" fill="none"/><use xlink:href="#I" transform="matrix(1,0,0,1,1031.9474130080653,1582.159986) translate(27.599999999999994 22.799999999999997)"/><use xlink:href="#J" transform="matrix(1,0,0,1,1031.9474130080653,1582.159986) translate(93.45 22.799999999999997)"/><use xlink:href="#K" transform="matrix(1,0,0,1,1031.9474130080653,1582.159986) translate(22.525 44.4)"/><g fill="none"><path d="M1065.37 1535.58v-10m-20 30c0-11.05 8.95-20 20-20 11.04 0 20 8.95 20 20" stroke="#000" stroke-width="2"/><path d="M1045.37 1555.58c0-11.05 8.95-20 20-20 11.04 0 20 8.95 20 20zM1064.57 1535.58v-10h1.6v10z"/></g><path d="M331 942.56h65.46" stroke="#000" stroke-width="2" fill="none"/><path d="M331.03 943.56H330v-2h1.03zM397.46 943.56h-1.03v-2h1.03z"/><path d="M331 1007.34h65.46" stroke="#000" stroke-width="2" fill="none"/><path d="M331.03 1008.34H330v-2h1.03zM397.46 1008.34h-1.03v-2h1.03z"/><path d="M776.3 1018.42h81.94" stroke="#000" stroke-width="2" fill="none"/><path d="M776.34 1019.42h-1.03v-2h1.04zM859.24 1019.42h-1.02v-2h1.02z"/><path d="M724.3 1018.42H600.47" stroke="#000" stroke-width="2" fill="none"/><path d="M725.3 1019.42h-1v-2h1zM600.5 1019.42h-1.04v-2h1.03z"/><path d="M1045.74 871v27" stroke="#000" stroke-width="2" fill="none"/><path d="M1046.74 871.03h-2V870h2zM1046.74 899h-2v-1.03h2z"/><path d="M1637 1018.42h-57.29" stroke="#000" stroke-width="2" fill="none"/><path d="M1638 1019.42h-1.03v-2h1.03zM1579.74 1019.42h-1.03v-2h1.04zM1181.55 193.6h-122.1v-2h122.1zm257.4 0h-104.6v-2h104.6z"/><path d="M1059.47 193.6h-1.18l.3-2h.87zM1454.22 192.6l-14.26 4.62v-9.27z"/><path d="M1457.46 192.6l-18.5 6v-12.02zm-16.5 3.25l10.03-3.26-10.04-3.27z"/><use xlink:href="#L" transform="matrix(1,0,0,1,1181.5525434478127,181.78816949031258) translate(0 14.4)"/><use xlink:href="#M" transform="matrix(1,0,0,1,1181.5525434478127,181.78816949031258) translate(82.9 14.4)"/><use xlink:href="#h" transform="matrix(1,0,0,1,1181.5525434478127,181.78816949031258) translate(111.85000000000001 14.4)"/><path d="M1190.06 168.42h-113.1v-2h113.1zm266.4 0h-130.6v-2h130.6z"/><path d="M1457.46 168.42h-1.03v-2h1.03zM1075.95 172.06l-14.26-4.64 14.25-4.63z"/><path d="M1076.95 173.44l-18.5-6.02 18.5-6zm-12.03-6.02l10.03 3.26v-6.5z"/><use xlink:href="#N" transform="matrix(1,0,0,1,1190.0554561624115,156.62436347318527) translate(0 14.4)"/><use xlink:href="#s" transform="matrix(1,0,0,1,1190.0554561624115,156.62436347318527) translate(73.95 14.4)"/><path d="M1179.4 147.37h-126.27v-2h126.27zm259.56 0H1330.2v-2h108.76z"/><path d="M1053.16 147.37h-.6l-.87-2h1.46zM1454.22 146.37l-14.26 4.63v-9.27z"/><path d="M1457.46 146.37l-18.5 6v-12zm-16.5 3.26l10.03-3.26-10.04-3.26z"/><use xlink:href="#O" transform="matrix(1,0,0,1,1179.3964917542905,135.56914443285172) translate(0 14.4)"/><use xlink:href="#P" transform="matrix(1,0,0,1,1179.3964917542905,135.56914443285172) translate(83.85000000000001 14.4)"/><path d="M936.55 460.5h-2V249.7h2z"/><path d="M935.32 248.57l1.23.72v.43h-2v-1.68zM935.55 475.76l-4.63-14.26h9.27z"/><path d="M935.55 479l-6-18.5h12zm-3.26-16.5l3.25 10.03 3.26-10.03z"/><use xlink:href="#f" transform="matrix(1,0,0,1,776.7505322273776,353.0526957834414) translate(0 14.4)"/><use xlink:href="#Q" transform="matrix(1,0,0,1,776.7505322273776,353.0526957834414) translate(78.85000000000001 14.4)"/><path d="M987.1 478h-2V344.2h2zm0-155.4h-2v-43.5h2z"/><path d="M987.1 479h-2v-1.03h2zM990.74 278.1h-9.27l4.64-14.26z"/><path d="M992.12 279.1H980.1l6-18.5zm-9.27-2h6.5l-3.24-10.02z"/><use xlink:href="#i" transform="matrix(1,0,0,1,939.205236456558,322.59286291616894) translate(0 14.4)"/><use xlink:href="#R" transform="matrix(1,0,0,1,939.205236456558,322.59286291616894) translate(42.95 14.4)"/><path d="M1456.46 224.72h-391.32v-2h391.32z"/><path d="M1457.46 224.72h-1.03v-2h1.03zM1064.14 228.35l-14.27-4.63 14.27-4.64z"/><path d="M1065.14 229.73l-18.5-6 18.5-6.02zm-12.03-6l10.04 3.25v-6.52z"/><use xlink:href="#f" transform="matrix(1,0,0,1,1176.7229744488627,227.7177726409809) translate(0 14.4)"/><use xlink:href="#S" transform="matrix(1,0,0,1,1176.7229744488627,227.7177726409809) translate(78.85000000000001 14.4)"/><use xlink:href="#y" transform="matrix(1,0,0,1,1176.7229744488627,227.7177726409809) translate(115.75 14.4)"/><path d="M1438.96 130.68H1042.9v-2h396.06z"/><path d="M1042.9 130.68h-.23l-1.56-2h1.8zM1454.22 129.68l-14.26 4.64v-9.27z"/><path d="M1457.46 129.68l-18.5 6v-12zm-16.5 3.26l10.03-3.26-10.04-3.26z"/><use xlink:href="#i" transform="matrix(1,0,0,1,1103.7986317986902,104.08055397493413) translate(0 14.4)"/><use xlink:href="#S" transform="matrix(1,0,0,1,1103.7986317986902,104.08055397493413) translate(42.95 14.4)"/><use xlink:href="#E" transform="matrix(1,0,0,1,1103.7986317986902,104.08055397493413) translate(79.85 14.4)"/><use xlink:href="#T" transform="matrix(1,0,0,1,1103.7986317986902,104.08055397493413) translate(119.75 14.4)"/><use xlink:href="#U" transform="matrix(1,0,0,1,1103.7986317986902,104.08055397493413) translate(203.5 14.4)"/><path d="M653.3 149.42h-35.34v-2h35.34zm249.6 0h-52.85v-2h52.84z"/><path d="M903.46 149.42h-.6v-2h1.46zM616.96 153.05l-14.27-4.63 14.26-4.64z"/><path d="M617.96 154.43l-18.5-6 18.5-6.03zm-12.03-6l10.03 3.25v-6.52z"/><use xlink:href="#i" transform="matrix(1,0,0,1,653.2984046698543,137.61627932806272) translate(0 14.4)"/><use xlink:href="#V" transform="matrix(1,0,0,1,653.2984046698543,137.61627932806272) translate(42.95 14.4)"/><use xlink:href="#K" transform="matrix(1,0,0,1,653.2984046698543,137.61627932806272) translate(106.80000000000001 14.4)"/><path d="M700.24 207.25h-99.78v-2h99.78zm183.08 0h-82.28v-2h82.28z"/><path d="M600.48 207.25h-1.02v-2h1.02zM898.6 206.25l-14.28 4.63v-9.27z"/><path d="M901.83 206.25l-18.5 6v-12zm-16.5 3.26l10.02-3.25-10.03-3.26z"/><g><use xlink:href="#W" transform="matrix(1,0,0,1,700.2423233665925,195.44740427856158) translate(0 14.4)"/><use xlink:href="#F" transform="matrix(1,0,0,1,700.2423233665925,195.44740427856158) translate(44.85 14.4)"/><use xlink:href="#A" transform="matrix(1,0,0,1,700.2423233665925,195.44740427856158) translate(59.85 14.4)"/></g><path d="M1070.74 740h95.4v100h-95.4z" fill="none"/><g><use xlink:href="#X" transform="matrix(1,0,0,1,1070.740823725541,740) translate(27.9 42.8)"/><use xlink:href="#Y" transform="matrix(1,0,0,1,1070.740823725541,740) translate(13.124999999999993 64.4)"/></g><g><path d="M1118.44 871.58v-10m0-40c11.05 0 20 8.95 20 20s-8.95 20-20 20c-11.04 0-20-8.95-20-20s8.96-20 20-20z" stroke="#000" stroke-width="2" fill="#fff"/><path d="M1117.64 871.58v-10h1.6v10z" fill="none"/></g><path d="M1118.44 872.58V898" stroke="#000" stroke-width="2" fill="none"/><path d="M1119.44 872.6h-2v-1.02h2zM1119.44 899h-2v-1.03h2z"/><g fill="none"><path d="M989.44 850v10m20-30c0 11.05-8.96 20-20 20-11.05 0-20-8.95-20-20" stroke="#000" stroke-width="2"/><path d="M1009.44 830c0 11.05-8.96 20-20 20-11.05 0-20-8.95-20-20zM990.24 850v10h-1.6v-10z"/></g><path d="M989.44 861v37" stroke="#000" stroke-width="2" fill="none"/><path d="M990.44 861.03h-2V860h2zM990.44 899h-2v-1.03h2z"/><g fill="none"><path d="M935.2 851v10m20-30c0 11.05-8.95 20-20 20s-20-8.95-20-20" stroke="#000" stroke-width="2"/><path d="M955.2 831c0 11.05-8.95 20-20 20s-20-8.95-20-20zM936 851v10h-1.6v-10z"/></g><path d="M935.2 862v37" stroke="#000" stroke-width="2" fill="none"/><path d="M936.2 862.03h-2V861h2z"/><path d="M935.2 898.97V900" stroke="#000" stroke-width="2" fill="none"/><g fill="none"><path d="M882.44 851v10m20-30c0 11.05-8.95 20-20 20s-20-8.95-20-20" stroke="#000" stroke-width="2"/><path d="M902.44 831c0 11.05-8.95 20-20 20s-20-8.95-20-20zM883.24 851v10h-1.6v-10z"/></g><path d="M882.44 862v37" stroke="#000" stroke-width="2" fill="none"/><path d="M883.44 862.03h-2V861h2z"/><path d="M882.44 898.97V900" stroke="#000" stroke-width="2" fill="none"/><path d="M941.73 690h95.4v100h-95.4z" fill="none"/><g><use xlink:href="#Z" transform="matrix(1,0,0,1,941.7348286627138,689.9999999999999) translate(23.075 42.8)"/><use xlink:href="#aa" transform="matrix(1,0,0,1,941.7348286627138,689.9999999999999) translate(6.049999999999997 64.4)"/></g><path d="M891.88 740h95.4v100h-95.4z" fill="none"/><g><use xlink:href="#ab" transform="matrix(1,0,0,1,891.8816474510811,740) translate(24.875 42.8)"/><use xlink:href="#ac" transform="matrix(1,0,0,1,891.8816474510811,740) translate(6.049999999999997 64.4)"/></g><path d="M824.8 700h95.4v100h-95.4z" fill="none"/><g><use xlink:href="#Z" transform="matrix(1,0,0,1,824.7990399899979,700) translate(23.075 42.8)"/><use xlink:href="#ad" transform="matrix(1,0,0,1,824.7990399899979,700) translate(5.599999999999994 64.4)"/></g><path d="M1065.37 1524.58V1478.85" stroke="#000" stroke-width="2" fill="none"/><path d="M1064.37 1525.58v-1.03h2v1.03zM1066.37 1478.87h-2v-1.03h2z"/><path d="M964.2 1519.58v-40.74" stroke="#000" stroke-width="2" fill="none"/><path d="M963.2 1520.58v-1.03h2v1.03zM965.2 1478.87h-2v-1.03h2z"/><path d="M1265.56 1034.34h116.88" stroke="#000" stroke-width="2" fill="none"/><path d="M1265.6 1035.34h-1.04v-2h1.03zM1383.44 1035.34h-1.03v-2h1.04z"/><path d="M1213.56 1034.34h-82.93" stroke="#000" stroke-width="2" fill="none"/><path d="M1214.56 1035.34h-1.03v-2h1.03zM1130.65 1035.34h-1.02v-2h1.02z"/><path d="M994.44 1202.42v-63.58" stroke="#000" stroke-width="2" fill="none"/><path d="M993.44 1203.42v-1.03h2v1.02zM995.44 1138.87h-2v-1.03h2z"/><path d="M994.44 1254.42V1318" stroke="#000" stroke-width="2" fill="none"/><path d="M995.44 1254.45h-2v-1.03h2zM995.44 1319h-2v-1.03h2z"/><defs><path d="M205 0l-28-72H64L36 0H1l101-248h38L239 0h-34zm-38-99l-47-123c-12 45-31 82-46 123h93" id="ae"/><path d="M115-194c55 1 70 41 70 98S169 2 115 4C84 4 66-9 55-30l1 105H24l-1-265h31l2 30c10-21 28-34 59-34zm-8 174c40 0 45-34 45-75s-6-73-45-74c-42 0-51 32-51 76 0 43 10 73 51 73" id="af"/><g id="a"><use transform="matrix(0.05,0,0,0.05,0,0)" xlink:href="#ae"/><use transform="matrix(0.05,0,0,0.05,12,0)" xlink:href="#af"/><use transform="matrix(0.05,0,0,0.05,22,0)" xlink:href="#af"/></g><path d="M101-234c-31-9-42 10-38 44h38v23H63V0H32v-167H5v-23h27c-7-52 17-82 69-68v24" id="ag"/><path d="M100-194c63 0 86 42 84 106H49c0 40 14 67 53 68 26 1 43-12 49-29l28 8c-11 28-37 45-77 45C44 4 14-33 15-96c1-61 26-98 85-98zm52 81c6-60-76-77-97-28-3 7-6 17-6 28h103" id="ah"/><path d="M114-163C36-179 61-72 57 0H25l-1-190h30c1 12-1 29 2 39 6-27 23-49 58-41v29" id="ai"/><path d="M100-194c62-1 85 37 85 99 1 63-27 99-86 99S16-35 15-95c0-66 28-99 85-99zM99-20c44 1 53-31 53-75 0-43-8-75-51-75s-53 32-53 75 10 74 51 75" id="aj"/><path d="M108 0H70L1-190h34L89-25l56-165h34" id="ak"/><path d="M24-231v-30h32v30H24zM24 0v-190h32V0H24" id="al"/><path d="M141-36C126-15 110 5 73 4 37 3 15-17 15-53c-1-64 63-63 125-63 3-35-9-54-41-54-24 1-41 7-42 31l-33-3c5-37 33-52 76-52 45 0 72 20 72 64v82c-1 20 7 32 28 27v20c-31 9-61-2-59-35zM48-53c0 20 12 33 32 33 41-3 63-29 60-74-43 2-92-5-92 41" id="am"/><g id="b"><use transform="matrix(0.05,0,0,0.05,0,0)" xlink:href="#ag"/><use transform="matrix(0.05,0,0,0.05,5,0)" xlink:href="#ah"/><use transform="matrix(0.05,0,0,0.05,15,0)" xlink:href="#ai"/><use transform="matrix(0.05,0,0,0.05,20.95,0)" xlink:href="#ai"/><use transform="matrix(0.05,0,0,0.05,26.899999999999995,0)" xlink:href="#aj"/><use transform="matrix(0.05,0,0,0.05,36.9,0)" xlink:href="#ak"/><use transform="matrix(0.05,0,0,0.05,45.9,0)" xlink:href="#al"/><use transform="matrix(0.05,0,0,0.05,49.85,0)" xlink:href="#am"/><use transform="matrix(0.05,0,0,0.05,59.85,0)" xlink:href="#ai"/><use transform="matrix(0.05,0,0,0.05,65.8,0)" xlink:href="#al"/><use transform="matrix(0.05,0,0,0.05,69.75,0)" xlink:href="#am"/></g><path d="M212-179c-10-28-35-45-73-45-59 0-87 40-87 99 0 60 29 101 89 101 43 0 62-24 78-52l27 14C228-24 195 4 139 4 59 4 22-46 18-125c-6-104 99-153 187-111 19 9 31 26 39 46" id="an"/><path d="M210-169c-67 3-38 105-44 169h-31v-121c0-29-5-50-35-48C34-165 62-65 56 0H25l-1-190h30c1 10-1 24 2 32 10-44 99-50 107 0 11-21 27-35 58-36 85-2 47 119 55 194h-31v-121c0-29-5-49-35-48" id="ao"/><path d="M177-190C167-65 218 103 67 71c-23-6-38-20-44-43l32-5c15 47 100 32 89-28v-30C133-14 115 1 83 1 29 1 15-40 15-95c0-56 16-97 71-98 29-1 48 16 59 35 1-10 0-23 2-32h30zM94-22c36 0 50-32 50-73 0-42-14-75-50-75-39 0-46 34-46 75s6 73 46 73" id="ap"/><path d="M117-194c89-4 53 116 60 194h-32v-121c0-31-8-49-39-48C34-167 62-67 57 0H25l-1-190h30c1 10-1 24 2 32 11-22 29-35 61-36" id="aq"/><g id="c"><use transform="matrix(0.05,0,0,0.05,0,0)" xlink:href="#an"/><use transform="matrix(0.05,0,0,0.05,12.950000000000001,0)" xlink:href="#aj"/><use transform="matrix(0.05,0,0,0.05,22.950000000000003,0)" xlink:href="#ao"/><use transform="matrix(0.05,0,0,0.05,37.900000000000006,0)" xlink:href="#af"/><use transform="matrix(0.05,0,0,0.05,47.900000000000006,0)" xlink:href="#am"/><use transform="matrix(0.05,0,0,0.05,57.900000000000006,0)" xlink:href="#ap"/><use transform="matrix(0.05,0,0,0.05,67.9,0)" xlink:href="#aq"/><use transform="matrix(0.05,0,0,0.05,77.9,0)" xlink:href="#al"/><use transform="matrix(0.05,0,0,0.05,81.85000000000001,0)" xlink:href="#am"/></g><path d="M232-93c-1 65-40 97-104 97C67 4 28-28 28-90v-158h33c8 89-33 224 67 224 102 0 64-133 71-224h33v155" id="ar"/><path d="M59-47c-2 24 18 29 38 22v24C64 9 27 4 27-40v-127H5v-23h24l9-43h21v43h35v23H59v120" id="as"/><g id="d"><use transform="matrix(0.05,0,0,0.05,0,0)" xlink:href="#ar"/><use transform="matrix(0.05,0,0,0.05,12.950000000000001,0)" xlink:href="#as"/><use transform="matrix(0.05,0,0,0.05,17.950000000000003,0)" xlink:href="#ah"/><use transform="matrix(0.05,0,0,0.05,27.950000000000003,0)" xlink:href="#aq"/><use transform="matrix(0.05,0,0,0.05,37.95,0)" xlink:href="#as"/><use transform="matrix(0.05,0,0,0.05,42.95,0)" xlink:href="#ah"/></g><path d="M127-220V0H93v-220H8v-28h204v28h-85" id="at"/><g id="e"><use transform="matrix(0.05,0,0,0.05,0,0)" xlink:href="#at"/><use transform="matrix(0.05,0,0,0.05,10.3,0)" xlink:href="#ai"/><use transform="matrix(0.05,0,0,0.05,16.25,0)" xlink:href="#ah"/><use transform="matrix(0.05,0,0,0.05,26.25,0)" xlink:href="#aq"/><use transform="matrix(0.05,0,0,0.05,36.25,0)" xlink:href="#aj"/></g><path d="M233-177c-1 41-23 64-60 70L243 0h-38l-65-103H63V0H30v-248c88 3 205-21 203 71zM63-129c60-2 137 13 137-47 0-61-80-42-137-45v92" id="au"/><path d="M96-169c-40 0-48 33-48 73s9 75 48 75c24 0 41-14 43-38l32 2c-6 37-31 61-74 61-59 0-76-41-82-99-10-93 101-131 147-64 4 7 5 14 7 22l-32 3c-4-21-16-35-41-35" id="av"/><path d="M106-169C34-169 62-67 57 0H25v-261h32l-1 103c12-21 28-36 61-36 89 0 53 116 60 194h-32v-121c2-32-8-49-39-48" id="aw"/><path d="M135-143c-3-34-86-38-87 0 15 53 115 12 119 90S17 21 10-45l28-5c4 36 97 45 98 0-10-56-113-15-118-90-4-57 82-63 122-42 12 7 21 19 24 35" id="ax"/><g id="f"><use transform="matrix(0.05,0,0,0.05,0,0)" xlink:href="#au"/><use transform="matrix(0.05,0,0,0.05,12.950000000000001,0)" xlink:href="#al"/><use transform="matrix(0.05,0,0,0.05,16.900000000000002,0)" xlink:href="#av"/><use transform="matrix(0.05,0,0,0.05,25.900000000000002,0)" xlink:href="#aw"/><use transform="matrix(0.05,0,0,0.05,35.900000000000006,0)" xlink:href="#al"/><use transform="matrix(0.05,0,0,0.05,39.85000000000001,0)" xlink:href="#ah"/><use transform="matrix(0.05,0,0,0.05,49.85000000000001,0)" xlink:href="#ax"/><use transform="matrix(0.05,0,0,0.05,58.85,0)" xlink:href="#as"/><use transform="matrix(0.05,0,0,0.05,63.85,0)" xlink:href="#am"/></g><path d="M9 0v-24l116-142H16v-24h144v24L44-24h123V0H9" id="ay"/><g id="g"><use transform="matrix(0.05,0,0,0.05,0,0)" xlink:href="#af"/><use transform="matrix(0.05,0,0,0.05,10,0)" xlink:href="#aj"/><use transform="matrix(0.05,0,0,0.05,20,0)" xlink:href="#ax"/><use transform="matrix(0.05,0,0,0.05,29,0)" xlink:href="#al"/><use transform="matrix(0.05,0,0,0.05,32.95,0)" xlink:href="#ay"/><use transform="matrix(0.05,0,0,0.05,41.95,0)" xlink:href="#al"/><use transform="matrix(0.05,0,0,0.05,45.900000000000006,0)" xlink:href="#aj"/><use transform="matrix(0.05,0,0,0.05,55.900000000000006,0)" xlink:href="#aq"/><use transform="matrix(0.05,0,0,0.05,65.9,0)" xlink:href="#ah"/></g><g id="h"><use transform="matrix(0.05,0,0,0.05,0,0)" xlink:href="#as"/><use transform="matrix(0.05,0,0,0.05,5,0)" xlink:href="#ai"/><use transform="matrix(0.05,0,0,0.05,10.95,0)" xlink:href="#ah"/><use transform="matrix(0.05,0,0,0.05,20.95,0)" xlink:href="#aq"/><use transform="matrix(0.05,0,0,0.05,30.950000000000003,0)" xlink:href="#aj"/></g><path d="M33 0v-248h34V0H33" id="az"/><g id="i"><use transform="matrix(0.05,0,0,0.05,0,0)" xlink:href="#az"/><use transform="matrix(0.05,0,0,0.05,5,0)" xlink:href="#aq"/><use transform="matrix(0.05,0,0,0.05,15,0)" xlink:href="#ak"/><use transform="matrix(0.05,0,0,0.05,24,0)" xlink:href="#al"/><use transform="matrix(0.05,0,0,0.05,27.950000000000003,0)" xlink:href="#aj"/></g><g id="j"><use transform="matrix(0.05,0,0,0.05,0,0)" xlink:href="#af"/><use transform="matrix(0.05,0,0,0.05,10,0)" xlink:href="#aj"/><use transform="matrix(0.05,0,0,0.05,20,0)" xlink:href="#ax"/><use transform="matrix(0.05,0,0,0.05,29,0)" xlink:href="#al"/><use transform="matrix(0.05,0,0,0.05,32.95,0)" xlink:href="#ay"/><use transform="matrix(0.05,0,0,0.05,41.95,0)" xlink:href="#al"/><use transform="matrix(0.05,0,0,0.05,45.900000000000006,0)" xlink:href="#aj"/><use transform="matrix(0.05,0,0,0.05,55.900000000000006,0)" xlink:href="#aq"/><use transform="matrix(0.05,0,0,0.05,65.9,0)" xlink:href="#ah"/></g><path d="M30-248c87 1 191-15 191 75 0 78-77 80-158 76V0H30v-248zm33 125c57 0 124 11 124-50 0-59-68-47-124-48v98" id="aA"/><path d="M84 4C-5 8 30-112 23-190h32v120c0 31 7 50 39 49 72-2 45-101 50-169h31l1 190h-30c-1-10 1-25-2-33-11 22-28 36-60 37" id="aB"/><g id="k"><use transform="matrix(0.05,0,0,0.05,0,0)" xlink:href="#aA"/><use transform="matrix(0.05,0,0,0.05,12,0)" xlink:href="#aj"/><use transform="matrix(0.05,0,0,0.05,22,0)" xlink:href="#ax"/><use transform="matrix(0.05,0,0,0.05,31,0)" xlink:href="#aB"/><use transform="matrix(0.05,0,0,0.05,41,0)" xlink:href="#ay"/><use transform="matrix(0.05,0,0,0.05,50,0)" xlink:href="#al"/><use transform="matrix(0.05,0,0,0.05,53.95,0)" xlink:href="#aj"/><use transform="matrix(0.05,0,0,0.05,63.95,0)" xlink:href="#aq"/><use transform="matrix(0.05,0,0,0.05,73.95,0)" xlink:href="#ah"/></g><path d="M24 0v-261h32V0H24" id="aC"/><g id="l"><use transform="matrix(0.05,0,0,0.05,0,0)" xlink:href="#am"/><use transform="matrix(0.05,0,0,0.05,10,0)" xlink:href="#as"/><use transform="matrix(0.05,0,0,0.05,15,0)" xlink:href="#as"/><use transform="matrix(0.05,0,0,0.05,20,0)" xlink:href="#aB"/><use transform="matrix(0.05,0,0,0.05,30,0)" xlink:href="#am"/><use transform="matrix(0.05,0,0,0.05,40,0)" xlink:href="#aC"/><use transform="matrix(0.05,0,0,0.05,43.95,0)" xlink:href="#ah"/></g><path d="M85-194c31 0 48 13 60 33l-1-100h32l1 261h-30c-2-10 0-23-3-31C134-8 116 4 85 4 32 4 16-35 15-94c0-66 23-100 70-100zm9 24c-40 0-46 34-46 75 0 40 6 74 45 74 42 0 51-32 51-76 0-42-9-74-50-73" id="aD"/><g id="m"><use transform="matrix(0.05,0,0,0.05,0,0)" xlink:href="#au"/><use transform="matrix(0.05,0,0,0.05,12.950000000000001,0)" xlink:href="#al"/><use transform="matrix(0.05,0,0,0.05,16.900000000000002,0)" xlink:href="#as"/><use transform="matrix(0.05,0,0,0.05,21.900000000000002,0)" xlink:href="#am"/><use transform="matrix(0.05,0,0,0.05,31.900000000000002,0)" xlink:href="#ai"/><use transform="matrix(0.05,0,0,0.05,37.85,0)" xlink:href="#aD"/><use transform="matrix(0.05,0,0,0.05,47.85,0)" xlink:href="#aj"/></g><g id="n"><use transform="matrix(0.05,0,0,0.05,0,0)" xlink:href="#am"/><use transform="matrix(0.05,0,0,0.05,10,0)" xlink:href="#av"/><use transform="matrix(0.05,0,0,0.05,19,0)" xlink:href="#av"/><use transform="matrix(0.05,0,0,0.05,28,0)" xlink:href="#aB"/><use transform="matrix(0.05,0,0,0.05,38,0)" xlink:href="#ao"/><use transform="matrix(0.05,0,0,0.05,52.95,0)" xlink:href="#aB"/><use transform="matrix(0.05,0,0,0.05,62.95,0)" xlink:href="#aC"/><use transform="matrix(0.05,0,0,0.05,66.9,0)" xlink:href="#am"/><use transform="matrix(0.05,0,0,0.05,76.9,0)" xlink:href="#as"/><use transform="matrix(0.05,0,0,0.05,81.9,0)" xlink:href="#aj"/></g><path d="M30-248c118-7 216 8 213 122C240-48 200 0 122 0H30v-248zM63-27c89 8 146-16 146-99s-60-101-146-95v194" id="aE"/><g id="o"><use transform="matrix(0.05,0,0,0.05,0,0)" xlink:href="#aE"/><use transform="matrix(0.05,0,0,0.05,12.950000000000001,0)" xlink:href="#am"/><use transform="matrix(0.05,0,0,0.05,22.950000000000003,0)" xlink:href="#as"/><use transform="matrix(0.05,0,0,0.05,27.950000000000003,0)" xlink:href="#al"/></g><g id="p"><use transform="matrix(0.05,0,0,0.05,0,0)" xlink:href="#aD"/><use transform="matrix(0.05,0,0,0.05,10,0)" xlink:href="#am"/></g><g id="q"><use transform="matrix(0.05,0,0,0.05,0,0)" xlink:href="#av"/><use transform="matrix(0.05,0,0,0.05,9,0)" xlink:href="#am"/><use transform="matrix(0.05,0,0,0.05,19,0)" xlink:href="#ai"/><use transform="matrix(0.05,0,0,0.05,24.95,0)" xlink:href="#al"/><use transform="matrix(0.05,0,0,0.05,28.899999999999995,0)" xlink:href="#av"/><use transform="matrix(0.05,0,0,0.05,37.9,0)" xlink:href="#am"/><use transform="matrix(0.05,0,0,0.05,47.9,0)" xlink:href="#ai"/><use transform="matrix(0.05,0,0,0.05,53.85,0)" xlink:href="#ah"/></g><g id="r"><use transform="matrix(0.05,0,0,0.05,0,0)" xlink:href="#aA"/><use transform="matrix(0.05,0,0,0.05,12,0)" xlink:href="#am"/><use transform="matrix(0.05,0,0,0.05,22,0)" xlink:href="#ap"/><use transform="matrix(0.05,0,0,0.05,32,0)" xlink:href="#am"/><use transform="matrix(0.05,0,0,0.05,42,0)" xlink:href="#ao"/><use transform="matrix(0.05,0,0,0.05,56.95,0)" xlink:href="#ah"/><use transform="matrix(0.05,0,0,0.05,66.95,0)" xlink:href="#aq"/><use transform="matrix(0.05,0,0,0.05,76.95,0)" xlink:href="#as"/><use transform="matrix(0.05,0,0,0.05,81.95,0)" xlink:href="#aj"/></g><path d="M115-194c53 0 69 39 70 98 0 66-23 100-70 100C84 3 66-7 56-30L54 0H23l1-261h32v101c10-23 28-34 59-34zm-8 174c40 0 45-34 45-75 0-40-5-75-45-74-42 0-51 32-51 76 0 43 10 73 51 73" id="aF"/><g id="s"><use transform="matrix(0.05,0,0,0.05,0,0)" xlink:href="#aF"/><use transform="matrix(0.05,0,0,0.05,10,0)" xlink:href="#al"/><use transform="matrix(0.05,0,0,0.05,13.949999999999998,0)" xlink:href="#ap"/><use transform="matrix(0.05,0,0,0.05,23.95,0)" xlink:href="#aC"/><use transform="matrix(0.05,0,0,0.05,27.899999999999995,0)" xlink:href="#al"/><use transform="matrix(0.05,0,0,0.05,31.849999999999994,0)" xlink:href="#ah"/><use transform="matrix(0.05,0,0,0.05,41.849999999999994,0)" xlink:href="#as"/><use transform="matrix(0.05,0,0,0.05,46.849999999999994,0)" xlink:href="#as"/><use transform="matrix(0.05,0,0,0.05,51.849999999999994,0)" xlink:href="#aj"/></g><g id="t"><use transform="matrix(0.05,0,0,0.05,0,0)" xlink:href="#az"/><use transform="matrix(0.05,0,0,0.05,5,0)" xlink:href="#aq"/><use transform="matrix(0.05,0,0,0.05,15,0)" xlink:href="#ag"/><use transform="matrix(0.05,0,0,0.05,20,0)" xlink:href="#aj"/></g><g id="u"><use transform="matrix(0.05,0,0,0.05,0,0)" xlink:href="#as"/><use transform="matrix(0.05,0,0,0.05,5,0)" xlink:href="#ai"/><use transform="matrix(0.05,0,0,0.05,10.95,0)" xlink:href="#ah"/><use transform="matrix(0.05,0,0,0.05,20.95,0)" xlink:href="#aq"/><use transform="matrix(0.05,0,0,0.05,30.950000000000003,0)" xlink:href="#aj"/></g><g id="v"><use transform="matrix(0.05,0,0,0.05,0,0)" xlink:href="#ax"/><use transform="matrix(0.05,0,0,0.05,9,0)" xlink:href="#av"/><use transform="matrix(0.05,0,0,0.05,18,0)" xlink:href="#ah"/><use transform="matrix(0.05,0,0,0.05,28,0)" xlink:href="#aC"/><use transform="matrix(0.05,0,0,0.05,31.950000000000003,0)" xlink:href="#as"/><use transform="matrix(0.05,0,0,0.05,36.95,0)" xlink:href="#aj"/></g><g id="w"><use transform="matrix(0.05,0,0,0.05,0,0)" xlink:href="#ax"/><use transform="matrix(0.05,0,0,0.05,9,0)" xlink:href="#as"/><use transform="matrix(0.05,0,0,0.05,14,0)" xlink:href="#am"/><use transform="matrix(0.05,0,0,0.05,24,0)" xlink:href="#as"/><use transform="matrix(0.05,0,0,0.05,29,0)" xlink:href="#aB"/><use transform="matrix(0.05,0,0,0.05,39,0)" xlink:href="#ax"/></g><path d="M143 4C61 4 22-44 18-125c-5-107 100-154 193-111 17 8 29 25 37 43l-32 9c-13-25-37-40-76-40-61 0-88 39-88 99 0 61 29 100 91 101 35 0 62-11 79-27v-45h-74v-28h105v86C228-13 192 4 143 4" id="aG"/><g id="x"><use transform="matrix(0.05,0,0,0.05,0,0)" xlink:href="#aG"/><use transform="matrix(0.05,0,0,0.05,14,0)" xlink:href="#ah"/><use transform="matrix(0.05,0,0,0.05,24,0)" xlink:href="#ax"/><use transform="matrix(0.05,0,0,0.05,33,0)" xlink:href="#as"/><use transform="matrix(0.05,0,0,0.05,38,0)" xlink:href="#al"/><use transform="matrix(0.05,0,0,0.05,41.95,0)" xlink:href="#aj"/><use transform="matrix(0.05,0,0,0.05,51.95,0)" xlink:href="#aq"/><use transform="matrix(0.05,0,0,0.05,61.95,0)" xlink:href="#ah"/></g><g id="y"><use transform="matrix(0.05,0,0,0.05,0,0)" xlink:href="#as"/><use transform="matrix(0.05,0,0,0.05,5,0)" xlink:href="#ai"/><use transform="matrix(0.05,0,0,0.05,10.95,0)" xlink:href="#ah"/><use transform="matrix(0.05,0,0,0.05,20.95,0)" xlink:href="#aq"/><use transform="matrix(0.05,0,0,0.05,30.950000000000003,0)" xlink:href="#al"/></g><path d="M197 0v-115H63V0H30v-248h33v105h134v-105h34V0h-34" id="aH"/><g id="z"><use transform="matrix(0.05,0,0,0.05,0,0)" xlink:href="#aH"/><use transform="matrix(0.05,0,0,0.05,12.950000000000001,0)" xlink:href="#aj"/><use transform="matrix(0.05,0,0,0.05,22.950000000000003,0)" xlink:href="#ao"/><use transform="matrix(0.05,0,0,0.05,37.900000000000006,0)" xlink:href="#ah"/><use transform="matrix(0.05,0,0,0.05,47.900000000000006,0)" xlink:href="#af"/><use transform="matrix(0.05,0,0,0.05,57.900000000000006,0)" xlink:href="#am"/><use transform="matrix(0.05,0,0,0.05,67.9,0)" xlink:href="#ap"/><use transform="matrix(0.05,0,0,0.05,77.9,0)" xlink:href="#ah"/></g><g id="A"><use transform="matrix(0.05,0,0,0.05,0,0)" xlink:href="#as"/><use transform="matrix(0.05,0,0,0.05,5,0)" xlink:href="#ai"/><use transform="matrix(0.05,0,0,0.05,10.95,0)" xlink:href="#am"/><use transform="matrix(0.05,0,0,0.05,20.95,0)" xlink:href="#as"/><use transform="matrix(0.05,0,0,0.05,25.950000000000003,0)" xlink:href="#as"/><use transform="matrix(0.05,0,0,0.05,30.950000000000003,0)" xlink:href="#ah"/></g><g id="B"><use transform="matrix(0.05,0,0,0.05,0,0)" xlink:href="#af"/><use transform="matrix(0.05,0,0,0.05,10,0)" xlink:href="#am"/><use transform="matrix(0.05,0,0,0.05,20,0)" xlink:href="#ap"/><use transform="matrix(0.05,0,0,0.05,30,0)" xlink:href="#am"/><use transform="matrix(0.05,0,0,0.05,40,0)" xlink:href="#ao"/><use transform="matrix(0.05,0,0,0.05,54.95,0)" xlink:href="#ah"/><use transform="matrix(0.05,0,0,0.05,64.95,0)" xlink:href="#aq"/><use transform="matrix(0.05,0,0,0.05,74.95,0)" xlink:href="#as"/><use transform="matrix(0.05,0,0,0.05,79.95,0)" xlink:href="#al"/></g><g id="C"><use transform="matrix(0.05,0,0,0.05,0,0)" xlink:href="#aF"/><use transform="matrix(0.05,0,0,0.05,10,0)" xlink:href="#al"/><use transform="matrix(0.05,0,0,0.05,13.949999999999998,0)" xlink:href="#ap"/><use transform="matrix(0.05,0,0,0.05,23.95,0)" xlink:href="#aC"/><use transform="matrix(0.05,0,0,0.05,27.899999999999995,0)" xlink:href="#al"/><use transform="matrix(0.05,0,0,0.05,31.849999999999994,0)" xlink:href="#ah"/><use transform="matrix(0.05,0,0,0.05,41.849999999999994,0)" xlink:href="#as"/><use transform="matrix(0.05,0,0,0.05,46.849999999999994,0)" xlink:href="#as"/><use transform="matrix(0.05,0,0,0.05,51.849999999999994,0)" xlink:href="#al"/></g><path d="M30 0v-248h187v28H63v79h144v27H63v87h162V0H30" id="aI"/><g id="D"><use transform="matrix(0.05,0,0,0.05,0,0)" xlink:href="#aI"/><use transform="matrix(0.05,0,0,0.05,12,0)" xlink:href="#aC"/><use transform="matrix(0.05,0,0,0.05,15.949999999999998,0)" xlink:href="#ah"/><use transform="matrix(0.05,0,0,0.05,25.950000000000003,0)" xlink:href="#aq"/><use transform="matrix(0.05,0,0,0.05,35.95,0)" xlink:href="#av"/><use transform="matrix(0.05,0,0,0.05,44.95,0)" xlink:href="#aj"/></g><g id="E"><use transform="matrix(0.05,0,0,0.05,0,0)" xlink:href="#as"/><use transform="matrix(0.05,0,0,0.05,5,0)" xlink:href="#ai"/><use transform="matrix(0.05,0,0,0.05,10.95,0)" xlink:href="#ah"/><use transform="matrix(0.05,0,0,0.05,20.95,0)" xlink:href="#aq"/><use transform="matrix(0.05,0,0,0.05,30.950000000000003,0)" xlink:href="#al"/></g><use transform="matrix(0.05,0,0,0.05,0,0)" xlink:href="#ah" id="F"/><g id="G"><use transform="matrix(0.05,0,0,0.05,0,0)" xlink:href="#aj"/><use transform="matrix(0.05,0,0,0.05,10,0)" xlink:href="#ai"/><use transform="matrix(0.05,0,0,0.05,15.949999999999998,0)" xlink:href="#am"/><use transform="matrix(0.05,0,0,0.05,25.950000000000003,0)" xlink:href="#ai"/><use transform="matrix(0.05,0,0,0.05,31.899999999999995,0)" xlink:href="#al"/></g><path d="M185-189c-5-48-123-54-124 2 14 75 158 14 163 119 3 78-121 87-175 55-17-10-28-26-33-46l33-7c5 56 141 63 141-1 0-78-155-14-162-118-5-82 145-84 179-34 5 7 8 16 11 25" id="aJ"/><g id="H"><use transform="matrix(0.05,0,0,0.05,0,0)" xlink:href="#aJ"/><use transform="matrix(0.05,0,0,0.05,12,0)" xlink:href="#as"/><use transform="matrix(0.05,0,0,0.05,17,0)" xlink:href="#am"/><use transform="matrix(0.05,0,0,0.05,27,0)" xlink:href="#as"/><use transform="matrix(0.05,0,0,0.05,32,0)" xlink:href="#aB"/><use transform="matrix(0.05,0,0,0.05,42,0)" xlink:href="#ax"/></g><g id="I"><use transform="matrix(0.05,0,0,0.05,0,0)" xlink:href="#aI"/><use transform="matrix(0.05,0,0,0.05,12,0)" xlink:href="#ax"/><use transform="matrix(0.05,0,0,0.05,21,0)" xlink:href="#as"/><use transform="matrix(0.05,0,0,0.05,26,0)" xlink:href="#ai"/><use transform="matrix(0.05,0,0,0.05,31.950000000000003,0)" xlink:href="#ah"/><use transform="matrix(0.05,0,0,0.05,41.95,0)" xlink:href="#ao"/><use transform="matrix(0.05,0,0,0.05,56.900000000000006,0)" xlink:href="#al"/></g><g id="J"><use transform="matrix(0.05,0,0,0.05,0,0)" xlink:href="#aD"/><use transform="matrix(0.05,0,0,0.05,10,0)" xlink:href="#al"/></g><g id="K"><use transform="matrix(0.05,0,0,0.05,0,0)" xlink:href="#af"/><use transform="matrix(0.05,0,0,0.05,10,0)" xlink:href="#am"/><use transform="matrix(0.05,0,0,0.05,20,0)" xlink:href="#ap"/><use transform="matrix(0.05,0,0,0.05,30,0)" xlink:href="#am"/><use transform="matrix(0.05,0,0,0.05,40,0)" xlink:href="#ao"/><use transform="matrix(0.05,0,0,0.05,54.95,0)" xlink:href="#ah"/><use transform="matrix(0.05,0,0,0.05,64.95,0)" xlink:href="#aq"/><use transform="matrix(0.05,0,0,0.05,74.95,0)" xlink:href="#as"/><use transform="matrix(0.05,0,0,0.05,79.95,0)" xlink:href="#aj"/></g><g id="L"><use transform="matrix(0.05,0,0,0.05,0,0)" xlink:href="#aA"/><use transform="matrix(0.05,0,0,0.05,12,0)" xlink:href="#aj"/><use transform="matrix(0.05,0,0,0.05,22,0)" xlink:href="#ax"/><use transform="matrix(0.05,0,0,0.05,31,0)" xlink:href="#al"/><use transform="matrix(0.05,0,0,0.05,34.95,0)" xlink:href="#ay"/><use transform="matrix(0.05,0,0,0.05,43.95,0)" xlink:href="#al"/><use transform="matrix(0.05,0,0,0.05,47.900000000000006,0)" xlink:href="#aj"/><use transform="matrix(0.05,0,0,0.05,57.900000000000006,0)" xlink:href="#aq"/><use transform="matrix(0.05,0,0,0.05,67.9,0)" xlink:href="#ah"/></g><g id="M"><use transform="matrix(0.05,0,0,0.05,0,0)" xlink:href="#aD"/><use transform="matrix(0.05,0,0,0.05,10,0)" xlink:href="#ah"/><use transform="matrix(0.05,0,0,0.05,20,0)" xlink:href="#aC"/></g><path d="M145-31C134-9 116 4 85 4 32 4 16-35 15-94c0-59 17-99 70-100 32-1 48 14 60 33 0-11-1-24 2-32h30l-1 268h-32zM93-21c41 0 51-33 51-76s-8-73-50-73c-40 0-46 35-46 75s5 74 45 74" id="aK"/><g id="N"><use transform="matrix(0.05,0,0,0.05,0,0)" xlink:href="#ae"/><use transform="matrix(0.05,0,0,0.05,12,0)" xlink:href="#av"/><use transform="matrix(0.05,0,0,0.05,21,0)" xlink:href="#aK"/><use transform="matrix(0.05,0,0,0.05,31,0)" xlink:href="#aB"/><use transform="matrix(0.05,0,0,0.05,41,0)" xlink:href="#al"/><use transform="matrix(0.05,0,0,0.05,44.95,0)" xlink:href="#ax"/><use transform="matrix(0.05,0,0,0.05,53.95,0)" xlink:href="#as"/><use transform="matrix(0.05,0,0,0.05,58.95,0)" xlink:href="#aj"/></g><g id="O"><use transform="matrix(0.05,0,0,0.05,0,0)" xlink:href="#an"/><use transform="matrix(0.05,0,0,0.05,12.950000000000001,0)" xlink:href="#aj"/><use transform="matrix(0.05,0,0,0.05,22.950000000000003,0)" xlink:href="#aq"/><use transform="matrix(0.05,0,0,0.05,32.95,0)" xlink:href="#ag"/><use transform="matrix(0.05,0,0,0.05,37.95,0)" xlink:href="#ah"/><use transform="matrix(0.05,0,0,0.05,47.95,0)" xlink:href="#ai"/><use transform="matrix(0.05,0,0,0.05,53.900000000000006,0)" xlink:href="#ao"/><use transform="matrix(0.05,0,0,0.05,68.85000000000001,0)" xlink:href="#am"/></g><g id="P"><use transform="matrix(0.05,0,0,0.05,0,0)" xlink:href="#am"/><use transform="matrix(0.05,0,0,0.05,10,0)" xlink:href="#av"/><use transform="matrix(0.05,0,0,0.05,19,0)" xlink:href="#aK"/><use transform="matrix(0.05,0,0,0.05,29,0)" xlink:href="#aB"/><use transform="matrix(0.05,0,0,0.05,39,0)" xlink:href="#al"/><use transform="matrix(0.05,0,0,0.05,42.95,0)" xlink:href="#ax"/><use transform="matrix(0.05,0,0,0.05,51.95,0)" xlink:href="#as"/><use transform="matrix(0.05,0,0,0.05,56.95,0)" xlink:href="#aj"/></g><g id="Q"><use transform="matrix(0.05,0,0,0.05,0,0)" xlink:href="#af"/><use transform="matrix(0.05,0,0,0.05,10,0)" xlink:href="#aj"/><use transform="matrix(0.05,0,0,0.05,20,0)" xlink:href="#ax"/><use transform="matrix(0.05,0,0,0.05,29,0)" xlink:href="#ay"/><use transform="matrix(0.05,0,0,0.05,38,0)" xlink:href="#al"/><use transform="matrix(0.05,0,0,0.05,41.95,0)" xlink:href="#aj"/><use transform="matrix(0.05,0,0,0.05,51.95,0)" xlink:href="#aq"/><use transform="matrix(0.05,0,0,0.05,61.95,0)" xlink:href="#ah"/></g><g id="R"><use transform="matrix(0.05,0,0,0.05,0,0)" xlink:href="#ai"/><use transform="matrix(0.05,0,0,0.05,5.95,0)" xlink:href="#al"/><use transform="matrix(0.05,0,0,0.05,9.9,0)" xlink:href="#as"/><use transform="matrix(0.05,0,0,0.05,14.9,0)" xlink:href="#am"/><use transform="matrix(0.05,0,0,0.05,24.9,0)" xlink:href="#ai"/><use transform="matrix(0.05,0,0,0.05,30.849999999999994,0)" xlink:href="#aD"/><use transform="matrix(0.05,0,0,0.05,40.849999999999994,0)" xlink:href="#aj"/></g><g id="S"><use transform="matrix(0.05,0,0,0.05,0,0)" xlink:href="#aC"/><use transform="matrix(0.05,0,0,0.05,3.95,0)" xlink:href="#al"/><use transform="matrix(0.05,0,0,0.05,7.9,0)" xlink:href="#ax"/><use transform="matrix(0.05,0,0,0.05,16.9,0)" xlink:href="#as"/><use transform="matrix(0.05,0,0,0.05,21.9,0)" xlink:href="#am"/></g><g id="T"><use transform="matrix(0.05,0,0,0.05,0,0)" xlink:href="#aD"/><use transform="matrix(0.05,0,0,0.05,10,0)" xlink:href="#al"/><use transform="matrix(0.05,0,0,0.05,13.949999999999998,0)" xlink:href="#ax"/><use transform="matrix(0.05,0,0,0.05,22.95,0)" xlink:href="#af"/><use transform="matrix(0.05,0,0,0.05,32.95,0)" xlink:href="#aj"/><use transform="matrix(0.05,0,0,0.05,42.95,0)" xlink:href="#aq"/><use transform="matrix(0.05,0,0,0.05,52.95,0)" xlink:href="#al"/><use transform="matrix(0.05,0,0,0.05,56.900000000000006,0)" xlink:href="#aF"/><use transform="matrix(0.05,0,0,0.05,66.9,0)" xlink:href="#al"/><use transform="matrix(0.05,0,0,0.05,70.85000000000001,0)" xlink:href="#aC"/><use transform="matrix(0.05,0,0,0.05,74.80000000000001,0)" xlink:href="#al"/></g><path d="M47-170H22l-4-78h33" id="aL"/><g id="U"><use transform="matrix(0.05,0,0,0.05,0,0)" xlink:href="#am"/><use transform="matrix(0.05,0,0,0.05,10,0)" xlink:href="#aC"/><use transform="matrix(0.05,0,0,0.05,13.949999999999998,0)" xlink:href="#aC"/><use transform="matrix(0.05,0,0,0.05,17.9,0)" xlink:href="#aL"/><use transform="matrix(0.05,0,0,0.05,21.299999999999997,0)" xlink:href="#am"/><use transform="matrix(0.05,0,0,0.05,31.299999999999997,0)" xlink:href="#av"/><use transform="matrix(0.05,0,0,0.05,40.3,0)" xlink:href="#aK"/><use transform="matrix(0.05,0,0,0.05,50.3,0)" xlink:href="#aB"/><use transform="matrix(0.05,0,0,0.05,60.29999999999999,0)" xlink:href="#al"/><use transform="matrix(0.05,0,0,0.05,64.25,0)" xlink:href="#ax"/><use transform="matrix(0.05,0,0,0.05,73.25,0)" xlink:href="#as"/><use transform="matrix(0.05,0,0,0.05,78.25,0)" xlink:href="#aj"/></g><g id="V"><use transform="matrix(0.05,0,0,0.05,0,0)" xlink:href="#ah"/><use transform="matrix(0.05,0,0,0.05,10,0)" xlink:href="#ax"/><use transform="matrix(0.05,0,0,0.05,19,0)" xlink:href="#as"/><use transform="matrix(0.05,0,0,0.05,24,0)" xlink:href="#ai"/><use transform="matrix(0.05,0,0,0.05,29.950000000000003,0)" xlink:href="#ah"/><use transform="matrix(0.05,0,0,0.05,39.95,0)" xlink:href="#ao"/><use transform="matrix(0.05,0,0,0.05,54.900000000000006,0)" xlink:href="#al"/></g><path d="M140-251c81 0 123 46 123 126C263-46 219 4 140 4 59 4 17-45 17-125s42-126 123-126zm0 227c63 0 89-41 89-101s-29-99-89-99c-61 0-89 39-89 99S79-25 140-24" id="aM"/><g id="W"><use transform="matrix(0.05,0,0,0.05,0,0)" xlink:href="#aM"/><use transform="matrix(0.05,0,0,0.05,14,0)" xlink:href="#ai"/><use transform="matrix(0.05,0,0,0.05,19.95,0)" xlink:href="#am"/><use transform="matrix(0.05,0,0,0.05,29.950000000000003,0)" xlink:href="#ai"/><use transform="matrix(0.05,0,0,0.05,35.9,0)" xlink:href="#al"/></g><g id="X"><use transform="matrix(0.05,0,0,0.05,0,0)" xlink:href="#at"/><use transform="matrix(0.05,0,0,0.05,10.3,0)" xlink:href="#ai"/><use transform="matrix(0.05,0,0,0.05,16.25,0)" xlink:href="#ah"/><use transform="matrix(0.05,0,0,0.05,26.25,0)" xlink:href="#aq"/><use transform="matrix(0.05,0,0,0.05,36.25,0)" xlink:href="#al"/></g><g id="Y"><use transform="matrix(0.05,0,0,0.05,0,0)" xlink:href="#aD"/><use transform="matrix(0.05,0,0,0.05,10,0)" xlink:href="#al"/><use transform="matrix(0.05,0,0,0.05,13.949999999999998,0)" xlink:href="#af"/><use transform="matrix(0.05,0,0,0.05,23.95,0)" xlink:href="#aj"/><use transform="matrix(0.05,0,0,0.05,33.95,0)" xlink:href="#aq"/><use transform="matrix(0.05,0,0,0.05,43.95,0)" xlink:href="#al"/><use transform="matrix(0.05,0,0,0.05,47.900000000000006,0)" xlink:href="#aF"/><use transform="matrix(0.05,0,0,0.05,57.900000000000006,0)" xlink:href="#al"/><use transform="matrix(0.05,0,0,0.05,61.85,0)" xlink:href="#aC"/><use transform="matrix(0.05,0,0,0.05,65.80000000000001,0)" xlink:href="#al"/></g><g id="Z"><use transform="matrix(0.05,0,0,0.05,0,0)" xlink:href="#aM"/><use transform="matrix(0.05,0,0,0.05,14,0)" xlink:href="#ai"/><use transform="matrix(0.05,0,0,0.05,19.95,0)" xlink:href="#am"/><use transform="matrix(0.05,0,0,0.05,29.950000000000003,0)" xlink:href="#ai"/><use transform="matrix(0.05,0,0,0.05,35.9,0)" xlink:href="#al"/><use transform="matrix(0.05,0,0,0.05,39.85,0)" xlink:href="#aj"/></g><g id="aa"><use transform="matrix(0.05,0,0,0.05,0,0)" xlink:href="#aD"/><use transform="matrix(0.05,0,0,0.05,10,0)" xlink:href="#ah"/><use transform="matrix(0.05,0,0,0.05,20,0)" xlink:href="#ax"/><use transform="matrix(0.05,0,0,0.05,29,0)" xlink:href="#al"/><use transform="matrix(0.05,0,0,0.05,32.95,0)" xlink:href="#aD"/><use transform="matrix(0.05,0,0,0.05,42.95,0)" xlink:href="#ah"/><use transform="matrix(0.05,0,0,0.05,52.95,0)" xlink:href="#ai"/><use transform="matrix(0.05,0,0,0.05,58.900000000000006,0)" xlink:href="#am"/><use transform="matrix(0.05,0,0,0.05,68.9,0)" xlink:href="#as"/><use transform="matrix(0.05,0,0,0.05,73.9,0)" xlink:href="#aj"/></g><g id="ab"><use transform="matrix(0.05,0,0,0.05,0,0)" xlink:href="#at"/><use transform="matrix(0.05,0,0,0.05,10.3,0)" xlink:href="#ai"/><use transform="matrix(0.05,0,0,0.05,16.25,0)" xlink:href="#am"/><use transform="matrix(0.05,0,0,0.05,26.25,0)" xlink:href="#as"/><use transform="matrix(0.05,0,0,0.05,31.25,0)" xlink:href="#as"/><use transform="matrix(0.05,0,0,0.05,36.25,0)" xlink:href="#am"/></g><g id="ac"><use transform="matrix(0.05,0,0,0.05,0,0)" xlink:href="#aD"/><use transform="matrix(0.05,0,0,0.05,10,0)" xlink:href="#ah"/><use transform="matrix(0.05,0,0,0.05,20,0)" xlink:href="#ax"/><use transform="matrix(0.05,0,0,0.05,29,0)" xlink:href="#al"/><use transform="matrix(0.05,0,0,0.05,32.95,0)" xlink:href="#aD"/><use transform="matrix(0.05,0,0,0.05,42.95,0)" xlink:href="#ah"/><use transform="matrix(0.05,0,0,0.05,52.95,0)" xlink:href="#ai"/><use transform="matrix(0.05,0,0,0.05,58.900000000000006,0)" xlink:href="#am"/><use transform="matrix(0.05,0,0,0.05,68.9,0)" xlink:href="#as"/><use transform="matrix(0.05,0,0,0.05,73.9,0)" xlink:href="#am"/></g><g id="ad"><use transform="matrix(0.05,0,0,0.05,0,0)" xlink:href="#aD"/><use transform="matrix(0.05,0,0,0.05,10,0)" xlink:href="#al"/><use transform="matrix(0.05,0,0,0.05,13.949999999999998,0)" xlink:href="#ax"/><use transform="matrix(0.05,0,0,0.05,22.95,0)" xlink:href="#af"/><use transform="matrix(0.05,0,0,0.05,32.95,0)" xlink:href="#aj"/><use transform="matrix(0.05,0,0,0.05,42.95,0)" xlink:href="#aq"/><use transform="matrix(0.05,0,0,0.05,52.95,0)" xlink:href="#al"/><use transform="matrix(0.05,0,0,0.05,56.900000000000006,0)" xlink:href="#aF"/><use transform="matrix(0.05,0,0,0.05,66.9,0)" xlink:href="#al"/><use transform="matrix(0.05,0,0,0.05,70.85000000000001,0)" xlink:href="#aC"/><use transform="matrix(0.05,0,0,0.05,74.80000000000001,0)" xlink:href="#ah"/></g></defs></g></svg>