<svg xmlns="http://www.w3.org/2000/svg" xmlns:xlink="http://www.w3.org/1999/xlink" xmlns:lucid="lucid" width="1760" height="1164"><g transform="translate(-60 -20)" lucid:page-tab-id="0_0"><path d="M87.34 740h345.32v242H87.34z" fill="none"/><use xlink:href="#a" transform="matrix(1,0,0,1,87.33650684901892,740) translate(0 14.4)"/><use xlink:href="#b" transform="matrix(1,0,0,1,87.33650684901892,740) translate(63 14.4)"/><use xlink:href="#c" transform="matrix(1,0,0,1,87.33650684901892,740) translate(0 36)"/><use xlink:href="#d" transform="matrix(1,0,0,1,87.33650684901892,740) translate(117.85000000000001 36)"/><use xlink:href="#e" transform="matrix(1,0,0,1,87.33650684901892,740) translate(133.35000000000002 36)"/><use xlink:href="#f" transform="matrix(1,0,0,1,87.33650684901892,740) translate(0 57.6)"/><use xlink:href="#a" transform="matrix(1,0,0,1,87.33650684901892,740) translate(0 79.20000000000002)"/><use xlink:href="#g" transform="matrix(1,0,0,1,87.33650684901892,740) translate(63 79.20000000000002)"/><use xlink:href="#c" transform="matrix(1,0,0,1,87.33650684901892,740) translate(0 100.80000000000001)"/><use xlink:href="#d" transform="matrix(1,0,0,1,87.33650684901892,740) translate(117.85000000000001 100.80000000000001)"/><use xlink:href="#e" transform="matrix(1,0,0,1,87.33650684901892,740) translate(133.35000000000002 100.80000000000001)"/><use xlink:href="#f" transform="matrix(1,0,0,1,87.33650684901892,740) translate(0 122.4)"/><use xlink:href="#a" transform="matrix(1,0,0,1,87.33650684901892,740) translate(0 144)"/><use xlink:href="#h" transform="matrix(1,0,0,1,87.33650684901892,740) translate(63 144)"/><use xlink:href="#c" transform="matrix(1,0,0,1,87.33650684901892,740) translate(0 165.6)"/><use xlink:href="#d" transform="matrix(1,0,0,1,87.33650684901892,740) translate(117.85000000000001 165.6)"/><use xlink:href="#i" transform="matrix(1,0,0,1,87.33650684901892,740) translate(133.35000000000002 165.6)"/><path d="M584.06 1091.67H920V1164H584.06z" fill="none"/><use xlink:href="#a" transform="matrix(1,0,0,1,584.0585946116629,1091.6748564760314) translate(0 29.299999999999997)"/><use xlink:href="#j" transform="matrix(1,0,0,1,584.0585946116629,1091.6748564760314) translate(63 29.299999999999997)"/><use xlink:href="#c" transform="matrix(1,0,0,1,584.0585946116629,1091.6748564760314) translate(0 50.9)"/><use xlink:href="#k" transform="matrix(1,0,0,1,584.0585946116629,1091.6748564760314) translate(117.85000000000001 50.9)"/><use xlink:href="#l" transform="matrix(1,0,0,1,584.0585946116629,1091.6748564760314) translate(133.35000000000002 50.9)"/><path d="M80 239.5h360v480H80z" stroke="#000" stroke-width="2" fill="#fff"/><path d="M80 277.1h360M80 487.4h360" stroke="#000" stroke-width="2" fill="none"/><use xlink:href="#m" transform="matrix(1,0,0,1,88,247.5) translate(154.525 14.6)"/><use xlink:href="#n" transform="matrix(1,0,0,1,92,285.1) translate(0 25.500000000000007)"/><use xlink:href="#o" transform="matrix(1,0,0,1,92,285.1) translate(0 47.10000000000001)"/><use xlink:href="#p" transform="matrix(1,0,0,1,92,285.1) translate(0 68.70000000000002)"/><use xlink:href="#q" transform="matrix(1,0,0,1,92,285.1) translate(0 90.30000000000003)"/><use xlink:href="#r" transform="matrix(1,0,0,1,92,285.1) translate(0 111.90000000000002)"/><use xlink:href="#s" transform="matrix(1,0,0,1,92,285.1) translate(0 133.5)"/><use xlink:href="#t" transform="matrix(1,0,0,1,92,285.1) translate(0 155.1)"/><use xlink:href="#u" transform="matrix(1,0,0,1,92,285.1) translate(0 176.70000000000002)"/><use xlink:href="#v" transform="matrix(1,0,0,1,92,495.4) translate(0 25.20000000000001)"/><use xlink:href="#w" transform="matrix(1,0,0,1,92,495.4) translate(0 46.80000000000001)"/><use xlink:href="#x" transform="matrix(1,0,0,1,92,495.4) translate(0 68.40000000000002)"/><use xlink:href="#y" transform="matrix(1,0,0,1,92,495.4) translate(0 90.00000000000003)"/><use xlink:href="#z" transform="matrix(1,0,0,1,92,495.4) translate(0 111.60000000000002)"/><use xlink:href="#A" transform="matrix(1,0,0,1,92,495.4) translate(0 133.20000000000002)"/><use xlink:href="#B" transform="matrix(1,0,0,1,92,495.4) translate(0 154.8)"/><use xlink:href="#C" transform="matrix(1,0,0,1,92,495.4) translate(0 176.4)"/><use xlink:href="#D" transform="matrix(1,0,0,1,92,495.4) translate(0 198)"/><path d="M560 380h360v199H560z" stroke="#000" stroke-width="2" fill="#fff"/><path d="M560 417.6h360M560 519.9h360" stroke="#000" stroke-width="2" fill="none"/><use xlink:href="#E" transform="matrix(1,0,0,1,568,388) translate(125.55 14.6)"/><use xlink:href="#F" transform="matrix(1,0,0,1,572,425.6) translate(0 25.5)"/><use xlink:href="#G" transform="matrix(1,0,0,1,572,425.6) translate(0 47.1)"/><use xlink:href="#H" transform="matrix(1,0,0,1,572,425.6) translate(0 68.7)"/><path d="M442 479.5h116" stroke="#000" stroke-width="2" fill="none"/><path d="M442.03 480.5H441v-2h1.03zM559 480.5h-1.03v-2H559z"/><use xlink:href="#I" transform="matrix(1,0,0,1,441.92562496664135,483.49999999999994) translate(0 14.4)"/><use xlink:href="#J" transform="matrix(1,0,0,1,526.1329670151283,453.9) translate(0 14.4)"/><path d="M943.25 386.27l74.84-34.33" stroke="#000" stroke-width="2" fill="none"/><path d="M922.8 395.66l14.24-20.54 10.6 23.13z" stroke="#000" stroke-width="2" fill="#fff"/><path d="M1019 352.62l-.52.24-.83-1.82 1.35-.62z"/><path d="M1020 180h360v177h-360z" stroke="#000" stroke-width="2" fill="#fff"/><path d="M1020 217.6h360m-360 80.7h360" stroke="#000" stroke-width="2" fill="none"/><use xlink:href="#K" transform="matrix(1,0,0,1,1028,188) translate(102.675 14.6)"/><use xlink:href="#L" transform="matrix(1,0,0,1,1032,225.6) translate(0 25.299999999999997)"/><use xlink:href="#M" transform="matrix(1,0,0,1,1032,225.6) translate(0 46.9)"/><path d="M945.48 483.52l72.52 1.42" stroke="#000" stroke-width="2" fill="none"/><path d="M922.96 483.08l21.77-12.3-.5 25.44z" stroke="#000" stroke-width="2" fill="#fff"/><path d="M1019 483.96v2l-1.05-.02.04-2z"/><path d="M1020 400h360v177h-360z" stroke="#000" stroke-width="2" fill="#fff"/><path d="M1020 437.6h360m-360 80.7h360" stroke="#000" stroke-width="2" fill="none"/><g><use xlink:href="#N" transform="matrix(1,0,0,1,1028,408) translate(141.05 14.6)"/></g><g><use xlink:href="#O" transform="matrix(1,0,0,1,1032,445.6) translate(0 25.299999999999997)"/><use xlink:href="#P" transform="matrix(1,0,0,1,1032,445.6) translate(0 46.9)"/></g><path d="M560 655h360v177H560z" stroke="#000" stroke-width="2" fill="#fff"/><path d="M560 692.6h360m-360 80.7h360" stroke="#000" stroke-width="2" fill="none"/><g><use xlink:href="#Q" transform="matrix(1,0,0,1,568,663) translate(115.07499999999999 14.6)"/></g><g><use xlink:href="#R" transform="matrix(1,0,0,1,572,700.6) translate(0 25.299999999999997)"/><use xlink:href="#S" transform="matrix(1,0,0,1,572,700.6) translate(0 46.9)"/></g><path d="M1020 620h360v156h-360z" stroke="#000" stroke-width="2" fill="#fff"/><path d="M1020 657.6h360m-360 59.1h360" stroke="#000" stroke-width="2" fill="none"/><g><use xlink:href="#T" transform="matrix(1,0,0,1,1028,627.9999999999999) translate(124.07499999999999 14.6)"/></g><g><use xlink:href="#U" transform="matrix(1,0,0,1,1032,665.5999999999999) translate(0 25.6)"/></g><path d="M1032.78 618.57l-89.67-42.6" stroke="#000" stroke-width="2" fill="none"/><path d="M1036 619h-3.45l.64-1.34z"/><path d="M922.77 566.32l24.9-2.26-10.92 23zM1440 180h360v177h-360z" stroke="#000" stroke-width="2" fill="#fff"/><path d="M1440 217.6h360m-360 80.7h360" stroke="#000" stroke-width="2" fill="none"/><g><use xlink:href="#V" transform="matrix(1,0,0,1,1448,188) translate(87.625 14.6)"/></g><g><use xlink:href="#W" transform="matrix(1,0,0,1,1452,225.6) translate(0 25.299999999999997)"/><use xlink:href="#X" transform="matrix(1,0,0,1,1452,225.6) translate(0 46.9)"/></g><path d="M1440 400h360v177h-360z" stroke="#000" stroke-width="2" fill="#fff"/><path d="M1440 437.6h360m-360 80.7h360" stroke="#000" stroke-width="2" fill="none"/><g><use xlink:href="#Y" transform="matrix(1,0,0,1,1448,408) translate(147.5 14.6)"/></g><g><use xlink:href="#Z" transform="matrix(1,0,0,1,1452,445.6) translate(0 25.299999999999997)"/><use xlink:href="#aa" transform="matrix(1,0,0,1,1452,445.6) translate(0 46.9)"/></g><path d="M560 40h360v264H560z" stroke="#000" stroke-width="2" fill="#fff"/><path d="M560 77.6h360M560 244.7h360" stroke="#000" stroke-width="2" fill="none"/><g><use xlink:href="#ab" transform="matrix(1,0,0,1,568,48) translate(154.5 14.6)"/></g><g><use xlink:href="#ac" transform="matrix(1,0,0,1,572,85.6) translate(0 25.6)"/><use xlink:href="#ad" transform="matrix(1,0,0,1,572,85.6) translate(0 47.2)"/><use xlink:href="#ae" transform="matrix(1,0,0,1,572,85.6) translate(0 68.80000000000001)"/><use xlink:href="#af" transform="matrix(1,0,0,1,572,85.6) translate(0 90.40000000000002)"/><use xlink:href="#ag" transform="matrix(1,0,0,1,572,85.6) translate(0 112.00000000000001)"/><use xlink:href="#ah" transform="matrix(1,0,0,1,572,85.6) translate(0 133.6)"/></g><path d="M1440 620h360v242h-360z" stroke="#000" stroke-width="2" fill="#fff"/><path d="M1440 657.6h360m-360 145.5h360" stroke="#000" stroke-width="2" fill="none"/><g><use xlink:href="#ai" transform="matrix(1,0,0,1,1448,628) translate(140.025 14.6)"/></g><g><use xlink:href="#aj" transform="matrix(1,0,0,1,1452,665.6) translate(0 25.39999999999999)"/><use xlink:href="#ak" transform="matrix(1,0,0,1,1452,665.6) translate(0 46.99999999999999)"/><use xlink:href="#al" transform="matrix(1,0,0,1,1452,665.6) translate(0 68.6)"/><use xlink:href="#am" transform="matrix(1,0,0,1,1452,665.6) translate(0 90.20000000000002)"/><use xlink:href="#an" transform="matrix(1,0,0,1,1452,665.6) translate(0 111.80000000000001)"/></g><path d="M560 920h360v156H560z" stroke="#000" stroke-width="2" fill="#fff"/><path d="M560 957.6h360m-360 59.1h360" stroke="#000" stroke-width="2" fill="none"/><g><use xlink:href="#ao" transform="matrix(1,0,0,1,568,928) translate(143.525 14.6)"/></g><g><use xlink:href="#ap" transform="matrix(1,0,0,1,572,965.6) translate(0 25.6)"/></g><g><use xlink:href="#aq" transform="matrix(1,0,0,1,572,1024.7) translate(0 25.6)"/></g><defs><path d="M96-169c-40 0-48 33-48 73s9 75 48 75c24 0 41-14 43-38l32 2c-6 37-31 61-74 61-59 0-76-41-82-99-10-93 101-131 147-64 4 7 5 14 7 22l-32 3c-4-21-16-35-41-35" id="ar"/><path d="M100-194c62-1 85 37 85 99 1 63-27 99-86 99S16-35 15-95c0-66 28-99 85-99zM99-20c44 1 53-31 53-75 0-43-8-75-51-75s-53 32-53 75 10 74 51 75" id="as"/><path d="M117-194c89-4 53 116 60 194h-32v-121c0-31-8-49-39-48C34-167 62-67 57 0H25l-1-190h30c1 10-1 24 2 32 11-22 29-35 61-36" id="at"/><path d="M59-47c-2 24 18 29 38 22v24C64 9 27 4 27-40v-127H5v-23h24l9-43h21v43h35v23H59v120" id="au"/><path d="M100-194c63 0 86 42 84 106H49c0 40 14 67 53 68 26 1 43-12 49-29l28 8c-11 28-37 45-77 45C44 4 14-33 15-96c1-61 26-98 85-98zm52 81c6-60-76-77-97-28-3 7-6 17-6 28h103" id="av"/><path d="M141 0L90-78 38 0H4l68-98-65-92h35l48 74 47-74h35l-64 92 68 98h-35" id="aw"/><g id="a"><use transform="matrix(0.05,0,0,0.05,0,0)" xlink:href="#ar"/><use transform="matrix(0.05,0,0,0.05,9,0)" xlink:href="#as"/><use transform="matrix(0.05,0,0,0.05,19,0)" xlink:href="#at"/><use transform="matrix(0.05,0,0,0.05,29,0)" xlink:href="#au"/><use transform="matrix(0.05,0,0,0.05,34,0)" xlink:href="#av"/><use transform="matrix(0.05,0,0,0.05,44,0)" xlink:href="#aw"/><use transform="matrix(0.05,0,0,0.05,53,0)" xlink:href="#au"/></g><path d="M84 4C-5 8 30-112 23-190h32v120c0 31 7 50 39 49 72-2 45-101 50-169h31l1 190h-30c-1-10 1-25-2-33-11 22-28 36-60 37" id="ax"/><path d="M135-143c-3-34-86-38-87 0 15 53 115 12 119 90S17 21 10-45l28-5c4 36 97 45 98 0-10-56-113-15-118-90-4-57 82-63 122-42 12 7 21 19 24 35" id="ay"/><path d="M114-163C36-179 61-72 57 0H25l-1-190h30c1 12-1 29 2 39 6-27 23-49 58-41v29" id="az"/><path d="M33-154v-36h34v36H33zM33 0v-36h34V0H33" id="aA"/><path d="M210-169c-67 3-38 105-44 169h-31v-121c0-29-5-50-35-48C34-165 62-65 56 0H25l-1-190h30c1 10-1 24 2 32 10-44 99-50 107 0 11-21 27-35 58-36 85-2 47 119 55 194h-31v-121c0-29-5-49-35-48" id="aB"/><path d="M141-36C126-15 110 5 73 4 37 3 15-17 15-53c-1-64 63-63 125-63 3-35-9-54-41-54-24 1-41 7-42 31l-33-3c5-37 33-52 76-52 45 0 72 20 72 64v82c-1 20 7 32 28 27v20c-31 9-61-2-59-35zM48-53c0 20 12 33 32 33 41-3 63-29 60-74-43 2-92-5-92 41" id="aC"/><path d="M143 0L79-87 56-68V0H24v-261h32v163l83-92h37l-77 82L181 0h-38" id="aD"/><path d="M160-131c35 5 61 23 61 61C221 17 115-2 30 0v-248c76 3 177-17 177 60 0 33-19 50-47 57zm-97-11c50-1 110 9 110-42 0-47-63-36-110-37v79zm0 115c55-2 124 14 124-45 0-56-70-42-124-44v89" id="aE"/><path d="M24-231v-30h32v30H24zM24 0v-190h32V0H24" id="aF"/><path d="M101-234c-31-9-42 10-38 44h38v23H63V0H32v-167H5v-23h27c-7-52 17-82 69-68v24" id="aG"/><path d="M87 75C49 33 22-17 22-94c0-76 28-126 65-167h31c-38 41-64 92-64 168S80 34 118 75H87" id="aH"/><path d="M33-261c38 41 65 92 65 168S71 34 33 75H2C39 34 66-17 66-93S39-220 2-261h31" id="aI"/><g id="b"><use transform="matrix(0.05,0,0,0.05,0,0)" xlink:href="#ax"/><use transform="matrix(0.05,0,0,0.05,10,0)" xlink:href="#ay"/><use transform="matrix(0.05,0,0,0.05,19,0)" xlink:href="#av"/><use transform="matrix(0.05,0,0,0.05,29,0)" xlink:href="#az"/><use transform="matrix(0.05,0,0,0.05,34.95,0)" xlink:href="#aA"/><use transform="matrix(0.05,0,0,0.05,39.95,0)" xlink:href="#aA"/><use transform="matrix(0.05,0,0,0.05,44.95,0)" xlink:href="#aB"/><use transform="matrix(0.05,0,0,0.05,59.900000000000006,0)" xlink:href="#aC"/><use transform="matrix(0.05,0,0,0.05,69.9,0)" xlink:href="#aD"/><use transform="matrix(0.05,0,0,0.05,78.9,0)" xlink:href="#av"/><use transform="matrix(0.05,0,0,0.05,88.9,0)" xlink:href="#aE"/><use transform="matrix(0.05,0,0,0.05,100.9,0)" xlink:href="#as"/><use transform="matrix(0.05,0,0,0.05,110.9,0)" xlink:href="#at"/><use transform="matrix(0.05,0,0,0.05,120.9,0)" xlink:href="#aF"/><use transform="matrix(0.05,0,0,0.05,124.85000000000001,0)" xlink:href="#aG"/><use transform="matrix(0.05,0,0,0.05,129.85000000000002,0)" xlink:href="#aF"/><use transform="matrix(0.05,0,0,0.05,133.8,0)" xlink:href="#ar"/><use transform="matrix(0.05,0,0,0.05,142.8,0)" xlink:href="#as"/><use transform="matrix(0.05,0,0,0.05,152.8,0)" xlink:href="#aH"/><use transform="matrix(0.05,0,0,0.05,158.75,0)" xlink:href="#aI"/></g><path d="M115-194c55 1 70 41 70 98S169 2 115 4C84 4 66-9 55-30l1 105H24l-1-265h31l2 30c10-21 28-34 59-34zm-8 174c40 0 45-34 45-75s-6-73-45-74c-42 0-51 32-51 76 0 43 10 73 51 73" id="aJ"/><path d="M33 0v-38h34V0H33" id="aK"/><path d="M24 0v-261h32V0H24" id="aL"/><path d="M85-194c31 0 48 13 60 33l-1-100h32l1 261h-30c-2-10 0-23-3-31C134-8 116 4 85 4 32 4 16-35 15-94c0-66 23-100 70-100zm9 24c-40 0-46 34-46 75 0 40 6 74 45 74 42 0 51-32 51-76 0-42-9-74-50-73" id="aM"/><g id="c"><use transform="matrix(0.05,0,0,0.05,0,0)" xlink:href="#aJ"/><use transform="matrix(0.05,0,0,0.05,10,0)" xlink:href="#az"/><use transform="matrix(0.05,0,0,0.05,15.949999999999998,0)" xlink:href="#av"/><use transform="matrix(0.05,0,0,0.05,25.950000000000003,0)" xlink:href="#aA"/><use transform="matrix(0.05,0,0,0.05,30.950000000000003,0)" xlink:href="#ax"/><use transform="matrix(0.05,0,0,0.05,40.95,0)" xlink:href="#ay"/><use transform="matrix(0.05,0,0,0.05,49.95,0)" xlink:href="#av"/><use transform="matrix(0.05,0,0,0.05,59.95,0)" xlink:href="#az"/><use transform="matrix(0.05,0,0,0.05,64.9,0)" xlink:href="#aK"/><use transform="matrix(0.05,0,0,0.05,69.9,0)" xlink:href="#ay"/><use transform="matrix(0.05,0,0,0.05,78.9,0)" xlink:href="#aC"/><use transform="matrix(0.05,0,0,0.05,88.9,0)" xlink:href="#aL"/><use transform="matrix(0.05,0,0,0.05,92.85000000000001,0)" xlink:href="#aM"/><use transform="matrix(0.05,0,0,0.05,102.85000000000001,0)" xlink:href="#as"/></g><path d="M18-27v-27l151-64-151-65v-27l175 74v36" id="aN"/><use transform="matrix(0.05,0,0,0.05,0,0)" xlink:href="#aN" id="d"/><path d="M177-190C167-65 218 103 67 71c-23-6-38-20-44-43l32-5c15 47 100 32 89-28v-30C133-14 115 1 83 1 29 1 15-40 15-95c0-56 16-97 71-98 29-1 48 16 59 35 1-10 0-23 2-32h30zM94-22c36 0 50-32 50-73 0-42-14-75-50-75-39 0-46 34-46 75s6 73 46 73" id="aO"/><path d="M240 0l2-218c-23 76-54 145-80 218h-23L58-218 59 0H30v-248h44l77 211c21-75 51-140 76-211h43V0h-30" id="aP"/><g id="e"><use transform="matrix(0.05,0,0,0.05,0,0)" xlink:href="#ay"/><use transform="matrix(0.05,0,0,0.05,9,0)" xlink:href="#as"/><use transform="matrix(0.05,0,0,0.05,19,0)" xlink:href="#aO"/><use transform="matrix(0.05,0,0,0.05,29,0)" xlink:href="#aL"/><use transform="matrix(0.05,0,0,0.05,32.95,0)" xlink:href="#aF"/><use transform="matrix(0.05,0,0,0.05,36.900000000000006,0)" xlink:href="#aC"/><use transform="matrix(0.05,0,0,0.05,46.900000000000006,0)" xlink:href="#aP"/><use transform="matrix(0.05,0,0,0.05,61.85,0)" xlink:href="#aF"/><use transform="matrix(0.05,0,0,0.05,65.80000000000001,0)" xlink:href="#at"/><use transform="matrix(0.05,0,0,0.05,75.80000000000001,0)" xlink:href="#aF"/><use transform="matrix(0.05,0,0,0.05,79.75000000000001,0)" xlink:href="#aB"/><use transform="matrix(0.05,0,0,0.05,94.70000000000002,0)" xlink:href="#aC"/></g><path d="M233-177c-1 41-23 64-60 70L243 0h-38l-65-103H63V0H30v-248c88 3 205-21 203 71zM63-129c60-2 137 13 137-47 0-61-80-42-137-45v92" id="aQ"/><path d="M127-220V0H93v-220H8v-28h204v28h-85" id="aR"/><g id="g"><use transform="matrix(0.05,0,0,0.05,0,0)" xlink:href="#ax"/><use transform="matrix(0.05,0,0,0.05,10,0)" xlink:href="#ay"/><use transform="matrix(0.05,0,0,0.05,19,0)" xlink:href="#av"/><use transform="matrix(0.05,0,0,0.05,29,0)" xlink:href="#az"/><use transform="matrix(0.05,0,0,0.05,34.95,0)" xlink:href="#aA"/><use transform="matrix(0.05,0,0,0.05,39.95,0)" xlink:href="#aA"/><use transform="matrix(0.05,0,0,0.05,44.95,0)" xlink:href="#aB"/><use transform="matrix(0.05,0,0,0.05,59.900000000000006,0)" xlink:href="#aC"/><use transform="matrix(0.05,0,0,0.05,69.9,0)" xlink:href="#aD"/><use transform="matrix(0.05,0,0,0.05,78.9,0)" xlink:href="#av"/><use transform="matrix(0.05,0,0,0.05,88.9,0)" xlink:href="#aQ"/><use transform="matrix(0.05,0,0,0.05,101.85000000000001,0)" xlink:href="#aF"/><use transform="matrix(0.05,0,0,0.05,105.80000000000001,0)" xlink:href="#ar"/><use transform="matrix(0.05,0,0,0.05,114.80000000000001,0)" xlink:href="#aC"/><use transform="matrix(0.05,0,0,0.05,124.80000000000001,0)" xlink:href="#az"/><use transform="matrix(0.05,0,0,0.05,130.75,0)" xlink:href="#aF"/><use transform="matrix(0.05,0,0,0.05,134.7,0)" xlink:href="#ar"/><use transform="matrix(0.05,0,0,0.05,143.7,0)" xlink:href="#aC"/><use transform="matrix(0.05,0,0,0.05,153.7,0)" xlink:href="#aR"/><use transform="matrix(0.05,0,0,0.05,162.64999999999998,0)" xlink:href="#av"/><use transform="matrix(0.05,0,0,0.05,172.64999999999998,0)" xlink:href="#aL"/><use transform="matrix(0.05,0,0,0.05,176.59999999999997,0)" xlink:href="#av"/><use transform="matrix(0.05,0,0,0.05,186.59999999999997,0)" xlink:href="#aG"/><use transform="matrix(0.05,0,0,0.05,191.59999999999997,0)" xlink:href="#as"/><use transform="matrix(0.05,0,0,0.05,201.59999999999997,0)" xlink:href="#at"/><use transform="matrix(0.05,0,0,0.05,211.59999999999997,0)" xlink:href="#aF"/><use transform="matrix(0.05,0,0,0.05,215.54999999999995,0)" xlink:href="#ar"/><use transform="matrix(0.05,0,0,0.05,224.54999999999995,0)" xlink:href="#aC"/><use transform="matrix(0.05,0,0,0.05,234.54999999999995,0)" xlink:href="#aH"/><use transform="matrix(0.05,0,0,0.05,240.49999999999991,0)" xlink:href="#aI"/></g><path d="M179-190L93 31C79 59 56 82 12 73V49c39 6 53-20 64-50L1-190h34L92-34l54-156h33" id="aS"/><path d="M232-93c-1 65-40 97-104 97C67 4 28-28 28-90v-158h33c8 89-33 224 67 224 102 0 64-133 71-224h33v155" id="aT"/><g id="h"><use transform="matrix(0.05,0,0,0.05,0,0)" xlink:href="#ax"/><use transform="matrix(0.05,0,0,0.05,10,0)" xlink:href="#ay"/><use transform="matrix(0.05,0,0,0.05,19,0)" xlink:href="#av"/><use transform="matrix(0.05,0,0,0.05,29,0)" xlink:href="#az"/><use transform="matrix(0.05,0,0,0.05,34.95,0)" xlink:href="#aA"/><use transform="matrix(0.05,0,0,0.05,39.95,0)" xlink:href="#aA"/><use transform="matrix(0.05,0,0,0.05,44.95,0)" xlink:href="#ay"/><use transform="matrix(0.05,0,0,0.05,53.95,0)" xlink:href="#av"/><use transform="matrix(0.05,0,0,0.05,63.95,0)" xlink:href="#at"/><use transform="matrix(0.05,0,0,0.05,73.95,0)" xlink:href="#aM"/><use transform="matrix(0.05,0,0,0.05,83.95,0)" xlink:href="#aP"/><use transform="matrix(0.05,0,0,0.05,98.9,0)" xlink:href="#as"/><use transform="matrix(0.05,0,0,0.05,108.9,0)" xlink:href="#at"/><use transform="matrix(0.05,0,0,0.05,118.9,0)" xlink:href="#av"/><use transform="matrix(0.05,0,0,0.05,128.9,0)" xlink:href="#aS"/><use transform="matrix(0.05,0,0,0.05,137.9,0)" xlink:href="#aR"/><use transform="matrix(0.05,0,0,0.05,146.85,0)" xlink:href="#as"/><use transform="matrix(0.05,0,0,0.05,156.85,0)" xlink:href="#aT"/><use transform="matrix(0.05,0,0,0.05,169.79999999999998,0)" xlink:href="#ay"/><use transform="matrix(0.05,0,0,0.05,178.79999999999998,0)" xlink:href="#av"/><use transform="matrix(0.05,0,0,0.05,188.79999999999998,0)" xlink:href="#az"/><use transform="matrix(0.05,0,0,0.05,194.74999999999997,0)" xlink:href="#aH"/><use transform="matrix(0.05,0,0,0.05,200.69999999999996,0)" xlink:href="#aI"/></g><g id="i"><use transform="matrix(0.05,0,0,0.05,0,0)" xlink:href="#ay"/><use transform="matrix(0.05,0,0,0.05,9,0)" xlink:href="#as"/><use transform="matrix(0.05,0,0,0.05,19,0)" xlink:href="#aO"/><use transform="matrix(0.05,0,0,0.05,29,0)" xlink:href="#aL"/><use transform="matrix(0.05,0,0,0.05,32.95,0)" xlink:href="#aF"/><use transform="matrix(0.05,0,0,0.05,36.900000000000006,0)" xlink:href="#aC"/><use transform="matrix(0.05,0,0,0.05,46.900000000000006,0)" xlink:href="#aP"/><use transform="matrix(0.05,0,0,0.05,61.85,0)" xlink:href="#aF"/><use transform="matrix(0.05,0,0,0.05,65.80000000000001,0)" xlink:href="#at"/><use transform="matrix(0.05,0,0,0.05,75.80000000000001,0)" xlink:href="#aF"/><use transform="matrix(0.05,0,0,0.05,79.75000000000001,0)" xlink:href="#aB"/><use transform="matrix(0.05,0,0,0.05,94.70000000000002,0)" xlink:href="#aC"/></g><g id="j"><use transform="matrix(0.05,0,0,0.05,0,0)" xlink:href="#ay"/><use transform="matrix(0.05,0,0,0.05,9,0)" xlink:href="#aS"/><use transform="matrix(0.05,0,0,0.05,18,0)" xlink:href="#ay"/><use transform="matrix(0.05,0,0,0.05,27,0)" xlink:href="#au"/><use transform="matrix(0.05,0,0,0.05,32,0)" xlink:href="#av"/><use transform="matrix(0.05,0,0,0.05,42,0)" xlink:href="#aB"/><use transform="matrix(0.05,0,0,0.05,56.95,0)" xlink:href="#aA"/><use transform="matrix(0.05,0,0,0.05,61.95,0)" xlink:href="#aA"/><use transform="matrix(0.05,0,0,0.05,66.95,0)" xlink:href="#ay"/><use transform="matrix(0.05,0,0,0.05,75.95,0)" xlink:href="#av"/><use transform="matrix(0.05,0,0,0.05,85.95,0)" xlink:href="#at"/><use transform="matrix(0.05,0,0,0.05,95.95,0)" xlink:href="#aM"/><use transform="matrix(0.05,0,0,0.05,105.95,0)" xlink:href="#aP"/><use transform="matrix(0.05,0,0,0.05,120.9,0)" xlink:href="#av"/><use transform="matrix(0.05,0,0,0.05,130.9,0)" xlink:href="#ay"/><use transform="matrix(0.05,0,0,0.05,139.9,0)" xlink:href="#ay"/><use transform="matrix(0.05,0,0,0.05,148.9,0)" xlink:href="#aC"/><use transform="matrix(0.05,0,0,0.05,158.9,0)" xlink:href="#aO"/><use transform="matrix(0.05,0,0,0.05,168.9,0)" xlink:href="#av"/><use transform="matrix(0.05,0,0,0.05,178.9,0)" xlink:href="#aH"/><use transform="matrix(0.05,0,0,0.05,184.85,0)" xlink:href="#aI"/></g><path d="M18-100v-36l175-74v27L42-118l151 64v27" id="aU"/><use transform="matrix(0.05,0,0,0.05,0,0)" xlink:href="#aU" id="k"/><g id="l"><use transform="matrix(0.05,0,0,0.05,0,0)" xlink:href="#ay"/><use transform="matrix(0.05,0,0,0.05,9,0)" xlink:href="#aS"/><use transform="matrix(0.05,0,0,0.05,18,0)" xlink:href="#ay"/><use transform="matrix(0.05,0,0,0.05,27,0)" xlink:href="#au"/><use transform="matrix(0.05,0,0,0.05,32,0)" xlink:href="#av"/><use transform="matrix(0.05,0,0,0.05,42,0)" xlink:href="#aB"/><use transform="matrix(0.05,0,0,0.05,56.95,0)" xlink:href="#aK"/><use transform="matrix(0.05,0,0,0.05,61.95,0)" xlink:href="#ay"/><use transform="matrix(0.05,0,0,0.05,70.95,0)" xlink:href="#as"/><use transform="matrix(0.05,0,0,0.05,80.95,0)" xlink:href="#aO"/><use transform="matrix(0.05,0,0,0.05,90.95,0)" xlink:href="#aL"/><use transform="matrix(0.05,0,0,0.05,94.9,0)" xlink:href="#aF"/><use transform="matrix(0.05,0,0,0.05,98.85000000000001,0)" xlink:href="#aC"/><use transform="matrix(0.05,0,0,0.05,108.85000000000001,0)" xlink:href="#aP"/><use transform="matrix(0.05,0,0,0.05,123.80000000000001,0)" xlink:href="#aF"/><use transform="matrix(0.05,0,0,0.05,127.75,0)" xlink:href="#at"/><use transform="matrix(0.05,0,0,0.05,137.75,0)" xlink:href="#aF"/><use transform="matrix(0.05,0,0,0.05,141.7,0)" xlink:href="#aB"/><use transform="matrix(0.05,0,0,0.05,156.64999999999998,0)" xlink:href="#aC"/></g><g id="m"><use transform="matrix(0.05,0,0,0.05,0,0)" xlink:href="#ax"/><use transform="matrix(0.05,0,0,0.05,10,0)" xlink:href="#ay"/><use transform="matrix(0.05,0,0,0.05,19,0)" xlink:href="#av"/><use transform="matrix(0.05,0,0,0.05,29,0)" xlink:href="#az"/></g><g id="n"><use transform="matrix(0.05,0,0,0.05,0,0)" xlink:href="#at"/><use transform="matrix(0.05,0,0,0.05,10,0)" xlink:href="#aC"/><use transform="matrix(0.05,0,0,0.05,20,0)" xlink:href="#aB"/><use transform="matrix(0.05,0,0,0.05,34.95,0)" xlink:href="#av"/><use transform="matrix(0.05,0,0,0.05,44.95,0)" xlink:href="#aA"/><use transform="matrix(0.05,0,0,0.05,49.95,0)" xlink:href="#ay"/><use transform="matrix(0.05,0,0,0.05,58.95,0)" xlink:href="#au"/><use transform="matrix(0.05,0,0,0.05,63.95,0)" xlink:href="#az"/><use transform="matrix(0.05,0,0,0.05,69.9,0)" xlink:href="#aF"/><use transform="matrix(0.05,0,0,0.05,73.85000000000001,0)" xlink:href="#at"/><use transform="matrix(0.05,0,0,0.05,83.85000000000001,0)" xlink:href="#aO"/></g><g id="o"><use transform="matrix(0.05,0,0,0.05,0,0)" xlink:href="#ay"/><use transform="matrix(0.05,0,0,0.05,9,0)" xlink:href="#ax"/><use transform="matrix(0.05,0,0,0.05,19,0)" xlink:href="#az"/><use transform="matrix(0.05,0,0,0.05,24.95,0)" xlink:href="#at"/><use transform="matrix(0.05,0,0,0.05,34.95,0)" xlink:href="#aC"/><use transform="matrix(0.05,0,0,0.05,44.95,0)" xlink:href="#aB"/><use transform="matrix(0.05,0,0,0.05,59.900000000000006,0)" xlink:href="#av"/><use transform="matrix(0.05,0,0,0.05,69.9,0)" xlink:href="#aA"/><use transform="matrix(0.05,0,0,0.05,74.9,0)" xlink:href="#ay"/><use transform="matrix(0.05,0,0,0.05,83.9,0)" xlink:href="#au"/><use transform="matrix(0.05,0,0,0.05,88.9,0)" xlink:href="#az"/><use transform="matrix(0.05,0,0,0.05,94.85000000000001,0)" xlink:href="#aF"/><use transform="matrix(0.05,0,0,0.05,98.80000000000001,0)" xlink:href="#at"/><use transform="matrix(0.05,0,0,0.05,108.80000000000001,0)" xlink:href="#aO"/></g><path d="M63-220v92h138v28H63V0H30v-248h175v28H63" id="aV"/><g id="p"><use transform="matrix(0.05,0,0,0.05,0,0)" xlink:href="#ar"/><use transform="matrix(0.05,0,0,0.05,9,0)" xlink:href="#as"/><use transform="matrix(0.05,0,0,0.05,19,0)" xlink:href="#aM"/><use transform="matrix(0.05,0,0,0.05,29,0)" xlink:href="#aF"/><use transform="matrix(0.05,0,0,0.05,32.95,0)" xlink:href="#ar"/><use transform="matrix(0.05,0,0,0.05,41.95,0)" xlink:href="#av"/><use transform="matrix(0.05,0,0,0.05,51.95,0)" xlink:href="#aV"/><use transform="matrix(0.05,0,0,0.05,62.900000000000006,0)" xlink:href="#aF"/><use transform="matrix(0.05,0,0,0.05,66.85000000000001,0)" xlink:href="#ay"/><use transform="matrix(0.05,0,0,0.05,75.85000000000001,0)" xlink:href="#ar"/><use transform="matrix(0.05,0,0,0.05,84.85000000000001,0)" xlink:href="#aC"/><use transform="matrix(0.05,0,0,0.05,94.85000000000001,0)" xlink:href="#aL"/><use transform="matrix(0.05,0,0,0.05,98.80000000000001,0)" xlink:href="#av"/><use transform="matrix(0.05,0,0,0.05,108.80000000000001,0)" xlink:href="#aA"/><use transform="matrix(0.05,0,0,0.05,113.80000000000001,0)" xlink:href="#ay"/><use transform="matrix(0.05,0,0,0.05,122.80000000000001,0)" xlink:href="#au"/><use transform="matrix(0.05,0,0,0.05,127.80000000000001,0)" xlink:href="#az"/><use transform="matrix(0.05,0,0,0.05,133.75,0)" xlink:href="#aF"/><use transform="matrix(0.05,0,0,0.05,137.7,0)" xlink:href="#at"/><use transform="matrix(0.05,0,0,0.05,147.7,0)" xlink:href="#aO"/></g><g id="q"><use transform="matrix(0.05,0,0,0.05,0,0)" xlink:href="#av"/><use transform="matrix(0.05,0,0,0.05,10,0)" xlink:href="#aB"/><use transform="matrix(0.05,0,0,0.05,24.950000000000003,0)" xlink:href="#aC"/><use transform="matrix(0.05,0,0,0.05,34.95,0)" xlink:href="#aF"/><use transform="matrix(0.05,0,0,0.05,38.900000000000006,0)" xlink:href="#aL"/><use transform="matrix(0.05,0,0,0.05,42.85000000000001,0)" xlink:href="#aA"/><use transform="matrix(0.05,0,0,0.05,47.85000000000001,0)" xlink:href="#ay"/><use transform="matrix(0.05,0,0,0.05,56.85,0)" xlink:href="#au"/><use transform="matrix(0.05,0,0,0.05,61.85,0)" xlink:href="#az"/><use transform="matrix(0.05,0,0,0.05,67.80000000000001,0)" xlink:href="#aF"/><use transform="matrix(0.05,0,0,0.05,71.75000000000001,0)" xlink:href="#at"/><use transform="matrix(0.05,0,0,0.05,81.75000000000001,0)" xlink:href="#aO"/></g><path d="M206 0h-36l-40-164L89 0H53L-1-190h32L70-26l43-164h34l41 164 42-164h31" id="aW"/><g id="r"><use transform="matrix(0.05,0,0,0.05,0,0)" xlink:href="#aJ"/><use transform="matrix(0.05,0,0,0.05,10,0)" xlink:href="#aC"/><use transform="matrix(0.05,0,0,0.05,20,0)" xlink:href="#ay"/><use transform="matrix(0.05,0,0,0.05,29,0)" xlink:href="#ay"/><use transform="matrix(0.05,0,0,0.05,38,0)" xlink:href="#aW"/><use transform="matrix(0.05,0,0,0.05,50.95,0)" xlink:href="#as"/><use transform="matrix(0.05,0,0,0.05,60.95,0)" xlink:href="#az"/><use transform="matrix(0.05,0,0,0.05,66.9,0)" xlink:href="#aM"/><use transform="matrix(0.05,0,0,0.05,76.9,0)" xlink:href="#aA"/><use transform="matrix(0.05,0,0,0.05,81.9,0)" xlink:href="#ay"/><use transform="matrix(0.05,0,0,0.05,90.9,0)" xlink:href="#au"/><use transform="matrix(0.05,0,0,0.05,95.9,0)" xlink:href="#az"/><use transform="matrix(0.05,0,0,0.05,101.85000000000001,0)" xlink:href="#aF"/><use transform="matrix(0.05,0,0,0.05,105.80000000000001,0)" xlink:href="#at"/><use transform="matrix(0.05,0,0,0.05,115.80000000000001,0)" xlink:href="#aO"/></g><path d="M212-179c-10-28-35-45-73-45-59 0-87 40-87 99 0 60 29 101 89 101 43 0 62-24 78-52l27 14C228-24 195 4 139 4 59 4 22-46 18-125c-6-104 99-153 187-111 19 9 31 26 39 46" id="aX"/><g id="s"><use transform="matrix(0.05,0,0,0.05,0,0)" xlink:href="#ar"/><use transform="matrix(0.05,0,0,0.05,9,0)" xlink:href="#as"/><use transform="matrix(0.05,0,0,0.05,19,0)" xlink:href="#at"/><use transform="matrix(0.05,0,0,0.05,29,0)" xlink:href="#au"/><use transform="matrix(0.05,0,0,0.05,34,0)" xlink:href="#as"/><use transform="matrix(0.05,0,0,0.05,44,0)" xlink:href="#aX"/><use transform="matrix(0.05,0,0,0.05,56.95,0)" xlink:href="#as"/><use transform="matrix(0.05,0,0,0.05,66.95,0)" xlink:href="#az"/><use transform="matrix(0.05,0,0,0.05,72.9,0)" xlink:href="#az"/><use transform="matrix(0.05,0,0,0.05,78.85000000000001,0)" xlink:href="#av"/><use transform="matrix(0.05,0,0,0.05,88.85000000000001,0)" xlink:href="#at"/><use transform="matrix(0.05,0,0,0.05,98.85000000000001,0)" xlink:href="#au"/><use transform="matrix(0.05,0,0,0.05,103.85000000000001,0)" xlink:href="#av"/><use transform="matrix(0.05,0,0,0.05,113.85000000000001,0)" xlink:href="#aA"/><use transform="matrix(0.05,0,0,0.05,118.85000000000001,0)" xlink:href="#ar"/><use transform="matrix(0.05,0,0,0.05,127.85000000000001,0)" xlink:href="#as"/><use transform="matrix(0.05,0,0,0.05,137.85000000000002,0)" xlink:href="#at"/><use transform="matrix(0.05,0,0,0.05,147.85000000000002,0)" xlink:href="#au"/><use transform="matrix(0.05,0,0,0.05,152.85000000000002,0)" xlink:href="#as"/><use transform="matrix(0.05,0,0,0.05,162.85000000000002,0)" xlink:href="#aX"/><use transform="matrix(0.05,0,0,0.05,175.8,0)" xlink:href="#as"/><use transform="matrix(0.05,0,0,0.05,185.8,0)" xlink:href="#az"/><use transform="matrix(0.05,0,0,0.05,191.75,0)" xlink:href="#az"/><use transform="matrix(0.05,0,0,0.05,197.7,0)" xlink:href="#av"/><use transform="matrix(0.05,0,0,0.05,207.69999999999996,0)" xlink:href="#at"/><use transform="matrix(0.05,0,0,0.05,217.69999999999996,0)" xlink:href="#au"/><use transform="matrix(0.05,0,0,0.05,222.69999999999996,0)" xlink:href="#av"/></g><g id="t"><use transform="matrix(0.05,0,0,0.05,0,0)" xlink:href="#ay"/><use transform="matrix(0.05,0,0,0.05,9,0)" xlink:href="#aC"/><use transform="matrix(0.05,0,0,0.05,19,0)" xlink:href="#aL"/><use transform="matrix(0.05,0,0,0.05,22.95,0)" xlink:href="#aM"/><use transform="matrix(0.05,0,0,0.05,32.95,0)" xlink:href="#as"/><use transform="matrix(0.05,0,0,0.05,42.95,0)" xlink:href="#aA"/><use transform="matrix(0.05,0,0,0.05,47.95,0)" xlink:href="#aG"/><use transform="matrix(0.05,0,0,0.05,52.95,0)" xlink:href="#aL"/><use transform="matrix(0.05,0,0,0.05,56.900000000000006,0)" xlink:href="#as"/><use transform="matrix(0.05,0,0,0.05,66.9,0)" xlink:href="#aC"/><use transform="matrix(0.05,0,0,0.05,76.9,0)" xlink:href="#au"/></g><path d="M30-248c118-7 216 8 213 122C240-48 200 0 122 0H30v-248zM63-27c89 8 146-16 146-99s-60-101-146-95v194" id="aY"/><path d="M115-194c53 0 69 39 70 98 0 66-23 100-70 100C84 3 66-7 56-30L54 0H23l1-261h32v101c10-23 28-34 59-34zm-8 174c40 0 45-34 45-75 0-40-5-75-45-74-42 0-51 32-51 76 0 43 10 73 51 73" id="aZ"/><g id="u"><use transform="matrix(0.05,0,0,0.05,0,0)" xlink:href="#aF"/><use transform="matrix(0.05,0,0,0.05,3.95,0)" xlink:href="#ay"/><use transform="matrix(0.05,0,0,0.05,12.949999999999998,0)" xlink:href="#aY"/><use transform="matrix(0.05,0,0,0.05,25.899999999999995,0)" xlink:href="#aF"/><use transform="matrix(0.05,0,0,0.05,29.849999999999994,0)" xlink:href="#ay"/><use transform="matrix(0.05,0,0,0.05,38.849999999999994,0)" xlink:href="#aC"/><use transform="matrix(0.05,0,0,0.05,48.849999999999994,0)" xlink:href="#aZ"/><use transform="matrix(0.05,0,0,0.05,58.849999999999994,0)" xlink:href="#aL"/><use transform="matrix(0.05,0,0,0.05,62.79999999999999,0)" xlink:href="#av"/><use transform="matrix(0.05,0,0,0.05,72.8,0)" xlink:href="#aM"/><use transform="matrix(0.05,0,0,0.05,82.8,0)" xlink:href="#aA"/><use transform="matrix(0.05,0,0,0.05,87.8,0)" xlink:href="#aZ"/><use transform="matrix(0.05,0,0,0.05,97.8,0)" xlink:href="#as"/><use transform="matrix(0.05,0,0,0.05,107.80000000000001,0)" xlink:href="#as"/><use transform="matrix(0.05,0,0,0.05,117.80000000000001,0)" xlink:href="#aL"/><use transform="matrix(0.05,0,0,0.05,121.75,0)" xlink:href="#av"/><use transform="matrix(0.05,0,0,0.05,131.75,0)" xlink:href="#aC"/><use transform="matrix(0.05,0,0,0.05,141.75,0)" xlink:href="#at"/></g><g id="v"><use transform="matrix(0.05,0,0,0.05,0,0)" xlink:href="#az"/><use transform="matrix(0.05,0,0,0.05,5.95,0)" xlink:href="#av"/><use transform="matrix(0.05,0,0,0.05,15.949999999999998,0)" xlink:href="#aO"/><use transform="matrix(0.05,0,0,0.05,25.950000000000003,0)" xlink:href="#aF"/><use transform="matrix(0.05,0,0,0.05,29.899999999999995,0)" xlink:href="#ay"/><use transform="matrix(0.05,0,0,0.05,38.9,0)" xlink:href="#au"/><use transform="matrix(0.05,0,0,0.05,43.9,0)" xlink:href="#av"/><use transform="matrix(0.05,0,0,0.05,53.900000000000006,0)" xlink:href="#az"/><use transform="matrix(0.05,0,0,0.05,59.85,0)" xlink:href="#aH"/><use transform="matrix(0.05,0,0,0.05,65.8,0)" xlink:href="#aI"/></g><g id="w"><use transform="matrix(0.05,0,0,0.05,0,0)" xlink:href="#aL"/><use transform="matrix(0.05,0,0,0.05,3.95,0)" xlink:href="#as"/><use transform="matrix(0.05,0,0,0.05,13.949999999999998,0)" xlink:href="#aO"/><use transform="matrix(0.05,0,0,0.05,23.95,0)" xlink:href="#aF"/><use transform="matrix(0.05,0,0,0.05,27.899999999999995,0)" xlink:href="#at"/><use transform="matrix(0.05,0,0,0.05,37.9,0)" xlink:href="#aH"/><use transform="matrix(0.05,0,0,0.05,43.85,0)" xlink:href="#aI"/></g><path d="M30 0v-248h187v28H63v79h144v27H63v87h162V0H30" id="ba"/><g id="x"><use transform="matrix(0.05,0,0,0.05,0,0)" xlink:href="#ay"/><use transform="matrix(0.05,0,0,0.05,9,0)" xlink:href="#av"/><use transform="matrix(0.05,0,0,0.05,19,0)" xlink:href="#au"/><use transform="matrix(0.05,0,0,0.05,24,0)" xlink:href="#ba"/><use transform="matrix(0.05,0,0,0.05,36,0)" xlink:href="#aB"/><use transform="matrix(0.05,0,0,0.05,50.95,0)" xlink:href="#aC"/><use transform="matrix(0.05,0,0,0.05,60.95,0)" xlink:href="#aF"/><use transform="matrix(0.05,0,0,0.05,64.9,0)" xlink:href="#aL"/><use transform="matrix(0.05,0,0,0.05,68.85000000000001,0)" xlink:href="#aH"/><use transform="matrix(0.05,0,0,0.05,74.80000000000001,0)" xlink:href="#av"/><use transform="matrix(0.05,0,0,0.05,84.80000000000001,0)" xlink:href="#aB"/><use transform="matrix(0.05,0,0,0.05,99.75000000000001,0)" xlink:href="#aC"/><use transform="matrix(0.05,0,0,0.05,109.75,0)" xlink:href="#aF"/><use transform="matrix(0.05,0,0,0.05,113.7,0)" xlink:href="#aL"/><use transform="matrix(0.05,0,0,0.05,117.65000000000003,0)" xlink:href="#aA"/><use transform="matrix(0.05,0,0,0.05,122.65000000000003,0)" xlink:href="#ay"/><use transform="matrix(0.05,0,0,0.05,131.65000000000003,0)" xlink:href="#au"/><use transform="matrix(0.05,0,0,0.05,136.65000000000003,0)" xlink:href="#az"/><use transform="matrix(0.05,0,0,0.05,142.60000000000002,0)" xlink:href="#aF"/><use transform="matrix(0.05,0,0,0.05,146.55,0)" xlink:href="#at"/><use transform="matrix(0.05,0,0,0.05,156.55,0)" xlink:href="#aO"/><use transform="matrix(0.05,0,0,0.05,166.55,0)" xlink:href="#aI"/></g><path d="M30-248c87 1 191-15 191 75 0 78-77 80-158 76V0H30v-248zm33 125c57 0 124 11 124-50 0-59-68-47-124-48v98" id="bb"/><g id="y"><use transform="matrix(0.05,0,0,0.05,0,0)" xlink:href="#ay"/><use transform="matrix(0.05,0,0,0.05,9,0)" xlink:href="#av"/><use transform="matrix(0.05,0,0,0.05,19,0)" xlink:href="#au"/><use transform="matrix(0.05,0,0,0.05,24,0)" xlink:href="#bb"/><use transform="matrix(0.05,0,0,0.05,36,0)" xlink:href="#aC"/><use transform="matrix(0.05,0,0,0.05,46,0)" xlink:href="#ay"/><use transform="matrix(0.05,0,0,0.05,55,0)" xlink:href="#ay"/><use transform="matrix(0.05,0,0,0.05,64,0)" xlink:href="#aW"/><use transform="matrix(0.05,0,0,0.05,76.95,0)" xlink:href="#as"/><use transform="matrix(0.05,0,0,0.05,86.95,0)" xlink:href="#az"/><use transform="matrix(0.05,0,0,0.05,92.9,0)" xlink:href="#aM"/><use transform="matrix(0.05,0,0,0.05,102.9,0)" xlink:href="#aH"/><use transform="matrix(0.05,0,0,0.05,108.85000000000001,0)" xlink:href="#aJ"/><use transform="matrix(0.05,0,0,0.05,118.85000000000001,0)" xlink:href="#aC"/><use transform="matrix(0.05,0,0,0.05,128.85000000000002,0)" xlink:href="#ay"/><use transform="matrix(0.05,0,0,0.05,137.85000000000002,0)" xlink:href="#ay"/><use transform="matrix(0.05,0,0,0.05,146.85000000000002,0)" xlink:href="#aW"/><use transform="matrix(0.05,0,0,0.05,159.8,0)" xlink:href="#as"/><use transform="matrix(0.05,0,0,0.05,169.8,0)" xlink:href="#az"/><use transform="matrix(0.05,0,0,0.05,175.75,0)" xlink:href="#aM"/><use transform="matrix(0.05,0,0,0.05,185.75,0)" xlink:href="#aA"/><use transform="matrix(0.05,0,0,0.05,190.75,0)" xlink:href="#ay"/><use transform="matrix(0.05,0,0,0.05,199.75,0)" xlink:href="#au"/><use transform="matrix(0.05,0,0,0.05,204.75,0)" xlink:href="#az"/><use transform="matrix(0.05,0,0,0.05,210.69999999999996,0)" xlink:href="#aF"/><use transform="matrix(0.05,0,0,0.05,214.64999999999998,0)" xlink:href="#at"/><use transform="matrix(0.05,0,0,0.05,224.64999999999998,0)" xlink:href="#aO"/><use transform="matrix(0.05,0,0,0.05,234.64999999999998,0)" xlink:href="#aI"/></g><path d="M68-38c1 34 0 65-14 84H32c9-13 17-26 17-46H33v-38h35" id="bc"/><g id="z"><use transform="matrix(0.05,0,0,0.05,0,0)" xlink:href="#ay"/><use transform="matrix(0.05,0,0,0.05,9,0)" xlink:href="#av"/><use transform="matrix(0.05,0,0,0.05,19,0)" xlink:href="#at"/><use transform="matrix(0.05,0,0,0.05,29,0)" xlink:href="#aM"/><use transform="matrix(0.05,0,0,0.05,39,0)" xlink:href="#aP"/><use transform="matrix(0.05,0,0,0.05,53.95,0)" xlink:href="#as"/><use transform="matrix(0.05,0,0,0.05,63.95,0)" xlink:href="#at"/><use transform="matrix(0.05,0,0,0.05,73.95,0)" xlink:href="#av"/><use transform="matrix(0.05,0,0,0.05,83.95,0)" xlink:href="#aS"/><use transform="matrix(0.05,0,0,0.05,92.95,0)" xlink:href="#aR"/><use transform="matrix(0.05,0,0,0.05,101.9,0)" xlink:href="#as"/><use transform="matrix(0.05,0,0,0.05,111.9,0)" xlink:href="#aT"/><use transform="matrix(0.05,0,0,0.05,124.85000000000001,0)" xlink:href="#ay"/><use transform="matrix(0.05,0,0,0.05,133.85000000000002,0)" xlink:href="#av"/><use transform="matrix(0.05,0,0,0.05,143.85000000000002,0)" xlink:href="#az"/><use transform="matrix(0.05,0,0,0.05,149.8,0)" xlink:href="#aH"/><use transform="matrix(0.05,0,0,0.05,155.75,0)" xlink:href="#ax"/><use transform="matrix(0.05,0,0,0.05,165.75,0)" xlink:href="#ay"/><use transform="matrix(0.05,0,0,0.05,174.75,0)" xlink:href="#av"/><use transform="matrix(0.05,0,0,0.05,184.75,0)" xlink:href="#az"/><use transform="matrix(0.05,0,0,0.05,190.7,0)" xlink:href="#aA"/><use transform="matrix(0.05,0,0,0.05,195.7,0)" xlink:href="#ax"/><use transform="matrix(0.05,0,0,0.05,205.69999999999996,0)" xlink:href="#ay"/><use transform="matrix(0.05,0,0,0.05,214.69999999999996,0)" xlink:href="#av"/><use transform="matrix(0.05,0,0,0.05,224.69999999999996,0)" xlink:href="#az"/><use transform="matrix(0.05,0,0,0.05,229.64999999999998,0)" xlink:href="#bc"/><use transform="matrix(0.05,0,0,0.05,234.64999999999998,0)" xlink:href="#aC"/><use transform="matrix(0.05,0,0,0.05,244.64999999999998,0)" xlink:href="#aB"/><use transform="matrix(0.05,0,0,0.05,259.59999999999997,0)" xlink:href="#as"/><use transform="matrix(0.05,0,0,0.05,269.59999999999997,0)" xlink:href="#ax"/><use transform="matrix(0.05,0,0,0.05,279.59999999999997,0)" xlink:href="#at"/><use transform="matrix(0.05,0,0,0.05,289.59999999999997,0)" xlink:href="#au"/><use transform="matrix(0.05,0,0,0.05,294.59999999999997,0)" xlink:href="#aA"/><use transform="matrix(0.05,0,0,0.05,299.59999999999997,0)" xlink:href="#aG"/><use transform="matrix(0.05,0,0,0.05,304.59999999999997,0)" xlink:href="#aL"/><use transform="matrix(0.05,0,0,0.05,308.54999999999995,0)" xlink:href="#as"/><use transform="matrix(0.05,0,0,0.05,318.54999999999995,0)" xlink:href="#aC"/><use transform="matrix(0.05,0,0,0.05,328.54999999999995,0)" xlink:href="#au"/><use transform="matrix(0.05,0,0,0.05,333.54999999999995,0)" xlink:href="#aI"/></g><g id="A"><use transform="matrix(0.05,0,0,0.05,0,0)" xlink:href="#aB"/><use transform="matrix(0.05,0,0,0.05,14.950000000000001,0)" xlink:href="#aC"/><use transform="matrix(0.05,0,0,0.05,24.950000000000003,0)" xlink:href="#aD"/><use transform="matrix(0.05,0,0,0.05,33.95,0)" xlink:href="#av"/><use transform="matrix(0.05,0,0,0.05,43.95,0)" xlink:href="#aE"/><use transform="matrix(0.05,0,0,0.05,55.95,0)" xlink:href="#as"/><use transform="matrix(0.05,0,0,0.05,65.95,0)" xlink:href="#at"/><use transform="matrix(0.05,0,0,0.05,75.95,0)" xlink:href="#aF"/><use transform="matrix(0.05,0,0,0.05,79.9,0)" xlink:href="#aG"/><use transform="matrix(0.05,0,0,0.05,84.9,0)" xlink:href="#aF"/><use transform="matrix(0.05,0,0,0.05,88.85000000000001,0)" xlink:href="#ar"/><use transform="matrix(0.05,0,0,0.05,97.85000000000001,0)" xlink:href="#as"/><use transform="matrix(0.05,0,0,0.05,107.85000000000001,0)" xlink:href="#aH"/><use transform="matrix(0.05,0,0,0.05,113.80000000000001,0)" xlink:href="#aM"/><use transform="matrix(0.05,0,0,0.05,123.80000000000001,0)" xlink:href="#av"/><use transform="matrix(0.05,0,0,0.05,133.8,0)" xlink:href="#ay"/><use transform="matrix(0.05,0,0,0.05,142.8,0)" xlink:href="#au"/><use transform="matrix(0.05,0,0,0.05,147.8,0)" xlink:href="#aF"/><use transform="matrix(0.05,0,0,0.05,151.75,0)" xlink:href="#at"/><use transform="matrix(0.05,0,0,0.05,161.75,0)" xlink:href="#aC"/><use transform="matrix(0.05,0,0,0.05,171.75,0)" xlink:href="#au"/><use transform="matrix(0.05,0,0,0.05,176.75,0)" xlink:href="#aC"/><use transform="matrix(0.05,0,0,0.05,186.75,0)" xlink:href="#az"/><use transform="matrix(0.05,0,0,0.05,192.7,0)" xlink:href="#aF"/><use transform="matrix(0.05,0,0,0.05,196.64999999999998,0)" xlink:href="#as"/><use transform="matrix(0.05,0,0,0.05,206.64999999999998,0)" xlink:href="#aA"/><use transform="matrix(0.05,0,0,0.05,211.64999999999998,0)" xlink:href="#ay"/><use transform="matrix(0.05,0,0,0.05,220.64999999999998,0)" xlink:href="#au"/><use transform="matrix(0.05,0,0,0.05,225.64999999999998,0)" xlink:href="#az"/><use transform="matrix(0.05,0,0,0.05,231.59999999999997,0)" xlink:href="#aF"/><use transform="matrix(0.05,0,0,0.05,235.54999999999995,0)" xlink:href="#at"/><use transform="matrix(0.05,0,0,0.05,245.54999999999995,0)" xlink:href="#aO"/><use transform="matrix(0.05,0,0,0.05,255.54999999999995,0)" xlink:href="#bc"/></g><g id="B"><use transform="matrix(0.05,0,0,0.05,0,0)" xlink:href="#aC"/><use transform="matrix(0.05,0,0,0.05,10,0)" xlink:href="#aB"/><use transform="matrix(0.05,0,0,0.05,24.950000000000003,0)" xlink:href="#as"/><use transform="matrix(0.05,0,0,0.05,34.95,0)" xlink:href="#ax"/><use transform="matrix(0.05,0,0,0.05,44.95,0)" xlink:href="#at"/><use transform="matrix(0.05,0,0,0.05,54.95,0)" xlink:href="#au"/><use transform="matrix(0.05,0,0,0.05,59.95,0)" xlink:href="#aA"/><use transform="matrix(0.05,0,0,0.05,64.95,0)" xlink:href="#aG"/><use transform="matrix(0.05,0,0,0.05,69.95,0)" xlink:href="#aL"/><use transform="matrix(0.05,0,0,0.05,73.9,0)" xlink:href="#as"/><use transform="matrix(0.05,0,0,0.05,83.9,0)" xlink:href="#aC"/><use transform="matrix(0.05,0,0,0.05,93.9,0)" xlink:href="#au"/><use transform="matrix(0.05,0,0,0.05,98.9,0)" xlink:href="#aI"/></g><g id="C"><use transform="matrix(0.05,0,0,0.05,0,0)" xlink:href="#aB"/><use transform="matrix(0.05,0,0,0.05,14.950000000000001,0)" xlink:href="#aC"/><use transform="matrix(0.05,0,0,0.05,24.950000000000003,0)" xlink:href="#aD"/><use transform="matrix(0.05,0,0,0.05,33.95,0)" xlink:href="#av"/><use transform="matrix(0.05,0,0,0.05,43.95,0)" xlink:href="#aQ"/><use transform="matrix(0.05,0,0,0.05,56.900000000000006,0)" xlink:href="#aF"/><use transform="matrix(0.05,0,0,0.05,60.85,0)" xlink:href="#ar"/><use transform="matrix(0.05,0,0,0.05,69.85000000000001,0)" xlink:href="#aC"/><use transform="matrix(0.05,0,0,0.05,79.85000000000001,0)" xlink:href="#az"/><use transform="matrix(0.05,0,0,0.05,85.80000000000001,0)" xlink:href="#aF"/><use transform="matrix(0.05,0,0,0.05,89.75000000000001,0)" xlink:href="#ar"/><use transform="matrix(0.05,0,0,0.05,98.75000000000001,0)" xlink:href="#aC"/><use transform="matrix(0.05,0,0,0.05,108.75,0)" xlink:href="#aR"/><use transform="matrix(0.05,0,0,0.05,117.7,0)" xlink:href="#av"/><use transform="matrix(0.05,0,0,0.05,127.7,0)" xlink:href="#aL"/><use transform="matrix(0.05,0,0,0.05,131.65,0)" xlink:href="#av"/><use transform="matrix(0.05,0,0,0.05,141.65,0)" xlink:href="#aG"/><use transform="matrix(0.05,0,0,0.05,146.65,0)" xlink:href="#as"/><use transform="matrix(0.05,0,0,0.05,156.65,0)" xlink:href="#at"/><use transform="matrix(0.05,0,0,0.05,166.65,0)" xlink:href="#aF"/><use transform="matrix(0.05,0,0,0.05,170.6,0)" xlink:href="#ar"/><use transform="matrix(0.05,0,0,0.05,179.6,0)" xlink:href="#aC"/></g><g id="D"><use transform="matrix(0.05,0,0,0.05,0,0)" xlink:href="#aH"/><use transform="matrix(0.05,0,0,0.05,5.95,0)" xlink:href="#at"/><use transform="matrix(0.05,0,0,0.05,15.949999999999998,0)" xlink:href="#ax"/><use transform="matrix(0.05,0,0,0.05,25.950000000000003,0)" xlink:href="#aB"/><use transform="matrix(0.05,0,0,0.05,40.9,0)" xlink:href="#av"/><use transform="matrix(0.05,0,0,0.05,50.9,0)" xlink:href="#az"/><use transform="matrix(0.05,0,0,0.05,56.85,0)" xlink:href="#as"/><use transform="matrix(0.05,0,0,0.05,66.85,0)" xlink:href="#aY"/><use transform="matrix(0.05,0,0,0.05,79.8,0)" xlink:href="#aF"/><use transform="matrix(0.05,0,0,0.05,83.75,0)" xlink:href="#aR"/><use transform="matrix(0.05,0,0,0.05,92.7,0)" xlink:href="#av"/><use transform="matrix(0.05,0,0,0.05,102.7,0)" xlink:href="#aL"/><use transform="matrix(0.05,0,0,0.05,106.65,0)" xlink:href="#av"/><use transform="matrix(0.05,0,0,0.05,116.65,0)" xlink:href="#aG"/><use transform="matrix(0.05,0,0,0.05,121.65,0)" xlink:href="#as"/><use transform="matrix(0.05,0,0,0.05,131.65,0)" xlink:href="#at"/><use transform="matrix(0.05,0,0,0.05,141.65,0)" xlink:href="#as"/><use transform="matrix(0.05,0,0,0.05,151.65,0)" xlink:href="#aA"/><use transform="matrix(0.05,0,0,0.05,156.65,0)" xlink:href="#aF"/><use transform="matrix(0.05,0,0,0.05,160.6,0)" xlink:href="#at"/><use transform="matrix(0.05,0,0,0.05,170.6,0)" xlink:href="#au"/><use transform="matrix(0.05,0,0,0.05,175.6,0)" xlink:href="#bc"/><use transform="matrix(0.05,0,0,0.05,180.6,0)" xlink:href="#aC"/><use transform="matrix(0.05,0,0,0.05,190.6,0)" xlink:href="#aB"/><use transform="matrix(0.05,0,0,0.05,205.54999999999995,0)" xlink:href="#as"/><use transform="matrix(0.05,0,0,0.05,215.54999999999995,0)" xlink:href="#ax"/><use transform="matrix(0.05,0,0,0.05,225.54999999999995,0)" xlink:href="#at"/><use transform="matrix(0.05,0,0,0.05,235.54999999999995,0)" xlink:href="#au"/><use transform="matrix(0.05,0,0,0.05,240.54999999999995,0)" xlink:href="#aA"/><use transform="matrix(0.05,0,0,0.05,245.54999999999995,0)" xlink:href="#aG"/><use transform="matrix(0.05,0,0,0.05,250.54999999999995,0)" xlink:href="#aL"/><use transform="matrix(0.05,0,0,0.05,254.49999999999997,0)" xlink:href="#as"/><use transform="matrix(0.05,0,0,0.05,264.5,0)" xlink:href="#aC"/><use transform="matrix(0.05,0,0,0.05,274.5,0)" xlink:href="#au"/><use transform="matrix(0.05,0,0,0.05,279.5,0)" xlink:href="#aI"/></g><path d="M9 0v-24l116-142H16v-24h144v24L44-24h123V0H9" id="bd"/><g id="E"><use transform="matrix(0.05,0,0,0.05,0,0)" xlink:href="#au"/><use transform="matrix(0.05,0,0,0.05,5,0)" xlink:href="#az"/><use transform="matrix(0.05,0,0,0.05,10.95,0)" xlink:href="#aC"/><use transform="matrix(0.05,0,0,0.05,20.95,0)" xlink:href="#at"/><use transform="matrix(0.05,0,0,0.05,30.950000000000003,0)" xlink:href="#ay"/><use transform="matrix(0.05,0,0,0.05,39.95,0)" xlink:href="#aC"/><use transform="matrix(0.05,0,0,0.05,49.95,0)" xlink:href="#bd"/><use transform="matrix(0.05,0,0,0.05,58.95,0)" xlink:href="#aF"/><use transform="matrix(0.05,0,0,0.05,62.900000000000006,0)" xlink:href="#as"/><use transform="matrix(0.05,0,0,0.05,72.9,0)" xlink:href="#at"/><use transform="matrix(0.05,0,0,0.05,82.9,0)" xlink:href="#av"/></g><g id="F"><use transform="matrix(0.05,0,0,0.05,0,0)" xlink:href="#aC"/><use transform="matrix(0.05,0,0,0.05,10,0)" xlink:href="#aB"/><use transform="matrix(0.05,0,0,0.05,24.950000000000003,0)" xlink:href="#as"/><use transform="matrix(0.05,0,0,0.05,34.95,0)" xlink:href="#ax"/><use transform="matrix(0.05,0,0,0.05,44.95,0)" xlink:href="#at"/><use transform="matrix(0.05,0,0,0.05,54.95,0)" xlink:href="#au"/><use transform="matrix(0.05,0,0,0.05,59.95,0)" xlink:href="#aA"/><use transform="matrix(0.05,0,0,0.05,64.95,0)" xlink:href="#aM"/><use transform="matrix(0.05,0,0,0.05,74.95,0)" xlink:href="#as"/><use transform="matrix(0.05,0,0,0.05,84.95,0)" xlink:href="#ax"/><use transform="matrix(0.05,0,0,0.05,94.95,0)" xlink:href="#aZ"/><use transform="matrix(0.05,0,0,0.05,104.95,0)" xlink:href="#aL"/><use transform="matrix(0.05,0,0,0.05,108.9,0)" xlink:href="#av"/></g><g id="G"><use transform="matrix(0.05,0,0,0.05,0,0)" xlink:href="#au"/><use transform="matrix(0.05,0,0,0.05,5,0)" xlink:href="#az"/><use transform="matrix(0.05,0,0,0.05,10.95,0)" xlink:href="#aC"/><use transform="matrix(0.05,0,0,0.05,20.95,0)" xlink:href="#at"/><use transform="matrix(0.05,0,0,0.05,30.950000000000003,0)" xlink:href="#ay"/><use transform="matrix(0.05,0,0,0.05,39.95,0)" xlink:href="#aC"/><use transform="matrix(0.05,0,0,0.05,49.95,0)" xlink:href="#ar"/><use transform="matrix(0.05,0,0,0.05,58.95,0)" xlink:href="#au"/><use transform="matrix(0.05,0,0,0.05,63.95,0)" xlink:href="#aF"/><use transform="matrix(0.05,0,0,0.05,67.9,0)" xlink:href="#as"/><use transform="matrix(0.05,0,0,0.05,77.9,0)" xlink:href="#at"/><use transform="matrix(0.05,0,0,0.05,87.9,0)" xlink:href="#aY"/><use transform="matrix(0.05,0,0,0.05,100.85000000000001,0)" xlink:href="#aC"/><use transform="matrix(0.05,0,0,0.05,110.85000000000001,0)" xlink:href="#au"/><use transform="matrix(0.05,0,0,0.05,115.85000000000001,0)" xlink:href="#av"/><use transform="matrix(0.05,0,0,0.05,125.85000000000001,0)" xlink:href="#aA"/><use transform="matrix(0.05,0,0,0.05,130.85000000000002,0)" xlink:href="#aM"/><use transform="matrix(0.05,0,0,0.05,140.85000000000002,0)" xlink:href="#aC"/><use transform="matrix(0.05,0,0,0.05,150.85000000000002,0)" xlink:href="#au"/><use transform="matrix(0.05,0,0,0.05,155.85000000000002,0)" xlink:href="#av"/></g><path d="M33 0v-248h34V0H33" id="be"/><g id="H"><use transform="matrix(0.05,0,0,0.05,0,0)" xlink:href="#au"/><use transform="matrix(0.05,0,0,0.05,5,0)" xlink:href="#az"/><use transform="matrix(0.05,0,0,0.05,10.95,0)" xlink:href="#aC"/><use transform="matrix(0.05,0,0,0.05,20.95,0)" xlink:href="#at"/><use transform="matrix(0.05,0,0,0.05,30.950000000000003,0)" xlink:href="#ay"/><use transform="matrix(0.05,0,0,0.05,39.95,0)" xlink:href="#aC"/><use transform="matrix(0.05,0,0,0.05,49.95,0)" xlink:href="#ar"/><use transform="matrix(0.05,0,0,0.05,58.95,0)" xlink:href="#au"/><use transform="matrix(0.05,0,0,0.05,63.95,0)" xlink:href="#aF"/><use transform="matrix(0.05,0,0,0.05,67.9,0)" xlink:href="#as"/><use transform="matrix(0.05,0,0,0.05,77.9,0)" xlink:href="#at"/><use transform="matrix(0.05,0,0,0.05,87.9,0)" xlink:href="#be"/><use transform="matrix(0.05,0,0,0.05,92.9,0)" xlink:href="#aM"/><use transform="matrix(0.05,0,0,0.05,102.9,0)" xlink:href="#aA"/><use transform="matrix(0.05,0,0,0.05,107.9,0)" xlink:href="#aF"/><use transform="matrix(0.05,0,0,0.05,111.85000000000001,0)" xlink:href="#at"/><use transform="matrix(0.05,0,0,0.05,121.85000000000001,0)" xlink:href="#au"/></g><path d="M27 0v-27h64v-190l-56 39v-29l58-41h29v221h61V0H27" id="bf"/><use transform="matrix(0.05,0,0,0.05,0,0)" xlink:href="#bf" id="I"/><path d="M101-251c68 0 85 55 85 127S166 4 100 4C33 4 14-52 14-124c0-73 17-127 87-127zm-1 229c47 0 54-49 54-102s-4-102-53-102c-51 0-55 48-55 102 0 53 5 102 54 102" id="bg"/><path d="M190 0L58-211 59 0H30v-248h39L202-35l-2-213h31V0h-41" id="bh"/><g id="J"><use transform="matrix(0.05,0,0,0.05,0,0)" xlink:href="#bg"/><use transform="matrix(0.05,0,0,0.05,10,0)" xlink:href="#aK"/><use transform="matrix(0.05,0,0,0.05,15,0)" xlink:href="#aK"/><use transform="matrix(0.05,0,0,0.05,20,0)" xlink:href="#bh"/></g><g id="K"><use transform="matrix(0.05,0,0,0.05,0,0)" xlink:href="#az"/><use transform="matrix(0.05,0,0,0.05,5.95,0)" xlink:href="#aF"/><use transform="matrix(0.05,0,0,0.05,9.9,0)" xlink:href="#ar"/><use transform="matrix(0.05,0,0,0.05,18.9,0)" xlink:href="#aC"/><use transform="matrix(0.05,0,0,0.05,28.899999999999995,0)" xlink:href="#az"/><use transform="matrix(0.05,0,0,0.05,34.85,0)" xlink:href="#aF"/><use transform="matrix(0.05,0,0,0.05,38.800000000000004,0)" xlink:href="#ar"/><use transform="matrix(0.05,0,0,0.05,47.800000000000004,0)" xlink:href="#aC"/><use transform="matrix(0.05,0,0,0.05,57.800000000000004,0)" xlink:href="#aR"/><use transform="matrix(0.05,0,0,0.05,66.75,0)" xlink:href="#av"/><use transform="matrix(0.05,0,0,0.05,76.75,0)" xlink:href="#aL"/><use transform="matrix(0.05,0,0,0.05,80.7,0)" xlink:href="#av"/><use transform="matrix(0.05,0,0,0.05,90.7,0)" xlink:href="#aG"/><use transform="matrix(0.05,0,0,0.05,95.7,0)" xlink:href="#as"/><use transform="matrix(0.05,0,0,0.05,105.7,0)" xlink:href="#at"/><use transform="matrix(0.05,0,0,0.05,115.7,0)" xlink:href="#aF"/><use transform="matrix(0.05,0,0,0.05,119.65,0)" xlink:href="#ar"/><use transform="matrix(0.05,0,0,0.05,128.65,0)" xlink:href="#aC"/></g><g id="L"><use transform="matrix(0.05,0,0,0.05,0,0)" xlink:href="#at"/><use transform="matrix(0.05,0,0,0.05,10,0)" xlink:href="#ax"/><use transform="matrix(0.05,0,0,0.05,20,0)" xlink:href="#aB"/><use transform="matrix(0.05,0,0,0.05,34.95,0)" xlink:href="#av"/><use transform="matrix(0.05,0,0,0.05,44.95,0)" xlink:href="#az"/><use transform="matrix(0.05,0,0,0.05,50.900000000000006,0)" xlink:href="#as"/><use transform="matrix(0.05,0,0,0.05,60.900000000000006,0)" xlink:href="#aY"/><use transform="matrix(0.05,0,0,0.05,73.85000000000001,0)" xlink:href="#aF"/><use transform="matrix(0.05,0,0,0.05,77.80000000000001,0)" xlink:href="#aR"/><use transform="matrix(0.05,0,0,0.05,86.75000000000001,0)" xlink:href="#av"/><use transform="matrix(0.05,0,0,0.05,96.75000000000001,0)" xlink:href="#aL"/><use transform="matrix(0.05,0,0,0.05,100.70000000000002,0)" xlink:href="#av"/><use transform="matrix(0.05,0,0,0.05,110.7,0)" xlink:href="#aG"/><use transform="matrix(0.05,0,0,0.05,115.7,0)" xlink:href="#as"/><use transform="matrix(0.05,0,0,0.05,125.7,0)" xlink:href="#at"/><use transform="matrix(0.05,0,0,0.05,135.70000000000002,0)" xlink:href="#as"/><use transform="matrix(0.05,0,0,0.05,145.70000000000002,0)" xlink:href="#aA"/><use transform="matrix(0.05,0,0,0.05,150.70000000000002,0)" xlink:href="#aF"/><use transform="matrix(0.05,0,0,0.05,154.65,0)" xlink:href="#at"/><use transform="matrix(0.05,0,0,0.05,164.65,0)" xlink:href="#au"/></g><g id="M"><use transform="matrix(0.05,0,0,0.05,0,0)" xlink:href="#ar"/><use transform="matrix(0.05,0,0,0.05,9,0)" xlink:href="#as"/><use transform="matrix(0.05,0,0,0.05,19,0)" xlink:href="#aB"/><use transform="matrix(0.05,0,0,0.05,33.95,0)" xlink:href="#aJ"/><use transform="matrix(0.05,0,0,0.05,43.95,0)" xlink:href="#aC"/><use transform="matrix(0.05,0,0,0.05,53.95,0)" xlink:href="#aO"/><use transform="matrix(0.05,0,0,0.05,63.95,0)" xlink:href="#at"/><use transform="matrix(0.05,0,0,0.05,73.95,0)" xlink:href="#aF"/><use transform="matrix(0.05,0,0,0.05,77.9,0)" xlink:href="#aC"/><use transform="matrix(0.05,0,0,0.05,87.9,0)" xlink:href="#aR"/><use transform="matrix(0.05,0,0,0.05,96.85000000000001,0)" xlink:href="#av"/><use transform="matrix(0.05,0,0,0.05,106.85000000000001,0)" xlink:href="#aL"/><use transform="matrix(0.05,0,0,0.05,110.80000000000001,0)" xlink:href="#av"/><use transform="matrix(0.05,0,0,0.05,120.80000000000001,0)" xlink:href="#aG"/><use transform="matrix(0.05,0,0,0.05,125.80000000000001,0)" xlink:href="#as"/><use transform="matrix(0.05,0,0,0.05,135.8,0)" xlink:href="#at"/><use transform="matrix(0.05,0,0,0.05,145.8,0)" xlink:href="#aF"/><use transform="matrix(0.05,0,0,0.05,149.75,0)" xlink:href="#ar"/><use transform="matrix(0.05,0,0,0.05,158.75,0)" xlink:href="#aC"/><use transform="matrix(0.05,0,0,0.05,168.75,0)" xlink:href="#aA"/><use transform="matrix(0.05,0,0,0.05,173.75,0)" xlink:href="#ar"/><use transform="matrix(0.05,0,0,0.05,182.75,0)" xlink:href="#as"/><use transform="matrix(0.05,0,0,0.05,192.75,0)" xlink:href="#aB"/><use transform="matrix(0.05,0,0,0.05,207.69999999999996,0)" xlink:href="#aJ"/><use transform="matrix(0.05,0,0,0.05,217.69999999999996,0)" xlink:href="#aC"/><use transform="matrix(0.05,0,0,0.05,227.69999999999996,0)" xlink:href="#aO"/><use transform="matrix(0.05,0,0,0.05,237.69999999999996,0)" xlink:href="#at"/><use transform="matrix(0.05,0,0,0.05,247.69999999999996,0)" xlink:href="#aF"/><use transform="matrix(0.05,0,0,0.05,251.64999999999998,0)" xlink:href="#aC"/><use transform="matrix(0.05,0,0,0.05,261.65,0)" xlink:href="#aR"/><use transform="matrix(0.05,0,0,0.05,270.59999999999997,0)" xlink:href="#av"/><use transform="matrix(0.05,0,0,0.05,280.59999999999997,0)" xlink:href="#aL"/><use transform="matrix(0.05,0,0,0.05,284.54999999999995,0)" xlink:href="#av"/><use transform="matrix(0.05,0,0,0.05,294.54999999999995,0)" xlink:href="#aG"/><use transform="matrix(0.05,0,0,0.05,299.54999999999995,0)" xlink:href="#as"/><use transform="matrix(0.05,0,0,0.05,309.54999999999995,0)" xlink:href="#at"/><use transform="matrix(0.05,0,0,0.05,319.54999999999995,0)" xlink:href="#aF"/><use transform="matrix(0.05,0,0,0.05,323.49999999999994,0)" xlink:href="#ar"/><use transform="matrix(0.05,0,0,0.05,332.49999999999994,0)" xlink:href="#aC"/></g><g id="N"><use transform="matrix(0.05,0,0,0.05,0,0)" xlink:href="#aZ"/><use transform="matrix(0.05,0,0,0.05,10,0)" xlink:href="#as"/><use transform="matrix(0.05,0,0,0.05,20,0)" xlink:href="#at"/><use transform="matrix(0.05,0,0,0.05,30,0)" xlink:href="#aF"/><use transform="matrix(0.05,0,0,0.05,33.95,0)" xlink:href="#aG"/><use transform="matrix(0.05,0,0,0.05,38.95,0)" xlink:href="#aF"/><use transform="matrix(0.05,0,0,0.05,42.900000000000006,0)" xlink:href="#ar"/><use transform="matrix(0.05,0,0,0.05,51.900000000000006,0)" xlink:href="#as"/></g><g id="O"><use transform="matrix(0.05,0,0,0.05,0,0)" xlink:href="#ar"/><use transform="matrix(0.05,0,0,0.05,9,0)" xlink:href="#as"/><use transform="matrix(0.05,0,0,0.05,19,0)" xlink:href="#at"/><use transform="matrix(0.05,0,0,0.05,29,0)" xlink:href="#au"/><use transform="matrix(0.05,0,0,0.05,34,0)" xlink:href="#as"/><use transform="matrix(0.05,0,0,0.05,44,0)" xlink:href="#aX"/><use transform="matrix(0.05,0,0,0.05,56.95,0)" xlink:href="#as"/><use transform="matrix(0.05,0,0,0.05,66.95,0)" xlink:href="#az"/><use transform="matrix(0.05,0,0,0.05,72.9,0)" xlink:href="#az"/><use transform="matrix(0.05,0,0,0.05,78.85000000000001,0)" xlink:href="#av"/><use transform="matrix(0.05,0,0,0.05,88.85000000000001,0)" xlink:href="#at"/><use transform="matrix(0.05,0,0,0.05,98.85000000000001,0)" xlink:href="#au"/><use transform="matrix(0.05,0,0,0.05,103.85000000000001,0)" xlink:href="#av"/><use transform="matrix(0.05,0,0,0.05,113.85000000000001,0)" xlink:href="#aY"/><use transform="matrix(0.05,0,0,0.05,126.80000000000001,0)" xlink:href="#av"/><use transform="matrix(0.05,0,0,0.05,136.8,0)" xlink:href="#ay"/><use transform="matrix(0.05,0,0,0.05,145.8,0)" xlink:href="#au"/><use transform="matrix(0.05,0,0,0.05,150.8,0)" xlink:href="#aF"/><use transform="matrix(0.05,0,0,0.05,154.75,0)" xlink:href="#at"/><use transform="matrix(0.05,0,0,0.05,164.75,0)" xlink:href="#aC"/><use transform="matrix(0.05,0,0,0.05,174.75,0)" xlink:href="#au"/><use transform="matrix(0.05,0,0,0.05,179.75,0)" xlink:href="#aC"/><use transform="matrix(0.05,0,0,0.05,189.75,0)" xlink:href="#az"/><use transform="matrix(0.05,0,0,0.05,195.7,0)" xlink:href="#aF"/><use transform="matrix(0.05,0,0,0.05,199.64999999999998,0)" xlink:href="#as"/><use transform="matrix(0.05,0,0,0.05,209.64999999999998,0)" xlink:href="#aA"/><use transform="matrix(0.05,0,0,0.05,214.64999999999998,0)" xlink:href="#ar"/><use transform="matrix(0.05,0,0,0.05,223.64999999999998,0)" xlink:href="#as"/><use transform="matrix(0.05,0,0,0.05,233.64999999999998,0)" xlink:href="#at"/><use transform="matrix(0.05,0,0,0.05,243.64999999999998,0)" xlink:href="#au"/><use transform="matrix(0.05,0,0,0.05,248.64999999999998,0)" xlink:href="#as"/><use transform="matrix(0.05,0,0,0.05,258.65,0)" xlink:href="#aX"/><use transform="matrix(0.05,0,0,0.05,271.59999999999997,0)" xlink:href="#as"/><use transform="matrix(0.05,0,0,0.05,281.59999999999997,0)" xlink:href="#az"/><use transform="matrix(0.05,0,0,0.05,287.54999999999995,0)" xlink:href="#az"/><use transform="matrix(0.05,0,0,0.05,293.49999999999994,0)" xlink:href="#av"/><use transform="matrix(0.05,0,0,0.05,303.49999999999994,0)" xlink:href="#at"/><use transform="matrix(0.05,0,0,0.05,313.49999999999994,0)" xlink:href="#au"/><use transform="matrix(0.05,0,0,0.05,318.49999999999994,0)" xlink:href="#av"/></g><g id="P"><use transform="matrix(0.05,0,0,0.05,0,0)" xlink:href="#aZ"/><use transform="matrix(0.05,0,0,0.05,10,0)" xlink:href="#aC"/><use transform="matrix(0.05,0,0,0.05,20,0)" xlink:href="#at"/><use transform="matrix(0.05,0,0,0.05,30,0)" xlink:href="#ar"/><use transform="matrix(0.05,0,0,0.05,39,0)" xlink:href="#aC"/><use transform="matrix(0.05,0,0,0.05,49,0)" xlink:href="#aY"/><use transform="matrix(0.05,0,0,0.05,61.95,0)" xlink:href="#av"/><use transform="matrix(0.05,0,0,0.05,71.95,0)" xlink:href="#ay"/><use transform="matrix(0.05,0,0,0.05,80.95,0)" xlink:href="#au"/><use transform="matrix(0.05,0,0,0.05,85.95,0)" xlink:href="#aF"/><use transform="matrix(0.05,0,0,0.05,89.9,0)" xlink:href="#at"/><use transform="matrix(0.05,0,0,0.05,99.9,0)" xlink:href="#aC"/><use transform="matrix(0.05,0,0,0.05,109.9,0)" xlink:href="#au"/><use transform="matrix(0.05,0,0,0.05,114.9,0)" xlink:href="#aC"/><use transform="matrix(0.05,0,0,0.05,124.9,0)" xlink:href="#az"/><use transform="matrix(0.05,0,0,0.05,130.85,0)" xlink:href="#aF"/><use transform="matrix(0.05,0,0,0.05,134.79999999999998,0)" xlink:href="#as"/><use transform="matrix(0.05,0,0,0.05,144.79999999999998,0)" xlink:href="#aA"/><use transform="matrix(0.05,0,0,0.05,149.79999999999998,0)" xlink:href="#aZ"/><use transform="matrix(0.05,0,0,0.05,159.79999999999998,0)" xlink:href="#aC"/><use transform="matrix(0.05,0,0,0.05,169.79999999999998,0)" xlink:href="#at"/><use transform="matrix(0.05,0,0,0.05,179.79999999999998,0)" xlink:href="#ar"/><use transform="matrix(0.05,0,0,0.05,188.79999999999998,0)" xlink:href="#aC"/></g><g id="Q"><use transform="matrix(0.05,0,0,0.05,0,0)" xlink:href="#ar"/><use transform="matrix(0.05,0,0,0.05,9,0)" xlink:href="#as"/><use transform="matrix(0.05,0,0,0.05,19,0)" xlink:href="#at"/><use transform="matrix(0.05,0,0,0.05,29,0)" xlink:href="#au"/><use transform="matrix(0.05,0,0,0.05,34,0)" xlink:href="#as"/><use transform="matrix(0.05,0,0,0.05,44,0)" xlink:href="#aX"/><use transform="matrix(0.05,0,0,0.05,56.95,0)" xlink:href="#as"/><use transform="matrix(0.05,0,0,0.05,66.95,0)" xlink:href="#az"/><use transform="matrix(0.05,0,0,0.05,72.9,0)" xlink:href="#az"/><use transform="matrix(0.05,0,0,0.05,78.85000000000001,0)" xlink:href="#av"/><use transform="matrix(0.05,0,0,0.05,88.85000000000001,0)" xlink:href="#at"/><use transform="matrix(0.05,0,0,0.05,98.85000000000001,0)" xlink:href="#au"/><use transform="matrix(0.05,0,0,0.05,103.85000000000001,0)" xlink:href="#av"/></g><g id="R"><use transform="matrix(0.05,0,0,0.05,0,0)" xlink:href="#at"/><use transform="matrix(0.05,0,0,0.05,10,0)" xlink:href="#ax"/><use transform="matrix(0.05,0,0,0.05,20,0)" xlink:href="#aB"/><use transform="matrix(0.05,0,0,0.05,34.95,0)" xlink:href="#av"/><use transform="matrix(0.05,0,0,0.05,44.95,0)" xlink:href="#az"/><use transform="matrix(0.05,0,0,0.05,50.900000000000006,0)" xlink:href="#as"/><use transform="matrix(0.05,0,0,0.05,60.900000000000006,0)" xlink:href="#aX"/><use transform="matrix(0.05,0,0,0.05,73.85000000000001,0)" xlink:href="#as"/><use transform="matrix(0.05,0,0,0.05,83.85000000000001,0)" xlink:href="#at"/><use transform="matrix(0.05,0,0,0.05,93.85000000000001,0)" xlink:href="#au"/><use transform="matrix(0.05,0,0,0.05,98.85000000000001,0)" xlink:href="#as"/><use transform="matrix(0.05,0,0,0.05,108.85000000000001,0)" xlink:href="#aX"/><use transform="matrix(0.05,0,0,0.05,121.80000000000001,0)" xlink:href="#as"/><use transform="matrix(0.05,0,0,0.05,131.8,0)" xlink:href="#az"/><use transform="matrix(0.05,0,0,0.05,137.75,0)" xlink:href="#az"/><use transform="matrix(0.05,0,0,0.05,143.7,0)" xlink:href="#av"/><use transform="matrix(0.05,0,0,0.05,153.7,0)" xlink:href="#at"/><use transform="matrix(0.05,0,0,0.05,163.7,0)" xlink:href="#au"/><use transform="matrix(0.05,0,0,0.05,168.7,0)" xlink:href="#av"/><use transform="matrix(0.05,0,0,0.05,178.7,0)" xlink:href="#aA"/><use transform="matrix(0.05,0,0,0.05,183.7,0)" xlink:href="#aF"/><use transform="matrix(0.05,0,0,0.05,187.64999999999998,0)" xlink:href="#at"/><use transform="matrix(0.05,0,0,0.05,197.64999999999998,0)" xlink:href="#au"/></g><g id="S"><use transform="matrix(0.05,0,0,0.05,0,0)" xlink:href="#aZ"/><use transform="matrix(0.05,0,0,0.05,10,0)" xlink:href="#aC"/><use transform="matrix(0.05,0,0,0.05,20,0)" xlink:href="#at"/><use transform="matrix(0.05,0,0,0.05,30,0)" xlink:href="#ar"/><use transform="matrix(0.05,0,0,0.05,39,0)" xlink:href="#aC"/><use transform="matrix(0.05,0,0,0.05,49,0)" xlink:href="#aA"/><use transform="matrix(0.05,0,0,0.05,54,0)" xlink:href="#aZ"/><use transform="matrix(0.05,0,0,0.05,64,0)" xlink:href="#aC"/><use transform="matrix(0.05,0,0,0.05,74,0)" xlink:href="#at"/><use transform="matrix(0.05,0,0,0.05,84,0)" xlink:href="#ar"/><use transform="matrix(0.05,0,0,0.05,93,0)" xlink:href="#aC"/></g><g id="T"><use transform="matrix(0.05,0,0,0.05,0,0)" xlink:href="#ay"/><use transform="matrix(0.05,0,0,0.05,9,0)" xlink:href="#av"/><use transform="matrix(0.05,0,0,0.05,19,0)" xlink:href="#at"/><use transform="matrix(0.05,0,0,0.05,29,0)" xlink:href="#aM"/><use transform="matrix(0.05,0,0,0.05,39,0)" xlink:href="#aR"/><use transform="matrix(0.05,0,0,0.05,47.95,0)" xlink:href="#as"/><use transform="matrix(0.05,0,0,0.05,57.95,0)" xlink:href="#aT"/><use transform="matrix(0.05,0,0,0.05,70.9,0)" xlink:href="#ay"/><use transform="matrix(0.05,0,0,0.05,79.9,0)" xlink:href="#av"/><use transform="matrix(0.05,0,0,0.05,89.9,0)" xlink:href="#az"/></g><g id="U"><use transform="matrix(0.05,0,0,0.05,0,0)" xlink:href="#aM"/><use transform="matrix(0.05,0,0,0.05,10,0)" xlink:href="#av"/><use transform="matrix(0.05,0,0,0.05,20,0)" xlink:href="#ay"/><use transform="matrix(0.05,0,0,0.05,29,0)" xlink:href="#au"/><use transform="matrix(0.05,0,0,0.05,34,0)" xlink:href="#aF"/><use transform="matrix(0.05,0,0,0.05,37.95,0)" xlink:href="#at"/><use transform="matrix(0.05,0,0,0.05,47.95,0)" xlink:href="#aC"/><use transform="matrix(0.05,0,0,0.05,57.95,0)" xlink:href="#au"/><use transform="matrix(0.05,0,0,0.05,62.95,0)" xlink:href="#aC"/><use transform="matrix(0.05,0,0,0.05,72.95,0)" xlink:href="#az"/><use transform="matrix(0.05,0,0,0.05,78.9,0)" xlink:href="#aF"/><use transform="matrix(0.05,0,0,0.05,82.85000000000001,0)" xlink:href="#as"/><use transform="matrix(0.05,0,0,0.05,92.85000000000001,0)" xlink:href="#aA"/><use transform="matrix(0.05,0,0,0.05,97.85000000000001,0)" xlink:href="#ar"/><use transform="matrix(0.05,0,0,0.05,106.85000000000001,0)" xlink:href="#as"/><use transform="matrix(0.05,0,0,0.05,116.85000000000001,0)" xlink:href="#at"/><use transform="matrix(0.05,0,0,0.05,126.85000000000001,0)" xlink:href="#au"/><use transform="matrix(0.05,0,0,0.05,131.85000000000002,0)" xlink:href="#as"/><use transform="matrix(0.05,0,0,0.05,141.85000000000002,0)" xlink:href="#aX"/><use transform="matrix(0.05,0,0,0.05,154.8,0)" xlink:href="#as"/><use transform="matrix(0.05,0,0,0.05,164.8,0)" xlink:href="#az"/><use transform="matrix(0.05,0,0,0.05,170.75,0)" xlink:href="#az"/><use transform="matrix(0.05,0,0,0.05,176.7,0)" xlink:href="#av"/><use transform="matrix(0.05,0,0,0.05,186.7,0)" xlink:href="#at"/><use transform="matrix(0.05,0,0,0.05,196.7,0)" xlink:href="#au"/><use transform="matrix(0.05,0,0,0.05,201.7,0)" xlink:href="#av"/></g><g id="V"><use transform="matrix(0.05,0,0,0.05,0,0)" xlink:href="#ar"/><use transform="matrix(0.05,0,0,0.05,9,0)" xlink:href="#as"/><use transform="matrix(0.05,0,0,0.05,19,0)" xlink:href="#aB"/><use transform="matrix(0.05,0,0,0.05,33.95,0)" xlink:href="#aJ"/><use transform="matrix(0.05,0,0,0.05,43.95,0)" xlink:href="#aC"/><use transform="matrix(0.05,0,0,0.05,53.95,0)" xlink:href="#aO"/><use transform="matrix(0.05,0,0,0.05,63.95,0)" xlink:href="#at"/><use transform="matrix(0.05,0,0,0.05,73.95,0)" xlink:href="#aF"/><use transform="matrix(0.05,0,0,0.05,77.9,0)" xlink:href="#aC"/><use transform="matrix(0.05,0,0,0.05,87.9,0)" xlink:href="#aR"/><use transform="matrix(0.05,0,0,0.05,96.85000000000001,0)" xlink:href="#av"/><use transform="matrix(0.05,0,0,0.05,106.85000000000001,0)" xlink:href="#aL"/><use transform="matrix(0.05,0,0,0.05,110.80000000000001,0)" xlink:href="#av"/><use transform="matrix(0.05,0,0,0.05,120.80000000000001,0)" xlink:href="#aG"/><use transform="matrix(0.05,0,0,0.05,125.80000000000001,0)" xlink:href="#as"/><use transform="matrix(0.05,0,0,0.05,135.8,0)" xlink:href="#at"/><use transform="matrix(0.05,0,0,0.05,145.8,0)" xlink:href="#aF"/><use transform="matrix(0.05,0,0,0.05,149.75,0)" xlink:href="#ar"/><use transform="matrix(0.05,0,0,0.05,158.75,0)" xlink:href="#aC"/></g><g id="W"><use transform="matrix(0.05,0,0,0.05,0,0)" xlink:href="#at"/><use transform="matrix(0.05,0,0,0.05,10,0)" xlink:href="#as"/><use transform="matrix(0.05,0,0,0.05,20,0)" xlink:href="#aB"/><use transform="matrix(0.05,0,0,0.05,34.95,0)" xlink:href="#av"/><use transform="matrix(0.05,0,0,0.05,44.95,0)" xlink:href="#aX"/><use transform="matrix(0.05,0,0,0.05,57.900000000000006,0)" xlink:href="#as"/><use transform="matrix(0.05,0,0,0.05,67.9,0)" xlink:href="#aB"/><use transform="matrix(0.05,0,0,0.05,82.85000000000001,0)" xlink:href="#aJ"/><use transform="matrix(0.05,0,0,0.05,92.85000000000001,0)" xlink:href="#aC"/><use transform="matrix(0.05,0,0,0.05,102.85000000000001,0)" xlink:href="#aO"/><use transform="matrix(0.05,0,0,0.05,112.85000000000001,0)" xlink:href="#at"/><use transform="matrix(0.05,0,0,0.05,122.85000000000001,0)" xlink:href="#aF"/><use transform="matrix(0.05,0,0,0.05,126.80000000000001,0)" xlink:href="#aC"/><use transform="matrix(0.05,0,0,0.05,136.8,0)" xlink:href="#aA"/><use transform="matrix(0.05,0,0,0.05,141.8,0)" xlink:href="#ay"/><use transform="matrix(0.05,0,0,0.05,150.8,0)" xlink:href="#au"/><use transform="matrix(0.05,0,0,0.05,155.8,0)" xlink:href="#az"/><use transform="matrix(0.05,0,0,0.05,161.75,0)" xlink:href="#aF"/><use transform="matrix(0.05,0,0,0.05,165.7,0)" xlink:href="#at"/><use transform="matrix(0.05,0,0,0.05,175.7,0)" xlink:href="#aO"/></g><g id="X"><use transform="matrix(0.05,0,0,0.05,0,0)" xlink:href="#ar"/><use transform="matrix(0.05,0,0,0.05,9,0)" xlink:href="#as"/><use transform="matrix(0.05,0,0,0.05,19,0)" xlink:href="#aM"/><use transform="matrix(0.05,0,0,0.05,29,0)" xlink:href="#aF"/><use transform="matrix(0.05,0,0,0.05,32.95,0)" xlink:href="#ar"/><use transform="matrix(0.05,0,0,0.05,41.95,0)" xlink:href="#av"/><use transform="matrix(0.05,0,0,0.05,51.95,0)" xlink:href="#aX"/><use transform="matrix(0.05,0,0,0.05,64.9,0)" xlink:href="#as"/><use transform="matrix(0.05,0,0,0.05,74.9,0)" xlink:href="#aB"/><use transform="matrix(0.05,0,0,0.05,89.85000000000001,0)" xlink:href="#aJ"/><use transform="matrix(0.05,0,0,0.05,99.85000000000001,0)" xlink:href="#aC"/><use transform="matrix(0.05,0,0,0.05,109.85000000000001,0)" xlink:href="#aO"/><use transform="matrix(0.05,0,0,0.05,119.85000000000001,0)" xlink:href="#at"/><use transform="matrix(0.05,0,0,0.05,129.85000000000002,0)" xlink:href="#aF"/><use transform="matrix(0.05,0,0,0.05,133.8,0)" xlink:href="#aC"/><use transform="matrix(0.05,0,0,0.05,143.8,0)" xlink:href="#aA"/><use transform="matrix(0.05,0,0,0.05,148.8,0)" xlink:href="#ay"/><use transform="matrix(0.05,0,0,0.05,157.8,0)" xlink:href="#au"/><use transform="matrix(0.05,0,0,0.05,162.8,0)" xlink:href="#az"/><use transform="matrix(0.05,0,0,0.05,168.75,0)" xlink:href="#aF"/><use transform="matrix(0.05,0,0,0.05,172.7,0)" xlink:href="#at"/><use transform="matrix(0.05,0,0,0.05,182.7,0)" xlink:href="#aO"/></g><g id="Y"><use transform="matrix(0.05,0,0,0.05,0,0)" xlink:href="#aZ"/><use transform="matrix(0.05,0,0,0.05,10,0)" xlink:href="#aC"/><use transform="matrix(0.05,0,0,0.05,20,0)" xlink:href="#at"/><use transform="matrix(0.05,0,0,0.05,30,0)" xlink:href="#ar"/><use transform="matrix(0.05,0,0,0.05,39,0)" xlink:href="#aC"/></g><g id="Z"><use transform="matrix(0.05,0,0,0.05,0,0)" xlink:href="#at"/><use transform="matrix(0.05,0,0,0.05,10,0)" xlink:href="#as"/><use transform="matrix(0.05,0,0,0.05,20,0)" xlink:href="#aB"/><use transform="matrix(0.05,0,0,0.05,34.95,0)" xlink:href="#av"/><use transform="matrix(0.05,0,0,0.05,44.95,0)" xlink:href="#aE"/><use transform="matrix(0.05,0,0,0.05,56.95,0)" xlink:href="#aC"/><use transform="matrix(0.05,0,0,0.05,66.95,0)" xlink:href="#at"/><use transform="matrix(0.05,0,0,0.05,76.95,0)" xlink:href="#ar"/><use transform="matrix(0.05,0,0,0.05,85.95,0)" xlink:href="#aC"/><use transform="matrix(0.05,0,0,0.05,95.95,0)" xlink:href="#aA"/><use transform="matrix(0.05,0,0,0.05,100.95,0)" xlink:href="#ay"/><use transform="matrix(0.05,0,0,0.05,109.95,0)" xlink:href="#au"/><use transform="matrix(0.05,0,0,0.05,114.95,0)" xlink:href="#az"/><use transform="matrix(0.05,0,0,0.05,120.9,0)" xlink:href="#aF"/><use transform="matrix(0.05,0,0,0.05,124.85000000000001,0)" xlink:href="#at"/><use transform="matrix(0.05,0,0,0.05,134.85000000000002,0)" xlink:href="#aO"/></g><g id="aa"><use transform="matrix(0.05,0,0,0.05,0,0)" xlink:href="#aC"/><use transform="matrix(0.05,0,0,0.05,10,0)" xlink:href="#aM"/><use transform="matrix(0.05,0,0,0.05,20,0)" xlink:href="#aM"/><use transform="matrix(0.05,0,0,0.05,30,0)" xlink:href="#az"/><use transform="matrix(0.05,0,0,0.05,35.95,0)" xlink:href="#av"/><use transform="matrix(0.05,0,0,0.05,45.95,0)" xlink:href="#ay"/><use transform="matrix(0.05,0,0,0.05,54.95,0)" xlink:href="#ay"/><use transform="matrix(0.05,0,0,0.05,63.95,0)" xlink:href="#aA"/><use transform="matrix(0.05,0,0,0.05,68.95,0)" xlink:href="#aC"/><use transform="matrix(0.05,0,0,0.05,78.95,0)" xlink:href="#aM"/><use transform="matrix(0.05,0,0,0.05,88.95,0)" xlink:href="#aM"/><use transform="matrix(0.05,0,0,0.05,98.95,0)" xlink:href="#az"/><use transform="matrix(0.05,0,0,0.05,104.9,0)" xlink:href="#av"/><use transform="matrix(0.05,0,0,0.05,114.9,0)" xlink:href="#ay"/><use transform="matrix(0.05,0,0,0.05,123.9,0)" xlink:href="#ay"/></g><g id="ab"><use transform="matrix(0.05,0,0,0.05,0,0)" xlink:href="#aM"/><use transform="matrix(0.05,0,0,0.05,10,0)" xlink:href="#aC"/><use transform="matrix(0.05,0,0,0.05,20,0)" xlink:href="#au"/><use transform="matrix(0.05,0,0,0.05,25,0)" xlink:href="#av"/></g><g id="ac"><use transform="matrix(0.05,0,0,0.05,0,0)" xlink:href="#aS"/><use transform="matrix(0.05,0,0,0.05,9,0)" xlink:href="#av"/><use transform="matrix(0.05,0,0,0.05,19,0)" xlink:href="#aC"/><use transform="matrix(0.05,0,0,0.05,29,0)" xlink:href="#az"/><use transform="matrix(0.05,0,0,0.05,34.95,0)" xlink:href="#aA"/><use transform="matrix(0.05,0,0,0.05,39.95,0)" xlink:href="#aF"/><use transform="matrix(0.05,0,0,0.05,43.900000000000006,0)" xlink:href="#at"/><use transform="matrix(0.05,0,0,0.05,53.900000000000006,0)" xlink:href="#au"/></g><path d="M106-169C34-169 62-67 57 0H25v-261h32l-1 103c12-21 28-36 61-36 89 0 53 116 60 194h-32v-121c2-32-8-49-39-48" id="bi"/><g id="ad"><use transform="matrix(0.05,0,0,0.05,0,0)" xlink:href="#aB"/><use transform="matrix(0.05,0,0,0.05,14.950000000000001,0)" xlink:href="#as"/><use transform="matrix(0.05,0,0,0.05,24.950000000000003,0)" xlink:href="#at"/><use transform="matrix(0.05,0,0,0.05,34.95,0)" xlink:href="#au"/><use transform="matrix(0.05,0,0,0.05,39.95,0)" xlink:href="#bi"/><use transform="matrix(0.05,0,0,0.05,49.95,0)" xlink:href="#aA"/><use transform="matrix(0.05,0,0,0.05,54.95,0)" xlink:href="#aF"/><use transform="matrix(0.05,0,0,0.05,58.900000000000006,0)" xlink:href="#at"/><use transform="matrix(0.05,0,0,0.05,68.9,0)" xlink:href="#au"/></g><g id="ae"><use transform="matrix(0.05,0,0,0.05,0,0)" xlink:href="#aM"/><use transform="matrix(0.05,0,0,0.05,10,0)" xlink:href="#aC"/><use transform="matrix(0.05,0,0,0.05,20,0)" xlink:href="#aS"/><use transform="matrix(0.05,0,0,0.05,29,0)" xlink:href="#aA"/><use transform="matrix(0.05,0,0,0.05,34,0)" xlink:href="#aF"/><use transform="matrix(0.05,0,0,0.05,37.95,0)" xlink:href="#at"/><use transform="matrix(0.05,0,0,0.05,47.95,0)" xlink:href="#au"/></g><g id="af"><use transform="matrix(0.05,0,0,0.05,0,0)" xlink:href="#bi"/><use transform="matrix(0.05,0,0,0.05,10,0)" xlink:href="#as"/><use transform="matrix(0.05,0,0,0.05,20,0)" xlink:href="#ax"/><use transform="matrix(0.05,0,0,0.05,30,0)" xlink:href="#az"/><use transform="matrix(0.05,0,0,0.05,35.95,0)" xlink:href="#aA"/><use transform="matrix(0.05,0,0,0.05,40.95,0)" xlink:href="#aF"/><use transform="matrix(0.05,0,0,0.05,44.900000000000006,0)" xlink:href="#at"/><use transform="matrix(0.05,0,0,0.05,54.900000000000006,0)" xlink:href="#au"/></g><g id="ag"><use transform="matrix(0.05,0,0,0.05,0,0)" xlink:href="#aB"/><use transform="matrix(0.05,0,0,0.05,14.950000000000001,0)" xlink:href="#aF"/><use transform="matrix(0.05,0,0,0.05,18.900000000000002,0)" xlink:href="#at"/><use transform="matrix(0.05,0,0,0.05,28.900000000000002,0)" xlink:href="#ax"/><use transform="matrix(0.05,0,0,0.05,38.900000000000006,0)" xlink:href="#au"/><use transform="matrix(0.05,0,0,0.05,43.900000000000006,0)" xlink:href="#av"/><use transform="matrix(0.05,0,0,0.05,53.900000000000006,0)" xlink:href="#aA"/><use transform="matrix(0.05,0,0,0.05,58.900000000000006,0)" xlink:href="#aF"/><use transform="matrix(0.05,0,0,0.05,62.85,0)" xlink:href="#at"/><use transform="matrix(0.05,0,0,0.05,72.85000000000001,0)" xlink:href="#au"/></g><g id="ah"><use transform="matrix(0.05,0,0,0.05,0,0)" xlink:href="#ay"/><use transform="matrix(0.05,0,0,0.05,9,0)" xlink:href="#av"/><use transform="matrix(0.05,0,0,0.05,19,0)" xlink:href="#ar"/><use transform="matrix(0.05,0,0,0.05,28,0)" xlink:href="#as"/><use transform="matrix(0.05,0,0,0.05,38,0)" xlink:href="#at"/><use transform="matrix(0.05,0,0,0.05,48,0)" xlink:href="#aM"/><use transform="matrix(0.05,0,0,0.05,58,0)" xlink:href="#aA"/><use transform="matrix(0.05,0,0,0.05,63,0)" xlink:href="#aF"/><use transform="matrix(0.05,0,0,0.05,66.95,0)" xlink:href="#at"/><use transform="matrix(0.05,0,0,0.05,76.95,0)" xlink:href="#au"/></g><g id="ai"><use transform="matrix(0.05,0,0,0.05,0,0)" xlink:href="#aC"/><use transform="matrix(0.05,0,0,0.05,10,0)" xlink:href="#aM"/><use transform="matrix(0.05,0,0,0.05,20,0)" xlink:href="#aM"/><use transform="matrix(0.05,0,0,0.05,30,0)" xlink:href="#az"/><use transform="matrix(0.05,0,0,0.05,35.95,0)" xlink:href="#av"/><use transform="matrix(0.05,0,0,0.05,45.95,0)" xlink:href="#ay"/><use transform="matrix(0.05,0,0,0.05,54.95,0)" xlink:href="#ay"/></g><g id="aj"><use transform="matrix(0.05,0,0,0.05,0,0)" xlink:href="#ay"/><use transform="matrix(0.05,0,0,0.05,9,0)" xlink:href="#au"/><use transform="matrix(0.05,0,0,0.05,14,0)" xlink:href="#az"/><use transform="matrix(0.05,0,0,0.05,19.95,0)" xlink:href="#av"/><use transform="matrix(0.05,0,0,0.05,29.950000000000003,0)" xlink:href="#av"/><use transform="matrix(0.05,0,0,0.05,39.95,0)" xlink:href="#au"/><use transform="matrix(0.05,0,0,0.05,44.95,0)" xlink:href="#aA"/><use transform="matrix(0.05,0,0,0.05,49.95,0)" xlink:href="#ay"/><use transform="matrix(0.05,0,0,0.05,58.95,0)" xlink:href="#au"/><use transform="matrix(0.05,0,0,0.05,63.95,0)" xlink:href="#az"/><use transform="matrix(0.05,0,0,0.05,69.9,0)" xlink:href="#aF"/><use transform="matrix(0.05,0,0,0.05,73.85000000000001,0)" xlink:href="#at"/><use transform="matrix(0.05,0,0,0.05,83.85000000000001,0)" xlink:href="#aO"/></g><g id="ak"><use transform="matrix(0.05,0,0,0.05,0,0)" xlink:href="#ay"/><use transform="matrix(0.05,0,0,0.05,9,0)" xlink:href="#au"/><use transform="matrix(0.05,0,0,0.05,14,0)" xlink:href="#az"/><use transform="matrix(0.05,0,0,0.05,19.95,0)" xlink:href="#av"/><use transform="matrix(0.05,0,0,0.05,29.950000000000003,0)" xlink:href="#av"/><use transform="matrix(0.05,0,0,0.05,39.95,0)" xlink:href="#au"/><use transform="matrix(0.05,0,0,0.05,44.95,0)" xlink:href="#bh"/><use transform="matrix(0.05,0,0,0.05,57.900000000000006,0)" xlink:href="#ax"/><use transform="matrix(0.05,0,0,0.05,67.9,0)" xlink:href="#aB"/><use transform="matrix(0.05,0,0,0.05,82.85000000000001,0)" xlink:href="#aZ"/><use transform="matrix(0.05,0,0,0.05,92.85000000000001,0)" xlink:href="#av"/><use transform="matrix(0.05,0,0,0.05,102.85000000000001,0)" xlink:href="#az"/><use transform="matrix(0.05,0,0,0.05,108.80000000000001,0)" xlink:href="#aA"/><use transform="matrix(0.05,0,0,0.05,113.80000000000001,0)" xlink:href="#aF"/><use transform="matrix(0.05,0,0,0.05,117.75,0)" xlink:href="#at"/><use transform="matrix(0.05,0,0,0.05,127.75,0)" xlink:href="#au"/></g><g id="al"><use transform="matrix(0.05,0,0,0.05,0,0)" xlink:href="#ar"/><use transform="matrix(0.05,0,0,0.05,9,0)" xlink:href="#aF"/><use transform="matrix(0.05,0,0,0.05,12.949999999999998,0)" xlink:href="#au"/><use transform="matrix(0.05,0,0,0.05,17.95,0)" xlink:href="#aS"/><use transform="matrix(0.05,0,0,0.05,26.950000000000003,0)" xlink:href="#aA"/><use transform="matrix(0.05,0,0,0.05,31.950000000000003,0)" xlink:href="#ay"/><use transform="matrix(0.05,0,0,0.05,40.95,0)" xlink:href="#au"/><use transform="matrix(0.05,0,0,0.05,45.95,0)" xlink:href="#az"/><use transform="matrix(0.05,0,0,0.05,51.900000000000006,0)" xlink:href="#aF"/><use transform="matrix(0.05,0,0,0.05,55.85,0)" xlink:href="#at"/><use transform="matrix(0.05,0,0,0.05,65.85000000000001,0)" xlink:href="#aO"/></g><g id="am"><use transform="matrix(0.05,0,0,0.05,0,0)" xlink:href="#bd"/><use transform="matrix(0.05,0,0,0.05,9,0)" xlink:href="#aF"/><use transform="matrix(0.05,0,0,0.05,12.949999999999998,0)" xlink:href="#aJ"/><use transform="matrix(0.05,0,0,0.05,22.95,0)" xlink:href="#aX"/><use transform="matrix(0.05,0,0,0.05,35.9,0)" xlink:href="#as"/><use transform="matrix(0.05,0,0,0.05,45.9,0)" xlink:href="#aM"/><use transform="matrix(0.05,0,0,0.05,55.900000000000006,0)" xlink:href="#av"/><use transform="matrix(0.05,0,0,0.05,65.9,0)" xlink:href="#aA"/><use transform="matrix(0.05,0,0,0.05,70.9,0)" xlink:href="#aF"/><use transform="matrix(0.05,0,0,0.05,74.85000000000001,0)" xlink:href="#at"/><use transform="matrix(0.05,0,0,0.05,84.85000000000001,0)" xlink:href="#au"/></g><g id="an"><use transform="matrix(0.05,0,0,0.05,0,0)" xlink:href="#ar"/><use transform="matrix(0.05,0,0,0.05,9,0)" xlink:href="#as"/><use transform="matrix(0.05,0,0,0.05,19,0)" xlink:href="#ax"/><use transform="matrix(0.05,0,0,0.05,29,0)" xlink:href="#at"/><use transform="matrix(0.05,0,0,0.05,39,0)" xlink:href="#au"/><use transform="matrix(0.05,0,0,0.05,44,0)" xlink:href="#az"/><use transform="matrix(0.05,0,0,0.05,49.95,0)" xlink:href="#aS"/><use transform="matrix(0.05,0,0,0.05,58.95,0)" xlink:href="#aA"/><use transform="matrix(0.05,0,0,0.05,63.95,0)" xlink:href="#ay"/><use transform="matrix(0.05,0,0,0.05,72.95,0)" xlink:href="#au"/><use transform="matrix(0.05,0,0,0.05,77.95,0)" xlink:href="#az"/><use transform="matrix(0.05,0,0,0.05,83.9,0)" xlink:href="#aF"/><use transform="matrix(0.05,0,0,0.05,87.85000000000001,0)" xlink:href="#at"/><use transform="matrix(0.05,0,0,0.05,97.85000000000001,0)" xlink:href="#aO"/></g><g id="ao"><use transform="matrix(0.05,0,0,0.05,0,0)" xlink:href="#ay"/><use transform="matrix(0.05,0,0,0.05,9,0)" xlink:href="#aS"/><use transform="matrix(0.05,0,0,0.05,18,0)" xlink:href="#ay"/><use transform="matrix(0.05,0,0,0.05,27,0)" xlink:href="#au"/><use transform="matrix(0.05,0,0,0.05,32,0)" xlink:href="#av"/><use transform="matrix(0.05,0,0,0.05,42,0)" xlink:href="#aB"/></g><g id="ap"><use transform="matrix(0.05,0,0,0.05,0,0)" xlink:href="#ay"/><use transform="matrix(0.05,0,0,0.05,9,0)" xlink:href="#as"/><use transform="matrix(0.05,0,0,0.05,19,0)" xlink:href="#aO"/><use transform="matrix(0.05,0,0,0.05,29,0)" xlink:href="#aL"/><use transform="matrix(0.05,0,0,0.05,32.95,0)" xlink:href="#aF"/><use transform="matrix(0.05,0,0,0.05,36.900000000000006,0)" xlink:href="#aC"/><use transform="matrix(0.05,0,0,0.05,46.900000000000006,0)" xlink:href="#aP"/><use transform="matrix(0.05,0,0,0.05,61.85,0)" xlink:href="#aF"/><use transform="matrix(0.05,0,0,0.05,65.80000000000001,0)" xlink:href="#at"/><use transform="matrix(0.05,0,0,0.05,75.80000000000001,0)" xlink:href="#aF"/><use transform="matrix(0.05,0,0,0.05,79.75000000000001,0)" xlink:href="#aB"/><use transform="matrix(0.05,0,0,0.05,94.70000000000002,0)" xlink:href="#aC"/><use transform="matrix(0.05,0,0,0.05,104.7,0)" xlink:href="#aA"/><use transform="matrix(0.05,0,0,0.05,109.7,0)" xlink:href="#aG"/><use transform="matrix(0.05,0,0,0.05,114.7,0)" xlink:href="#aL"/><use transform="matrix(0.05,0,0,0.05,118.65000000000003,0)" xlink:href="#as"/><use transform="matrix(0.05,0,0,0.05,128.65000000000003,0)" xlink:href="#aC"/><use transform="matrix(0.05,0,0,0.05,138.65000000000003,0)" xlink:href="#au"/></g><g id="aq"><use transform="matrix(0.05,0,0,0.05,0,0)" xlink:href="#ay"/><use transform="matrix(0.05,0,0,0.05,9,0)" xlink:href="#av"/><use transform="matrix(0.05,0,0,0.05,19,0)" xlink:href="#at"/><use transform="matrix(0.05,0,0,0.05,29,0)" xlink:href="#aM"/><use transform="matrix(0.05,0,0,0.05,39,0)" xlink:href="#aP"/><use transform="matrix(0.05,0,0,0.05,53.95,0)" xlink:href="#av"/><use transform="matrix(0.05,0,0,0.05,63.95,0)" xlink:href="#ay"/><use transform="matrix(0.05,0,0,0.05,72.95,0)" xlink:href="#ay"/><use transform="matrix(0.05,0,0,0.05,81.95,0)" xlink:href="#aC"/><use transform="matrix(0.05,0,0,0.05,91.95,0)" xlink:href="#aO"/><use transform="matrix(0.05,0,0,0.05,101.95,0)" xlink:href="#av"/><use transform="matrix(0.05,0,0,0.05,111.95,0)" xlink:href="#aH"/><use transform="matrix(0.05,0,0,0.05,117.9,0)" xlink:href="#aI"/></g></defs></g></svg>