<svg xmlns="http://www.w3.org/2000/svg" xmlns:xlink="http://www.w3.org/1999/xlink" xmlns:lucid="lucid" width="1487" height="1564"><g transform="translate(-191.70000000001812 -160)" lucid:page-tab-id="0_0"><path d="M391.7 1330h240v60h-240z" fill="none"/><use xlink:href="#a" transform="matrix(1,0,0,1,391.7000000000181,1330) translate(115.14999999999999 33.6)"/><path d="M908.06 1325h240v60h-240z" fill="none"/><use xlink:href="#b" transform="matrix(1,0,0,1,908.0574077530248,1325) translate(196.05 33.6)"/><path d="M1293.06 1325h240v60h-240z" fill="none"/><use xlink:href="#c" transform="matrix(1,0,0,1,1293.0574077530428,1325) translate(0 33.6)"/><path d="M1031.7 600c0 44.18-35.82 80-80 80s-80-35.82-80-80 35.82-80 80-80 80 35.82 80 80z" stroke="#000" stroke-width="2" fill="#fff"/><use xlink:href="#d" transform="matrix(1,0,0,1,876.7000000000181,525) translate(29.599999999999994 80.025)"/><path d="M351.7 540h160v120h-160z" stroke="#000" stroke-width="2" fill="#fff"/><use xlink:href="#e" transform="matrix(1,0,0,1,356.7000000000181,545) translate(56.05 59.0875)"/><path d="M871.7 180h160v120h-160z" stroke="#000" stroke-width="2" fill="#fff"/><use xlink:href="#f" transform="matrix(1,0,0,1,876.7000000000181,185) translate(24.574999999999996 59.0875)"/><path d="M1371.7 540h160v120h-160z" stroke="#000" stroke-width="2" fill="#fff"/><use xlink:href="#g" transform="matrix(1,0,0,1,1376.700000000018,545) translate(13.074999999999996 59.0875)"/><use xlink:href="#h" transform="matrix(1,0,0,1,1376.700000000018,545) translate(81.025 59.0875)"/><path d="M871.7 820h160v120h-160z" stroke="#000" stroke-width="2" fill="#fff"/><use xlink:href="#i" transform="matrix(1,0,0,1,876.7000000000181,825) translate(37.074999999999996 59.0875)"/><path d="M566.38 566.38H531.2v-2h35.18zm311.08 0h-52.68v-2h52.68z"/><path d="M878.3 565.72l-.3.66h-.56v-2h1.53zM530.2 570.02l-14.26-4.64 14.26-4.64z"/><path d="M531.2 571.4l-18.5-6.02 18.5-6zm-12.03-6.02l10.03 3.26v-6.52z"/><use xlink:href="#j" transform="matrix(1,0,0,1,566.3810083857173,554.5801224632031) translate(0 14.4)"/><use xlink:href="#k" transform="matrix(1,0,0,1,566.3810083857173,554.5801224632031) translate(67.80000000000001 14.4)"/><use xlink:href="#l" transform="matrix(1,0,0,1,566.3810083857173,554.5801224632031) translate(169.55 14.4)"/><use xlink:href="#m" transform="matrix(1,0,0,1,566.3810083857173,554.5801224632031) translate(184.55 14.4)"/><path d="M604.32 631.5H513.7v-2h90.62zm253.82 0h-73.12v-2h73.12z"/><path d="M513.73 631.5h-1.03v-2h1.03zM873.4 630.5l-14.26 4.64v-9.28z"/><path d="M876.65 630.5l-18.5 6v-12zm-16.5 3.26l10.02-3.26-10.03-3.26z"/><use xlink:href="#n" transform="matrix(1,0,0,1,604.3231516074881,619.7001557669113) translate(0 14.4)"/><use xlink:href="#o" transform="matrix(1,0,0,1,604.3231516074881,619.7001557669113) translate(114.80000000000001 14.4)"/><use xlink:href="#p" transform="matrix(1,0,0,1,604.3231516074881,619.7001557669113) translate(147.75 14.4)"/><path d="M1172.38 551.87h-155.3v-2h155.3zm179.82 0h-137.82v-2h137.82z"/><path d="M1017.1 551.87h-1.03v-2h1.02zM1367.46 550.87l-14.26 4.64v-9.26z"/><path d="M1370.7 550.87l-18.5 6.02v-12.04zm-16.5 3.26l10.03-3.26-10.03-3.25z"/><use xlink:href="#q" transform="matrix(1,0,0,1,1172.3827611826773,540.0742970596068) translate(0 14.4)"/><path d="M1138.33 631.22h-92.97v-2h92.97zm231.37 0h-110.47v-2h110.47z"/><path d="M1370.7 631.22h-1.03v-2h1.03zM1044.36 634.86l-14.27-4.64 14.26-4.63z"/><path d="M1045.36 636.23l-18.5-6 18.5-6.02zm-12.03-6l10.03 3.25v-6.52z"/><use xlink:href="#r" transform="matrix(1,0,0,1,1138.3278623779017,619.4225107537515) translate(0 14.4)"/><use xlink:href="#s" transform="matrix(1,0,0,1,1138.3278623779017,619.4225107537515) translate(61.900000000000006 14.4)"/><path d="M904.8 533.66h-2v-133.8h2zm0-155.4h-2V319.5h2z"/><path d="M904.8 533.98l-1 .68-1 .8v-1.82h2zM908.45 318.5h-9.27l4.63-14.26z"/><path d="M909.83 319.5H897.8l6-18.5zm-9.28-2h6.52l-3.26-10.03z"/><use xlink:href="#t" transform="matrix(1,0,0,1,825.9633270538945,378.2543297432906) translate(0 14.4)"/><use xlink:href="#u" transform="matrix(1,0,0,1,825.9633270538945,378.2543297432906) translate(59.95 14.4)"/><path d="M1000.3 515.97h-2v-64.92h2zm0-86.52h-2V302h2z"/><path d="M1000.3 302.03h-2V301h2zM999.3 531.24l-4.63-14.27h9.27z"/><path d="M999.3 534.47l-6-18.5h12.02zm-3.25-16.5L999.3 528l3.27-10.03z"/><use xlink:href="#q" transform="matrix(1,0,0,1,978.308937649612,429.44568892003934) translate(0 14.4)"/><path d="M992.45 800.5h-2v-65.06h2zm0-86.66h-2v-42.26h2z"/><path d="M992.45 671.6h-2v-.47l.6-.32 1.4-.82zM991.45 815.76l-4.64-14.26h9.28z"/><path d="M991.45 819l-6.02-18.5h12.03zm-3.26-16.5l3.25 10.03 3.25-10.03z"/><use xlink:href="#v" transform="matrix(1,0,0,1,937.0957848599132,713.8421287908659) translate(0 14.4)"/><use xlink:href="#w" transform="matrix(1,0,0,1,937.0957848599132,713.8421287908659) translate(36.900000000000006 14.4)"/><path d="M915 818h-2v-41.22h2zm0-62.82h-2v-65h2z"/><path d="M915 819h-2v-1.03h2zM918.63 689.17h-9.28L914 674.9z"/><path d="M920 690.17h-12.02l6-18.5zm-9.27-2h6.52L914 678.15z"/><use xlink:href="#x" transform="matrix(1,0,0,1,887.0400056883639,755.1787121818633) translate(0 14.4)"/><path d="M591.7 1020h160v220h-160z" stroke="#000" stroke-width="2" fill="#fff"/><path d="M741.7 1030h-15v20h15z" stroke="#000" fill="#fff"/><path d="M731.7 1033.33h-10v3.34h10zm0 10h-10v3.34h10z" stroke="#000" fill="#fff"/><use xlink:href="#y" transform="matrix(1,0,0,1,591.7000000000361,1020) translate(5.054999999999987 110.65)"/><use xlink:href="#z" transform="matrix(1,0,0,1,591.7000000000361,1020) translate(82.005 110.65)"/><path d="M1136.34 1020h160v220h-160z" stroke="#000" stroke-width="2" fill="#fff"/><path d="M1286.34 1030h-15v20h15z" stroke="#000" fill="#fff"/><path d="M1276.34 1033.33h-10v3.34h10zm0 10h-10v3.34h10z" stroke="#000" fill="#fff"/><use xlink:href="#A" transform="matrix(1,0,0,1,1136.3425922470117,1020) translate(36.05499999999999 110.65)"/><path d="M587.06 1480h160v120h-160z" stroke="#000" stroke-width="2" fill="#fff"/><path d="M737.06 1490h-15v20h15z" stroke="#000" fill="#fff"/><path d="M727.06 1493.33h-10v3.34h10zm0 10h-10v3.34h10z" stroke="#000" fill="#fff"/><use xlink:href="#B" transform="matrix(1,0,0,1,587.0574077530428,1480) translate(44.029999999999994 51.9)"/><use xlink:href="#C" transform="matrix(1,0,0,1,587.0574077530428,1480) translate(39.10499999999999 73.5)"/><path d="M671.7 1385v-11M671.7 1340v-5" stroke="#000" stroke-width="2" fill="none"/><path d="M657.7 1360c0-7.73 6.27-14 14-14s14 6.27 14 14-6.27 14-14 14-14-6.27-14-14z" stroke="#000" stroke-width="2" fill="#fff"/><path d="M691.7 1360c0-11.05-8.95-20-20-20s-20 8.95-20 20" stroke="#000" stroke-width="2" fill="none"/><path d="M670.9 1385v-11h1.6v11z" fill="none"/><path d="M671.7 1334v-92" stroke="#000" stroke-width="2" fill="none"/><path d="M670.7 1335v-1.03h2v1.03zM672.7 1242.03h-2V1241h2z"/><path d="M671.7 1386v92" stroke="#000" stroke-width="2" fill="none"/><path d="M672.7 1386.03h-2V1385h2zM672.7 1479h-2v-1.03h2z"/><path d="M671.7 1334v-72" stroke="#000" stroke-width="2" fill="none"/><path d="M670.7 1335v-1.03h2v1.03z"/><path d="M671.7 1262.03V1261M671.7 1334v-72" stroke="#000" stroke-width="2" fill="none"/><path d="M670.7 1335v-1.03h2v1.03z"/><path d="M671.7 1262.03V1261M716.7 1634v-32" stroke="#000" stroke-width="2" fill="none"/><path d="M715.7 1635v-1.03h2v1.03zM717.7 1602.03h-2V1601h2z"/><path d="M626.4 1602v21h.3v21" stroke="#000" stroke-width="2" fill="none"/><path d="M627.4 1602.03h-2V1601h2zM625.7 1645v-1.03h2v1.03z"/><g fill="none"><path d="M626.7 1655v-10m-20 30c0-11.05 8.95-20 20-20s20 8.95 20 20" stroke="#000" stroke-width="2"/><path d="M606.7 1675c0-11.05 8.95-20 20-20s20 8.95 20 20zM625.9 1655v-10h1.6v10z"/></g><path d="M501.7 1625.2h100v74.8h-100z" stroke="#000" stroke-opacity="0" stroke-width="2" fill="#fff" fill-opacity="0"/><use xlink:href="#D" transform="matrix(1,0,0,1,506.7000000000181,1630.1999999999998) translate(1.0749999999999957 24.55625)"/><use xlink:href="#E" transform="matrix(1,0,0,1,506.7000000000181,1630.1999999999998) translate(17.025 46.15625)"/><path d="M747.06 1626h100v78h-100z" stroke="#000" stroke-opacity="0" stroke-width="2" fill="#fff" fill-opacity="0"/><use xlink:href="#F" transform="matrix(1,0,0,1,752.0574077530428,1631) translate(-0.9750000000000014 16.5)"/><use xlink:href="#G" transform="matrix(1,0,0,1,752.0574077530428,1631) translate(2.5749999999999957 38.1)"/><use xlink:href="#H" transform="matrix(1,0,0,1,752.0574077530428,1631) translate(73.475 38.1)"/><use xlink:href="#z" transform="matrix(1,0,0,1,752.0574077530428,1631) translate(8.524999999999999 59.7)"/><path d="M495.38 1160h10m-30-20c11.04 0 20 8.95 20 20s-8.96 20-20 20" stroke="#000" stroke-width="2" fill="none"/><path d="M475.38 1140c11.04 0 20 8.95 20 20s-8.96 20-20 20zM495.38 1159.2h10v1.6h-10z" fill="none"/><path d="M506.38 1100h83.32" stroke="#000" stroke-width="2" fill="none"/><path d="M506.4 1101h-1.02v-2h1.02zM590.7 1101h-1.03v-2h1.03z"/><path d="M506.38 1160h83.32" stroke="#000" stroke-width="2" fill="none"/><path d="M506.4 1161h-1.02v-2h1.02zM590.7 1161h-1.03v-2h1.03z"/><path d="M211.7 1130h260v60h-260z" stroke="#000" stroke-opacity="0" stroke-width="2" fill="#fff" fill-opacity="0"/><use xlink:href="#I" transform="matrix(1,0,0,1,216.70000000001812,1135) translate(172.14999999999998 30.025)"/><path d="M211.7 1070h260v60h-260z" stroke="#000" stroke-opacity="0" stroke-width="2" fill="#fff" fill-opacity="0"/><use xlink:href="#J" transform="matrix(1,0,0,1,216.70000000001812,1075) translate(75.5 30.025)"/><path d="M908.06 1130h11M953.06 1130h5" stroke="#000" stroke-width="2" fill="none"/><path d="M933.06 1116c7.73 0 14 6.27 14 14s-6.27 14-14 14-14-6.27-14-14 6.27-14 14-14z" stroke="#000" stroke-width="2" fill="#fff"/><path d="M933.06 1150c11.04 0 20-8.95 20-20s-8.96-20-20-20" stroke="#000" stroke-width="2" fill="none"/><path d="M908.06 1129.2h11v1.6h-11z" fill="none"/><path d="M959.06 1130h175.28" stroke="#000" stroke-width="2" fill="none"/><path d="M959.08 1131h-1.02v-2h1.02zM1135.34 1131h-1.02v-2h1.02z"/><path d="M907.06 1130H753.7" stroke="#000" stroke-width="2" fill="none"/><path d="M908.06 1131h-1.03v-2h1.03zM753.73 1131h-1.03v-2h1.03z"/><path d="M818.06 1145h240v60h-240z" stroke="#000" stroke-opacity="0" stroke-width="2" fill="#fff" fill-opacity="0"/><use xlink:href="#K" transform="matrix(1,0,0,1,823.0574077530247,1150.0000000001164) translate(28.549999999999997 30.025)"/><use xlink:href="#L" transform="matrix(1,0,0,1,823.0574077530247,1150.0000000001164) translate(151.45 30.025)"/><path d="M716.7 1635v10m0 40c-11.05 0-20-8.95-20-20s8.95-20 20-20 20 8.95 20 20-8.95 20-20 20z" stroke="#000" stroke-width="2" fill="#fff"/><path d="M717.5 1635v10h-1.6v-10z" fill="none"/><path d="M1128.84 1470h160v160h-160z" stroke="#000" stroke-width="2" fill="#fff"/><path d="M1278.84 1480h-15v20h15z" stroke="#000" fill="#fff"/><path d="M1268.84 1483.33h-10v3.34h10zm0 10h-10v3.34h10z" stroke="#000" fill="#fff"/><use xlink:href="#M" transform="matrix(1,0,0,1,1128.8425922470205,1470) translate(38.07999999999999 74.4)"/><use xlink:href="#H" transform="matrix(1,0,0,1,1128.8425922470205,1470) translate(107.98 74.4)"/><use xlink:href="#N" transform="matrix(1,0,0,1,1128.8425922470205,1470) translate(22.054999999999993 96)"/><path d="M1248.06 1328v-86M1248.06 1327.97v1.03" stroke="#000" stroke-width="2" fill="none"/><path d="M1249.06 1242.03h-2V1241h2z"/><path d="M1248.06 1325v11M1248.06 1370v5" stroke="#000" stroke-width="2" fill="none"/><path d="M1262.06 1350c0 7.73-6.27 14-14 14s-14-6.27-14-14 6.27-14 14-14 14 6.27 14 14z" stroke="#000" stroke-width="2" fill="#fff"/><path d="M1228.06 1350c0 11.05 8.95 20 20 20 11.04 0 20-8.95 20-20" stroke="#000" stroke-width="2" fill="none"/><path d="M1248.86 1325v11h-1.6v-11z" fill="none"/><path d="M1248.06 1376v92" stroke="#000" stroke-width="2" fill="none"/><path d="M1249.06 1376.03h-2V1375h2zM1249.06 1469h-2v-1.03h2z"/><path d="M1191.38 1329v-87M1191.38 1328.97v1.03" stroke="#000" stroke-width="2" fill="none"/><path d="M1192.38 1242.03h-2V1241h2z"/><path d="M1191.38 1326v11M1191.38 1371v5" stroke="#000" stroke-width="2" fill="none"/><path d="M1205.38 1351c0 7.73-6.27 14-14 14s-14-6.27-14-14 6.27-14 14-14 14 6.27 14 14z" stroke="#000" stroke-width="2" fill="#fff"/><path d="M1171.38 1351c0 11.05 8.95 20 20 20 11.04 0 20-8.95 20-20" stroke="#000" stroke-width="2" fill="none"/><path d="M1192.18 1326v11h-1.6v-11z" fill="none"/><path d="M1191.38 1377v91" stroke="#000" stroke-width="2" fill="none"/><path d="M1192.38 1377.03h-2V1376h2zM1192.38 1469h-2v-1.03h2z"/><g fill="none"><path d="M1380.34 1200h-10m30 20c-11.04 0-20-8.95-20-20s8.96-20 20-20" stroke="#000" stroke-width="2"/><path d="M1400.34 1220c-11.04 0-20-8.95-20-20s8.96-20 20-20zM1380.34 1200.8h-10v-1.6h10z"/></g><path d="M1418.7 1170h240v60h-240z" stroke="#000" stroke-opacity="0" stroke-width="2" fill="#fff" fill-opacity="0"/><g><use xlink:href="#O" transform="matrix(1,0,0,1,1423.6999999999816,1175) translate(0 30.025)"/><use xlink:href="#P" transform="matrix(1,0,0,1,1423.6999999999816,1175) translate(75.9 30.025)"/></g><g fill="none"><path d="M1378.7 1080h-10m30 20c-11.05 0-20-8.95-20-20s8.95-20 20-20" stroke="#000" stroke-width="2"/><path d="M1398.7 1100c-11.05 0-20-8.95-20-20s8.95-20 20-20zM1378.7 1080.8h-10v-1.6h10z"/></g><path d="M1418.7 1110h240v60h-240z" stroke="#000" stroke-opacity="0" stroke-width="2" fill="#fff" fill-opacity="0"/><g><use xlink:href="#Q" transform="matrix(1,0,0,1,1423.6999999999816,1115) translate(0 30.025)"/></g><g fill="none"><path d="M1379.06 1140h-10m30 20c-11.05 0-20-8.95-20-20s8.95-20 20-20" stroke="#000" stroke-width="2"/><path d="M1399.06 1160c-11.05 0-20-8.95-20-20s8.95-20 20-20zM1379.06 1140.8h-10v-1.6h10z"/></g><path d="M1418.7 1050h240v60h-240z" stroke="#000" stroke-opacity="0" stroke-width="2" fill="#fff" fill-opacity="0"/><g><use xlink:href="#R" transform="matrix(1,0,0,1,1423.6999999999816,1055) translate(0 30.025)"/></g><path d="M1367.7 1080h-70.36" stroke="#000" stroke-width="2" fill="none"/><path d="M1368.7 1081h-1.03v-2h1.03z"/><path d="M1297.37 1080h-1.03M1368.06 1140h-70.72" stroke="#000" stroke-width="2" fill="none"/><path d="M1369.06 1141h-1.03v-2h1.03z"/><path d="M1297.37 1140h-1.03M1369.34 1200h-72" stroke="#000" stroke-width="2" fill="none"/><path d="M1370.34 1201h-1.02v-2h1.02z"/><path d="M1297.37 1200h-1.03M495.38 1100h10m-30-20c11.04 0 20 8.95 20 20s-8.96 20-20 20" stroke="#000" stroke-width="2" fill="none"/><path d="M475.38 1080c11.04 0 20 8.95 20 20s-8.96 20-20 20zM495.38 1099.2h10v1.6h-10z" fill="none"/><path d="M341.7 1130" stroke="#000" stroke-width="2" fill="none"/><path/><path/><defs><path d="M240 0l2-218c-23 76-54 145-80 218h-23L58-218 59 0H30v-248h44l77 211c21-75 51-140 76-211h43V0h-30" id="S"/><path d="M100-194c62-1 85 37 85 99 1 63-27 99-86 99S16-35 15-95c0-66 28-99 85-99zM99-20c44 1 53-31 53-75 0-43-8-75-51-75s-53 32-53 75 10 74 51 75" id="T"/><path d="M117-194c89-4 53 116 60 194h-32v-121c0-31-8-49-39-48C34-167 62-67 57 0H25l-1-190h30c1 10-1 24 2 32 11-22 29-35 61-36" id="U"/><path d="M100-194c63 0 86 42 84 106H49c0 40 14 67 53 68 26 1 43-12 49-29l28 8c-11 28-37 45-77 45C44 4 14-33 15-96c1-61 26-98 85-98zm52 81c6-60-76-77-97-28-3 7-6 17-6 28h103" id="V"/><path d="M59-47c-2 24 18 29 38 22v24C64 9 27 4 27-40v-127H5v-23h24l9-43h21v43h35v23H59v120" id="W"/><path d="M24-231v-30h32v30H24zM24 0v-190h32V0H24" id="X"/><path d="M9 0v-24l116-142H16v-24h144v24L44-24h123V0H9" id="Y"/><path d="M141-36C126-15 110 5 73 4 37 3 15-17 15-53c-1-64 63-63 125-63 3-35-9-54-41-54-24 1-41 7-42 31l-33-3c5-37 33-52 76-52 45 0 72 20 72 64v82c-1 20 7 32 28 27v20c-31 9-61-2-59-35zM48-53c0 20 12 33 32 33 41-3 63-29 60-74-43 2-92-5-92 41" id="Z"/><g id="a"><use transform="matrix(0.05,0,0,0.05,0,0)" xlink:href="#S"/><use transform="matrix(0.05,0,0,0.05,14.950000000000001,0)" xlink:href="#T"/><use transform="matrix(0.05,0,0,0.05,24.950000000000003,0)" xlink:href="#U"/><use transform="matrix(0.05,0,0,0.05,34.95,0)" xlink:href="#V"/><use transform="matrix(0.05,0,0,0.05,44.95,0)" xlink:href="#W"/><use transform="matrix(0.05,0,0,0.05,49.95,0)" xlink:href="#X"/><use transform="matrix(0.05,0,0,0.05,53.900000000000006,0)" xlink:href="#Y"/><use transform="matrix(0.05,0,0,0.05,62.900000000000006,0)" xlink:href="#Y"/><use transform="matrix(0.05,0,0,0.05,71.9,0)" xlink:href="#Z"/><use transform="matrix(0.05,0,0,0.05,81.9,0)" xlink:href="#Y"/><use transform="matrix(0.05,0,0,0.05,90.9,0)" xlink:href="#X"/><use transform="matrix(0.05,0,0,0.05,94.85000000000001,0)" xlink:href="#T"/><use transform="matrix(0.05,0,0,0.05,104.85000000000001,0)" xlink:href="#U"/><use transform="matrix(0.05,0,0,0.05,114.85000000000001,0)" xlink:href="#V"/></g><path d="M30 0v-248h33v221h125V0H30" id="aa"/><path d="M177-190C167-65 218 103 67 71c-23-6-38-20-44-43l32-5c15 47 100 32 89-28v-30C133-14 115 1 83 1 29 1 15-40 15-95c0-56 16-97 71-98 29-1 48 16 59 35 1-10 0-23 2-32h30zM94-22c36 0 50-32 50-73 0-42-14-75-50-75-39 0-46 34-46 75s6 73 46 73" id="ab"/><g id="b"><use transform="matrix(0.05,0,0,0.05,0,0)" xlink:href="#aa"/><use transform="matrix(0.05,0,0,0.05,10,0)" xlink:href="#T"/><use transform="matrix(0.05,0,0,0.05,20,0)" xlink:href="#ab"/><use transform="matrix(0.05,0,0,0.05,30,0)" xlink:href="#X"/><use transform="matrix(0.05,0,0,0.05,33.95,0)" xlink:href="#U"/></g><path d="M233-177c-1 41-23 64-60 70L243 0h-38l-65-103H63V0H30v-248c88 3 205-21 203 71zM63-129c60-2 137 13 137-47 0-61-80-42-137-45v92" id="ac"/><path d="M135-143c-3-34-86-38-87 0 15 53 115 12 119 90S17 21 10-45l28-5c4 36 97 45 98 0-10-56-113-15-118-90-4-57 82-63 122-42 12 7 21 19 24 35" id="ad"/><path d="M114-163C36-179 61-72 57 0H25l-1-190h30c1 12-1 29 2 39 6-27 23-49 58-41v29" id="ae"/><g id="c"><use transform="matrix(0.05,0,0,0.05,0,0)" xlink:href="#ac"/><use transform="matrix(0.05,0,0,0.05,12.950000000000001,0)" xlink:href="#V"/><use transform="matrix(0.05,0,0,0.05,22.950000000000003,0)" xlink:href="#ab"/><use transform="matrix(0.05,0,0,0.05,32.95,0)" xlink:href="#X"/><use transform="matrix(0.05,0,0,0.05,36.900000000000006,0)" xlink:href="#ad"/><use transform="matrix(0.05,0,0,0.05,45.900000000000006,0)" xlink:href="#W"/><use transform="matrix(0.05,0,0,0.05,50.900000000000006,0)" xlink:href="#ae"/><use transform="matrix(0.05,0,0,0.05,56.85,0)" xlink:href="#Z"/><use transform="matrix(0.05,0,0,0.05,66.85000000000001,0)" xlink:href="#Y"/><use transform="matrix(0.05,0,0,0.05,75.85000000000001,0)" xlink:href="#X"/><use transform="matrix(0.05,0,0,0.05,79.80000000000001,0)" xlink:href="#T"/><use transform="matrix(0.05,0,0,0.05,89.80000000000001,0)" xlink:href="#U"/><use transform="matrix(0.05,0,0,0.05,99.80000000000001,0)" xlink:href="#V"/></g><path d="M212-179c-10-28-35-45-73-45-59 0-87 40-87 99 0 60 29 101 89 101 43 0 62-24 78-52l27 14C228-24 195 4 139 4 59 4 22-46 18-125c-6-104 99-153 187-111 19 9 31 26 39 46" id="af"/><path d="M210-169c-67 3-38 105-44 169h-31v-121c0-29-5-50-35-48C34-165 62-65 56 0H25l-1-190h30c1 10-1 24 2 32 10-44 99-50 107 0 11-21 27-35 58-36 85-2 47 119 55 194h-31v-121c0-29-5-49-35-48" id="ag"/><path d="M84 4C-5 8 30-112 23-190h32v120c0 31 7 50 39 49 72-2 45-101 50-169h31l1 190h-30c-1-10 1-25-2-33-11 22-28 36-60 37" id="ah"/><path d="M179-190L93 31C79 59 56 82 12 73V49c39 6 53-20 64-50L1-190h34L92-34l54-156h33" id="ai"/><g id="d"><use transform="matrix(0.05,0,0,0.05,0,0)" xlink:href="#af"/><use transform="matrix(0.05,0,0,0.05,12.950000000000001,0)" xlink:href="#T"/><use transform="matrix(0.05,0,0,0.05,22.950000000000003,0)" xlink:href="#ag"/><use transform="matrix(0.05,0,0,0.05,37.900000000000006,0)" xlink:href="#ag"/><use transform="matrix(0.05,0,0,0.05,52.85,0)" xlink:href="#ah"/><use transform="matrix(0.05,0,0,0.05,62.85,0)" xlink:href="#U"/><use transform="matrix(0.05,0,0,0.05,72.85000000000001,0)" xlink:href="#X"/><use transform="matrix(0.05,0,0,0.05,76.80000000000001,0)" xlink:href="#W"/><use transform="matrix(0.05,0,0,0.05,81.80000000000001,0)" xlink:href="#ai"/></g><path d="M232-93c-1 65-40 97-104 97C67 4 28-28 28-90v-158h33c8 89-33 224 67 224 102 0 64-133 71-224h33v155" id="aj"/><g id="e"><use transform="matrix(0.05,0,0,0.05,0,0)" xlink:href="#aj"/><use transform="matrix(0.05,0,0,0.05,12.950000000000001,0)" xlink:href="#ad"/><use transform="matrix(0.05,0,0,0.05,21.950000000000003,0)" xlink:href="#V"/><use transform="matrix(0.05,0,0,0.05,31.950000000000003,0)" xlink:href="#ae"/></g><path d="M33 0v-248h34V0H33" id="ak"/><g id="f"><use transform="matrix(0.05,0,0,0.05,0,0)" xlink:href="#ak"/><use transform="matrix(0.05,0,0,0.05,5,0)" xlink:href="#U"/><use transform="matrix(0.05,0,0,0.05,15,0)" xlink:href="#ad"/><use transform="matrix(0.05,0,0,0.05,24,0)" xlink:href="#V"/><use transform="matrix(0.05,0,0,0.05,34,0)" xlink:href="#ae"/><use transform="matrix(0.05,0,0,0.05,39.95,0)" xlink:href="#Y"/><use transform="matrix(0.05,0,0,0.05,48.95,0)" xlink:href="#X"/><use transform="matrix(0.05,0,0,0.05,52.900000000000006,0)" xlink:href="#T"/><use transform="matrix(0.05,0,0,0.05,62.900000000000006,0)" xlink:href="#U"/><use transform="matrix(0.05,0,0,0.05,72.9,0)" xlink:href="#X"/><use transform="matrix(0.05,0,0,0.05,76.85000000000001,0)" xlink:href="#ad"/><use transform="matrix(0.05,0,0,0.05,85.85000000000001,0)" xlink:href="#W"/><use transform="matrix(0.05,0,0,0.05,90.85000000000001,0)" xlink:href="#Z"/></g><g id="g"><use transform="matrix(0.05,0,0,0.05,0,0)" xlink:href="#af"/><use transform="matrix(0.05,0,0,0.05,12.950000000000001,0)" xlink:href="#T"/><use transform="matrix(0.05,0,0,0.05,22.950000000000003,0)" xlink:href="#U"/><use transform="matrix(0.05,0,0,0.05,32.95,0)" xlink:href="#W"/><use transform="matrix(0.05,0,0,0.05,37.95,0)" xlink:href="#V"/><use transform="matrix(0.05,0,0,0.05,47.95,0)" xlink:href="#U"/><use transform="matrix(0.05,0,0,0.05,57.95,0)" xlink:href="#W"/></g><path d="M96-169c-40 0-48 33-48 73s9 75 48 75c24 0 41-14 43-38l32 2c-6 37-31 61-74 61-59 0-76-41-82-99-10-93 101-131 147-64 4 7 5 14 7 22l-32 3c-4-21-16-35-41-35" id="al"/><g id="h"><use transform="matrix(0.05,0,0,0.05,0,0)" xlink:href="#al"/><use transform="matrix(0.05,0,0,0.05,9,0)" xlink:href="#ae"/><use transform="matrix(0.05,0,0,0.05,14.949999999999998,0)" xlink:href="#V"/><use transform="matrix(0.05,0,0,0.05,24.95,0)" xlink:href="#Z"/><use transform="matrix(0.05,0,0,0.05,34.95,0)" xlink:href="#W"/><use transform="matrix(0.05,0,0,0.05,39.95,0)" xlink:href="#T"/><use transform="matrix(0.05,0,0,0.05,49.95,0)" xlink:href="#ae"/></g><path d="M115-194c53 0 69 39 70 98 0 66-23 100-70 100C84 3 66-7 56-30L54 0H23l1-261h32v101c10-23 28-34 59-34zm-8 174c40 0 45-34 45-75 0-40-5-75-45-74-42 0-51 32-51 76 0 43 10 73 51 73" id="am"/><path d="M24 0v-261h32V0H24" id="an"/><g id="i"><use transform="matrix(0.05,0,0,0.05,0,0)" xlink:href="#af"/><use transform="matrix(0.05,0,0,0.05,12.950000000000001,0)" xlink:href="#T"/><use transform="matrix(0.05,0,0,0.05,22.950000000000003,0)" xlink:href="#U"/><use transform="matrix(0.05,0,0,0.05,32.95,0)" xlink:href="#W"/><use transform="matrix(0.05,0,0,0.05,37.95,0)" xlink:href="#Z"/><use transform="matrix(0.05,0,0,0.05,47.95,0)" xlink:href="#am"/><use transform="matrix(0.05,0,0,0.05,57.95,0)" xlink:href="#X"/><use transform="matrix(0.05,0,0,0.05,61.900000000000006,0)" xlink:href="#an"/><use transform="matrix(0.05,0,0,0.05,65.85000000000001,0)" xlink:href="#V"/></g><path d="M63-220v92h138v28H63V0H30v-248h175v28H63" id="ao"/><g id="j"><use transform="matrix(0.05,0,0,0.05,0,0)" xlink:href="#ao"/><use transform="matrix(0.05,0,0,0.05,10.950000000000001,0)" xlink:href="#T"/><use transform="matrix(0.05,0,0,0.05,20.950000000000003,0)" xlink:href="#ae"/><use transform="matrix(0.05,0,0,0.05,26.900000000000002,0)" xlink:href="#U"/><use transform="matrix(0.05,0,0,0.05,36.900000000000006,0)" xlink:href="#X"/><use transform="matrix(0.05,0,0,0.05,40.85000000000001,0)" xlink:href="#ad"/><use transform="matrix(0.05,0,0,0.05,49.85000000000001,0)" xlink:href="#al"/><use transform="matrix(0.05,0,0,0.05,58.85,0)" xlink:href="#X"/></g><path d="M101-234c-31-9-42 10-38 44h38v23H63V0H32v-167H5v-23h27c-7-52 17-82 69-68v24" id="ap"/><g id="k"><use transform="matrix(0.05,0,0,0.05,0,0)" xlink:href="#X"/><use transform="matrix(0.05,0,0,0.05,3.95,0)" xlink:href="#U"/><use transform="matrix(0.05,0,0,0.05,13.949999999999998,0)" xlink:href="#ap"/><use transform="matrix(0.05,0,0,0.05,18.95,0)" xlink:href="#T"/><use transform="matrix(0.05,0,0,0.05,28.950000000000003,0)" xlink:href="#ae"/><use transform="matrix(0.05,0,0,0.05,34.9,0)" xlink:href="#ag"/><use transform="matrix(0.05,0,0,0.05,49.85,0)" xlink:href="#Z"/><use transform="matrix(0.05,0,0,0.05,59.85,0)" xlink:href="#Y"/><use transform="matrix(0.05,0,0,0.05,68.85,0)" xlink:href="#X"/><use transform="matrix(0.05,0,0,0.05,72.8,0)" xlink:href="#T"/><use transform="matrix(0.05,0,0,0.05,82.8,0)" xlink:href="#U"/><use transform="matrix(0.05,0,0,0.05,92.8,0)" xlink:href="#X"/></g><use transform="matrix(0.05,0,0,0.05,0,0)" xlink:href="#V" id="l"/><g id="m"><use transform="matrix(0.05,0,0,0.05,0,0)" xlink:href="#ad"/><use transform="matrix(0.05,0,0,0.05,9,0)" xlink:href="#W"/><use transform="matrix(0.05,0,0,0.05,14,0)" xlink:href="#ae"/><use transform="matrix(0.05,0,0,0.05,19.95,0)" xlink:href="#ah"/><use transform="matrix(0.05,0,0,0.05,29.950000000000003,0)" xlink:href="#ag"/><use transform="matrix(0.05,0,0,0.05,44.9,0)" xlink:href="#V"/><use transform="matrix(0.05,0,0,0.05,54.900000000000006,0)" xlink:href="#U"/><use transform="matrix(0.05,0,0,0.05,64.9,0)" xlink:href="#W"/><use transform="matrix(0.05,0,0,0.05,69.9,0)" xlink:href="#X"/></g><g id="n"><use transform="matrix(0.05,0,0,0.05,0,0)" xlink:href="#ac"/><use transform="matrix(0.05,0,0,0.05,12.950000000000001,0)" xlink:href="#V"/><use transform="matrix(0.05,0,0,0.05,22.950000000000003,0)" xlink:href="#ab"/><use transform="matrix(0.05,0,0,0.05,32.95,0)" xlink:href="#X"/><use transform="matrix(0.05,0,0,0.05,36.900000000000006,0)" xlink:href="#ad"/><use transform="matrix(0.05,0,0,0.05,45.900000000000006,0)" xlink:href="#W"/><use transform="matrix(0.05,0,0,0.05,50.900000000000006,0)" xlink:href="#ae"/><use transform="matrix(0.05,0,0,0.05,56.85,0)" xlink:href="#Z"/><use transform="matrix(0.05,0,0,0.05,66.85000000000001,0)" xlink:href="#Y"/><use transform="matrix(0.05,0,0,0.05,75.85000000000001,0)" xlink:href="#X"/><use transform="matrix(0.05,0,0,0.05,79.80000000000001,0)" xlink:href="#T"/><use transform="matrix(0.05,0,0,0.05,89.80000000000001,0)" xlink:href="#U"/><use transform="matrix(0.05,0,0,0.05,99.80000000000001,0)" xlink:href="#V"/></g><g id="o"><use transform="matrix(0.05,0,0,0.05,0,0)" xlink:href="#ad"/><use transform="matrix(0.05,0,0,0.05,9,0)" xlink:href="#X"/><use transform="matrix(0.05,0,0,0.05,12.949999999999998,0)" xlink:href="#W"/><use transform="matrix(0.05,0,0,0.05,17.95,0)" xlink:href="#T"/></g><path d="M206 0h-36l-40-164L89 0H53L-1-190h32L70-26l43-164h34l41 164 42-164h31" id="aq"/><g id="p"><use transform="matrix(0.05,0,0,0.05,0,0)" xlink:href="#aq"/><use transform="matrix(0.05,0,0,0.05,12.950000000000001,0)" xlink:href="#V"/><use transform="matrix(0.05,0,0,0.05,22.950000000000003,0)" xlink:href="#am"/></g><path d="M30-248c87 1 191-15 191 75 0 78-77 80-158 76V0H30v-248zm33 125c57 0 124 11 124-50 0-59-68-47-124-48v98" id="ar"/><g id="q"><use transform="matrix(0.05,0,0,0.05,0,0)" xlink:href="#ar"/><use transform="matrix(0.05,0,0,0.05,12,0)" xlink:href="#Z"/><use transform="matrix(0.05,0,0,0.05,22,0)" xlink:href="#ab"/><use transform="matrix(0.05,0,0,0.05,32,0)" xlink:href="#Z"/></g><path d="M115-194c55 1 70 41 70 98S169 2 115 4C84 4 66-9 55-30l1 105H24l-1-265h31l2 30c10-21 28-34 59-34zm-8 174c40 0 45-34 45-75s-6-73-45-74c-42 0-51 32-51 76 0 43 10 73 51 73" id="as"/><path d="M85-194c31 0 48 13 60 33l-1-100h32l1 261h-30c-2-10 0-23-3-31C134-8 116 4 85 4 32 4 16-35 15-94c0-66 23-100 70-100zm9 24c-40 0-46 34-46 75 0 40 6 74 45 74 42 0 51-32 51-76 0-42-9-74-50-73" id="at"/><g id="r"><use transform="matrix(0.05,0,0,0.05,0,0)" xlink:href="#aj"/><use transform="matrix(0.05,0,0,0.05,12.950000000000001,0)" xlink:href="#as"/><use transform="matrix(0.05,0,0,0.05,22.950000000000003,0)" xlink:href="#an"/><use transform="matrix(0.05,0,0,0.05,26.900000000000002,0)" xlink:href="#T"/><use transform="matrix(0.05,0,0,0.05,36.900000000000006,0)" xlink:href="#Z"/><use transform="matrix(0.05,0,0,0.05,46.900000000000006,0)" xlink:href="#at"/></g><g id="s"><use transform="matrix(0.05,0,0,0.05,0,0)" xlink:href="#al"/><use transform="matrix(0.05,0,0,0.05,9,0)" xlink:href="#T"/><use transform="matrix(0.05,0,0,0.05,19,0)" xlink:href="#U"/><use transform="matrix(0.05,0,0,0.05,29,0)" xlink:href="#W"/><use transform="matrix(0.05,0,0,0.05,34,0)" xlink:href="#V"/><use transform="matrix(0.05,0,0,0.05,44,0)" xlink:href="#U"/><use transform="matrix(0.05,0,0,0.05,54,0)" xlink:href="#W"/></g><path d="M185-189c-5-48-123-54-124 2 14 75 158 14 163 119 3 78-121 87-175 55-17-10-28-26-33-46l33-7c5 56 141 63 141-1 0-78-155-14-162-118-5-82 145-84 179-34 5 7 8 16 11 25" id="au"/><g id="t"><use transform="matrix(0.05,0,0,0.05,0,0)" xlink:href="#au"/><use transform="matrix(0.05,0,0,0.05,12,0)" xlink:href="#as"/><use transform="matrix(0.05,0,0,0.05,22,0)" xlink:href="#Z"/><use transform="matrix(0.05,0,0,0.05,32,0)" xlink:href="#Y"/><use transform="matrix(0.05,0,0,0.05,41,0)" xlink:href="#X"/><use transform="matrix(0.05,0,0,0.05,44.95,0)" xlink:href="#T"/></g><g id="u"><use transform="matrix(0.05,0,0,0.05,0,0)" xlink:href="#as"/><use transform="matrix(0.05,0,0,0.05,10,0)" xlink:href="#ah"/><use transform="matrix(0.05,0,0,0.05,20,0)" xlink:href="#am"/><use transform="matrix(0.05,0,0,0.05,30,0)" xlink:href="#am"/><use transform="matrix(0.05,0,0,0.05,40,0)" xlink:href="#an"/><use transform="matrix(0.05,0,0,0.05,43.95,0)" xlink:href="#X"/><use transform="matrix(0.05,0,0,0.05,47.900000000000006,0)" xlink:href="#al"/><use transform="matrix(0.05,0,0,0.05,56.900000000000006,0)" xlink:href="#X"/><use transform="matrix(0.05,0,0,0.05,60.85,0)" xlink:href="#W"/><use transform="matrix(0.05,0,0,0.05,65.85000000000001,0)" xlink:href="#Z"/><use transform="matrix(0.05,0,0,0.05,75.85000000000001,0)" xlink:href="#ae"/><use transform="matrix(0.05,0,0,0.05,81.80000000000001,0)" xlink:href="#X"/><use transform="matrix(0.05,0,0,0.05,85.75000000000001,0)" xlink:href="#T"/></g><path d="M30-248c118-7 216 8 213 122C240-48 200 0 122 0H30v-248zM63-27c89 8 146-16 146-99s-60-101-146-95v194" id="av"/><g id="v"><use transform="matrix(0.05,0,0,0.05,0,0)" xlink:href="#av"/><use transform="matrix(0.05,0,0,0.05,12.950000000000001,0)" xlink:href="#Z"/><use transform="matrix(0.05,0,0,0.05,22.950000000000003,0)" xlink:href="#W"/><use transform="matrix(0.05,0,0,0.05,27.950000000000003,0)" xlink:href="#X"/></g><g id="w"><use transform="matrix(0.05,0,0,0.05,0,0)" xlink:href="#ap"/><use transform="matrix(0.05,0,0,0.05,5,0)" xlink:href="#X"/><use transform="matrix(0.05,0,0,0.05,8.95,0)" xlink:href="#U"/><use transform="matrix(0.05,0,0,0.05,18.95,0)" xlink:href="#Z"/><use transform="matrix(0.05,0,0,0.05,28.950000000000003,0)" xlink:href="#U"/><use transform="matrix(0.05,0,0,0.05,38.95,0)" xlink:href="#Y"/><use transform="matrix(0.05,0,0,0.05,47.95,0)" xlink:href="#X"/><use transform="matrix(0.05,0,0,0.05,51.900000000000006,0)" xlink:href="#Z"/><use transform="matrix(0.05,0,0,0.05,61.900000000000006,0)" xlink:href="#ae"/><use transform="matrix(0.05,0,0,0.05,67.85000000000001,0)" xlink:href="#X"/></g><g id="x"><use transform="matrix(0.05,0,0,0.05,0,0)" xlink:href="#ac"/><use transform="matrix(0.05,0,0,0.05,12.950000000000001,0)" xlink:href="#V"/><use transform="matrix(0.05,0,0,0.05,22.950000000000003,0)" xlink:href="#as"/><use transform="matrix(0.05,0,0,0.05,32.95,0)" xlink:href="#T"/><use transform="matrix(0.05,0,0,0.05,42.95,0)" xlink:href="#ae"/><use transform="matrix(0.05,0,0,0.05,48.900000000000006,0)" xlink:href="#W"/></g><path d="M143 4C61 4 22-44 18-125c-5-107 100-154 193-111 17 8 29 25 37 43l-32 9c-13-25-37-40-76-40-61 0-88 39-88 99 0 61 29 100 91 101 35 0 62-11 79-27v-45h-74v-28h105v86C228-13 192 4 143 4" id="aw"/><g id="y"><use transform="matrix(0.05,0,0,0.05,0,0)" xlink:href="#aw"/><use transform="matrix(0.05,0,0,0.05,14,0)" xlink:href="#V"/><use transform="matrix(0.05,0,0,0.05,24,0)" xlink:href="#ad"/><use transform="matrix(0.05,0,0,0.05,33,0)" xlink:href="#W"/><use transform="matrix(0.05,0,0,0.05,38,0)" xlink:href="#X"/><use transform="matrix(0.05,0,0,0.05,41.95,0)" xlink:href="#T"/><use transform="matrix(0.05,0,0,0.05,51.95,0)" xlink:href="#U"/><use transform="matrix(0.05,0,0,0.05,61.95,0)" xlink:href="#V"/></g><g id="z"><use transform="matrix(0.05,0,0,0.05,0,0)" xlink:href="#al"/><use transform="matrix(0.05,0,0,0.05,9,0)" xlink:href="#T"/><use transform="matrix(0.05,0,0,0.05,19,0)" xlink:href="#U"/><use transform="matrix(0.05,0,0,0.05,29,0)" xlink:href="#W"/><use transform="matrix(0.05,0,0,0.05,34,0)" xlink:href="#V"/><use transform="matrix(0.05,0,0,0.05,44,0)" xlink:href="#U"/><use transform="matrix(0.05,0,0,0.05,54,0)" xlink:href="#ah"/><use transform="matrix(0.05,0,0,0.05,64,0)" xlink:href="#W"/><use transform="matrix(0.05,0,0,0.05,69,0)" xlink:href="#X"/></g><path d="M197 0v-115H63V0H30v-248h33v105h134v-105h34V0h-34" id="ax"/><g id="A"><use transform="matrix(0.05,0,0,0.05,0,0)" xlink:href="#ax"/><use transform="matrix(0.05,0,0,0.05,12.950000000000001,0)" xlink:href="#T"/><use transform="matrix(0.05,0,0,0.05,22.950000000000003,0)" xlink:href="#ag"/><use transform="matrix(0.05,0,0,0.05,37.900000000000006,0)" xlink:href="#V"/><use transform="matrix(0.05,0,0,0.05,47.900000000000006,0)" xlink:href="#as"/><use transform="matrix(0.05,0,0,0.05,57.900000000000006,0)" xlink:href="#Z"/><use transform="matrix(0.05,0,0,0.05,67.9,0)" xlink:href="#ab"/><use transform="matrix(0.05,0,0,0.05,77.9,0)" xlink:href="#V"/></g><g id="B"><use transform="matrix(0.05,0,0,0.05,0,0)" xlink:href="#aw"/><use transform="matrix(0.05,0,0,0.05,14,0)" xlink:href="#V"/><use transform="matrix(0.05,0,0,0.05,24,0)" xlink:href="#ad"/><use transform="matrix(0.05,0,0,0.05,33,0)" xlink:href="#W"/><use transform="matrix(0.05,0,0,0.05,38,0)" xlink:href="#X"/><use transform="matrix(0.05,0,0,0.05,41.95,0)" xlink:href="#T"/><use transform="matrix(0.05,0,0,0.05,51.95,0)" xlink:href="#U"/><use transform="matrix(0.05,0,0,0.05,61.95,0)" xlink:href="#V"/></g><g id="C"><use transform="matrix(0.05,0,0,0.05,0,0)" xlink:href="#ap"/><use transform="matrix(0.05,0,0,0.05,5,0)" xlink:href="#X"/><use transform="matrix(0.05,0,0,0.05,8.95,0)" xlink:href="#U"/><use transform="matrix(0.05,0,0,0.05,18.95,0)" xlink:href="#Z"/><use transform="matrix(0.05,0,0,0.05,28.950000000000003,0)" xlink:href="#U"/><use transform="matrix(0.05,0,0,0.05,38.95,0)" xlink:href="#Y"/><use transform="matrix(0.05,0,0,0.05,47.95,0)" xlink:href="#X"/><use transform="matrix(0.05,0,0,0.05,51.900000000000006,0)" xlink:href="#Z"/><use transform="matrix(0.05,0,0,0.05,61.900000000000006,0)" xlink:href="#ae"/><use transform="matrix(0.05,0,0,0.05,67.85000000000001,0)" xlink:href="#X"/><use transform="matrix(0.05,0,0,0.05,71.80000000000001,0)" xlink:href="#Z"/></g><g id="D"><use transform="matrix(0.05,0,0,0.05,0,0)" xlink:href="#ac"/><use transform="matrix(0.05,0,0,0.05,12.950000000000001,0)" xlink:href="#X"/><use transform="matrix(0.05,0,0,0.05,16.900000000000002,0)" xlink:href="#ad"/><use transform="matrix(0.05,0,0,0.05,25.900000000000002,0)" xlink:href="#T"/><use transform="matrix(0.05,0,0,0.05,35.900000000000006,0)" xlink:href="#ad"/><use transform="matrix(0.05,0,0,0.05,44.900000000000006,0)" xlink:href="#ad"/><use transform="matrix(0.05,0,0,0.05,53.900000000000006,0)" xlink:href="#X"/><use transform="matrix(0.05,0,0,0.05,57.85,0)" xlink:href="#T"/><use transform="matrix(0.05,0,0,0.05,67.85000000000001,0)" xlink:href="#U"/><use transform="matrix(0.05,0,0,0.05,77.85000000000001,0)" xlink:href="#V"/></g><g id="E"><use transform="matrix(0.05,0,0,0.05,0,0)" xlink:href="#at"/><use transform="matrix(0.05,0,0,0.05,10,0)" xlink:href="#V"/><use transform="matrix(0.05,0,0,0.05,20,0)" xlink:href="#U"/><use transform="matrix(0.05,0,0,0.05,30,0)" xlink:href="#Z"/><use transform="matrix(0.05,0,0,0.05,40,0)" xlink:href="#ae"/><use transform="matrix(0.05,0,0,0.05,45.95,0)" xlink:href="#T"/></g><g id="F"><use transform="matrix(0.05,0,0,0.05,0,0)" xlink:href="#ar"/><use transform="matrix(0.05,0,0,0.05,12,0)" xlink:href="#Z"/><use transform="matrix(0.05,0,0,0.05,22,0)" xlink:href="#ab"/><use transform="matrix(0.05,0,0,0.05,32,0)" xlink:href="#Z"/><use transform="matrix(0.05,0,0,0.05,42,0)" xlink:href="#ag"/><use transform="matrix(0.05,0,0,0.05,56.95,0)" xlink:href="#V"/><use transform="matrix(0.05,0,0,0.05,66.95,0)" xlink:href="#U"/><use transform="matrix(0.05,0,0,0.05,76.95,0)" xlink:href="#W"/><use transform="matrix(0.05,0,0,0.05,81.95,0)" xlink:href="#T"/></g><g id="G"><use transform="matrix(0.05,0,0,0.05,0,0)" xlink:href="#al"/><use transform="matrix(0.05,0,0,0.05,9,0)" xlink:href="#ae"/><use transform="matrix(0.05,0,0,0.05,14.949999999999998,0)" xlink:href="#V"/><use transform="matrix(0.05,0,0,0.05,24.95,0)" xlink:href="#Z"/><use transform="matrix(0.05,0,0,0.05,34.95,0)" xlink:href="#W"/><use transform="matrix(0.05,0,0,0.05,39.95,0)" xlink:href="#T"/><use transform="matrix(0.05,0,0,0.05,49.95,0)" xlink:href="#ae"/><use transform="matrix(0.05,0,0,0.05,55.900000000000006,0)" xlink:href="#V"/></g><g id="H"><use transform="matrix(0.05,0,0,0.05,0,0)" xlink:href="#at"/><use transform="matrix(0.05,0,0,0.05,10,0)" xlink:href="#X"/></g><path d="M141-36C126-15 110 5 73 4 37 3 15-17 15-53c-1-64 63-63 125-63 3-35-9-54-41-54-24 1-41 7-42 31l-33-3c5-37 33-52 76-52 45 0 72 20 72 64v82c-1 20 7 32 28 27v20c-31 9-61-2-59-35zM48-53c0 20 12 33 32 33 41-3 63-29 60-74-43 2-92-5-92 41zm62-158l-58-49v-5h36c12 19 30 32 38 54h-16" id="ay"/><g id="I"><use transform="matrix(0.05,0,0,0.05,0,0)" xlink:href="#ar"/><use transform="matrix(0.05,0,0,0.05,12,0)" xlink:href="#ah"/><use transform="matrix(0.05,0,0,0.05,22,0)" xlink:href="#am"/><use transform="matrix(0.05,0,0,0.05,32,0)" xlink:href="#am"/><use transform="matrix(0.05,0,0,0.05,42,0)" xlink:href="#an"/><use transform="matrix(0.05,0,0,0.05,45.95,0)" xlink:href="#X"/><use transform="matrix(0.05,0,0,0.05,49.900000000000006,0)" xlink:href="#al"/><use transform="matrix(0.05,0,0,0.05,58.900000000000006,0)" xlink:href="#X"/><use transform="matrix(0.05,0,0,0.05,62.85,0)" xlink:href="#W"/><use transform="matrix(0.05,0,0,0.05,67.85000000000001,0)" xlink:href="#ay"/></g><path d="M0 4l72-265h28L28 4H0" id="az"/><path d="M137 0h-34L2-248h35l83 218 83-218h36" id="aA"/><g id="J"><use transform="matrix(0.05,0,0,0.05,0,0)" xlink:href="#af"/><use transform="matrix(0.05,0,0,0.05,12.950000000000001,0)" xlink:href="#T"/><use transform="matrix(0.05,0,0,0.05,22.950000000000003,0)" xlink:href="#U"/><use transform="matrix(0.05,0,0,0.05,32.95,0)" xlink:href="#W"/><use transform="matrix(0.05,0,0,0.05,37.95,0)" xlink:href="#V"/><use transform="matrix(0.05,0,0,0.05,47.95,0)" xlink:href="#U"/><use transform="matrix(0.05,0,0,0.05,57.95,0)" xlink:href="#ah"/><use transform="matrix(0.05,0,0,0.05,67.95,0)" xlink:href="#W"/><use transform="matrix(0.05,0,0,0.05,72.95,0)" xlink:href="#T"/><use transform="matrix(0.05,0,0,0.05,82.95,0)" xlink:href="#az"/><use transform="matrix(0.05,0,0,0.05,87.95,0)" xlink:href="#aA"/><use transform="matrix(0.05,0,0,0.05,99.60000000000001,0)" xlink:href="#X"/><use transform="matrix(0.05,0,0,0.05,103.55000000000001,0)" xlink:href="#at"/><use transform="matrix(0.05,0,0,0.05,113.55000000000001,0)" xlink:href="#V"/><use transform="matrix(0.05,0,0,0.05,123.55000000000001,0)" xlink:href="#T"/><use transform="matrix(0.05,0,0,0.05,133.55,0)" xlink:href="#az"/><use transform="matrix(0.05,0,0,0.05,138.55,0)" xlink:href="#ao"/><use transform="matrix(0.05,0,0,0.05,149.5,0)" xlink:href="#T"/><use transform="matrix(0.05,0,0,0.05,159.5,0)" xlink:href="#W"/><use transform="matrix(0.05,0,0,0.05,164.5,0)" xlink:href="#T"/></g><path d="M205 0l-28-72H64L36 0H1l101-248h38L239 0h-34zm-38-99l-47-123c-12 45-31 82-46 123h93" id="aB"/><g id="K"><use transform="matrix(0.05,0,0,0.05,0,0)" xlink:href="#aB"/><use transform="matrix(0.05,0,0,0.05,12,0)" xlink:href="#ah"/><use transform="matrix(0.05,0,0,0.05,22,0)" xlink:href="#W"/><use transform="matrix(0.05,0,0,0.05,27,0)" xlink:href="#V"/><use transform="matrix(0.05,0,0,0.05,37,0)" xlink:href="#U"/><use transform="matrix(0.05,0,0,0.05,47,0)" xlink:href="#W"/><use transform="matrix(0.05,0,0,0.05,52,0)" xlink:href="#X"/><use transform="matrix(0.05,0,0,0.05,55.95,0)" xlink:href="#al"/><use transform="matrix(0.05,0,0,0.05,64.95,0)" xlink:href="#Z"/><use transform="matrix(0.05,0,0,0.05,74.95,0)" xlink:href="#Y"/><use transform="matrix(0.05,0,0,0.05,83.95,0)" xlink:href="#X"/><use transform="matrix(0.05,0,0,0.05,87.9,0)" xlink:href="#T"/><use transform="matrix(0.05,0,0,0.05,97.9,0)" xlink:href="#U"/><use transform="matrix(0.05,0,0,0.05,107.9,0)" xlink:href="#V"/></g><g id="L"><use transform="matrix(0.05,0,0,0.05,0,0)" xlink:href="#ah"/><use transform="matrix(0.05,0,0,0.05,10,0)" xlink:href="#W"/><use transform="matrix(0.05,0,0,0.05,15,0)" xlink:href="#V"/><use transform="matrix(0.05,0,0,0.05,25,0)" xlink:href="#U"/><use transform="matrix(0.05,0,0,0.05,35,0)" xlink:href="#W"/><use transform="matrix(0.05,0,0,0.05,40,0)" xlink:href="#V"/></g><g id="M"><use transform="matrix(0.05,0,0,0.05,0,0)" xlink:href="#au"/><use transform="matrix(0.05,0,0,0.05,12,0)" xlink:href="#X"/><use transform="matrix(0.05,0,0,0.05,15.949999999999998,0)" xlink:href="#ad"/><use transform="matrix(0.05,0,0,0.05,24.95,0)" xlink:href="#W"/><use transform="matrix(0.05,0,0,0.05,29.950000000000003,0)" xlink:href="#V"/><use transform="matrix(0.05,0,0,0.05,39.95,0)" xlink:href="#ag"/><use transform="matrix(0.05,0,0,0.05,54.900000000000006,0)" xlink:href="#Z"/></g><g id="N"><use transform="matrix(0.05,0,0,0.05,0,0)" xlink:href="#Z"/><use transform="matrix(0.05,0,0,0.05,10,0)" xlink:href="#ah"/><use transform="matrix(0.05,0,0,0.05,20,0)" xlink:href="#W"/><use transform="matrix(0.05,0,0,0.05,25,0)" xlink:href="#V"/><use transform="matrix(0.05,0,0,0.05,35,0)" xlink:href="#U"/><use transform="matrix(0.05,0,0,0.05,45,0)" xlink:href="#W"/><use transform="matrix(0.05,0,0,0.05,50,0)" xlink:href="#X"/><use transform="matrix(0.05,0,0,0.05,53.95,0)" xlink:href="#al"/><use transform="matrix(0.05,0,0,0.05,62.95,0)" xlink:href="#Z"/><use transform="matrix(0.05,0,0,0.05,72.95,0)" xlink:href="#Y"/><use transform="matrix(0.05,0,0,0.05,81.95,0)" xlink:href="#X"/><use transform="matrix(0.05,0,0,0.05,85.9,0)" xlink:href="#T"/><use transform="matrix(0.05,0,0,0.05,95.9,0)" xlink:href="#U"/><use transform="matrix(0.05,0,0,0.05,105.9,0)" xlink:href="#V"/></g><g id="O"><use transform="matrix(0.05,0,0,0.05,0,0)" xlink:href="#ak"/><use transform="matrix(0.05,0,0,0.05,5,0)" xlink:href="#ag"/><use transform="matrix(0.05,0,0,0.05,19.950000000000003,0)" xlink:href="#as"/><use transform="matrix(0.05,0,0,0.05,29.950000000000003,0)" xlink:href="#ae"/><use transform="matrix(0.05,0,0,0.05,35.900000000000006,0)" xlink:href="#T"/><use transform="matrix(0.05,0,0,0.05,45.900000000000006,0)" xlink:href="#U"/><use transform="matrix(0.05,0,0,0.05,55.900000000000006,0)" xlink:href="#W"/><use transform="matrix(0.05,0,0,0.05,60.900000000000006,0)" xlink:href="#Z"/></g><g id="P"><use transform="matrix(0.05,0,0,0.05,0,0)" xlink:href="#at"/><use transform="matrix(0.05,0,0,0.05,10,0)" xlink:href="#X"/><use transform="matrix(0.05,0,0,0.05,13.949999999999998,0)" xlink:href="#ab"/><use transform="matrix(0.05,0,0,0.05,23.95,0)" xlink:href="#X"/><use transform="matrix(0.05,0,0,0.05,27.899999999999995,0)" xlink:href="#W"/><use transform="matrix(0.05,0,0,0.05,32.9,0)" xlink:href="#Z"/><use transform="matrix(0.05,0,0,0.05,42.9,0)" xlink:href="#an"/><use transform="matrix(0.05,0,0,0.05,46.85,0)" xlink:href="#V"/></g><g id="Q"><use transform="matrix(0.05,0,0,0.05,0,0)" xlink:href="#ar"/><use transform="matrix(0.05,0,0,0.05,12,0)" xlink:href="#Z"/><use transform="matrix(0.05,0,0,0.05,22,0)" xlink:href="#ad"/><use transform="matrix(0.05,0,0,0.05,31,0)" xlink:href="#ad"/><use transform="matrix(0.05,0,0,0.05,40,0)" xlink:href="#aq"/><use transform="matrix(0.05,0,0,0.05,52.95,0)" xlink:href="#T"/><use transform="matrix(0.05,0,0,0.05,62.95,0)" xlink:href="#ae"/><use transform="matrix(0.05,0,0,0.05,68.9,0)" xlink:href="#at"/></g><g id="R"><use transform="matrix(0.05,0,0,0.05,0,0)" xlink:href="#au"/><use transform="matrix(0.05,0,0,0.05,12,0)" xlink:href="#ar"/><use transform="matrix(0.05,0,0,0.05,24,0)" xlink:href="#ak"/><use transform="matrix(0.05,0,0,0.05,29,0)" xlink:href="#av"/></g></defs></g></svg>