<svg xmlns="http://www.w3.org/2000/svg" xmlns:xlink="http://www.w3.org/1999/xlink" xmlns:lucid="lucid" width="1870.4" height="1323.2"><g transform="translate(0 0)" lucid:page-tab-id="0_0"><path d="M180 760h-40V120h40" stroke="#000" stroke-width="2" fill="#fff"/><path d="M180 760h1600V440H180zM180 120h1600v320H180z" fill="none"/><path d="M180 440h1600M180 760V440m0 0V120m0 0h1600v320M180 760h1600V440" stroke="#000" stroke-width="2" fill="none"/><use xlink:href="#a" transform="matrix(6.123233995736766e-17,-1,1,6.123233995736766e-17,179.99999999999994,440) translate(81.15 23.6)"/><use xlink:href="#b" transform="matrix(6.123233995736766e-17,-1,1,6.123233995736766e-17,179.99999999999994,440) translate(151.05 23.6)"/><use xlink:href="#c" transform="matrix(6.123233995736766e-17,-1,1,6.123233995736766e-17,139.99999999999994,760) translate(299.5 23.6)"/><use xlink:href="#d" transform="matrix(6.123233995736766e-17,-1,1,6.123233995736766e-17,179.99999999999994,760) translate(141.725 23.6)"/><g stroke="#000" stroke-width="2"><path d="M180 1180h-40V860h40" fill="#fff"/><path d="M180 1180h1600V860H180M180 1180V860" fill="none"/></g><use xlink:href="#e" transform="matrix(6.123233995736766e-17,-1,1,6.123233995736766e-17,139.99999999999994,1180) translate(141.05 23.6)"/><path d="M280 1020c0 16.57-13.43 30-30 30s-30-13.43-30-30 13.43-30 30-30 30 13.43 30 30zM340 960h160v120H340z" stroke="#000" stroke-width="2" fill="#fff"/><use xlink:href="#f" transform="matrix(1,0,0,1,340,960) translate(40.055 63.15)"/><use xlink:href="#g" transform="matrix(1,0,0,1,340,960) translate(90.005 63.15)"/><path d="M282 1020h38.5" stroke="#000" stroke-width="2" fill="none"/><path d="M282.03 1021h-1.1l.07-.98-.03-1.02h1.06z"/><path d="M335.76 1020l-14.26 4.64v-9.28z" stroke="#000" stroke-width="2"/><path d="M502 1020h78.5" stroke="#000" stroke-width="2" fill="none"/><path d="M502.03 1021H501v-2h1.03z"/><path d="M595.76 1020l-14.26 4.64v-9.28z" stroke="#000" stroke-width="2"/><path d="M600 960h160v120H600z" stroke="#000" stroke-width="2" fill="#fff"/><use xlink:href="#h" transform="matrix(1,0,0,1,600,960) translate(40.055 63.15)"/><use xlink:href="#i" transform="matrix(1,0,0,1,600,960) translate(90.005 63.15)"/><path d="M280 600c0 16.57-13.43 30-30 30s-30-13.43-30-30 13.43-30 30-30 30 13.43 30 30z" stroke="#000" stroke-width="2" fill="#fff"/><use xlink:href="#j" transform="matrix(1,0,0,1,220,630) translate(7 14.4)"/><path d="M420 958V795H250V649.5" stroke="#000" stroke-width="2" fill="none"/><path d="M421 959h-2v-1.03h2z"/><path d="M250 634.24l4.64 14.26h-9.28z" stroke="#000" stroke-width="2"/><path d="M282 600h158.5" stroke="#000" stroke-width="2" fill="none"/><path d="M282.03 601h-1.1l.07-.98-.03-1.02h1.06z"/><path d="M455.76 600l-14.26 4.64v-9.28z" stroke="#000" stroke-width="2"/><path d="M460 540h160v120H460z" stroke="#000" stroke-width="2" fill="#fff"/><use xlink:href="#k" transform="matrix(1,0,0,1,460,540) translate(29.054999999999993 63.15)"/><use xlink:href="#i" transform="matrix(1,0,0,1,460,540) translate(101.005 63.15)"/><path d="M622 600h59v340.5" stroke="#000" stroke-width="2" fill="none"/><path d="M622.03 601H621v-2h1.03z"/><path d="M681 955.76l-4.64-14.26h9.28z" stroke="#000" stroke-width="2"/><path d="M280 270c0 16.57-13.43 30-30 30s-30-13.43-30-30 13.43-30 30-30 30 13.43 30 30z" stroke="#000" stroke-width="2" fill="#fff"/><use xlink:href="#j" transform="matrix(1,0,0,1,220,300) translate(7 14.4)"/><path d="M762 1020h39V400H250v-80.5" stroke="#000" stroke-width="2" fill="none"/><path d="M762.03 1021H761v-2h1.03z"/><path d="M250 304.24l4.64 14.26h-9.28z" stroke="#000" stroke-width="2"/><path d="M360 210h160v120H360z" stroke="#000" stroke-width="2" fill="#fff"/><use xlink:href="#l" transform="matrix(1,0,0,1,360,210) translate(21.104999999999997 51.9)"/><use xlink:href="#m" transform="matrix(1,0,0,1,360,210) translate(77.055 51.9)"/><use xlink:href="#n" transform="matrix(1,0,0,1,360,210) translate(91.005 51.9)"/><use xlink:href="#o" transform="matrix(1,0,0,1,360,210) translate(125.955 51.9)"/><use xlink:href="#p" transform="matrix(1,0,0,1,360,210) translate(42.55499999999999 73.5)"/><path d="M920 271l37.5-37.5L995 271l-37.5 37.5z" stroke="#000" stroke-width="2" fill="#fff"/><path d="M942.5 256l30 30m-30 0l30-30" stroke="#000" stroke-width="4" fill="none"/><use xlink:href="#q" transform="matrix(1,0,0,1,920,308.5) translate(24.525 14.4)"/><use xlink:href="#r" transform="matrix(1,0,0,1,920,308.5) translate(10.05 36)"/><path d="M522 270h197.8v1h180.28" stroke="#000" stroke-width="2" fill="none"/><path d="M522.03 271H521v-2h1.03z"/><path d="M915.35 271l-14.27 4.64v-9.28z" stroke="#000" stroke-width="2"/><path d="M282 270h58.5" stroke="#000" stroke-width="2" fill="none"/><path d="M282.03 271h-1.1l.07-.98-.03-1.02h1.06z"/><path d="M355.76 270l-14.26 4.64v-9.28z" stroke="#000" stroke-width="2"/><path d="M1080 1028l37.5-37.5 37.5 37.5-37.5 37.5z" stroke="#000" stroke-width="2" fill="#fff"/><path d="M1157.4 1028h41.46v-80h23.94" stroke="#000" stroke-width="2" fill="none"/><path d="M1157.44 1029h-2.03l1-1-1-1h2.04z"/><path d="M1238.06 948l-14.26 4.64v-9.28z" stroke="#000" stroke-width="2"/><path d="M1242.3 888h160v120h-160z" stroke="#000" stroke-width="2" fill="#fff"/><use xlink:href="#s" transform="matrix(1,0,0,1,1242.3000000000466,888) translate(20.055 63.15)"/><use xlink:href="#t" transform="matrix(1,0,0,1,1242.3000000000466,888) translate(75.005 63.15)"/><path d="M1155 210h160v120h-160z" stroke="#000" stroke-width="2" fill="#fff"/><use xlink:href="#u" transform="matrix(1,0,0,1,1155,210) translate(12.554999999999987 51.9)"/><use xlink:href="#v" transform="matrix(1,0,0,1,1155,210) translate(84.505 51.9)"/><use xlink:href="#w" transform="matrix(1,0,0,1,1155,210) translate(27.154999999999994 73.5)"/><use xlink:href="#x" transform="matrix(1,0,0,1,1155,210) translate(48.105 73.5)"/><path d="M1117.5 1067.9v40.1h105.3" stroke="#000" stroke-width="2" fill="none"/><path d="M1118.5 1067.94h-2v-2.03l1 1 1-1z"/><path d="M1238.06 1108l-14.26 4.64v-9.28z" stroke="#000" stroke-width="2"/><path d="M1242.3 1048h160v120h-160z" stroke="#000" stroke-width="2" fill="#fff"/><use xlink:href="#s" transform="matrix(1,0,0,1,1242.3000000000466,1048) translate(10.154999999999996 63.15)"/><use xlink:href="#y" transform="matrix(1,0,0,1,1242.3000000000466,1048) translate(65.10499999999999 63.15)"/><path d="M1322.3 886V679.5" stroke="#000" stroke-width="2" fill="none"/><path d="M1323.3 887h-2v-1.03h2z"/><path d="M1322.3 664.24l4.64 14.26h-9.28z" stroke="#000" stroke-width="2"/><path d="M1242.3 540h160v120h-160z" stroke="#000" stroke-width="2" fill="#fff"/><use xlink:href="#z" transform="matrix(1,0,0,1,1242.3000000000466,540) translate(23.555 63.15)"/><use xlink:href="#A" transform="matrix(1,0,0,1,1242.3000000000466,540) translate(73.505 63.15)"/><path d="M957.5 310.9v209.6" stroke="#000" stroke-width="2" fill="none"/><path d="M958.5 310.94h-2v-2.03l1 1 1-1z"/><path d="M957.5 535.76l-4.64-14.26h9.28z" stroke="#000" stroke-width="2"/><path d="M877.5 540h160v120h-160z" stroke="#000" stroke-width="2" fill="#fff"/><use xlink:href="#B" transform="matrix(1,0,0,1,877.5,540) translate(35.055 63.15)"/><use xlink:href="#C" transform="matrix(1,0,0,1,877.5,540) translate(85.005 63.15)"/><path d="M1235 332v156.77h-117.5v481.8" stroke="#000" stroke-width="2" fill="none"/><path d="M1236 332.03h-2V331h2z"/><path d="M1117.5 985.85l-4.64-14.27h9.28z" stroke="#000" stroke-width="2"/><path d="M1404.3 1108H1540V679.5" stroke="#000" stroke-width="2" fill="none"/><path d="M1404.33 1109h-1.03v-2h1.03z"/><path d="M1540 664.24l4.64 14.26h-9.28z" stroke="#000" stroke-width="2"/><path d="M1460 540h160v120h-160z" stroke="#000" stroke-width="2" fill="#fff"/><g><use xlink:href="#D" transform="matrix(1,0,0,1,1460,540) translate(32.055 63.15)"/><use xlink:href="#E" transform="matrix(1,0,0,1,1460,540) translate(74.005 63.15)"/></g><path d="M1322.3 538v-39H1659v101h21.5" stroke="#000" stroke-width="2" fill="none"/><path d="M1323.3 539h-2v-1.03h2z"/><path d="M1695.76 600l-14.26 4.64v-9.28z" stroke="#000" stroke-width="2"/><path d="M1760 600c0 16.57-13.43 30-30 30s-30-13.43-30-30 13.43-30 30-30 30 13.43 30 30z" stroke="#000" stroke-width="2" fill="#fff"/><path d="M1751.25 600c0 11.74-9.5 21.25-21.25 21.25-11.74 0-21.25-9.5-21.25-21.25 0-11.74 9.5-21.25 21.25-21.25 11.74 0 21.25 9.5 21.25 21.25z"/><g><use xlink:href="#j" transform="matrix(1,0,0,1,1700,630) translate(7 14.4)"/></g><path d="M1622 600h58.5" stroke="#000" stroke-width="2" fill="none"/><path d="M1622.03 601H1621v-2h1.03z"/><path d="M1695.76 600l-14.26 4.64v-9.28z" stroke="#000" stroke-width="2"/><path d="M997.4 271h77.8v-1h60.3" stroke="#000" stroke-width="2" fill="none"/><path d="M997.44 272h-2.03l1-1-1-1h2.04z"/><path d="M1150.76 270l-14.26 4.64v-9.28z" stroke="#000" stroke-width="2"/><defs><path d="M185-189c-5-48-123-54-124 2 14 75 158 14 163 119 3 78-121 87-175 55-17-10-28-26-33-46l33-7c5 56 141 63 141-1 0-78-155-14-162-118-5-82 145-84 179-34 5 7 8 16 11 25" id="F"/><path d="M24-231v-30h32v30H24zM24 0v-190h32V0H24" id="G"/><path d="M135-143c-3-34-86-38-87 0 15 53 115 12 119 90S17 21 10-45l28-5c4 36 97 45 98 0-10-56-113-15-118-90-4-57 82-63 122-42 12 7 21 19 24 35" id="H"/><path d="M59-47c-2 24 18 29 38 22v24C64 9 27 4 27-40v-127H5v-23h24l9-43h21v43h35v23H59v120" id="I"/><path d="M100-194c63 0 86 42 84 106H49c0 40 14 67 53 68 26 1 43-12 49-29l28 8c-11 28-37 45-77 45C44 4 14-33 15-96c1-61 26-98 85-98zm52 81c6-60-76-77-97-28-3 7-6 17-6 28h103" id="J"/><path d="M210-169c-67 3-38 105-44 169h-31v-121c0-29-5-50-35-48C34-165 62-65 56 0H25l-1-190h30c1 10-1 24 2 32 10-44 99-50 107 0 11-21 27-35 58-36 85-2 47 119 55 194h-31v-121c0-29-5-49-35-48" id="K"/><path d="M141-36C126-15 110 5 73 4 37 3 15-17 15-53c-1-64 63-63 125-63 3-35-9-54-41-54-24 1-41 7-42 31l-33-3c5-37 33-52 76-52 45 0 72 20 72 64v82c-1 20 7 32 28 27v20c-31 9-61-2-59-35zM48-53c0 20 12 33 32 33 41-3 63-29 60-74-43 2-92-5-92 41" id="L"/><g id="a"><use transform="matrix(0.05,0,0,0.05,0,0)" xlink:href="#F"/><use transform="matrix(0.05,0,0,0.05,12,0)" xlink:href="#G"/><use transform="matrix(0.05,0,0,0.05,15.949999999999998,0)" xlink:href="#H"/><use transform="matrix(0.05,0,0,0.05,24.95,0)" xlink:href="#I"/><use transform="matrix(0.05,0,0,0.05,29.950000000000003,0)" xlink:href="#J"/><use transform="matrix(0.05,0,0,0.05,39.95,0)" xlink:href="#K"/><use transform="matrix(0.05,0,0,0.05,54.900000000000006,0)" xlink:href="#L"/></g><path d="M117-194c89-4 53 116 60 194h-32v-121c0-31-8-49-39-48C34-167 62-67 57 0H25l-1-190h30c1 10-1 24 2 32 11-22 29-35 61-36" id="M"/><path d="M101-234c-31-9-42 10-38 44h38v23H63V0H32v-167H5v-23h27c-7-52 17-82 69-68v24" id="N"/><path d="M100-194c62-1 85 37 85 99 1 63-27 99-86 99S16-35 15-95c0-66 28-99 85-99zM99-20c44 1 53-31 53-75 0-43-8-75-51-75s-53 32-53 75 10 74 51 75" id="O"/><path d="M114-163C36-179 61-72 57 0H25l-1-190h30c1 12-1 29 2 39 6-27 23-49 58-41v29" id="P"/><path d="M96-169c-40 0-48 33-48 73s9 75 48 75c24 0 41-14 43-38l32 2c-6 37-31 61-74 61-59 0-76-41-82-99-10-93 101-131 147-64 4 7 5 14 7 22l-32 3c-4-21-16-35-41-35" id="Q"/><g id="b"><use transform="matrix(0.05,0,0,0.05,0,0)" xlink:href="#G"/><use transform="matrix(0.05,0,0,0.05,3.95,0)" xlink:href="#M"/><use transform="matrix(0.05,0,0,0.05,13.949999999999998,0)" xlink:href="#N"/><use transform="matrix(0.05,0,0,0.05,18.95,0)" xlink:href="#O"/><use transform="matrix(0.05,0,0,0.05,28.950000000000003,0)" xlink:href="#P"/><use transform="matrix(0.05,0,0,0.05,34.9,0)" xlink:href="#K"/><use transform="matrix(0.05,0,0,0.05,49.85,0)" xlink:href="#L"/><use transform="matrix(0.05,0,0,0.05,59.85,0)" xlink:href="#I"/><use transform="matrix(0.05,0,0,0.05,64.85,0)" xlink:href="#G"/><use transform="matrix(0.05,0,0,0.05,68.8,0)" xlink:href="#Q"/><use transform="matrix(0.05,0,0,0.05,77.8,0)" xlink:href="#O"/></g><path d="M160-131c35 5 61 23 61 61C221 17 115-2 30 0v-248c76 3 177-17 177 60 0 33-19 50-47 57zm-97-11c50-1 110 9 110-42 0-47-63-36-110-37v79zm0 115c55-2 124 14 124-45 0-56-70-42-124-44v89" id="R"/><path d="M143 0L79-87 56-68V0H24v-261h32v163l83-92h37l-77 82L181 0h-38" id="S"/><g id="c"><use transform="matrix(0.05,0,0,0.05,0,0)" xlink:href="#R"/><use transform="matrix(0.05,0,0,0.05,12,0)" xlink:href="#L"/><use transform="matrix(0.05,0,0,0.05,22,0)" xlink:href="#M"/><use transform="matrix(0.05,0,0,0.05,32,0)" xlink:href="#S"/></g><path d="M205 0l-28-72H64L36 0H1l101-248h38L239 0h-34zm-38-99l-47-123c-12 45-31 82-46 123h93" id="T"/><path d="M127-220V0H93v-220H8v-28h204v28h-85" id="U"/><path d="M240 0l2-218c-23 76-54 145-80 218h-23L58-218 59 0H30v-248h44l77 211c21-75 51-140 76-211h43V0h-30" id="V"/><g id="d"><use transform="matrix(0.05,0,0,0.05,0,0)" xlink:href="#T"/><use transform="matrix(0.05,0,0,0.05,10.65,0)" xlink:href="#U"/><use transform="matrix(0.05,0,0,0.05,21.6,0)" xlink:href="#V"/></g><path d="M232-93c-1 65-40 97-104 97C67 4 28-28 28-90v-158h33c8 89-33 224 67 224 102 0 64-133 71-224h33v155" id="W"/><g id="e"><use transform="matrix(0.05,0,0,0.05,0,0)" xlink:href="#W"/><use transform="matrix(0.05,0,0,0.05,12.950000000000001,0)" xlink:href="#H"/><use transform="matrix(0.05,0,0,0.05,21.950000000000003,0)" xlink:href="#J"/><use transform="matrix(0.05,0,0,0.05,31.950000000000003,0)" xlink:href="#P"/></g><path d="M33 0v-248h34V0H33" id="X"/><g id="f"><use transform="matrix(0.05,0,0,0.05,0,0)" xlink:href="#X"/><use transform="matrix(0.05,0,0,0.05,5,0)" xlink:href="#M"/><use transform="matrix(0.05,0,0,0.05,15,0)" xlink:href="#H"/><use transform="matrix(0.05,0,0,0.05,24,0)" xlink:href="#J"/><use transform="matrix(0.05,0,0,0.05,34,0)" xlink:href="#P"/><use transform="matrix(0.05,0,0,0.05,39.95,0)" xlink:href="#I"/></g><g id="g"><use transform="matrix(0.05,0,0,0.05,0,0)" xlink:href="#Q"/><use transform="matrix(0.05,0,0,0.05,9,0)" xlink:href="#L"/><use transform="matrix(0.05,0,0,0.05,19,0)" xlink:href="#P"/><use transform="matrix(0.05,0,0,0.05,24.95,0)" xlink:href="#I"/></g><g id="h"><use transform="matrix(0.05,0,0,0.05,0,0)" xlink:href="#X"/><use transform="matrix(0.05,0,0,0.05,5,0)" xlink:href="#M"/><use transform="matrix(0.05,0,0,0.05,15,0)" xlink:href="#H"/><use transform="matrix(0.05,0,0,0.05,24,0)" xlink:href="#J"/><use transform="matrix(0.05,0,0,0.05,34,0)" xlink:href="#P"/><use transform="matrix(0.05,0,0,0.05,39.95,0)" xlink:href="#I"/></g><path d="M30-248c87 1 191-15 191 75 0 78-77 80-158 76V0H30v-248zm33 125c57 0 124 11 124-50 0-59-68-47-124-48v98" id="Y"/><path d="M190 0L58-211 59 0H30v-248h39L202-35l-2-213h31V0h-41" id="Z"/><g id="i"><use transform="matrix(0.05,0,0,0.05,0,0)" xlink:href="#Y"/><use transform="matrix(0.05,0,0,0.05,12,0)" xlink:href="#X"/><use transform="matrix(0.05,0,0,0.05,17,0)" xlink:href="#Z"/></g><path d="M30 0v-248h187v28H63v79h144v27H63v87h162V0H30" id="aa"/><path d="M108 0H70L1-190h34L89-25l56-165h34" id="ab"/><g id="j"><use transform="matrix(0.05,0,0,0.05,0,0)" xlink:href="#aa"/><use transform="matrix(0.05,0,0,0.05,12,0)" xlink:href="#ab"/><use transform="matrix(0.05,0,0,0.05,21,0)" xlink:href="#J"/><use transform="matrix(0.05,0,0,0.05,31,0)" xlink:href="#M"/><use transform="matrix(0.05,0,0,0.05,41,0)" xlink:href="#I"/></g><path d="M233-177c-1 41-23 64-60 70L243 0h-38l-65-103H63V0H30v-248c88 3 205-21 203 71zM63-129c60-2 137 13 137-47 0-61-80-42-137-45v92" id="ac"/><path d="M145-31C134-9 116 4 85 4 32 4 16-35 15-94c0-59 17-99 70-100 32-1 48 14 60 33 0-11-1-24 2-32h30l-1 268h-32zM93-21c41 0 51-33 51-76s-8-73-50-73c-40 0-46 35-46 75s5 74 45 74" id="ad"/><path d="M84 4C-5 8 30-112 23-190h32v120c0 31 7 50 39 49 72-2 45-101 50-169h31l1 190h-30c-1-10 1-25-2-33-11 22-28 36-60 37" id="ae"/><g id="k"><use transform="matrix(0.05,0,0,0.05,0,0)" xlink:href="#ac"/><use transform="matrix(0.05,0,0,0.05,12.950000000000001,0)" xlink:href="#J"/><use transform="matrix(0.05,0,0,0.05,22.950000000000003,0)" xlink:href="#ad"/><use transform="matrix(0.05,0,0,0.05,32.95,0)" xlink:href="#ae"/><use transform="matrix(0.05,0,0,0.05,42.95,0)" xlink:href="#J"/><use transform="matrix(0.05,0,0,0.05,52.95,0)" xlink:href="#H"/><use transform="matrix(0.05,0,0,0.05,61.95,0)" xlink:href="#I"/></g><path d="M212-179c-10-28-35-45-73-45-59 0-87 40-87 99 0 60 29 101 89 101 43 0 62-24 78-52l27 14C228-24 195 4 139 4 59 4 22-46 18-125c-6-104 99-153 187-111 19 9 31 26 39 46" id="af"/><path d="M106-169C34-169 62-67 57 0H25v-261h32l-1 103c12-21 28-36 61-36 89 0 53 116 60 194h-32v-121c2-32-8-49-39-48" id="ag"/><g id="l"><use transform="matrix(0.05,0,0,0.05,0,0)" xlink:href="#af"/><use transform="matrix(0.05,0,0,0.05,12.950000000000001,0)" xlink:href="#ag"/><use transform="matrix(0.05,0,0,0.05,22.950000000000003,0)" xlink:href="#J"/><use transform="matrix(0.05,0,0,0.05,32.95,0)" xlink:href="#Q"/><use transform="matrix(0.05,0,0,0.05,41.95,0)" xlink:href="#S"/></g><g id="m"><use transform="matrix(0.05,0,0,0.05,0,0)" xlink:href="#G"/><use transform="matrix(0.05,0,0,0.05,3.95,0)" xlink:href="#N"/></g><g id="n"><use transform="matrix(0.05,0,0,0.05,0,0)" xlink:href="#Y"/><use transform="matrix(0.05,0,0,0.05,12,0)" xlink:href="#X"/><use transform="matrix(0.05,0,0,0.05,17,0)" xlink:href="#Z"/></g><g id="o"><use transform="matrix(0.05,0,0,0.05,0,0)" xlink:href="#G"/><use transform="matrix(0.05,0,0,0.05,3.95,0)" xlink:href="#H"/></g><path d="M85-194c31 0 48 13 60 33l-1-100h32l1 261h-30c-2-10 0-23-3-31C134-8 116 4 85 4 32 4 16-35 15-94c0-66 23-100 70-100zm9 24c-40 0-46 34-46 75 0 40 6 74 45 74 42 0 51-32 51-76 0-42-9-74-50-73" id="ah"/><g id="p"><use transform="matrix(0.05,0,0,0.05,0,0)" xlink:href="#Q"/><use transform="matrix(0.05,0,0,0.05,9,0)" xlink:href="#O"/><use transform="matrix(0.05,0,0,0.05,19,0)" xlink:href="#P"/><use transform="matrix(0.05,0,0,0.05,24.95,0)" xlink:href="#P"/><use transform="matrix(0.05,0,0,0.05,30.899999999999995,0)" xlink:href="#J"/><use transform="matrix(0.05,0,0,0.05,40.9,0)" xlink:href="#Q"/><use transform="matrix(0.05,0,0,0.05,49.9,0)" xlink:href="#I"/><use transform="matrix(0.05,0,0,0.05,54.900000000000006,0)" xlink:href="#J"/><use transform="matrix(0.05,0,0,0.05,64.9,0)" xlink:href="#ah"/></g><g id="q"><use transform="matrix(0.05,0,0,0.05,0,0)" xlink:href="#Y"/><use transform="matrix(0.05,0,0,0.05,12,0)" xlink:href="#G"/><use transform="matrix(0.05,0,0,0.05,15.949999999999998,0)" xlink:href="#M"/></g><g id="r"><use transform="matrix(0.05,0,0,0.05,0,0)" xlink:href="#Q"/><use transform="matrix(0.05,0,0,0.05,9,0)" xlink:href="#O"/><use transform="matrix(0.05,0,0,0.05,19,0)" xlink:href="#P"/><use transform="matrix(0.05,0,0,0.05,24.95,0)" xlink:href="#P"/><use transform="matrix(0.05,0,0,0.05,30.899999999999995,0)" xlink:href="#J"/><use transform="matrix(0.05,0,0,0.05,40.9,0)" xlink:href="#Q"/><use transform="matrix(0.05,0,0,0.05,49.9,0)" xlink:href="#I"/></g><path d="M24 0v-261h32V0H24" id="ai"/><g id="s"><use transform="matrix(0.05,0,0,0.05,0,0)" xlink:href="#F"/><use transform="matrix(0.05,0,0,0.05,12,0)" xlink:href="#J"/><use transform="matrix(0.05,0,0,0.05,22,0)" xlink:href="#ai"/><use transform="matrix(0.05,0,0,0.05,25.950000000000003,0)" xlink:href="#J"/><use transform="matrix(0.05,0,0,0.05,35.95,0)" xlink:href="#Q"/><use transform="matrix(0.05,0,0,0.05,44.95,0)" xlink:href="#I"/></g><g id="t"><use transform="matrix(0.05,0,0,0.05,0,0)" xlink:href="#R"/><use transform="matrix(0.05,0,0,0.05,12,0)" xlink:href="#L"/><use transform="matrix(0.05,0,0,0.05,22,0)" xlink:href="#ai"/><use transform="matrix(0.05,0,0,0.05,25.950000000000003,0)" xlink:href="#L"/><use transform="matrix(0.05,0,0,0.05,35.95,0)" xlink:href="#M"/><use transform="matrix(0.05,0,0,0.05,45.95,0)" xlink:href="#Q"/><use transform="matrix(0.05,0,0,0.05,54.95,0)" xlink:href="#J"/></g><g id="u"><use transform="matrix(0.05,0,0,0.05,0,0)" xlink:href="#ac"/><use transform="matrix(0.05,0,0,0.05,12.950000000000001,0)" xlink:href="#J"/><use transform="matrix(0.05,0,0,0.05,22.950000000000003,0)" xlink:href="#ad"/><use transform="matrix(0.05,0,0,0.05,32.95,0)" xlink:href="#ae"/><use transform="matrix(0.05,0,0,0.05,42.95,0)" xlink:href="#J"/><use transform="matrix(0.05,0,0,0.05,52.95,0)" xlink:href="#H"/><use transform="matrix(0.05,0,0,0.05,61.95,0)" xlink:href="#I"/></g><path d="M115-194c53 0 69 39 70 98 0 66-23 100-70 100C84 3 66-7 56-30L54 0H23l1-261h32v101c10-23 28-34 59-34zm-8 174c40 0 45-34 45-75 0-40-5-75-45-74-42 0-51 32-51 76 0 43 10 73 51 73" id="aj"/><g id="v"><use transform="matrix(0.05,0,0,0.05,0,0)" xlink:href="#aj"/><use transform="matrix(0.05,0,0,0.05,10,0)" xlink:href="#L"/><use transform="matrix(0.05,0,0,0.05,20,0)" xlink:href="#ai"/><use transform="matrix(0.05,0,0,0.05,23.95,0)" xlink:href="#L"/><use transform="matrix(0.05,0,0,0.05,33.95,0)" xlink:href="#M"/><use transform="matrix(0.05,0,0,0.05,43.95,0)" xlink:href="#Q"/><use transform="matrix(0.05,0,0,0.05,52.95,0)" xlink:href="#J"/></g><g id="w"><use transform="matrix(0.05,0,0,0.05,0,0)" xlink:href="#O"/><use transform="matrix(0.05,0,0,0.05,10,0)" xlink:href="#P"/></g><path d="M206 0h-36l-40-164L89 0H53L-1-190h32L70-26l43-164h34l41 164 42-164h31" id="ak"/><g id="x"><use transform="matrix(0.05,0,0,0.05,0,0)" xlink:href="#ak"/><use transform="matrix(0.05,0,0,0.05,12.950000000000001,0)" xlink:href="#G"/><use transform="matrix(0.05,0,0,0.05,16.900000000000002,0)" xlink:href="#I"/><use transform="matrix(0.05,0,0,0.05,21.900000000000002,0)" xlink:href="#ag"/><use transform="matrix(0.05,0,0,0.05,31.900000000000002,0)" xlink:href="#ah"/><use transform="matrix(0.05,0,0,0.05,41.900000000000006,0)" xlink:href="#P"/><use transform="matrix(0.05,0,0,0.05,47.85000000000001,0)" xlink:href="#L"/><use transform="matrix(0.05,0,0,0.05,57.85,0)" xlink:href="#ak"/><use transform="matrix(0.05,0,0,0.05,70.80000000000001,0)" xlink:href="#L"/><use transform="matrix(0.05,0,0,0.05,80.80000000000001,0)" xlink:href="#ai"/></g><g id="y"><use transform="matrix(0.05,0,0,0.05,0,0)" xlink:href="#ak"/><use transform="matrix(0.05,0,0,0.05,12.950000000000001,0)" xlink:href="#G"/><use transform="matrix(0.05,0,0,0.05,16.900000000000002,0)" xlink:href="#I"/><use transform="matrix(0.05,0,0,0.05,21.900000000000002,0)" xlink:href="#ag"/><use transform="matrix(0.05,0,0,0.05,31.900000000000002,0)" xlink:href="#ah"/><use transform="matrix(0.05,0,0,0.05,41.900000000000006,0)" xlink:href="#P"/><use transform="matrix(0.05,0,0,0.05,47.85000000000001,0)" xlink:href="#L"/><use transform="matrix(0.05,0,0,0.05,57.85,0)" xlink:href="#ak"/><use transform="matrix(0.05,0,0,0.05,70.80000000000001,0)" xlink:href="#L"/><use transform="matrix(0.05,0,0,0.05,80.80000000000001,0)" xlink:href="#ai"/></g><g id="z"><use transform="matrix(0.05,0,0,0.05,0,0)" xlink:href="#F"/><use transform="matrix(0.05,0,0,0.05,12,0)" xlink:href="#ag"/><use transform="matrix(0.05,0,0,0.05,22,0)" xlink:href="#O"/><use transform="matrix(0.05,0,0,0.05,32,0)" xlink:href="#ak"/></g><g id="A"><use transform="matrix(0.05,0,0,0.05,0,0)" xlink:href="#aj"/><use transform="matrix(0.05,0,0,0.05,10,0)" xlink:href="#L"/><use transform="matrix(0.05,0,0,0.05,20,0)" xlink:href="#ai"/><use transform="matrix(0.05,0,0,0.05,23.95,0)" xlink:href="#L"/><use transform="matrix(0.05,0,0,0.05,33.95,0)" xlink:href="#M"/><use transform="matrix(0.05,0,0,0.05,43.95,0)" xlink:href="#Q"/><use transform="matrix(0.05,0,0,0.05,52.95,0)" xlink:href="#J"/></g><path d="M141 0L90-78 38 0H4l68-98-65-92h35l48 74 47-74h35l-64 92 68 98h-35" id="al"/><path d="M115-194c55 1 70 41 70 98S169 2 115 4C84 4 66-9 55-30l1 105H24l-1-265h31l2 30c10-21 28-34 59-34zm-8 174c40 0 45-34 45-75s-6-73-45-74c-42 0-51 32-51 76 0 43 10 73 51 73" id="am"/><g id="B"><use transform="matrix(0.05,0,0,0.05,0,0)" xlink:href="#aa"/><use transform="matrix(0.05,0,0,0.05,12,0)" xlink:href="#al"/><use transform="matrix(0.05,0,0,0.05,21,0)" xlink:href="#am"/><use transform="matrix(0.05,0,0,0.05,31,0)" xlink:href="#J"/><use transform="matrix(0.05,0,0,0.05,41,0)" xlink:href="#ai"/></g><g id="C"><use transform="matrix(0.05,0,0,0.05,0,0)" xlink:href="#Q"/><use transform="matrix(0.05,0,0,0.05,9,0)" xlink:href="#L"/><use transform="matrix(0.05,0,0,0.05,19,0)" xlink:href="#P"/><use transform="matrix(0.05,0,0,0.05,24.95,0)" xlink:href="#I"/><use transform="matrix(0.05,0,0,0.05,29.950000000000003,0)" xlink:href="#L"/></g><path d="M143 4C61 4 22-44 18-125c-5-107 100-154 193-111 17 8 29 25 37 43l-32 9c-13-25-37-40-76-40-61 0-88 39-88 99 0 61 29 100 91 101 35 0 62-11 79-27v-45h-74v-28h105v86C228-13 192 4 143 4" id="an"/><g id="D"><use transform="matrix(0.05,0,0,0.05,0,0)" xlink:href="#an"/><use transform="matrix(0.05,0,0,0.05,14,0)" xlink:href="#G"/><use transform="matrix(0.05,0,0,0.05,17.95,0)" xlink:href="#ab"/><use transform="matrix(0.05,0,0,0.05,26.950000000000003,0)" xlink:href="#J"/></g><path d="M179-190L93 31C79 59 56 82 12 73V49c39 6 53-20 64-50L1-190h34L92-34l54-156h33" id="ao"/><g id="E"><use transform="matrix(0.05,0,0,0.05,0,0)" xlink:href="#K"/><use transform="matrix(0.05,0,0,0.05,14.950000000000001,0)" xlink:href="#O"/><use transform="matrix(0.05,0,0,0.05,24.950000000000003,0)" xlink:href="#M"/><use transform="matrix(0.05,0,0,0.05,34.95,0)" xlink:href="#J"/><use transform="matrix(0.05,0,0,0.05,44.95,0)" xlink:href="#ao"/></g></defs></g></svg>