<svg xmlns="http://www.w3.org/2000/svg" xmlns:xlink="http://www.w3.org/1999/xlink" xmlns:lucid="lucid" width="1240" height="1589.77"><g transform="translate(-300 1180)" lucid:page-tab-id="0_0"><path d="M795.97 114.42h207.22v60H795.96z" fill="none"/><use xlink:href="#a" transform="matrix(1,0,0,1,795.9713749431583,114.41745655391111) translate(4.6499999999999915 22.799999999999997)"/><use xlink:href="#b" transform="matrix(1,0,0,1,795.9713749431583,114.41745655391111) translate(83.5 22.799999999999997)"/><use xlink:href="#c" transform="matrix(1,0,0,1,795.9713749431583,114.41745655391111) translate(65.525 44.4)"/><use xlink:href="#d" transform="matrix(1,0,0,1,795.9713749431583,114.41745655391111) translate(109.525 44.4)"/><path d="M355.97-170h240v60h-240z" fill="none"/><use xlink:href="#e" transform="matrix(1,0,0,1,355.97137494315825,-170) translate(70.1 33.6)"/><use xlink:href="#f" transform="matrix(1,0,0,1,355.97137494315825,-170) translate(126.94999999999999 33.6)"/><path d="M774.73 329.77h240v60h-240z" fill="none"/><use xlink:href="#a" transform="matrix(1,0,0,1,774.7260472417471,329.7665128931983) translate(20.64999999999999 14.4)"/><use xlink:href="#b" transform="matrix(1,0,0,1,774.7260472417471,329.7665128931983) translate(99.5 14.4)"/><use xlink:href="#g" transform="matrix(1,0,0,1,774.7260472417471,329.7665128931983) translate(71.57499999999999 36)"/><use xlink:href="#h" transform="matrix(1,0,0,1,774.7260472417471,329.7665128931983) translate(120 57.6)"/><path d="M320 64.42h240v60H320z" fill="none"/><use xlink:href="#i" transform="matrix(1,0,0,1,320,64.41745655391105) translate(75.675 33.6)"/><use xlink:href="#j" transform="matrix(1,0,0,1,320,64.41745655391105) translate(119.675 33.6)"/><path d="M655.97 174.42h240v60h-240z" fill="none"/><use xlink:href="#k" transform="matrix(1,0,0,1,655.9713749431583,174.41745655391105) translate(83.05 33.6)"/><use xlink:href="#l" transform="matrix(1,0,0,1,655.9713749431583,174.41745655391105) translate(130.05 33.6)"/><path d="M320 284.42h240v60H320z" fill="none"/><use xlink:href="#k" transform="matrix(1,0,0,1,320,284.41745655391105) translate(56.05 33.6)"/><use xlink:href="#m" transform="matrix(1,0,0,1,320,284.41745655391105) translate(103.05 33.6)"/><use xlink:href="#n" transform="matrix(1,0,0,1,320,284.41745655391105) translate(145.95 33.6)"/><path d="M1079.58-35.58h240v60h-240z" fill="none"/><use xlink:href="#a" transform="matrix(1,0,0,1,1079.578927342419,-35.58254344608895) translate(47.125 33.6)"/><use xlink:href="#o" transform="matrix(1,0,0,1,1079.578927342419,-35.58254344608895) translate(125.97500000000001 33.6)"/><path d="M1179.58 64.42h240v60h-240z" fill="none"/><use xlink:href="#p" transform="matrix(1,0,0,1,1179.578927342419,64.41745655391105) translate(71.525 33.6)"/><use xlink:href="#q" transform="matrix(1,0,0,1,1179.578927342419,64.41745655391105) translate(116.525 33.6)"/><path d="M1265.68 284.42h240v60h-240z" fill="none"/><use xlink:href="#a" transform="matrix(1,0,0,1,1265.6799030151712,284.41745655391105) translate(34.14999999999999 33.6)"/><use xlink:href="#r" transform="matrix(1,0,0,1,1265.6799030151712,284.41745655391105) translate(113 33.6)"/><path d="M779.58-105.58h240v60h-240z" fill="none"/><use xlink:href="#s" transform="matrix(1,0,0,1,779.5789273424191,-105.58254344608895) translate(61.05 33.6)"/><path d="M960-780c0 44.18-35.82 80-80 80s-80-35.82-80-80 35.82-80 80-80 80 35.82 80 80z" stroke="#000" stroke-width="2" fill="#fff"/><use xlink:href="#t" transform="matrix(1,0,0,1,804.9999999999999,-855) translate(9.549999999999997 80.025)"/><use xlink:href="#q" transform="matrix(1,0,0,1,804.9999999999999,-855) translate(88.5 80.025)"/><path d="M340-840h160v120H340z" stroke="#000" stroke-width="2" fill="#fff"/><use xlink:href="#u" transform="matrix(1,0,0,1,345,-835) translate(40.55 48.775)"/><use xlink:href="#v" transform="matrix(1,0,0,1,345,-835) translate(23.15 70.375)"/><path d="M1360-840h160v120h-160z" stroke="#000" stroke-width="2" fill="#fff"/><use xlink:href="#w" transform="matrix(1,0,0,1,1365,-835) translate(48.525 59.0875)"/><path d="M800-480h160v120H800z" stroke="#000" stroke-width="2" fill="#fff"/><use xlink:href="#x" transform="matrix(1,0,0,1,804.9999999999999,-475) translate(31.074999999999996 48.775)"/><use xlink:href="#y" transform="matrix(1,0,0,1,804.9999999999999,-475) translate(104.975 48.775)"/><use xlink:href="#z" transform="matrix(1,0,0,1,804.9999999999999,-475) translate(19.1 70.375)"/><path d="M626.85-1160h160v120h-160z" stroke="#000" stroke-width="2" fill="#fff"/><use xlink:href="#A" transform="matrix(1,0,0,1,631.8527168692467,-1155) translate(21.099999999999994 48.775)"/><use xlink:href="#B" transform="matrix(1,0,0,1,631.8527168692467,-1155) translate(118.9 48.775)"/><use xlink:href="#C" transform="matrix(1,0,0,1,631.8527168692467,-1155) translate(18.099999999999994 70.375)"/><use xlink:href="#D" transform="matrix(1,0,0,1,631.8527168692467,-1155) translate(79.94999999999999 70.375)"/><path d="M1006.1-1160h160v120h-160z" stroke="#000" stroke-width="2" fill="#fff"/><use xlink:href="#E" transform="matrix(1,0,0,1,1011.1009756727522,-1155) translate(33.074999999999996 48.775)"/><use xlink:href="#y" transform="matrix(1,0,0,1,1011.1009756727522,-1155) translate(102.975 48.775)"/><use xlink:href="#F" transform="matrix(1,0,0,1,1011.1009756727522,-1155) translate(18.574999999999996 70.375)"/><use xlink:href="#G" transform="matrix(1,0,0,1,1011.1009756727522,-1155) translate(90.475 70.375)"/><path d="M551.12-779H519.5v-2h31.62zM798-779h-49.13v-2H798z"/><path d="M799-780v1h-1.03v-2h1.06zM518.5-775.36L504.24-780l14.26-4.64z"/><path d="M519.5-774l-18.5-6 18.5-6zm-12.03-6l10.03 3.26v-6.52z"/><use xlink:href="#H" transform="matrix(1,0,0,1,551.1249957176781,-790.8) translate(0 14.4)"/><use xlink:href="#c" transform="matrix(1,0,0,1,551.1249957176781,-790.8) translate(126.85000000000001 14.4)"/><use xlink:href="#l" transform="matrix(1,0,0,1,551.1249957176781,-790.8) translate(170.85000000000002 14.4)"/><path d="M881-499.5h-2v-93.57h2zm0-115.17h-2V-698h2z"/><path d="M880-699h1v1.03h-2v-1.06zM880-484.24l-4.64-14.26h9.28z"/><path d="M880-481l-6-18.5h12zm-3.26-16.5l3.26 10.03 3.26-10.03z"/><use xlink:href="#H" transform="matrix(1,0,0,1,768.1499999999999,-614.6666666666663) translate(0 14.4)"/><use xlink:href="#I" transform="matrix(1,0,0,1,768.1499999999999,-614.6666666666663) translate(126.85000000000001 14.4)"/><path d="M1087.1-835.4h-148v-2h146v-130.47h2zm0-154.07h-2v-31.03h2z"/><path d="M939.13-835.4l-.3-.3-1.73-1.7h2.03zM1090.74-1021.5h-9.27l4.63-14.26z"/><path d="M1092.1-1020.5h-12l6-18.5zm-9.26-2h6.52l-3.26-10.03z"/><use xlink:href="#J" transform="matrix(1,0,0,1,1007.7009756727522,-989.47453831591) translate(0 14.4)"/><use xlink:href="#K" transform="matrix(1,0,0,1,1007.7009756727522,-989.47453831591) translate(70.95 14.4)"/><use xlink:href="#o" transform="matrix(1,0,0,1,1007.7009756727522,-989.47453831591) translate(89.9 14.4)"/><path d="M707.85-832.55h91.17v2h-93.17V-974.4h2zm0-163.45h-2v-42h2z"/><path d="M707.85-1037.97h-2v-1.03h2zM814.3-831.55L800-826.9v-9.28z"/><path d="M817.53-831.55l-18.5 6v-12zm-16.5 3.26l10.02-3.25-10.03-3.26z"/><use xlink:href="#L" transform="matrix(1,0,0,1,638.4527168692467,-995.9999999999995) translate(0 14.4)"/><use xlink:href="#M" transform="matrix(1,0,0,1,638.4527168692467,-995.9999999999995) translate(42.95 14.4)"/><use xlink:href="#f" transform="matrix(1,0,0,1,638.4527168692467,-995.9999999999995) translate(93.85 14.4)"/><path d="M997.93-740.67h-45.57v-2h45.57zm342.57 0h-74.02v-2h74.02z"/><path d="M952.38-740.67h-1.57l.33-.55.73-1.45h.52zM1355.76-741.67l-14.26 4.64v-9.27z"/><path d="M1359-741.67l-18.5 6.02v-12.03zm-16.5 3.26l10.03-3.27-10.03-3.25z"/><use xlink:href="#N" transform="matrix(1,0,0,1,997.9332042699515,-752.4654970378168) translate(0 14.4)"/><use xlink:href="#O" transform="matrix(1,0,0,1,997.9332042699515,-752.4654970378168) translate(74.9 14.4)"/><use xlink:href="#P" transform="matrix(1,0,0,1,997.9332042699515,-752.4654970378168) translate(176.65 14.4)"/><path d="M1004-820.47h-35.95v-2H1004zm354-1.06h-53.45v-2H1358z"/><path d="M1359-821.53h-1.03v-2h1.03zM967.05-816.83l-14.26-4.64 14.25-4.63z"/><path d="M968.05-815.46l-18.5-6 18.5-6.02zm-12.03-6l10.03 3.25v-6.53z"/><use xlink:href="#a" transform="matrix(1,0,0,1,1003.9995341760242,-832.8006690836883) translate(0 14.4)"/><use xlink:href="#Q" transform="matrix(1,0,0,1,1003.9995341760242,-832.8006690836883) translate(78.85000000000001 14.4)"/><use xlink:href="#I" transform="matrix(1,0,0,1,1003.9995341760242,-832.8006690836883) translate(203.70000000000002 14.4)"/><path d="M1020.46-805.53h-45.43v-2h45.43zm337.54 0h-62.94v-2H1358z"/><path d="M1359-805.53h-1.03v-2h1.03zM974.03-801.9l-14.27-4.63 14.27-4.64z"/><path d="M975.03-800.52l-18.5-6 18.5-6.03zm-12.03-6l10.03 3.25v-6.52z"/><use xlink:href="#a" transform="matrix(1,0,0,1,1020.4636227370938,-817.3333333333328) translate(0 14.4)"/><use xlink:href="#Q" transform="matrix(1,0,0,1,1020.4636227370938,-817.3333333333328) translate(78.85000000000001 14.4)"/><use xlink:href="#c" transform="matrix(1,0,0,1,1020.4636227370938,-817.3333333333328) translate(203.70000000000002 14.4)"/><use xlink:href="#l" transform="matrix(1,0,0,1,1020.4636227370938,-817.3333333333328) translate(247.70000000000002 14.4)"/><path d="M1064.15-779H979.5v-2h84.65zm293.85 0h-102.15v-2H1358z"/><path d="M1359-779h-1.03v-2h1.03zM978.5-775.36L964.24-780l14.26-4.64z"/><path d="M979.5-774l-18.5-6 18.5-6zm-12.03-6l10.03 3.26v-6.52z"/><use xlink:href="#a" transform="matrix(1,0,0,1,1064.1500042823218,-790.8) translate(0 14.4)"/><use xlink:href="#F" transform="matrix(1,0,0,1,1064.1500042823218,-790.8) translate(78.85000000000001 14.4)"/><use xlink:href="#G" transform="matrix(1,0,0,1,1064.1500042823218,-790.8) translate(150.75 14.4)"/><path d="M615.97-180h160v120h-160z" stroke="#000" stroke-width="2" fill="#fff"/><path d="M765.97-170h-15v20h15z" stroke="#000" fill="#fff"/><path d="M755.97-166.67h-10v3.34h10zm0 10h-10v3.34h10z" stroke="#000" fill="#fff"/><g><use xlink:href="#R" transform="matrix(1,0,0,1,615.9713749431583,-180) translate(32.55499999999999 40.65)"/><use xlink:href="#S" transform="matrix(1,0,0,1,615.9713749431583,-180) translate(19.60499999999999 62.25)"/><use xlink:href="#T" transform="matrix(1,0,0,1,615.9713749431583,-180) translate(49.55499999999999 83.85000000000001)"/></g><path d="M1019.58-180h160v120h-160z" stroke="#000" stroke-width="2" fill="#fff"/><path d="M1169.58-170h-15v20h15z" stroke="#000" fill="#fff"/><path d="M1159.58-166.67h-10v3.34h10zm0 10h-10v3.34h10z" stroke="#000" fill="#fff"/><g><use xlink:href="#U" transform="matrix(1,0,0,1,1019.5789273424191,-180) translate(21.054999999999993 51.9)"/><use xlink:href="#V" transform="matrix(1,0,0,1,1019.5789273424191,-180) translate(98.005 51.9)"/><use xlink:href="#W" transform="matrix(1,0,0,1,1019.5789273424191,-180) translate(39.35499999999999 73.5)"/></g><path d="M1019.58 34.42h160v120h-160z" stroke="#000" stroke-width="2" fill="#fff"/><path d="M1169.58 44.42h-15v20h15z" stroke="#000" fill="#fff"/><path d="M1159.58 47.75h-10v3.33h10zm0 10h-10v3.33h10z" stroke="#000" fill="#fff"/><g><use xlink:href="#E" transform="matrix(1,0,0,1,1019.5789273424191,34.41745655391105) translate(23.07999999999999 40.65)"/><use xlink:href="#y" transform="matrix(1,0,0,1,1019.5789273424191,34.41745655391105) translate(92.98 40.65)"/><use xlink:href="#S" transform="matrix(1,0,0,1,1019.5789273424191,34.41745655391105) translate(19.60499999999999 62.25)"/><use xlink:href="#q" transform="matrix(1,0,0,1,1019.5789273424191,34.41745655391105) translate(54.029999999999994 83.85000000000001)"/></g><path d="M615.97 34.42h160v120h-160z" stroke="#000" stroke-width="2" fill="#fff"/><path d="M765.97 44.42h-15v20h15z" stroke="#000" fill="#fff"/><path d="M755.97 47.75h-10v3.33h10zm0 10h-10v3.33h10z" stroke="#000" fill="#fff"/><g><use xlink:href="#U" transform="matrix(1,0,0,1,615.9713749431583,34.41745655391105) translate(28.07999999999999 63.15)"/><use xlink:href="#l" transform="matrix(1,0,0,1,615.9713749431583,34.41745655391105) translate(105.03 63.15)"/></g><path d="M615.97 254.42h160v120h-160z" stroke="#000" stroke-width="2" fill="#fff"/><path d="M765.97 264.42h-15v20h15z" stroke="#000" fill="#fff"/><path d="M755.97 267.75h-10v3.33h10zm0 10h-10v3.33h10z" stroke="#000" fill="#fff"/><g><use xlink:href="#R" transform="matrix(1,0,0,1,615.9713749431583,254.41745655391105) translate(32.55499999999999 40.65)"/><use xlink:href="#X" transform="matrix(1,0,0,1,615.9713749431583,254.41745655391105) translate(30.604999999999997 62.25)"/><use xlink:href="#q" transform="matrix(1,0,0,1,615.9713749431583,254.41745655391105) translate(54.029999999999994 83.85000000000001)"/></g><path d="M1019.58 254.42h160v120h-160z" stroke="#000" stroke-width="2" fill="#fff"/><path d="M1169.58 264.42h-15v20h15z" stroke="#000" fill="#fff"/><path d="M1159.58 267.75h-10v3.33h10zm0 10h-10v3.33h10z" stroke="#000" fill="#fff"/><g><use xlink:href="#Y" transform="matrix(1,0,0,1,1019.5789273424191,254.41745655391105) translate(46.529999999999994 51.9)"/><use xlink:href="#z" transform="matrix(1,0,0,1,1019.5789273424191,254.41745655391105) translate(24.104999999999997 73.5)"/></g><path d="M880-120h11M925-120h5" stroke="#000" stroke-width="2" fill="none"/><path d="M905-134c7.73 0 14 6.27 14 14s-6.27 14-14 14-14-6.27-14-14 6.27-14 14-14z" stroke="#000" stroke-width="2" fill="#fff"/><path d="M905-100c11.05 0 20-8.95 20-20s-8.95-20-20-20" stroke="#000" stroke-width="2" fill="none"/><path d="M880-120.8h11v1.6h-11z" fill="none"/><g><path d="M1099.58 19.42v-11M1099.58-25.58v-5" stroke="#000" stroke-width="2" fill="none"/><path d="M1085.58-5.58c0-7.73 6.27-14 14-14s14 6.27 14 14-6.27 14-14 14-14-6.27-14-14z" stroke="#000" stroke-width="2" fill="#fff"/><path d="M1119.58-5.58c0-11.05-8.96-20-20-20-11.05 0-20 8.95-20 20" stroke="#000" stroke-width="2" fill="none"/><path d="M1098.78 19.42v-11h1.6v11z" fill="none"/></g><path d="M555.97-140h10m-30-20c11.05 0 20 8.95 20 20s-8.95 20-20 20" stroke="#000" stroke-width="2" fill="none"/><path d="M535.97-160c11.05 0 20 8.95 20 20s-8.95 20-20 20zM555.97-140.8h10v1.6h-10z" fill="none"/><g fill="none"><path d="M1209.58 94.42h-10m30 20c-11.05 0-20-8.96-20-20 0-11.05 8.95-20 20-20" stroke="#000" stroke-width="2"/><path d="M1229.58 114.42c-11.05 0-20-8.96-20-20 0-11.05 8.95-20 20-20zM1209.58 95.22h-10v-1.6h10z"/></g><g><path d="M924.58 94.42h-11M879.58 94.42h-5" stroke="#000" stroke-width="2" fill="none"/><path d="M899.58 108.42c-7.73 0-14-6.27-14-14s6.27-14 14-14 14 6.27 14 14-6.27 14-14 14z" stroke="#000" stroke-width="2" fill="#fff"/><path d="M899.58 74.42c-11.05 0-20 8.95-20 20 0 11.04 8.95 20 20 20" stroke="#000" stroke-width="2" fill="none"/><path d="M924.58 95.22h-11v-1.6h11z" fill="none"/></g><g><path d="M565.97 94.42h-10m-40 0c0-11.05 8.96-20 20-20 11.05 0 20 8.95 20 20 0 11.04-8.95 20-20 20-11.04 0-20-8.96-20-20z" stroke="#000" stroke-width="2" fill="#fff"/><path d="M565.97 95.22h-10v-1.6h10z" fill="none"/></g><g><path d="M695.97 179.42v11M695.97 224.42v5" stroke="#000" stroke-width="2" fill="none"/><path d="M709.97 204.42c0 7.73-6.27 14-14 14s-14-6.27-14-14 6.27-14 14-14 14 6.27 14 14z" stroke="#000" stroke-width="2" fill="#fff"/><path d="M675.97 204.42c0 11.04 8.96 20 20 20 11.05 0 20-8.96 20-20" stroke="#000" stroke-width="2" fill="none"/><path d="M696.77 179.42v11h-1.6v-11z" fill="none"/></g><g><path d="M560 314.42h-10m-40 0c0-11.05 8.95-20 20-20s20 8.95 20 20c0 11.04-8.95 20-20 20s-20-8.96-20-20z" stroke="#000" stroke-width="2" fill="#fff"/><path d="M560 315.22h-10v-1.6h10z" fill="none"/></g><g><path d="M935 314.42h-11M890 314.42h-5" stroke="#000" stroke-width="2" fill="none"/><path d="M910 328.42c-7.73 0-14-6.27-14-14s6.27-14 14-14 14 6.27 14 14-6.27 14-14 14z" stroke="#000" stroke-width="2" fill="#fff"/><path d="M910 294.42c-11.05 0-20 8.95-20 20 0 11.04 8.95 20 20 20" stroke="#000" stroke-width="2" fill="none"/><path d="M935 315.22h-11v-1.6h11z" fill="none"/></g><path d="M1229.58 314.42h10m40 0c0 11.04-8.96 20-20 20-11.05 0-20-8.96-20-20 0-11.05 8.95-20 20-20 11.04 0 20 8.95 20 20z" stroke="#000" stroke-width="2" fill="#fff"/><path d="M1229.58 313.62h10v1.6h-10z" fill="none"/><defs><path d="M233-177c-1 41-23 64-60 70L243 0h-38l-65-103H63V0H30v-248c88 3 205-21 203 71zM63-129c60-2 137 13 137-47 0-61-80-42-137-45v92" id="Z"/><path d="M24-231v-30h32v30H24zM24 0v-190h32V0H24" id="aa"/><path d="M96-169c-40 0-48 33-48 73s9 75 48 75c24 0 41-14 43-38l32 2c-6 37-31 61-74 61-59 0-76-41-82-99-10-93 101-131 147-64 4 7 5 14 7 22l-32 3c-4-21-16-35-41-35" id="ab"/><path d="M106-169C34-169 62-67 57 0H25v-261h32l-1 103c12-21 28-36 61-36 89 0 53 116 60 194h-32v-121c2-32-8-49-39-48" id="ac"/><path d="M100-194c63 0 86 42 84 106H49c0 40 14 67 53 68 26 1 43-12 49-29l28 8c-11 28-37 45-77 45C44 4 14-33 15-96c1-61 26-98 85-98zm52 81c6-60-76-77-97-28-3 7-6 17-6 28h103" id="ad"/><path d="M135-143c-3-34-86-38-87 0 15 53 115 12 119 90S17 21 10-45l28-5c4 36 97 45 98 0-10-56-113-15-118-90-4-57 82-63 122-42 12 7 21 19 24 35" id="ae"/><path d="M59-47c-2 24 18 29 38 22v24C64 9 27 4 27-40v-127H5v-23h24l9-43h21v43h35v23H59v120" id="af"/><path d="M141-36C126-15 110 5 73 4 37 3 15-17 15-53c-1-64 63-63 125-63 3-35-9-54-41-54-24 1-41 7-42 31l-33-3c5-37 33-52 76-52 45 0 72 20 72 64v82c-1 20 7 32 28 27v20c-31 9-61-2-59-35zM48-53c0 20 12 33 32 33 41-3 63-29 60-74-43 2-92-5-92 41" id="ag"/><g id="a"><use transform="matrix(0.05,0,0,0.05,0,0)" xlink:href="#Z"/><use transform="matrix(0.05,0,0,0.05,12.950000000000001,0)" xlink:href="#aa"/><use transform="matrix(0.05,0,0,0.05,16.900000000000002,0)" xlink:href="#ab"/><use transform="matrix(0.05,0,0,0.05,25.900000000000002,0)" xlink:href="#ac"/><use transform="matrix(0.05,0,0,0.05,35.900000000000006,0)" xlink:href="#aa"/><use transform="matrix(0.05,0,0,0.05,39.85000000000001,0)" xlink:href="#ad"/><use transform="matrix(0.05,0,0,0.05,49.85000000000001,0)" xlink:href="#ae"/><use transform="matrix(0.05,0,0,0.05,58.85,0)" xlink:href="#af"/><use transform="matrix(0.05,0,0,0.05,63.85,0)" xlink:href="#ag"/></g><path d="M177-190C167-65 218 103 67 71c-23-6-38-20-44-43l32-5c15 47 100 32 89-28v-30C133-14 115 1 83 1 29 1 15-40 15-95c0-56 16-97 71-98 29-1 48 16 59 35 1-10 0-23 2-32h30zM94-22c36 0 50-32 50-73 0-42-14-75-50-75-39 0-46 34-46 75s6 73 46 73" id="ah"/><path d="M100-194c62-1 85 37 85 99 1 63-27 99-86 99S16-35 15-95c0-66 28-99 85-99zM99-20c44 1 53-31 53-75 0-43-8-75-51-75s-53 32-53 75 10 74 51 75" id="ai"/><path d="M114-163C36-179 61-72 57 0H25l-1-190h30c1 12-1 29 2 39 6-27 23-49 58-41v29" id="aj"/><path d="M117-194c89-4 53 116 60 194h-32v-121c0-31-8-49-39-48C34-167 62-67 57 0H25l-1-190h30c1 10-1 24 2 32 11-22 29-35 61-36" id="ak"/><path d="M210-169c-67 3-38 105-44 169h-31v-121c0-29-5-50-35-48C34-165 62-65 56 0H25l-1-190h30c1 10-1 24 2 32 10-44 99-50 107 0 11-21 27-35 58-36 85-2 47 119 55 194h-31v-121c0-29-5-49-35-48" id="al"/><g id="b"><use transform="matrix(0.05,0,0,0.05,0,0)" xlink:href="#ag"/><use transform="matrix(0.05,0,0,0.05,10,0)" xlink:href="#ah"/><use transform="matrix(0.05,0,0,0.05,20,0)" xlink:href="#ah"/><use transform="matrix(0.05,0,0,0.05,30,0)" xlink:href="#aa"/><use transform="matrix(0.05,0,0,0.05,33.95,0)" xlink:href="#ai"/><use transform="matrix(0.05,0,0,0.05,43.95,0)" xlink:href="#aj"/><use transform="matrix(0.05,0,0,0.05,49.900000000000006,0)" xlink:href="#ak"/><use transform="matrix(0.05,0,0,0.05,59.900000000000006,0)" xlink:href="#ag"/><use transform="matrix(0.05,0,0,0.05,69.9,0)" xlink:href="#al"/><use transform="matrix(0.05,0,0,0.05,84.85000000000001,0)" xlink:href="#ad"/><use transform="matrix(0.05,0,0,0.05,94.85000000000001,0)" xlink:href="#ak"/><use transform="matrix(0.05,0,0,0.05,104.85000000000001,0)" xlink:href="#af"/><use transform="matrix(0.05,0,0,0.05,109.85000000000001,0)" xlink:href="#ai"/></g><g id="c"><use transform="matrix(0.05,0,0,0.05,0,0)" xlink:href="#ae"/><use transform="matrix(0.05,0,0,0.05,9,0)" xlink:href="#af"/><use transform="matrix(0.05,0,0,0.05,14,0)" xlink:href="#ag"/><use transform="matrix(0.05,0,0,0.05,24,0)" xlink:href="#af"/><use transform="matrix(0.05,0,0,0.05,29,0)" xlink:href="#ai"/></g><path d="M24 0v-261h32V0H24" id="am"/><path d="M84 4C-5 8 30-112 23-190h32v120c0 31 7 50 39 49 72-2 45-101 50-169h31l1 190h-30c-1-10 1-25-2-33-11 22-28 36-60 37" id="an"/><g id="d"><use transform="matrix(0.05,0,0,0.05,0,0)" xlink:href="#am"/><use transform="matrix(0.05,0,0,0.05,3.95,0)" xlink:href="#an"/><use transform="matrix(0.05,0,0,0.05,13.949999999999998,0)" xlink:href="#ab"/><use transform="matrix(0.05,0,0,0.05,22.95,0)" xlink:href="#ad"/></g><path d="M63-220v92h138v28H63V0H30v-248h175v28H63" id="ao"/><g id="e"><use transform="matrix(0.05,0,0,0.05,0,0)" xlink:href="#ao"/><use transform="matrix(0.05,0,0,0.05,10.950000000000001,0)" xlink:href="#aj"/><use transform="matrix(0.05,0,0,0.05,16.900000000000002,0)" xlink:href="#ag"/><use transform="matrix(0.05,0,0,0.05,26.900000000000002,0)" xlink:href="#al"/><use transform="matrix(0.05,0,0,0.05,41.85,0)" xlink:href="#ad"/></g><path d="M108 0H70L1-190h34L89-25l56-165h34" id="ap"/><path d="M85-194c31 0 48 13 60 33l-1-100h32l1 261h-30c-2-10 0-23-3-31C134-8 116 4 85 4 32 4 16-35 15-94c0-66 23-100 70-100zm9 24c-40 0-46 34-46 75 0 40 6 74 45 74 42 0 51-32 51-76 0-42-9-74-50-73" id="aq"/><g id="f"><use transform="matrix(0.05,0,0,0.05,0,0)" xlink:href="#ap"/><use transform="matrix(0.05,0,0,0.05,9,0)" xlink:href="#aa"/><use transform="matrix(0.05,0,0,0.05,12.949999999999998,0)" xlink:href="#aq"/><use transform="matrix(0.05,0,0,0.05,22.95,0)" xlink:href="#ad"/><use transform="matrix(0.05,0,0,0.05,32.95,0)" xlink:href="#ai"/></g><path d="M115-194c55 1 70 41 70 98S169 2 115 4C84 4 66-9 55-30l1 105H24l-1-265h31l2 30c10-21 28-34 59-34zm-8 174c40 0 45-34 45-75s-6-73-45-74c-42 0-51 32-51 76 0 43 10 73 51 73" id="ar"/><g id="g"><use transform="matrix(0.05,0,0,0.05,0,0)" xlink:href="#af"/><use transform="matrix(0.05,0,0,0.05,5,0)" xlink:href="#ad"/><use transform="matrix(0.05,0,0,0.05,15,0)" xlink:href="#al"/><use transform="matrix(0.05,0,0,0.05,29.950000000000003,0)" xlink:href="#ar"/><use transform="matrix(0.05,0,0,0.05,39.95,0)" xlink:href="#ad"/><use transform="matrix(0.05,0,0,0.05,49.95,0)" xlink:href="#aj"/><use transform="matrix(0.05,0,0,0.05,55.900000000000006,0)" xlink:href="#ag"/><use transform="matrix(0.05,0,0,0.05,65.9,0)" xlink:href="#af"/><use transform="matrix(0.05,0,0,0.05,70.9,0)" xlink:href="#an"/><use transform="matrix(0.05,0,0,0.05,80.9,0)" xlink:href="#aj"/><use transform="matrix(0.05,0,0,0.05,86.85000000000001,0)" xlink:href="#ag"/></g><path d="M30 0v-248h33v221h125V0H30" id="as"/><g id="i"><use transform="matrix(0.05,0,0,0.05,0,0)" xlink:href="#as"/><use transform="matrix(0.05,0,0,0.05,10,0)" xlink:href="#an"/><use transform="matrix(0.05,0,0,0.05,20,0)" xlink:href="#ab"/><use transform="matrix(0.05,0,0,0.05,29,0)" xlink:href="#ad"/></g><path d="M0 4l72-265h28L28 4H0" id="at"/><path d="M101-234c-31-9-42 10-38 44h38v23H63V0H32v-167H5v-23h27c-7-52 17-82 69-68v24" id="au"/><g id="j"><use transform="matrix(0.05,0,0,0.05,0,0)" xlink:href="#ai"/><use transform="matrix(0.05,0,0,0.05,10,0)" xlink:href="#ak"/><use transform="matrix(0.05,0,0,0.05,20,0)" xlink:href="#at"/><use transform="matrix(0.05,0,0,0.05,25,0)" xlink:href="#ai"/><use transform="matrix(0.05,0,0,0.05,35,0)" xlink:href="#au"/><use transform="matrix(0.05,0,0,0.05,39.65,0)" xlink:href="#au"/></g><path d="M185-189c-5-48-123-54-124 2 14 75 158 14 163 119 3 78-121 87-175 55-17-10-28-26-33-46l33-7c5 56 141 63 141-1 0-78-155-14-162-118-5-82 145-84 179-34 5 7 8 16 11 25" id="av"/><g id="k"><use transform="matrix(0.05,0,0,0.05,0,0)" xlink:href="#av"/><use transform="matrix(0.05,0,0,0.05,12,0)" xlink:href="#af"/><use transform="matrix(0.05,0,0,0.05,17,0)" xlink:href="#ag"/><use transform="matrix(0.05,0,0,0.05,27,0)" xlink:href="#af"/><use transform="matrix(0.05,0,0,0.05,32,0)" xlink:href="#ai"/></g><g id="l"><use transform="matrix(0.05,0,0,0.05,0,0)" xlink:href="#am"/><use transform="matrix(0.05,0,0,0.05,3.95,0)" xlink:href="#an"/><use transform="matrix(0.05,0,0,0.05,13.949999999999998,0)" xlink:href="#ab"/><use transform="matrix(0.05,0,0,0.05,22.95,0)" xlink:href="#aa"/></g><g id="m"><use transform="matrix(0.05,0,0,0.05,0,0)" xlink:href="#aq"/><use transform="matrix(0.05,0,0,0.05,10,0)" xlink:href="#ad"/><use transform="matrix(0.05,0,0,0.05,20,0)" xlink:href="#am"/><use transform="matrix(0.05,0,0,0.05,23.95,0)" xlink:href="#am"/><use transform="matrix(0.05,0,0,0.05,27.899999999999995,0)" xlink:href="#ag"/></g><g id="n"><use transform="matrix(0.05,0,0,0.05,0,0)" xlink:href="#ab"/><use transform="matrix(0.05,0,0,0.05,9,0)" xlink:href="#ag"/><use transform="matrix(0.05,0,0,0.05,19,0)" xlink:href="#ae"/><use transform="matrix(0.05,0,0,0.05,28,0)" xlink:href="#ag"/></g><g id="o"><use transform="matrix(0.05,0,0,0.05,0,0)" xlink:href="#ag"/><use transform="matrix(0.05,0,0,0.05,10,0)" xlink:href="#ar"/><use transform="matrix(0.05,0,0,0.05,20,0)" xlink:href="#ad"/><use transform="matrix(0.05,0,0,0.05,30,0)" xlink:href="#aj"/><use transform="matrix(0.05,0,0,0.05,35.95,0)" xlink:href="#af"/><use transform="matrix(0.05,0,0,0.05,40.95,0)" xlink:href="#an"/><use transform="matrix(0.05,0,0,0.05,50.95,0)" xlink:href="#aj"/><use transform="matrix(0.05,0,0,0.05,56.900000000000006,0)" xlink:href="#ag"/></g><path d="M33 0v-248h34V0H33" id="aw"/><g id="p"><use transform="matrix(0.05,0,0,0.05,0,0)" xlink:href="#aw"/><use transform="matrix(0.05,0,0,0.05,5,0)" xlink:href="#ak"/><use transform="matrix(0.05,0,0,0.05,15,0)" xlink:href="#ar"/><use transform="matrix(0.05,0,0,0.05,25,0)" xlink:href="#an"/><use transform="matrix(0.05,0,0,0.05,35,0)" xlink:href="#af"/></g><g id="q"><use transform="matrix(0.05,0,0,0.05,0,0)" xlink:href="#ap"/><use transform="matrix(0.05,0,0,0.05,9,0)" xlink:href="#ai"/><use transform="matrix(0.05,0,0,0.05,19,0)" xlink:href="#ab"/><use transform="matrix(0.05,0,0,0.05,28,0)" xlink:href="#ag"/><use transform="matrix(0.05,0,0,0.05,38,0)" xlink:href="#am"/><use transform="matrix(0.05,0,0,0.05,41.95,0)" xlink:href="#ad"/></g><path d="M9 0v-24l116-142H16v-24h144v24L44-24h123V0H9" id="ax"/><g id="r"><use transform="matrix(0.05,0,0,0.05,0,0)" xlink:href="#aj"/><use transform="matrix(0.05,0,0,0.05,5.95,0)" xlink:href="#ad"/><use transform="matrix(0.05,0,0,0.05,15.949999999999998,0)" xlink:href="#ah"/><use transform="matrix(0.05,0,0,0.05,25.950000000000003,0)" xlink:href="#ai"/><use transform="matrix(0.05,0,0,0.05,35.95,0)" xlink:href="#am"/><use transform="matrix(0.05,0,0,0.05,39.900000000000006,0)" xlink:href="#ag"/><use transform="matrix(0.05,0,0,0.05,49.900000000000006,0)" xlink:href="#ax"/><use transform="matrix(0.05,0,0,0.05,58.900000000000006,0)" xlink:href="#aa"/><use transform="matrix(0.05,0,0,0.05,62.85,0)" xlink:href="#ai"/><use transform="matrix(0.05,0,0,0.05,72.85000000000001,0)" xlink:href="#ak"/><use transform="matrix(0.05,0,0,0.05,82.85000000000001,0)" xlink:href="#ad"/></g><path d="M205 0l-28-72H64L36 0H1l101-248h38L239 0h-34zm-38-99l-47-123c-12 45-31 82-46 123h93" id="ay"/><g id="s"><use transform="matrix(0.05,0,0,0.05,0,0)" xlink:href="#ay"/><use transform="matrix(0.05,0,0,0.05,12,0)" xlink:href="#an"/><use transform="matrix(0.05,0,0,0.05,22,0)" xlink:href="#af"/><use transform="matrix(0.05,0,0,0.05,27,0)" xlink:href="#ad"/><use transform="matrix(0.05,0,0,0.05,37,0)" xlink:href="#ak"/><use transform="matrix(0.05,0,0,0.05,47,0)" xlink:href="#af"/><use transform="matrix(0.05,0,0,0.05,52,0)" xlink:href="#aa"/><use transform="matrix(0.05,0,0,0.05,55.95,0)" xlink:href="#ab"/><use transform="matrix(0.05,0,0,0.05,64.95,0)" xlink:href="#ag"/><use transform="matrix(0.05,0,0,0.05,74.95,0)" xlink:href="#ax"/><use transform="matrix(0.05,0,0,0.05,83.95,0)" xlink:href="#aa"/><use transform="matrix(0.05,0,0,0.05,87.9,0)" xlink:href="#ai"/><use transform="matrix(0.05,0,0,0.05,97.9,0)" xlink:href="#ak"/><use transform="matrix(0.05,0,0,0.05,107.9,0)" xlink:href="#ad"/></g><g id="t"><use transform="matrix(0.05,0,0,0.05,0,0)" xlink:href="#ay"/><use transform="matrix(0.05,0,0,0.05,12,0)" xlink:href="#ae"/><use transform="matrix(0.05,0,0,0.05,21,0)" xlink:href="#ae"/><use transform="matrix(0.05,0,0,0.05,30,0)" xlink:href="#aa"/><use transform="matrix(0.05,0,0,0.05,33.95,0)" xlink:href="#af"/><use transform="matrix(0.05,0,0,0.05,38.95,0)" xlink:href="#ad"/><use transform="matrix(0.05,0,0,0.05,48.95,0)" xlink:href="#ak"/><use transform="matrix(0.05,0,0,0.05,58.95,0)" xlink:href="#af"/><use transform="matrix(0.05,0,0,0.05,63.95,0)" xlink:href="#ad"/></g><g id="u"><use transform="matrix(0.05,0,0,0.05,0,0)" xlink:href="#aw"/><use transform="matrix(0.05,0,0,0.05,5,0)" xlink:href="#al"/><use transform="matrix(0.05,0,0,0.05,19.950000000000003,0)" xlink:href="#ar"/><use transform="matrix(0.05,0,0,0.05,29.950000000000003,0)" xlink:href="#aa"/><use transform="matrix(0.05,0,0,0.05,33.900000000000006,0)" xlink:href="#ag"/><use transform="matrix(0.05,0,0,0.05,43.900000000000006,0)" xlink:href="#ak"/><use transform="matrix(0.05,0,0,0.05,53.900000000000006,0)" xlink:href="#af"/><use transform="matrix(0.05,0,0,0.05,58.900000000000006,0)" xlink:href="#ai"/></g><g id="v"><use transform="matrix(0.05,0,0,0.05,0,0)" xlink:href="#aa"/><use transform="matrix(0.05,0,0,0.05,3.95,0)" xlink:href="#am"/><use transform="matrix(0.05,0,0,0.05,7.9,0)" xlink:href="#am"/><use transform="matrix(0.05,0,0,0.05,11.850000000000001,0)" xlink:href="#an"/><use transform="matrix(0.05,0,0,0.05,21.85,0)" xlink:href="#al"/><use transform="matrix(0.05,0,0,0.05,36.800000000000004,0)" xlink:href="#aa"/><use transform="matrix(0.05,0,0,0.05,40.75000000000001,0)" xlink:href="#ak"/><use transform="matrix(0.05,0,0,0.05,50.75000000000001,0)" xlink:href="#ag"/><use transform="matrix(0.05,0,0,0.05,60.75,0)" xlink:href="#ax"/><use transform="matrix(0.05,0,0,0.05,69.75,0)" xlink:href="#aa"/><use transform="matrix(0.05,0,0,0.05,73.7,0)" xlink:href="#ai"/><use transform="matrix(0.05,0,0,0.05,83.7,0)" xlink:href="#ak"/><use transform="matrix(0.05,0,0,0.05,93.7,0)" xlink:href="#ad"/></g><path d="M232-93c-1 65-40 97-104 97C67 4 28-28 28-90v-158h33c8 89-33 224 67 224 102 0 64-133 71-224h33v155" id="az"/><g id="w"><use transform="matrix(0.05,0,0,0.05,0,0)" xlink:href="#az"/><use transform="matrix(0.05,0,0,0.05,12.950000000000001,0)" xlink:href="#af"/><use transform="matrix(0.05,0,0,0.05,17.950000000000003,0)" xlink:href="#ad"/><use transform="matrix(0.05,0,0,0.05,27.950000000000003,0)" xlink:href="#ak"/><use transform="matrix(0.05,0,0,0.05,37.95,0)" xlink:href="#af"/><use transform="matrix(0.05,0,0,0.05,42.95,0)" xlink:href="#ad"/></g><g id="x"><use transform="matrix(0.05,0,0,0.05,0,0)" xlink:href="#aw"/><use transform="matrix(0.05,0,0,0.05,5,0)" xlink:href="#al"/><use transform="matrix(0.05,0,0,0.05,19.950000000000003,0)" xlink:href="#ar"/><use transform="matrix(0.05,0,0,0.05,29.950000000000003,0)" xlink:href="#aa"/><use transform="matrix(0.05,0,0,0.05,33.900000000000006,0)" xlink:href="#ag"/><use transform="matrix(0.05,0,0,0.05,43.900000000000006,0)" xlink:href="#ak"/><use transform="matrix(0.05,0,0,0.05,53.900000000000006,0)" xlink:href="#af"/><use transform="matrix(0.05,0,0,0.05,58.900000000000006,0)" xlink:href="#ai"/></g><g id="y"><use transform="matrix(0.05,0,0,0.05,0,0)" xlink:href="#aq"/><use transform="matrix(0.05,0,0,0.05,10,0)" xlink:href="#aa"/></g><g id="z"><use transform="matrix(0.05,0,0,0.05,0,0)" xlink:href="#aj"/><use transform="matrix(0.05,0,0,0.05,5.95,0)" xlink:href="#aa"/><use transform="matrix(0.05,0,0,0.05,9.9,0)" xlink:href="#ae"/><use transform="matrix(0.05,0,0,0.05,18.9,0)" xlink:href="#ab"/><use transform="matrix(0.05,0,0,0.05,27.899999999999995,0)" xlink:href="#ag"/><use transform="matrix(0.05,0,0,0.05,37.9,0)" xlink:href="#am"/><use transform="matrix(0.05,0,0,0.05,41.85,0)" xlink:href="#aq"/><use transform="matrix(0.05,0,0,0.05,51.85,0)" xlink:href="#ag"/><use transform="matrix(0.05,0,0,0.05,61.85,0)" xlink:href="#al"/><use transform="matrix(0.05,0,0,0.05,76.8,0)" xlink:href="#ad"/><use transform="matrix(0.05,0,0,0.05,86.8,0)" xlink:href="#ak"/><use transform="matrix(0.05,0,0,0.05,96.8,0)" xlink:href="#af"/><use transform="matrix(0.05,0,0,0.05,101.8,0)" xlink:href="#ai"/></g><path d="M127-220V0H93v-220H8v-28h204v28h-85" id="aA"/><g id="A"><use transform="matrix(0.05,0,0,0.05,0,0)" xlink:href="#aA"/><use transform="matrix(0.05,0,0,0.05,8.950000000000001,0)" xlink:href="#ad"/><use transform="matrix(0.05,0,0,0.05,18.950000000000003,0)" xlink:href="#am"/><use transform="matrix(0.05,0,0,0.05,22.900000000000002,0)" xlink:href="#ad"/><use transform="matrix(0.05,0,0,0.05,32.900000000000006,0)" xlink:href="#ab"/><use transform="matrix(0.05,0,0,0.05,41.900000000000006,0)" xlink:href="#ag"/><use transform="matrix(0.05,0,0,0.05,51.900000000000006,0)" xlink:href="#al"/><use transform="matrix(0.05,0,0,0.05,66.85000000000001,0)" xlink:href="#ad"/><use transform="matrix(0.05,0,0,0.05,76.85000000000001,0)" xlink:href="#aj"/><use transform="matrix(0.05,0,0,0.05,82.80000000000001,0)" xlink:href="#ad"/></g><use transform="matrix(0.05,0,0,0.05,0,0)" xlink:href="#ag" id="B"/><g id="C"><use transform="matrix(0.05,0,0,0.05,0,0)" xlink:href="#ab"/><use transform="matrix(0.05,0,0,0.05,9,0)" xlink:href="#aa"/><use transform="matrix(0.05,0,0,0.05,12.949999999999998,0)" xlink:href="#aj"/><use transform="matrix(0.05,0,0,0.05,18.9,0)" xlink:href="#ab"/><use transform="matrix(0.05,0,0,0.05,27.899999999999995,0)" xlink:href="#an"/><use transform="matrix(0.05,0,0,0.05,37.9,0)" xlink:href="#aa"/><use transform="matrix(0.05,0,0,0.05,41.85,0)" xlink:href="#af"/><use transform="matrix(0.05,0,0,0.05,46.85,0)" xlink:href="#ai"/></g><g id="D"><use transform="matrix(0.05,0,0,0.05,0,0)" xlink:href="#ab"/><use transform="matrix(0.05,0,0,0.05,9,0)" xlink:href="#ac"/><use transform="matrix(0.05,0,0,0.05,19,0)" xlink:href="#aa"/><use transform="matrix(0.05,0,0,0.05,22.95,0)" xlink:href="#an"/><use transform="matrix(0.05,0,0,0.05,32.95,0)" xlink:href="#ae"/><use transform="matrix(0.05,0,0,0.05,41.95,0)" xlink:href="#ai"/></g><g id="E"><use transform="matrix(0.05,0,0,0.05,0,0)" xlink:href="#av"/><use transform="matrix(0.05,0,0,0.05,12,0)" xlink:href="#aa"/><use transform="matrix(0.05,0,0,0.05,15.949999999999998,0)" xlink:href="#ae"/><use transform="matrix(0.05,0,0,0.05,24.95,0)" xlink:href="#af"/><use transform="matrix(0.05,0,0,0.05,29.950000000000003,0)" xlink:href="#ad"/><use transform="matrix(0.05,0,0,0.05,39.95,0)" xlink:href="#al"/><use transform="matrix(0.05,0,0,0.05,54.900000000000006,0)" xlink:href="#ag"/></g><g id="F"><use transform="matrix(0.05,0,0,0.05,0,0)" xlink:href="#ag"/><use transform="matrix(0.05,0,0,0.05,10,0)" xlink:href="#ar"/><use transform="matrix(0.05,0,0,0.05,20,0)" xlink:href="#ad"/><use transform="matrix(0.05,0,0,0.05,30,0)" xlink:href="#aj"/><use transform="matrix(0.05,0,0,0.05,35.95,0)" xlink:href="#af"/><use transform="matrix(0.05,0,0,0.05,40.95,0)" xlink:href="#an"/><use transform="matrix(0.05,0,0,0.05,50.95,0)" xlink:href="#aj"/><use transform="matrix(0.05,0,0,0.05,56.900000000000006,0)" xlink:href="#ag"/></g><g id="G"><use transform="matrix(0.05,0,0,0.05,0,0)" xlink:href="#ar"/><use transform="matrix(0.05,0,0,0.05,10,0)" xlink:href="#ai"/><use transform="matrix(0.05,0,0,0.05,20,0)" xlink:href="#aj"/><use transform="matrix(0.05,0,0,0.05,25.950000000000003,0)" xlink:href="#af"/><use transform="matrix(0.05,0,0,0.05,30.950000000000003,0)" xlink:href="#ag"/></g><g id="H"><use transform="matrix(0.05,0,0,0.05,0,0)" xlink:href="#ay"/><use transform="matrix(0.05,0,0,0.05,12,0)" xlink:href="#ah"/><use transform="matrix(0.05,0,0,0.05,22,0)" xlink:href="#ah"/><use transform="matrix(0.05,0,0,0.05,32,0)" xlink:href="#aa"/><use transform="matrix(0.05,0,0,0.05,35.95,0)" xlink:href="#ai"/><use transform="matrix(0.05,0,0,0.05,45.95,0)" xlink:href="#aj"/><use transform="matrix(0.05,0,0,0.05,51.900000000000006,0)" xlink:href="#ak"/><use transform="matrix(0.05,0,0,0.05,61.900000000000006,0)" xlink:href="#ag"/><use transform="matrix(0.05,0,0,0.05,71.9,0)" xlink:href="#al"/><use transform="matrix(0.05,0,0,0.05,86.85000000000001,0)" xlink:href="#ad"/><use transform="matrix(0.05,0,0,0.05,96.85000000000001,0)" xlink:href="#ak"/><use transform="matrix(0.05,0,0,0.05,106.85000000000001,0)" xlink:href="#af"/><use transform="matrix(0.05,0,0,0.05,111.85000000000001,0)" xlink:href="#ai"/></g><g id="I"><use transform="matrix(0.05,0,0,0.05,0,0)" xlink:href="#af"/><use transform="matrix(0.05,0,0,0.05,5,0)" xlink:href="#ad"/><use transform="matrix(0.05,0,0,0.05,15,0)" xlink:href="#al"/><use transform="matrix(0.05,0,0,0.05,29.950000000000003,0)" xlink:href="#ar"/><use transform="matrix(0.05,0,0,0.05,39.95,0)" xlink:href="#ad"/><use transform="matrix(0.05,0,0,0.05,49.95,0)" xlink:href="#aj"/><use transform="matrix(0.05,0,0,0.05,55.900000000000006,0)" xlink:href="#ag"/><use transform="matrix(0.05,0,0,0.05,65.9,0)" xlink:href="#af"/><use transform="matrix(0.05,0,0,0.05,70.9,0)" xlink:href="#an"/><use transform="matrix(0.05,0,0,0.05,80.9,0)" xlink:href="#aj"/><use transform="matrix(0.05,0,0,0.05,86.85000000000001,0)" xlink:href="#ag"/></g><g id="J"><use transform="matrix(0.05,0,0,0.05,0,0)" xlink:href="#av"/><use transform="matrix(0.05,0,0,0.05,12,0)" xlink:href="#ad"/><use transform="matrix(0.05,0,0,0.05,22,0)" xlink:href="#ah"/><use transform="matrix(0.05,0,0,0.05,32,0)" xlink:href="#ak"/><use transform="matrix(0.05,0,0,0.05,42,0)" xlink:href="#ag"/><use transform="matrix(0.05,0,0,0.05,52,0)" xlink:href="#am"/><use transform="matrix(0.05,0,0,0.05,55.95,0)" xlink:href="#ad"/></g><g id="K"><use transform="matrix(0.05,0,0,0.05,0,0)" xlink:href="#aq"/><use transform="matrix(0.05,0,0,0.05,10,0)" xlink:href="#aa"/></g><g id="L"><use transform="matrix(0.05,0,0,0.05,0,0)" xlink:href="#aw"/><use transform="matrix(0.05,0,0,0.05,5,0)" xlink:href="#ak"/><use transform="matrix(0.05,0,0,0.05,15,0)" xlink:href="#ap"/><use transform="matrix(0.05,0,0,0.05,24,0)" xlink:href="#aa"/><use transform="matrix(0.05,0,0,0.05,27.950000000000003,0)" xlink:href="#ai"/></g><g id="M"><use transform="matrix(0.05,0,0,0.05,0,0)" xlink:href="#au"/><use transform="matrix(0.05,0,0,0.05,5,0)" xlink:href="#aj"/><use transform="matrix(0.05,0,0,0.05,10.95,0)" xlink:href="#ag"/><use transform="matrix(0.05,0,0,0.05,20.95,0)" xlink:href="#al"/><use transform="matrix(0.05,0,0,0.05,35.9,0)" xlink:href="#ad"/></g><g id="N"><use transform="matrix(0.05,0,0,0.05,0,0)" xlink:href="#Z"/><use transform="matrix(0.05,0,0,0.05,12.950000000000001,0)" xlink:href="#aa"/><use transform="matrix(0.05,0,0,0.05,16.900000000000002,0)" xlink:href="#ae"/><use transform="matrix(0.05,0,0,0.05,25.900000000000002,0)" xlink:href="#ar"/><use transform="matrix(0.05,0,0,0.05,35.900000000000006,0)" xlink:href="#ai"/><use transform="matrix(0.05,0,0,0.05,45.900000000000006,0)" xlink:href="#ae"/><use transform="matrix(0.05,0,0,0.05,54.900000000000006,0)" xlink:href="#af"/><use transform="matrix(0.05,0,0,0.05,59.900000000000006,0)" xlink:href="#ag"/></g><g id="O"><use transform="matrix(0.05,0,0,0.05,0,0)" xlink:href="#aa"/><use transform="matrix(0.05,0,0,0.05,3.95,0)" xlink:href="#ak"/><use transform="matrix(0.05,0,0,0.05,13.949999999999998,0)" xlink:href="#au"/><use transform="matrix(0.05,0,0,0.05,18.95,0)" xlink:href="#ai"/><use transform="matrix(0.05,0,0,0.05,28.950000000000003,0)" xlink:href="#aj"/><use transform="matrix(0.05,0,0,0.05,34.9,0)" xlink:href="#al"/><use transform="matrix(0.05,0,0,0.05,49.85,0)" xlink:href="#ag"/><use transform="matrix(0.05,0,0,0.05,59.85,0)" xlink:href="#ax"/><use transform="matrix(0.05,0,0,0.05,68.85,0)" xlink:href="#aa"/><use transform="matrix(0.05,0,0,0.05,72.8,0)" xlink:href="#ai"/><use transform="matrix(0.05,0,0,0.05,82.8,0)" xlink:href="#ak"/><use transform="matrix(0.05,0,0,0.05,92.8,0)" xlink:href="#aa"/></g><g id="P"><use transform="matrix(0.05,0,0,0.05,0,0)" xlink:href="#ap"/><use transform="matrix(0.05,0,0,0.05,9,0)" xlink:href="#ai"/><use transform="matrix(0.05,0,0,0.05,19,0)" xlink:href="#ab"/><use transform="matrix(0.05,0,0,0.05,28,0)" xlink:href="#ag"/><use transform="matrix(0.05,0,0,0.05,38,0)" xlink:href="#am"/><use transform="matrix(0.05,0,0,0.05,41.95,0)" xlink:href="#al"/><use transform="matrix(0.05,0,0,0.05,56.900000000000006,0)" xlink:href="#ad"/><use transform="matrix(0.05,0,0,0.05,66.9,0)" xlink:href="#ak"/><use transform="matrix(0.05,0,0,0.05,76.9,0)" xlink:href="#af"/><use transform="matrix(0.05,0,0,0.05,81.9,0)" xlink:href="#ad"/></g><g id="Q"><use transform="matrix(0.05,0,0,0.05,0,0)" xlink:href="#ag"/><use transform="matrix(0.05,0,0,0.05,10,0)" xlink:href="#ah"/><use transform="matrix(0.05,0,0,0.05,20,0)" xlink:href="#ah"/><use transform="matrix(0.05,0,0,0.05,30,0)" xlink:href="#aa"/><use transform="matrix(0.05,0,0,0.05,33.95,0)" xlink:href="#ai"/><use transform="matrix(0.05,0,0,0.05,43.95,0)" xlink:href="#aj"/><use transform="matrix(0.05,0,0,0.05,49.900000000000006,0)" xlink:href="#ak"/><use transform="matrix(0.05,0,0,0.05,59.900000000000006,0)" xlink:href="#ag"/><use transform="matrix(0.05,0,0,0.05,69.9,0)" xlink:href="#al"/><use transform="matrix(0.05,0,0,0.05,84.85000000000001,0)" xlink:href="#ad"/><use transform="matrix(0.05,0,0,0.05,94.85000000000001,0)" xlink:href="#ak"/><use transform="matrix(0.05,0,0,0.05,104.85000000000001,0)" xlink:href="#af"/><use transform="matrix(0.05,0,0,0.05,109.85000000000001,0)" xlink:href="#ai"/></g><g id="R"><use transform="matrix(0.05,0,0,0.05,0,0)" xlink:href="#av"/><use transform="matrix(0.05,0,0,0.05,12,0)" xlink:href="#aa"/><use transform="matrix(0.05,0,0,0.05,15.949999999999998,0)" xlink:href="#ae"/><use transform="matrix(0.05,0,0,0.05,24.95,0)" xlink:href="#af"/><use transform="matrix(0.05,0,0,0.05,29.950000000000003,0)" xlink:href="#ad"/><use transform="matrix(0.05,0,0,0.05,39.95,0)" xlink:href="#al"/><use transform="matrix(0.05,0,0,0.05,54.900000000000006,0)" xlink:href="#ag"/></g><g id="S"><use transform="matrix(0.05,0,0,0.05,0,0)" xlink:href="#aj"/><use transform="matrix(0.05,0,0,0.05,5.95,0)" xlink:href="#aa"/><use transform="matrix(0.05,0,0,0.05,9.9,0)" xlink:href="#ab"/><use transform="matrix(0.05,0,0,0.05,18.9,0)" xlink:href="#ai"/><use transform="matrix(0.05,0,0,0.05,28.899999999999995,0)" xlink:href="#ak"/><use transform="matrix(0.05,0,0,0.05,38.9,0)" xlink:href="#ai"/><use transform="matrix(0.05,0,0,0.05,48.9,0)" xlink:href="#ae"/><use transform="matrix(0.05,0,0,0.05,57.900000000000006,0)" xlink:href="#ab"/><use transform="matrix(0.05,0,0,0.05,66.9,0)" xlink:href="#aa"/><use transform="matrix(0.05,0,0,0.05,70.85000000000001,0)" xlink:href="#al"/><use transform="matrix(0.05,0,0,0.05,85.80000000000001,0)" xlink:href="#ad"/><use transform="matrix(0.05,0,0,0.05,95.80000000000001,0)" xlink:href="#ak"/><use transform="matrix(0.05,0,0,0.05,105.80000000000001,0)" xlink:href="#af"/><use transform="matrix(0.05,0,0,0.05,110.80000000000001,0)" xlink:href="#ai"/></g><g id="T"><use transform="matrix(0.05,0,0,0.05,0,0)" xlink:href="#au"/><use transform="matrix(0.05,0,0,0.05,5,0)" xlink:href="#ag"/><use transform="matrix(0.05,0,0,0.05,15,0)" xlink:href="#ab"/><use transform="matrix(0.05,0,0,0.05,24,0)" xlink:href="#ab"/><use transform="matrix(0.05,0,0,0.05,33,0)" xlink:href="#aa"/><use transform="matrix(0.05,0,0,0.05,36.95,0)" xlink:href="#ag"/><use transform="matrix(0.05,0,0,0.05,46.95,0)" xlink:href="#am"/><use transform="matrix(0.05,0,0,0.05,50.900000000000006,0)" xlink:href="#ad"/></g><path d="M143 4C61 4 22-44 18-125c-5-107 100-154 193-111 17 8 29 25 37 43l-32 9c-13-25-37-40-76-40-61 0-88 39-88 99 0 61 29 100 91 101 35 0 62-11 79-27v-45h-74v-28h105v86C228-13 192 4 143 4" id="aB"/><g id="U"><use transform="matrix(0.05,0,0,0.05,0,0)" xlink:href="#aB"/><use transform="matrix(0.05,0,0,0.05,14,0)" xlink:href="#ad"/><use transform="matrix(0.05,0,0,0.05,24,0)" xlink:href="#ae"/><use transform="matrix(0.05,0,0,0.05,33,0)" xlink:href="#af"/><use transform="matrix(0.05,0,0,0.05,38,0)" xlink:href="#aa"/><use transform="matrix(0.05,0,0,0.05,41.95,0)" xlink:href="#ai"/><use transform="matrix(0.05,0,0,0.05,51.95,0)" xlink:href="#ak"/><use transform="matrix(0.05,0,0,0.05,61.95,0)" xlink:href="#ad"/></g><g id="V"><use transform="matrix(0.05,0,0,0.05,0,0)" xlink:href="#ar"/><use transform="matrix(0.05,0,0,0.05,10,0)" xlink:href="#ai"/><use transform="matrix(0.05,0,0,0.05,20,0)" xlink:href="#aj"/><use transform="matrix(0.05,0,0,0.05,25.950000000000003,0)" xlink:href="#af"/><use transform="matrix(0.05,0,0,0.05,30.950000000000003,0)" xlink:href="#ag"/></g><path d="M47-170H22l-4-78h33" id="aC"/><g id="W"><use transform="matrix(0.05,0,0,0.05,0,0)" xlink:href="#aq"/><use transform="matrix(0.05,0,0,0.05,10,0)" xlink:href="#aC"/><use transform="matrix(0.05,0,0,0.05,13.4,0)" xlink:href="#aa"/><use transform="matrix(0.05,0,0,0.05,17.35,0)" xlink:href="#ak"/><use transform="matrix(0.05,0,0,0.05,27.35,0)" xlink:href="#ah"/><use transform="matrix(0.05,0,0,0.05,37.35,0)" xlink:href="#aj"/><use transform="matrix(0.05,0,0,0.05,43.300000000000004,0)" xlink:href="#ad"/><use transform="matrix(0.05,0,0,0.05,53.300000000000004,0)" xlink:href="#ae"/><use transform="matrix(0.05,0,0,0.05,62.300000000000004,0)" xlink:href="#ae"/><use transform="matrix(0.05,0,0,0.05,71.30000000000001,0)" xlink:href="#ai"/></g><g id="X"><use transform="matrix(0.05,0,0,0.05,0,0)" xlink:href="#aj"/><use transform="matrix(0.05,0,0,0.05,5.95,0)" xlink:href="#aa"/><use transform="matrix(0.05,0,0,0.05,9.9,0)" xlink:href="#ar"/><use transform="matrix(0.05,0,0,0.05,19.9,0)" xlink:href="#aj"/><use transform="matrix(0.05,0,0,0.05,25.849999999999994,0)" xlink:href="#ai"/><use transform="matrix(0.05,0,0,0.05,35.849999999999994,0)" xlink:href="#aq"/><use transform="matrix(0.05,0,0,0.05,45.849999999999994,0)" xlink:href="#an"/><use transform="matrix(0.05,0,0,0.05,55.849999999999994,0)" xlink:href="#ax"/><use transform="matrix(0.05,0,0,0.05,64.85,0)" xlink:href="#aa"/><use transform="matrix(0.05,0,0,0.05,68.8,0)" xlink:href="#ai"/><use transform="matrix(0.05,0,0,0.05,78.8,0)" xlink:href="#ak"/><use transform="matrix(0.05,0,0,0.05,88.8,0)" xlink:href="#ad"/></g><g id="Y"><use transform="matrix(0.05,0,0,0.05,0,0)" xlink:href="#aB"/><use transform="matrix(0.05,0,0,0.05,14,0)" xlink:href="#ad"/><use transform="matrix(0.05,0,0,0.05,24,0)" xlink:href="#ae"/><use transform="matrix(0.05,0,0,0.05,33,0)" xlink:href="#aa"/><use transform="matrix(0.05,0,0,0.05,36.95,0)" xlink:href="#ai"/><use transform="matrix(0.05,0,0,0.05,46.95,0)" xlink:href="#ak"/><use transform="matrix(0.05,0,0,0.05,56.95,0)" xlink:href="#ad"/></g></defs></g></svg>