<svg xmlns="http://www.w3.org/2000/svg" xmlns:xlink="http://www.w3.org/1999/xlink" xmlns:lucid="lucid" width="1874.14" height="1528"><g transform="translate(-2.842170943040401e-14 -300)" lucid:page-tab-id="0_0"><path d="M726.85 1676.42h134.2v60h-134.2z" fill="none"/><use xlink:href="#a" transform="matrix(1,0,0,1,726.8527168692467,1676.4200071215516) translate(19.549999999999997 22.799999999999997)"/><use xlink:href="#b" transform="matrix(1,0,0,1,726.8527168692467,1676.4200071215516) translate(77.5 22.799999999999997)"/><use xlink:href="#c" transform="matrix(1,0,0,1,726.8527168692467,1676.4200071215516) translate(92.5 22.799999999999997)"/><use xlink:href="#d" transform="matrix(1,0,0,1,726.8527168692467,1676.4200071215516) translate(20.125 44.4)"/><use xlink:href="#e" transform="matrix(1,0,0,1,726.8527168692467,1676.4200071215516) translate(77.975 44.4)"/><path d="M1681.54 1115.38h172.6v60h-172.6z" fill="none"/><use xlink:href="#f" transform="matrix(1,0,0,1,1681.5415376032847,1115.3781162369135) translate(0 33.6)"/><use xlink:href="#g" transform="matrix(1,0,0,1,1681.5415376032847,1115.3781162369135) translate(68.85000000000001 33.6)"/><use xlink:href="#h" transform="matrix(1,0,0,1,1681.5415376032847,1115.3781162369135) translate(87.80000000000001 33.6)"/><path d="M33.54 1145.34h240v60h-240z" fill="none"/><use xlink:href="#i" transform="matrix(1,0,0,1,33.54153760328475,1145.3447730823211) translate(179.1 33.6)"/><path d="M871.85 888h95.4v100h-95.4z" fill="none"/><use xlink:href="#j" transform="matrix(1,0,0,1,871.8527168692467,888) translate(16.074999999999996 21.19999999999999)"/><use xlink:href="#k" transform="matrix(1,0,0,1,871.8527168692467,888) translate(26 42.79999999999999)"/><use xlink:href="#l" transform="matrix(1,0,0,1,871.8527168692467,888) translate(15.049999999999997 64.39999999999999)"/><use xlink:href="#m" transform="matrix(1,0,0,1,871.8527168692467,888) translate(12.049999999999997 86)"/><path d="M1025.1 1366.42h240v60h-240z" fill="none"/><use xlink:href="#n" transform="matrix(1,0,0,1,1025.1009756727522,1366.4200071215341) translate(0 33.6)"/><use xlink:href="#o" transform="matrix(1,0,0,1,1025.1009756727522,1366.4200071215341) translate(115.10000000000001 33.6)"/><path d="M1025.1 1748h80.62v60h-80.62z" fill="none"/><use xlink:href="#p" transform="matrix(1,0,0,1,1025.1009756727522,1748) translate(0 22.799999999999997)"/><use xlink:href="#o" transform="matrix(1,0,0,1,1025.1009756727522,1748) translate(0 44.4)"/><path d="M20 1218h253.54v60H20z" fill="none"/><use xlink:href="#q" transform="matrix(1,0,0,1,20.00000000000003,1218) translate(4.174999999999997 33.6)"/><use xlink:href="#r" transform="matrix(1,0,0,1,20.00000000000003,1218) translate(83.025 33.6)"/><use xlink:href="#s" transform="matrix(1,0,0,1,20.00000000000003,1218) translate(177.97500000000002 33.6)"/><path d="M1701.54 1059.56H1840v60h-138.46z" fill="none"/><use xlink:href="#t" transform="matrix(1,0,0,1,1701.5415376032847,1059.5562324738735) translate(0 33.6)"/><use xlink:href="#h" transform="matrix(1,0,0,1,1701.5415376032847,1059.5562324738735) translate(69.80000000000001 33.6)"/><path d="M42.02 1079.52h240v60h-240z" fill="none"/><use xlink:href="#f" transform="matrix(1,0,0,1,42.01887237422471,1079.5228893192811) translate(99.30000000000001 33.6)"/><use xlink:href="#s" transform="matrix(1,0,0,1,42.01887237422471,1079.5228893192811) translate(168.15000000000003 33.6)"/><path d="M634.4 1106.18h240v60h-240z" fill="none"/><use xlink:href="#u" transform="matrix(1,0,0,1,634.4029700753706,1106.1827762347643) translate(60.575 33.6)"/><use xlink:href="#s" transform="matrix(1,0,0,1,634.4029700753706,1106.1827762347643) translate(107.575 33.6)"/><path d="M1112.6 1112.43h240v60h-240z" fill="none"/><use xlink:href="#t" transform="matrix(1,0,0,1,1112.6086749772041,1112.4338312008013) translate(53.125 33.6)"/><use xlink:href="#h" transform="matrix(1,0,0,1,1112.6086749772041,1112.4338312008013) translate(122.92500000000001 33.6)"/><path d="M1085.98 750c0 49.7-40.3 90-90 90s-90-40.3-90-90 40.3-90 90-90 90 40.3 90 90z" stroke="#000" stroke-width="2" fill="#fff"/><use xlink:href="#v" transform="matrix(1,0,0,1,910.9768462709862,665) translate(69 88.775)"/><path d="M915.98 320h160v120h-160z" stroke="#000" stroke-width="2" fill="#fff"/><use xlink:href="#w" transform="matrix(1,0,0,1,920.9768462709862,325) translate(29.074999999999996 48.775)"/><use xlink:href="#x" transform="matrix(1,0,0,1,920.9768462709862,325) translate(36.55 70.375)"/><path d="M405.98 690h160v120h-160z" stroke="#000" stroke-width="2" fill="#fff"/><use xlink:href="#y" transform="matrix(1,0,0,1,410.9768462709862,695) translate(56.05 59.0875)"/><path d="M1425.98 690h160v120h-160z" stroke="#000" stroke-width="2" fill="#fff"/><use xlink:href="#z" transform="matrix(1,0,0,1,1430.9768462709862,695) translate(49.5 59.0875)"/><path d="M619.9 726.05H568v-2h51.93zm270.04 0H855.5v-2h34.44zM568 726.05h-1.02v-2H568zM905.2 725.05l-14.26 4.64v-9.28z"/><path d="M908.44 725.05l-18.5 6.02v-12.03zm-16.5 3.26l10.03-3.25-10.03-3.25z"/><use xlink:href="#A" transform="matrix(1,0,0,1,619.9084632326537,714.2542801778071) translate(0 14.4)"/><use xlink:href="#r" transform="matrix(1,0,0,1,619.9084632326537,714.2542801778071) translate(68.80000000000001 14.4)"/><use xlink:href="#s" transform="matrix(1,0,0,1,619.9084632326537,714.2542801778071) translate(163.75 14.4)"/><path d="M631.73 751h-63.75v-2h63.75zm254.74 0h-46.24v-2h46.24z"/><path d="M568 751h-1.02v-2H568zM901.74 750l-14.27 4.64v-9.28z"/><path d="M904.98 750l-18.5 6v-12zm-16.5 3.26L898.5 750l-10.03-3.26z"/><use xlink:href="#A" transform="matrix(1,0,0,1,631.7268317996479,739.2) translate(0 14.4)"/><use xlink:href="#B" transform="matrix(1,0,0,1,631.7268317996479,739.2) translate(68.80000000000001 14.4)"/><use xlink:href="#x" transform="matrix(1,0,0,1,631.7268317996479,739.2) translate(131.60000000000002 14.4)"/><path d="M1132.13 751h-44.15v-2h44.15zm274.34 0h-26.64v-2h26.64z"/><path d="M1088 751h-1.05l.03-1v-1h1.02zM1421.74 750l-14.27 4.64v-9.28z"/><path d="M1424.98 750l-18.5 6v-12zm-16.5 3.26l10.02-3.26-10.03-3.26z"/><use xlink:href="#C" transform="matrix(1,0,0,1,1132.1268607423247,739.2) translate(0 14.4)"/><use xlink:href="#D" transform="matrix(1,0,0,1,1132.1268607423247,739.2) translate(65.9 14.4)"/><use xlink:href="#E" transform="matrix(1,0,0,1,1132.1268607423247,739.2) translate(107.80000000000001 14.4)"/><use xlink:href="#F" transform="matrix(1,0,0,1,1132.1268607423247,739.2) translate(132.8 14.4)"/><use xlink:href="#G" transform="matrix(1,0,0,1,1132.1268607423247,739.2) translate(181.8 14.4)"/><path d="M638.76 781.72h-70.78v-2h70.78zm253.04 0h-53.3v-2h53.3z"/><path d="M568 781.72h-1.02v-2H568zM907.07 780.72l-14.27 4.63v-9.27z"/><path d="M910.3 780.72l-18.5 6V774.7zm-16.5 3.26l10.03-3.26-10.03-3.26z"/><use xlink:href="#H" transform="matrix(1,0,0,1,638.7642454883313,769.9163020083469) translate(0 14.4)"/><use xlink:href="#D" transform="matrix(1,0,0,1,638.7642454883313,769.9163020083469) translate(42.95 14.4)"/><use xlink:href="#I" transform="matrix(1,0,0,1,638.7642454883313,769.9163020083469) translate(84.85000000000001 14.4)"/><use xlink:href="#J" transform="matrix(1,0,0,1,638.7642454883313,769.9163020083469) translate(109.85000000000001 14.4)"/><use xlink:href="#K" transform="matrix(1,0,0,1,638.7642454883313,769.9163020083469) translate(149.75 14.4)"/><path d="M996.98 658h-2v-81.93h2zm0-103.53h-2V459.5h2z"/><path d="M996.98 659.03l-1-.03h-1v-1.03h2zM1000.6 458.5h-9.26l4.64-14.26z"/><path d="M1002 459.5h-12.03l6-18.5zm-9.28-2h6.52l-3.26-10.03z"/><use xlink:href="#q" transform="matrix(1,0,0,1,886.7018462709863,554.4711881987777) translate(0 14.4)"/><use xlink:href="#B" transform="matrix(1,0,0,1,886.7018462709863,554.4711881987777) translate(78.85000000000001 14.4)"/><use xlink:href="#x" transform="matrix(1,0,0,1,886.7018462709863,554.4711881987777) translate(141.65 14.4)"/><path d="M1160.96 717.42h-79.42v-2h79.42zm245.5 0h-61.9v-2h61.9z"/><path d="M1081.57 717.42h-.63l-.8-2h1.43zM1421.74 716.42l-14.27 4.63v-9.27z"/><path d="M1424.98 716.42l-18.5 6v-12zm-16.5 3.26l10.02-3.26-10.03-3.26z"/><use xlink:href="#q" transform="matrix(1,0,0,1,1160.9598514019274,705.6185402782056) translate(0 14.4)"/><use xlink:href="#L" transform="matrix(1,0,0,1,1160.9598514019274,705.6185402782056) translate(78.85000000000001 14.4)"/><use xlink:href="#e" transform="matrix(1,0,0,1,1160.9598514019274,705.6185402782056) translate(146.7 14.4)"/><path d="M1203.92 781.4h-103.66v-2h103.66zm220.06 0h-121.16v-2h121.16z"/><path d="M1424.98 781.4h-1.03v-2h1.03zM1099.26 785.05L1085 780.4l14.26-4.62z"/><path d="M1100.26 786.42l-18.5-6 18.5-6.02zm-12.03-6l10.03 3.25v-6.52z"/><use xlink:href="#H" transform="matrix(1,0,0,1,1203.9153881673808,769.612201808337) translate(0 14.4)"/><use xlink:href="#o" transform="matrix(1,0,0,1,1203.9153881673808,769.612201808337) translate(42.95 14.4)"/><path d="M615 698.38H568v-2H615zm288.24 0H873.7v-2h29.54zM568 698.38h-1.02v-2H568zM918.5 697.38L904.25 702v-9.26z"/><path d="M921.74 697.38l-18.5 6v-12.02zm-16.5 3.25l10.03-3.25-10.03-3.26z"/><use xlink:href="#M" transform="matrix(1,0,0,1,615.0107651341351,686.5753193625421) translate(0 14.4)"/><use xlink:href="#N" transform="matrix(1,0,0,1,615.0107651341351,686.5753193625421) translate(77.9 14.4)"/><use xlink:href="#F" transform="matrix(1,0,0,1,615.0107651341351,686.5753193625421) translate(143.8 14.4)"/><use xlink:href="#G" transform="matrix(1,0,0,1,615.0107651341351,686.5753193625421) translate(192.8 14.4)"/><path d="M405.98 1068h200v236.84h-200z" stroke="#000" stroke-width="2" fill="#fff"/><path d="M595.98 1078h-15v20h15z" stroke="#000" fill="#fff"/><path d="M585.98 1081.33h-10v3.34h10zm0 10h-10v3.34h10z" stroke="#000" fill="#fff"/><use xlink:href="#O" transform="matrix(1,0,0,1,405.97684627098636,1068) translate(28.630000000000003 125.49375)"/><use xlink:href="#P" transform="matrix(1,0,0,1,405.97684627098636,1068) translate(105.58000000000001 125.49375)"/><path d="M861.8 1068h268.37v236.84H861.8z" stroke="#000" stroke-width="2" fill="#fff"/><path d="M1120.17 1078h-15v20h15z" stroke="#000" fill="#fff"/><path d="M1110.17 1081.33h-10v3.34h10zm0 10h-10v3.34h10z" stroke="#000" fill="#fff"/><use xlink:href="#Q" transform="matrix(1,0,0,1,861.7850214129022,1068) translate(48.529999999999994 125.49375)"/><use xlink:href="#F" transform="matrix(1,0,0,1,861.7850214129022,1068) translate(120.48 125.49375)"/><use xlink:href="#K" transform="matrix(1,0,0,1,861.7850214129022,1068) translate(169.48000000000002 125.49375)"/><path d="M1385.98 1068h193.27v236.84h-193.27z" stroke="#000" stroke-width="2" fill="#fff"/><path d="M1569.25 1078h-15v20h15z" stroke="#000" fill="#fff"/><path d="M1559.25 1081.33h-10v3.34h10zm0 10h-10v3.34h10z" stroke="#000" fill="#fff"/><use xlink:href="#Q" transform="matrix(1,0,0,1,1385.9768462709862,1068) translate(26.62999999999999 110.68125)"/><use xlink:href="#R" transform="matrix(1,0,0,1,1385.9768462709862,1068) translate(98.58 110.68125)"/><use xlink:href="#S" transform="matrix(1,0,0,1,1385.9768462709862,1068) translate(53.05499999999999 132.28125)"/><path d="M862.88 1488h266.2v156.84h-266.2z" stroke="#000" stroke-width="2" fill="#fff"/><path d="M1119.07 1498h-15v20h15z" stroke="#000" fill="#fff"/><path d="M1109.07 1501.33h-10v3.34h10zm0 10h-10v3.34h10z" stroke="#000" fill="#fff"/><use xlink:href="#Q" transform="matrix(1,0,0,1,862.8833213388278,1488) translate(20.604999999999997 73.275)"/><use xlink:href="#T" transform="matrix(1,0,0,1,862.8833213388278,1488) translate(92.555 73.275)"/><use xlink:href="#U" transform="matrix(1,0,0,1,862.8833213388278,1488) translate(164.455 73.275)"/><use xlink:href="#V" transform="matrix(1,0,0,1,862.8833213388278,1488) translate(225.405 73.275)"/><use xlink:href="#J" transform="matrix(1,0,0,1,862.8833213388278,1488) translate(88.055 94.875)"/><use xlink:href="#K" transform="matrix(1,0,0,1,862.8833213388278,1488) translate(127.955 94.875)"/><path d="M995.98 1421.42v-11M995.98 1376.42v-5" stroke="#000" stroke-width="2" fill="none"/><path d="M981.98 1396.42c0-7.73 6.26-14 14-14 7.73 0 14 6.27 14 14s-6.27 14-14 14c-7.74 0-14-6.27-14-14z" stroke="#000" stroke-width="2" fill="#fff"/><path d="M1015.98 1396.42c0-11.05-8.96-20-20-20-11.05 0-20 8.95-20 20" stroke="#000" stroke-width="2" fill="none"/><path d="M995.18 1421.42v-11h1.6v11z" fill="none"/><path d="M726.85 1186.42h11M771.85 1186.42h5" stroke="#000" stroke-width="2" fill="none"/><path d="M751.85 1172.42c7.73 0 14 6.27 14 14s-6.27 14-14 14-14-6.27-14-14 6.27-14 14-14z" stroke="#000" stroke-width="2" fill="#fff"/><path d="M751.85 1206.42c11.05 0 20-8.95 20-20s-8.95-20-20-20" stroke="#000" stroke-width="2" fill="none"/><path d="M726.85 1185.62h11v1.6h-11z" fill="none"/><path d="M1265.1 1186.42h-11M1220.1 1186.42h-5" stroke="#000" stroke-width="2" fill="none"/><path d="M1240.1 1200.42c-7.73 0-14-6.27-14-14s6.27-14 14-14 14 6.27 14 14-6.27 14-14 14z" stroke="#000" stroke-width="2" fill="#fff"/><path d="M1240.1 1166.42c-11.04 0-20 8.95-20 20s8.96 20 20 20" stroke="#000" stroke-width="2" fill="none"/><path d="M1265.1 1187.22h-11v-1.6h11z" fill="none"/><path d="M321.54 1110.56h10m-30-20c11.05 0 20 8.96 20 20 0 11.05-8.95 20-20 20" stroke="#000" stroke-width="2" fill="none"/><path d="M301.54 1090.56c11.05 0 20 8.96 20 20 0 11.05-8.95 20-20 20zM321.54 1109.76h10v1.6h-10z" fill="none"/><path d="M1026.85 1686.42v10m0 40c-11.04 0-20-8.95-20-20s8.96-20 20-20c11.05 0 20 8.95 20 20s-8.95 20-20 20z" stroke="#000" stroke-width="2" fill="#fff"/><path d="M1027.65 1686.42v10h-1.6v-10z" fill="none"/><g fill="none"><path d="M881.3 1703v-10m-20 30c0-11.05 8.94-20 20-20 11.03 0 20 8.95 20 20" stroke="#000" stroke-width="2"/><path d="M861.3 1723c0-11.05 8.94-20 20-20 11.03 0 20 8.95 20 20zM880.5 1703v-10h1.6v10z"/></g><g fill="none"><path d="M1651.54 1146.42h-10m30 20c-11.04 0-20-8.95-20-20s8.96-20 20-20" stroke="#000" stroke-width="2"/><path d="M1671.54 1166.42c-11.04 0-20-8.95-20-20s8.96-20 20-20zM1651.54 1147.22h-10v-1.6h10z"/></g><path d="M321.54 1175.34h10m-30-20c11.05 0 20 8.96 20 20 0 11.05-8.95 20-20 20" stroke="#000" stroke-width="2" fill="none"/><path d="M301.54 1155.34c11.05 0 20 8.96 20 20 0 11.05-8.95 20-20 20zM321.54 1174.54h10v1.6h-10zM1681.54 1181.2h172.6v60h-172.6z" fill="none"/><use xlink:href="#W" transform="matrix(1,0,0,1,1681.5415376032847,1181.1999999999534) translate(0 33.6)"/><use xlink:href="#g" transform="matrix(1,0,0,1,1681.5415376032847,1181.1999999999534) translate(72.95 33.6)"/><use xlink:href="#o" transform="matrix(1,0,0,1,1681.5415376032847,1181.1999999999534) translate(91.9 33.6)"/><g fill="none"><path d="M1651.54 1211.2h-10m30 20c-11.04 0-20-8.95-20-20s8.96-20 20-20" stroke="#000" stroke-width="2"/><path d="M1671.54 1231.2c-11.04 0-20-8.95-20-20s8.96-20 20-20zM1651.54 1212h-10v-1.6h10z"/></g><path d="M1681.54 1245.98h172.6v60h-172.6z" fill="none"/><use xlink:href="#X" transform="matrix(1,0,0,1,1681.5415376032847,1245.9799928783905) translate(0 33.6)"/><g fill="none"><path d="M1651.54 1275.98h-10m30 20c-11.04 0-20-8.95-20-20s8.96-20 20-20" stroke="#000" stroke-width="2"/><path d="M1671.54 1295.98c-11.04 0-20-8.95-20-20s8.96-20 20-20zM1651.54 1276.78h-10v-1.6h10z"/></g><path d="M1641.54 1089.56h10m40 0c0 11.04-8.95 20-20 20-11.04 0-20-8.96-20-20 0-11.05 8.96-20 20-20 11.05 0 20 8.95 20 20z" stroke="#000" stroke-width="2" fill="#fff"/><path d="M1641.54 1088.76h10v1.6h-10zM911.54 1728h77.28v60h-77.28z" fill="none"/><use xlink:href="#Y" transform="matrix(1,0,0,1,911.5415376032847,1728) translate(5.024999999999999 22.799999999999997)"/><use xlink:href="#g" transform="matrix(1,0,0,1,911.5415376032847,1728) translate(11.074999999999996 44.4)"/><use xlink:href="#e" transform="matrix(1,0,0,1,911.5415376032847,1728) translate(30.024999999999995 44.4)"/><g fill="none"><path d="M956.3 1701.42v-10m-20 30c0-11.05 8.94-20 20-20 11.03 0 20 8.95 20 20" stroke="#000" stroke-width="2"/><path d="M936.3 1721.42c0-11.05 8.94-20 20-20 11.03 0 20 8.95 20 20zM955.5 1701.42v-10h1.6v10z"/></g><path d="M332.02 1248h-10m-40 0c0-11.05 8.95-20 20-20 11.04 0 20 8.95 20 20s-8.96 20-20 20c-11.05 0-20-8.95-20-20z" stroke="#000" stroke-width="2" fill="#fff"/><path d="M332.02 1248.8h-10v-1.6h10z" fill="none"/><g fill="none"><path d="M919.55 1013v10m20-30c0 11.05-8.95 20-20 20-11.04 0-20-8.95-20-20" stroke="#000" stroke-width="2"/><path d="M939.55 993c0 11.05-8.95 20-20 20-11.04 0-20-8.95-20-20zM920.35 1013v10h-1.6v-10z"/></g><path d="M999.58 906.42h95.4v100h-95.4z" fill="none"/><use xlink:href="#Z" transform="matrix(1,0,0,1,999.5818813238247,906.4200071215339) translate(11.074999999999996 42.8)"/><use xlink:href="#aa" transform="matrix(1,0,0,1,999.5818813238247,906.4200071215339) translate(16.575 64.4)"/><g><path d="M1047.28 1033v-10m0-40c11.05 0 20 8.95 20 20s-8.95 20-20 20c-11.04 0-20-8.95-20-20s8.96-20 20-20z" stroke="#000" stroke-width="2" fill="#fff"/><path d="M1046.48 1033v-10h1.6v10z" fill="none"/></g><path d="M1112.6 1676.42h134.2v60h-134.2z" fill="none"/><g><use xlink:href="#ab" transform="matrix(1,0,0,1,1112.6086749772041,1676.4200071215516) translate(28.074999999999996 22.799999999999997)"/><use xlink:href="#o" transform="matrix(1,0,0,1,1112.6086749772041,1676.4200071215516) translate(39.525 44.4)"/></g><g fill="none"><path d="M1092.6 1701.42v-10m-20 30c0-11.05 8.96-20 20-20 11.05 0 20 8.95 20 20" stroke="#000" stroke-width="2"/><path d="M1072.6 1721.42c0-11.05 8.96-20 20-20 11.05 0 20 8.95 20 20zM1091.8 1701.42v-10h1.6v10z"/></g><path d="M332.54 1110.56h71.44" stroke="#000" stroke-width="2" fill="none"/><path d="M332.57 1111.56h-1.03v-2h1.03zM404.98 1111.56h-1.03v-2h1.03z"/><path d="M332.54 1175.34h71.44" stroke="#000" stroke-width="2" fill="none"/><path d="M332.57 1176.34h-1.03v-2h1.03zM404.98 1176.34h-1.03v-2h1.03z"/><path d="M333.02 1248h70.96" stroke="#000" stroke-width="2" fill="none"/><path d="M333.04 1249h-1.02v-2h1.02zM404.98 1249h-1.03v-2h1.03z"/><path d="M995.98 1486v-63.58" stroke="#000" stroke-width="2" fill="none"/><path d="M996.98 1487h-2v-1.03h2zM996.98 1422.45h-2v-1.03h2z"/><path d="M995.98 1370.42v-63.58" stroke="#000" stroke-width="2" fill="none"/><path d="M994.98 1371.42v-1.03h2v1.02zM996.98 1306.87h-2v-1.03h2z"/><path d="M777.85 1186.42h81.94" stroke="#000" stroke-width="2" fill="none"/><path d="M777.88 1187.42h-1.03v-2h1.03zM860.8 1187.42h-1.04v-2h1.03z"/><path d="M725.85 1186.42H607.98" stroke="#000" stroke-width="2" fill="none"/><path d="M726.85 1187.42h-1.02v-2h1.02zM608 1187.42h-1.02v-2H608z"/><path d="M1214.1 1186.42h-81.93" stroke="#000" stroke-width="2" fill="none"/><path d="M1215.1 1187.42h-1.02v-2h1.02zM1132.2 1187.42h-1.03v-2h1.02z"/><path d="M1266.1 1186.42h117.88" stroke="#000" stroke-width="2" fill="none"/><path d="M1266.13 1187.42h-1.03v-2h1.03zM1384.98 1187.42h-1.03v-2h1.03z"/><path d="M1047.28 1034v32" stroke="#000" stroke-width="2" fill="none"/><path d="M1048.28 1034.03h-2V1033h2zM1048.28 1067h-2v-1.03h2z"/><path d="M919.55 1024v42" stroke="#000" stroke-width="2" fill="none"/><path d="M920.55 1024.03h-2V1023h2zM920.55 1067h-2v-1.03h2z"/><path d="M1640.54 1089.56h-59.3" stroke="#000" stroke-width="2" fill="none"/><path d="M1641.54 1090.56h-1.02v-2h1.02zM1581.28 1090.56h-1.03v-2h1.03z"/><path d="M1640.54 1146.42h-59.3" stroke="#000" stroke-width="2" fill="none"/><path d="M1641.54 1147.42h-1.02v-2h1.02zM1581.28 1147.42h-1.03v-2h1.03z"/><path d="M1640.54 1211.2h-59.3" stroke="#000" stroke-width="2" fill="none"/><path d="M1641.54 1212.2h-1.02v-2h1.02zM1581.28 1212.2h-1.03v-2h1.03z"/><path d="M1640.54 1275.98h-59.3" stroke="#000" stroke-width="2" fill="none"/><path d="M1641.54 1276.98h-1.02v-2h1.02zM1581.28 1276.98h-1.03v-2h1.03z"/><path d="M1092.6 1690.42v-43.58" stroke="#000" stroke-width="2" fill="none"/><path d="M1091.6 1691.42v-1.03h2v1.02zM1093.6 1646.87h-2v-1.03h2z"/><path d="M1026.85 1685.42v-38.58" stroke="#000" stroke-width="2" fill="none"/><path d="M1025.85 1686.42v-1.03h2v1.02zM1027.85 1646.87h-2v-1.03h2z"/><path d="M956.3 1690.42v-43.58" stroke="#000" stroke-width="2" fill="none"/><path d="M955.3 1691.42v-1.03h2v1.02zM957.3 1646.87h-2v-1.03h2z"/><path d="M881.3 1692v-45.16" stroke="#000" stroke-width="2" fill="none"/><path d="M880.3 1693v-1.03h2v1.03zM882.3 1646.87h-2v-1.03h2z"/><defs><path d="M232-93c-1 65-40 97-104 97C67 4 28-28 28-90v-158h33c8 89-33 224 67 224 102 0 64-133 71-224h33v155" id="ac"/><path d="M59-47c-2 24 18 29 38 22v24C64 9 27 4 27-40v-127H5v-23h24l9-43h21v43h35v23H59v120" id="ad"/><path d="M100-194c63 0 86 42 84 106H49c0 40 14 67 53 68 26 1 43-12 49-29l28 8c-11 28-37 45-77 45C44 4 14-33 15-96c1-61 26-98 85-98zm52 81c6-60-76-77-97-28-3 7-6 17-6 28h103" id="ae"/><path d="M117-194c89-4 53 116 60 194h-32v-121c0-31-8-49-39-48C34-167 62-67 57 0H25l-1-190h30c1 10-1 24 2 32 11-22 29-35 61-36" id="af"/><g id="a"><use transform="matrix(0.05,0,0,0.05,0,0)" xlink:href="#ac"/><use transform="matrix(0.05,0,0,0.05,12.950000000000001,0)" xlink:href="#ad"/><use transform="matrix(0.05,0,0,0.05,17.950000000000003,0)" xlink:href="#ae"/><use transform="matrix(0.05,0,0,0.05,27.950000000000003,0)" xlink:href="#af"/><use transform="matrix(0.05,0,0,0.05,37.95,0)" xlink:href="#ad"/><use transform="matrix(0.05,0,0,0.05,42.95,0)" xlink:href="#ae"/></g><path d="M141-36C126-15 110 5 73 4 37 3 15-17 15-53c-1-64 63-63 125-63 3-35-9-54-41-54-24 1-41 7-42 31l-33-3c5-37 33-52 76-52 45 0 72 20 72 64v82c-1 20 7 32 28 27v20c-31 9-61-2-59-35zM48-53c0 20 12 33 32 33 41-3 63-29 60-74-43 2-92-5-92 41" id="ag"/><use transform="matrix(0.05,0,0,0.05,0,0)" xlink:href="#ag" id="b"/><path d="M96-169c-40 0-48 33-48 73s9 75 48 75c24 0 41-14 43-38l32 2c-6 37-31 61-74 61-59 0-76-41-82-99-10-93 101-131 147-64 4 7 5 14 7 22l-32 3c-4-21-16-35-41-35" id="ah"/><path d="M84 4C-5 8 30-112 23-190h32v120c0 31 7 50 39 49 72-2 45-101 50-169h31l1 190h-30c-1-10 1-25-2-33-11 22-28 36-60 37" id="ai"/><path d="M24-231v-30h32v30H24zM24 0v-190h32V0H24" id="aj"/><g id="c"><use transform="matrix(0.05,0,0,0.05,0,0)" xlink:href="#ah"/><use transform="matrix(0.05,0,0,0.05,9,0)" xlink:href="#ai"/><use transform="matrix(0.05,0,0,0.05,19,0)" xlink:href="#aj"/></g><path d="M108 0H70L1-190h34L89-25l56-165h34" id="ak"/><path d="M114-163C36-179 61-72 57 0H25l-1-190h30c1 12-1 29 2 39 6-27 23-49 58-41v29" id="al"/><g id="d"><use transform="matrix(0.05,0,0,0.05,0,0)" xlink:href="#aj"/><use transform="matrix(0.05,0,0,0.05,3.95,0)" xlink:href="#af"/><use transform="matrix(0.05,0,0,0.05,13.949999999999998,0)" xlink:href="#ak"/><use transform="matrix(0.05,0,0,0.05,22.95,0)" xlink:href="#aj"/><use transform="matrix(0.05,0,0,0.05,26.899999999999995,0)" xlink:href="#ag"/><use transform="matrix(0.05,0,0,0.05,36.9,0)" xlink:href="#al"/><use transform="matrix(0.05,0,0,0.05,42.85,0)" xlink:href="#ae"/></g><path d="M135-143c-3-34-86-38-87 0 15 53 115 12 119 90S17 21 10-45l28-5c4 36 97 45 98 0-10-56-113-15-118-90-4-57 82-63 122-42 12 7 21 19 24 35" id="am"/><path d="M100-194c62-1 85 37 85 99 1 63-27 99-86 99S16-35 15-95c0-66 28-99 85-99zM99-20c44 1 53-31 53-75 0-43-8-75-51-75s-53 32-53 75 10 74 51 75" id="an"/><path d="M24 0v-261h32V0H24" id="ao"/><path d="M85-194c31 0 48 13 60 33l-1-100h32l1 261h-30c-2-10 0-23-3-31C134-8 116 4 85 4 32 4 16-35 15-94c0-66 23-100 70-100zm9 24c-40 0-46 34-46 75 0 40 6 74 45 74 42 0 51-32 51-76 0-42-9-74-50-73" id="ap"/><g id="e"><use transform="matrix(0.05,0,0,0.05,0,0)" xlink:href="#am"/><use transform="matrix(0.05,0,0,0.05,9,0)" xlink:href="#an"/><use transform="matrix(0.05,0,0,0.05,19,0)" xlink:href="#ao"/><use transform="matrix(0.05,0,0,0.05,22.95,0)" xlink:href="#ap"/><use transform="matrix(0.05,0,0,0.05,32.95,0)" xlink:href="#aj"/></g><path d="M190 0L58-211 59 0H30v-248h39L202-35l-2-213h31V0h-41" id="aq"/><path d="M210-169c-67 3-38 105-44 169h-31v-121c0-29-5-50-35-48C34-165 62-65 56 0H25l-1-190h30c1 10-1 24 2 32 10-44 99-50 107 0 11-21 27-35 58-36 85-2 47 119 55 194h-31v-121c0-29-5-49-35-48" id="ar"/><g id="f"><use transform="matrix(0.05,0,0,0.05,0,0)" xlink:href="#aq"/><use transform="matrix(0.05,0,0,0.05,12.950000000000001,0)" xlink:href="#ai"/><use transform="matrix(0.05,0,0,0.05,22.950000000000003,0)" xlink:href="#ar"/><use transform="matrix(0.05,0,0,0.05,37.900000000000006,0)" xlink:href="#ae"/><use transform="matrix(0.05,0,0,0.05,47.900000000000006,0)" xlink:href="#al"/><use transform="matrix(0.05,0,0,0.05,53.85,0)" xlink:href="#an"/></g><g id="g"><use transform="matrix(0.05,0,0,0.05,0,0)" xlink:href="#ap"/><use transform="matrix(0.05,0,0,0.05,10,0)" xlink:href="#aj"/></g><path d="M101-234c-31-9-42 10-38 44h38v23H63V0H32v-167H5v-23h27c-7-52 17-82 69-68v24" id="as"/><g id="h"><use transform="matrix(0.05,0,0,0.05,0,0)" xlink:href="#ad"/><use transform="matrix(0.05,0,0,0.05,5,0)" xlink:href="#ae"/><use transform="matrix(0.05,0,0,0.05,15,0)" xlink:href="#ao"/><use transform="matrix(0.05,0,0,0.05,18.95,0)" xlink:href="#ae"/><use transform="matrix(0.05,0,0,0.05,28.950000000000003,0)" xlink:href="#as"/><use transform="matrix(0.05,0,0,0.05,33.95,0)" xlink:href="#an"/><use transform="matrix(0.05,0,0,0.05,43.95,0)" xlink:href="#af"/><use transform="matrix(0.05,0,0,0.05,53.95,0)" xlink:href="#an"/></g><path d="M33 0v-248h34V0H33" id="at"/><path d="M115-194c55 1 70 41 70 98S169 2 115 4C84 4 66-9 55-30l1 105H24l-1-265h31l2 30c10-21 28-34 59-34zm-8 174c40 0 45-34 45-75s-6-73-45-74c-42 0-51 32-51 76 0 43 10 73 51 73" id="au"/><g id="i"><use transform="matrix(0.05,0,0,0.05,0,0)" xlink:href="#at"/><use transform="matrix(0.05,0,0,0.05,5,0)" xlink:href="#ar"/><use transform="matrix(0.05,0,0,0.05,19.950000000000003,0)" xlink:href="#au"/><use transform="matrix(0.05,0,0,0.05,29.950000000000003,0)" xlink:href="#an"/><use transform="matrix(0.05,0,0,0.05,39.95,0)" xlink:href="#al"/><use transform="matrix(0.05,0,0,0.05,45.900000000000006,0)" xlink:href="#ad"/><use transform="matrix(0.05,0,0,0.05,50.900000000000006,0)" xlink:href="#an"/></g><g id="j"><use transform="matrix(0.05,0,0,0.05,0,0)" xlink:href="#aq"/><use transform="matrix(0.05,0,0,0.05,12.950000000000001,0)" xlink:href="#ai"/><use transform="matrix(0.05,0,0,0.05,22.950000000000003,0)" xlink:href="#ar"/><use transform="matrix(0.05,0,0,0.05,37.900000000000006,0)" xlink:href="#ae"/><use transform="matrix(0.05,0,0,0.05,47.900000000000006,0)" xlink:href="#al"/><use transform="matrix(0.05,0,0,0.05,53.85,0)" xlink:href="#an"/></g><g id="k"><use transform="matrix(0.05,0,0,0.05,0,0)" xlink:href="#ah"/><use transform="matrix(0.05,0,0,0.05,9,0)" xlink:href="#an"/><use transform="matrix(0.05,0,0,0.05,19,0)" xlink:href="#af"/><use transform="matrix(0.05,0,0,0.05,29,0)" xlink:href="#ad"/><use transform="matrix(0.05,0,0,0.05,34,0)" xlink:href="#an"/></g><g id="l"><use transform="matrix(0.05,0,0,0.05,0,0)" xlink:href="#ah"/><use transform="matrix(0.05,0,0,0.05,9,0)" xlink:href="#an"/><use transform="matrix(0.05,0,0,0.05,19,0)" xlink:href="#al"/><use transform="matrix(0.05,0,0,0.05,24.95,0)" xlink:href="#al"/><use transform="matrix(0.05,0,0,0.05,30.899999999999995,0)" xlink:href="#ae"/><use transform="matrix(0.05,0,0,0.05,40.9,0)" xlink:href="#af"/><use transform="matrix(0.05,0,0,0.05,50.9,0)" xlink:href="#ad"/><use transform="matrix(0.05,0,0,0.05,55.900000000000006,0)" xlink:href="#ae"/></g><path d="M177-190C167-65 218 103 67 71c-23-6-38-20-44-43l32-5c15 47 100 32 89-28v-30C133-14 115 1 83 1 29 1 15-40 15-95c0-56 16-97 71-98 29-1 48 16 59 35 1-10 0-23 2-32h30zM94-22c36 0 50-32 50-73 0-42-14-75-50-75-39 0-46 34-46 75s6 73 46 73" id="av"/><g id="m"><use transform="matrix(0.05,0,0,0.05,0,0)" xlink:href="#ah"/><use transform="matrix(0.05,0,0,0.05,9,0)" xlink:href="#an"/><use transform="matrix(0.05,0,0,0.05,19,0)" xlink:href="#ao"/><use transform="matrix(0.05,0,0,0.05,22.95,0)" xlink:href="#ao"/><use transform="matrix(0.05,0,0,0.05,26.899999999999995,0)" xlink:href="#ae"/><use transform="matrix(0.05,0,0,0.05,36.9,0)" xlink:href="#av"/><use transform="matrix(0.05,0,0,0.05,46.9,0)" xlink:href="#ag"/><use transform="matrix(0.05,0,0,0.05,56.900000000000006,0)" xlink:href="#ad"/><use transform="matrix(0.05,0,0,0.05,61.900000000000006,0)" xlink:href="#an"/></g><path d="M127-220V0H93v-220H8v-28h204v28h-85" id="aw"/><g id="n"><use transform="matrix(0.05,0,0,0.05,0,0)" xlink:href="#aw"/><use transform="matrix(0.05,0,0,0.05,10.3,0)" xlink:href="#al"/><use transform="matrix(0.05,0,0,0.05,16.25,0)" xlink:href="#ag"/><use transform="matrix(0.05,0,0,0.05,26.25,0)" xlink:href="#am"/><use transform="matrix(0.05,0,0,0.05,35.25,0)" xlink:href="#as"/><use transform="matrix(0.05,0,0,0.05,40.25,0)" xlink:href="#ae"/><use transform="matrix(0.05,0,0,0.05,50.25,0)" xlink:href="#al"/><use transform="matrix(0.05,0,0,0.05,56.2,0)" xlink:href="#aj"/><use transform="matrix(0.05,0,0,0.05,60.150000000000006,0)" xlink:href="#ar"/><use transform="matrix(0.05,0,0,0.05,75.10000000000001,0)" xlink:href="#ae"/><use transform="matrix(0.05,0,0,0.05,85.10000000000001,0)" xlink:href="#af"/><use transform="matrix(0.05,0,0,0.05,95.10000000000001,0)" xlink:href="#ad"/><use transform="matrix(0.05,0,0,0.05,100.10000000000001,0)" xlink:href="#an"/></g><g id="o"><use transform="matrix(0.05,0,0,0.05,0,0)" xlink:href="#ap"/><use transform="matrix(0.05,0,0,0.05,10,0)" xlink:href="#ae"/><use transform="matrix(0.05,0,0,0.05,20,0)" xlink:href="#af"/><use transform="matrix(0.05,0,0,0.05,30,0)" xlink:href="#ag"/><use transform="matrix(0.05,0,0,0.05,40,0)" xlink:href="#al"/><use transform="matrix(0.05,0,0,0.05,45.95,0)" xlink:href="#an"/></g><g id="p"><use transform="matrix(0.05,0,0,0.05,0,0)" xlink:href="#at"/><use transform="matrix(0.05,0,0,0.05,5,0)" xlink:href="#af"/><use transform="matrix(0.05,0,0,0.05,15,0)" xlink:href="#ak"/><use transform="matrix(0.05,0,0,0.05,24,0)" xlink:href="#aj"/><use transform="matrix(0.05,0,0,0.05,27.950000000000003,0)" xlink:href="#ag"/></g><path d="M233-177c-1 41-23 64-60 70L243 0h-38l-65-103H63V0H30v-248c88 3 205-21 203 71zM63-129c60-2 137 13 137-47 0-61-80-42-137-45v92" id="ax"/><path d="M106-169C34-169 62-67 57 0H25v-261h32l-1 103c12-21 28-36 61-36 89 0 53 116 60 194h-32v-121c2-32-8-49-39-48" id="ay"/><g id="q"><use transform="matrix(0.05,0,0,0.05,0,0)" xlink:href="#ax"/><use transform="matrix(0.05,0,0,0.05,12.950000000000001,0)" xlink:href="#aj"/><use transform="matrix(0.05,0,0,0.05,16.900000000000002,0)" xlink:href="#ah"/><use transform="matrix(0.05,0,0,0.05,25.900000000000002,0)" xlink:href="#ay"/><use transform="matrix(0.05,0,0,0.05,35.900000000000006,0)" xlink:href="#aj"/><use transform="matrix(0.05,0,0,0.05,39.85000000000001,0)" xlink:href="#ae"/><use transform="matrix(0.05,0,0,0.05,49.85000000000001,0)" xlink:href="#am"/><use transform="matrix(0.05,0,0,0.05,58.85,0)" xlink:href="#ad"/><use transform="matrix(0.05,0,0,0.05,63.85,0)" xlink:href="#ag"/></g><g id="r"><use transform="matrix(0.05,0,0,0.05,0,0)" xlink:href="#au"/><use transform="matrix(0.05,0,0,0.05,10,0)" xlink:href="#ag"/><use transform="matrix(0.05,0,0,0.05,20,0)" xlink:href="#av"/><use transform="matrix(0.05,0,0,0.05,30,0)" xlink:href="#ag"/><use transform="matrix(0.05,0,0,0.05,40,0)" xlink:href="#ar"/><use transform="matrix(0.05,0,0,0.05,54.95,0)" xlink:href="#ae"/><use transform="matrix(0.05,0,0,0.05,64.95,0)" xlink:href="#af"/><use transform="matrix(0.05,0,0,0.05,74.95,0)" xlink:href="#ad"/><use transform="matrix(0.05,0,0,0.05,79.95,0)" xlink:href="#an"/></g><path d="M115-194c53 0 69 39 70 98 0 66-23 100-70 100C84 3 66-7 56-30L54 0H23l1-261h32v101c10-23 28-34 59-34zm-8 174c40 0 45-34 45-75 0-40-5-75-45-74-42 0-51 32-51 76 0 43 10 73 51 73" id="az"/><g id="s"><use transform="matrix(0.05,0,0,0.05,0,0)" xlink:href="#az"/><use transform="matrix(0.05,0,0,0.05,10,0)" xlink:href="#an"/><use transform="matrix(0.05,0,0,0.05,20,0)" xlink:href="#ao"/><use transform="matrix(0.05,0,0,0.05,23.95,0)" xlink:href="#ao"/><use transform="matrix(0.05,0,0,0.05,27.899999999999995,0)" xlink:href="#ae"/><use transform="matrix(0.05,0,0,0.05,37.9,0)" xlink:href="#ad"/><use transform="matrix(0.05,0,0,0.05,42.9,0)" xlink:href="#ad"/><use transform="matrix(0.05,0,0,0.05,47.9,0)" xlink:href="#aj"/><use transform="matrix(0.05,0,0,0.05,51.85,0)" xlink:href="#af"/><use transform="matrix(0.05,0,0,0.05,61.85,0)" xlink:href="#an"/></g><g id="t"><use transform="matrix(0.05,0,0,0.05,0,0)" xlink:href="#ax"/><use transform="matrix(0.05,0,0,0.05,12.950000000000001,0)" xlink:href="#aj"/><use transform="matrix(0.05,0,0,0.05,16.900000000000002,0)" xlink:href="#ah"/><use transform="matrix(0.05,0,0,0.05,25.900000000000002,0)" xlink:href="#ag"/><use transform="matrix(0.05,0,0,0.05,35.900000000000006,0)" xlink:href="#al"/><use transform="matrix(0.05,0,0,0.05,41.85000000000001,0)" xlink:href="#aj"/><use transform="matrix(0.05,0,0,0.05,45.80000000000001,0)" xlink:href="#ah"/><use transform="matrix(0.05,0,0,0.05,54.80000000000001,0)" xlink:href="#ag"/></g><path d="M30-248c87 1 191-15 191 75 0 78-77 80-158 76V0H30v-248zm33 125c57 0 124 11 124-50 0-59-68-47-124-48v98" id="aA"/><g id="u"><use transform="matrix(0.05,0,0,0.05,0,0)" xlink:href="#aA"/><use transform="matrix(0.05,0,0,0.05,12,0)" xlink:href="#ag"/><use transform="matrix(0.05,0,0,0.05,22,0)" xlink:href="#av"/><use transform="matrix(0.05,0,0,0.05,32,0)" xlink:href="#ag"/></g><path d="M205 0l-28-72H64L36 0H1l101-248h38L239 0h-34zm-38-99l-47-123c-12 45-31 82-46 123h93" id="aB"/><g id="v"><use transform="matrix(0.05,0,0,0.05,0,0)" xlink:href="#aB"/><use transform="matrix(0.05,0,0,0.05,12,0)" xlink:href="#au"/><use transform="matrix(0.05,0,0,0.05,22,0)" xlink:href="#au"/></g><path d="M212-179c-10-28-35-45-73-45-59 0-87 40-87 99 0 60 29 101 89 101 43 0 62-24 78-52l27 14C228-24 195 4 139 4 59 4 22-46 18-125c-6-104 99-153 187-111 19 9 31 26 39 46" id="aC"/><g id="w"><use transform="matrix(0.05,0,0,0.05,0,0)" xlink:href="#aC"/><use transform="matrix(0.05,0,0,0.05,12.950000000000001,0)" xlink:href="#an"/><use transform="matrix(0.05,0,0,0.05,22.950000000000003,0)" xlink:href="#ar"/><use transform="matrix(0.05,0,0,0.05,37.900000000000006,0)" xlink:href="#au"/><use transform="matrix(0.05,0,0,0.05,47.900000000000006,0)" xlink:href="#ag"/><use transform="matrix(0.05,0,0,0.05,57.900000000000006,0)" xlink:href="#av"/><use transform="matrix(0.05,0,0,0.05,67.9,0)" xlink:href="#af"/><use transform="matrix(0.05,0,0,0.05,77.9,0)" xlink:href="#aj"/><use transform="matrix(0.05,0,0,0.05,81.85000000000001,0)" xlink:href="#ag"/></g><g id="x"><use transform="matrix(0.05,0,0,0.05,0,0)" xlink:href="#ad"/><use transform="matrix(0.05,0,0,0.05,5,0)" xlink:href="#ae"/><use transform="matrix(0.05,0,0,0.05,15,0)" xlink:href="#ao"/><use transform="matrix(0.05,0,0,0.05,18.95,0)" xlink:href="#ae"/><use transform="matrix(0.05,0,0,0.05,28.950000000000003,0)" xlink:href="#as"/><use transform="matrix(0.05,0,0,0.05,33.95,0)" xlink:href="#an"/><use transform="matrix(0.05,0,0,0.05,43.95,0)" xlink:href="#af"/><use transform="matrix(0.05,0,0,0.05,53.95,0)" xlink:href="#aj"/><use transform="matrix(0.05,0,0,0.05,57.900000000000006,0)" xlink:href="#ah"/><use transform="matrix(0.05,0,0,0.05,66.9,0)" xlink:href="#ag"/></g><g id="y"><use transform="matrix(0.05,0,0,0.05,0,0)" xlink:href="#ac"/><use transform="matrix(0.05,0,0,0.05,12.950000000000001,0)" xlink:href="#am"/><use transform="matrix(0.05,0,0,0.05,21.950000000000003,0)" xlink:href="#ae"/><use transform="matrix(0.05,0,0,0.05,31.950000000000003,0)" xlink:href="#al"/></g><path d="M160-131c35 5 61 23 61 61C221 17 115-2 30 0v-248c76 3 177-17 177 60 0 33-19 50-47 57zm-97-11c50-1 110 9 110-42 0-47-63-36-110-37v79zm0 115c55-2 124 14 124-45 0-56-70-42-124-44v89" id="aD"/><g id="z"><use transform="matrix(0.05,0,0,0.05,0,0)" xlink:href="#aD"/><use transform="matrix(0.05,0,0,0.05,12,0)" xlink:href="#ag"/><use transform="matrix(0.05,0,0,0.05,22,0)" xlink:href="#af"/><use transform="matrix(0.05,0,0,0.05,32,0)" xlink:href="#ah"/><use transform="matrix(0.05,0,0,0.05,41,0)" xlink:href="#ag"/></g><g id="A"><use transform="matrix(0.05,0,0,0.05,0,0)" xlink:href="#ax"/><use transform="matrix(0.05,0,0,0.05,12.950000000000001,0)" xlink:href="#aj"/><use transform="matrix(0.05,0,0,0.05,16.900000000000002,0)" xlink:href="#ah"/><use transform="matrix(0.05,0,0,0.05,25.900000000000002,0)" xlink:href="#ay"/><use transform="matrix(0.05,0,0,0.05,35.900000000000006,0)" xlink:href="#aj"/><use transform="matrix(0.05,0,0,0.05,39.85000000000001,0)" xlink:href="#ae"/><use transform="matrix(0.05,0,0,0.05,49.85000000000001,0)" xlink:href="#ap"/><use transform="matrix(0.05,0,0,0.05,59.85,0)" xlink:href="#aj"/></g><g id="B"><use transform="matrix(0.05,0,0,0.05,0,0)" xlink:href="#al"/><use transform="matrix(0.05,0,0,0.05,5.95,0)" xlink:href="#aj"/><use transform="matrix(0.05,0,0,0.05,9.9,0)" xlink:href="#ah"/><use transform="matrix(0.05,0,0,0.05,18.9,0)" xlink:href="#ag"/><use transform="matrix(0.05,0,0,0.05,28.899999999999995,0)" xlink:href="#al"/><use transform="matrix(0.05,0,0,0.05,34.85,0)" xlink:href="#aj"/><use transform="matrix(0.05,0,0,0.05,38.800000000000004,0)" xlink:href="#ah"/><use transform="matrix(0.05,0,0,0.05,47.800000000000004,0)" xlink:href="#ag"/></g><g id="C"><use transform="matrix(0.05,0,0,0.05,0,0)" xlink:href="#aA"/><use transform="matrix(0.05,0,0,0.05,12,0)" xlink:href="#al"/><use transform="matrix(0.05,0,0,0.05,17.95,0)" xlink:href="#ae"/><use transform="matrix(0.05,0,0,0.05,27.950000000000003,0)" xlink:href="#ao"/><use transform="matrix(0.05,0,0,0.05,31.899999999999995,0)" xlink:href="#ae"/><use transform="matrix(0.05,0,0,0.05,41.9,0)" xlink:href="#ak"/><use transform="matrix(0.05,0,0,0.05,50.9,0)" xlink:href="#ag"/></g><g id="D"><use transform="matrix(0.05,0,0,0.05,0,0)" xlink:href="#am"/><use transform="matrix(0.05,0,0,0.05,9,0)" xlink:href="#an"/><use transform="matrix(0.05,0,0,0.05,19,0)" xlink:href="#ao"/><use transform="matrix(0.05,0,0,0.05,22.95,0)" xlink:href="#ap"/><use transform="matrix(0.05,0,0,0.05,32.95,0)" xlink:href="#aj"/></g><g id="E"><use transform="matrix(0.05,0,0,0.05,0,0)" xlink:href="#ap"/><use transform="matrix(0.05,0,0,0.05,10,0)" xlink:href="#ag"/></g><g id="F"><use transform="matrix(0.05,0,0,0.05,0,0)" xlink:href="#ah"/><use transform="matrix(0.05,0,0,0.05,9,0)" xlink:href="#an"/><use transform="matrix(0.05,0,0,0.05,19,0)" xlink:href="#af"/><use transform="matrix(0.05,0,0,0.05,29,0)" xlink:href="#ad"/><use transform="matrix(0.05,0,0,0.05,34,0)" xlink:href="#an"/></g><g id="G"><use transform="matrix(0.05,0,0,0.05,0,0)" xlink:href="#ah"/><use transform="matrix(0.05,0,0,0.05,9,0)" xlink:href="#an"/><use transform="matrix(0.05,0,0,0.05,19,0)" xlink:href="#al"/><use transform="matrix(0.05,0,0,0.05,24.95,0)" xlink:href="#al"/><use transform="matrix(0.05,0,0,0.05,30.899999999999995,0)" xlink:href="#ae"/><use transform="matrix(0.05,0,0,0.05,40.9,0)" xlink:href="#af"/><use transform="matrix(0.05,0,0,0.05,50.9,0)" xlink:href="#ad"/><use transform="matrix(0.05,0,0,0.05,55.900000000000006,0)" xlink:href="#ae"/></g><g id="H"><use transform="matrix(0.05,0,0,0.05,0,0)" xlink:href="#at"/><use transform="matrix(0.05,0,0,0.05,5,0)" xlink:href="#af"/><use transform="matrix(0.05,0,0,0.05,15,0)" xlink:href="#ak"/><use transform="matrix(0.05,0,0,0.05,24,0)" xlink:href="#aj"/><use transform="matrix(0.05,0,0,0.05,27.950000000000003,0)" xlink:href="#ag"/></g><g id="I"><use transform="matrix(0.05,0,0,0.05,0,0)" xlink:href="#ag"/><use transform="matrix(0.05,0,0,0.05,10,0)" xlink:href="#ap"/></g><g id="J"><use transform="matrix(0.05,0,0,0.05,0,0)" xlink:href="#ag"/><use transform="matrix(0.05,0,0,0.05,10,0)" xlink:href="#ao"/><use transform="matrix(0.05,0,0,0.05,13.949999999999998,0)" xlink:href="#ad"/><use transform="matrix(0.05,0,0,0.05,18.95,0)" xlink:href="#al"/><use transform="matrix(0.05,0,0,0.05,24.9,0)" xlink:href="#an"/></g><g id="K"><use transform="matrix(0.05,0,0,0.05,0,0)" xlink:href="#ai"/><use transform="matrix(0.05,0,0,0.05,10,0)" xlink:href="#ad"/><use transform="matrix(0.05,0,0,0.05,15,0)" xlink:href="#ae"/><use transform="matrix(0.05,0,0,0.05,25,0)" xlink:href="#af"/><use transform="matrix(0.05,0,0,0.05,35,0)" xlink:href="#ad"/><use transform="matrix(0.05,0,0,0.05,40,0)" xlink:href="#ae"/></g><g id="L"><use transform="matrix(0.05,0,0,0.05,0,0)" xlink:href="#au"/><use transform="matrix(0.05,0,0,0.05,10,0)" xlink:href="#al"/><use transform="matrix(0.05,0,0,0.05,15.949999999999998,0)" xlink:href="#ae"/><use transform="matrix(0.05,0,0,0.05,25.950000000000003,0)" xlink:href="#ao"/><use transform="matrix(0.05,0,0,0.05,29.899999999999995,0)" xlink:href="#aj"/><use transform="matrix(0.05,0,0,0.05,33.85,0)" xlink:href="#ae"/><use transform="matrix(0.05,0,0,0.05,43.85,0)" xlink:href="#ak"/><use transform="matrix(0.05,0,0,0.05,52.85,0)" xlink:href="#an"/></g><path d="M185-189c-5-48-123-54-124 2 14 75 158 14 163 119 3 78-121 87-175 55-17-10-28-26-33-46l33-7c5 56 141 63 141-1 0-78-155-14-162-118-5-82 145-84 179-34 5 7 8 16 11 25" id="aE"/><g id="M"><use transform="matrix(0.05,0,0,0.05,0,0)" xlink:href="#aE"/><use transform="matrix(0.05,0,0,0.05,12,0)" xlink:href="#au"/><use transform="matrix(0.05,0,0,0.05,22,0)" xlink:href="#ae"/><use transform="matrix(0.05,0,0,0.05,32,0)" xlink:href="#ah"/><use transform="matrix(0.05,0,0,0.05,41,0)" xlink:href="#aj"/><use transform="matrix(0.05,0,0,0.05,44.95,0)" xlink:href="#as"/><use transform="matrix(0.05,0,0,0.05,49.95,0)" xlink:href="#aj"/><use transform="matrix(0.05,0,0,0.05,53.900000000000006,0)" xlink:href="#ah"/><use transform="matrix(0.05,0,0,0.05,62.900000000000006,0)" xlink:href="#ag"/></g><g id="N"><use transform="matrix(0.05,0,0,0.05,0,0)" xlink:href="#af"/><use transform="matrix(0.05,0,0,0.05,10,0)" xlink:href="#ai"/><use transform="matrix(0.05,0,0,0.05,20,0)" xlink:href="#ar"/><use transform="matrix(0.05,0,0,0.05,34.95,0)" xlink:href="#ae"/><use transform="matrix(0.05,0,0,0.05,44.95,0)" xlink:href="#al"/><use transform="matrix(0.05,0,0,0.05,50.900000000000006,0)" xlink:href="#an"/></g><path d="M143 4C61 4 22-44 18-125c-5-107 100-154 193-111 17 8 29 25 37 43l-32 9c-13-25-37-40-76-40-61 0-88 39-88 99 0 61 29 100 91 101 35 0 62-11 79-27v-45h-74v-28h105v86C228-13 192 4 143 4" id="aF"/><g id="O"><use transform="matrix(0.05,0,0,0.05,0,0)" xlink:href="#aF"/><use transform="matrix(0.05,0,0,0.05,14,0)" xlink:href="#ae"/><use transform="matrix(0.05,0,0,0.05,24,0)" xlink:href="#am"/><use transform="matrix(0.05,0,0,0.05,33,0)" xlink:href="#ad"/><use transform="matrix(0.05,0,0,0.05,38,0)" xlink:href="#aj"/><use transform="matrix(0.05,0,0,0.05,41.95,0)" xlink:href="#an"/><use transform="matrix(0.05,0,0,0.05,51.95,0)" xlink:href="#af"/><use transform="matrix(0.05,0,0,0.05,61.95,0)" xlink:href="#ae"/></g><g id="P"><use transform="matrix(0.05,0,0,0.05,0,0)" xlink:href="#az"/><use transform="matrix(0.05,0,0,0.05,10,0)" xlink:href="#an"/><use transform="matrix(0.05,0,0,0.05,20,0)" xlink:href="#ao"/><use transform="matrix(0.05,0,0,0.05,23.95,0)" xlink:href="#ao"/><use transform="matrix(0.05,0,0,0.05,27.899999999999995,0)" xlink:href="#ae"/><use transform="matrix(0.05,0,0,0.05,37.9,0)" xlink:href="#ad"/><use transform="matrix(0.05,0,0,0.05,42.9,0)" xlink:href="#ad"/><use transform="matrix(0.05,0,0,0.05,47.9,0)" xlink:href="#aj"/><use transform="matrix(0.05,0,0,0.05,51.85,0)" xlink:href="#af"/><use transform="matrix(0.05,0,0,0.05,61.85,0)" xlink:href="#aj"/></g><g id="Q"><use transform="matrix(0.05,0,0,0.05,0,0)" xlink:href="#aF"/><use transform="matrix(0.05,0,0,0.05,14,0)" xlink:href="#ae"/><use transform="matrix(0.05,0,0,0.05,24,0)" xlink:href="#am"/><use transform="matrix(0.05,0,0,0.05,33,0)" xlink:href="#aj"/><use transform="matrix(0.05,0,0,0.05,36.95,0)" xlink:href="#an"/><use transform="matrix(0.05,0,0,0.05,46.95,0)" xlink:href="#af"/><use transform="matrix(0.05,0,0,0.05,56.95,0)" xlink:href="#ae"/></g><g id="R"><use transform="matrix(0.05,0,0,0.05,0,0)" xlink:href="#al"/><use transform="matrix(0.05,0,0,0.05,5.95,0)" xlink:href="#aj"/><use transform="matrix(0.05,0,0,0.05,9.9,0)" xlink:href="#ah"/><use transform="matrix(0.05,0,0,0.05,18.9,0)" xlink:href="#ag"/><use transform="matrix(0.05,0,0,0.05,28.899999999999995,0)" xlink:href="#al"/><use transform="matrix(0.05,0,0,0.05,34.85,0)" xlink:href="#aj"/><use transform="matrix(0.05,0,0,0.05,38.800000000000004,0)" xlink:href="#ah"/><use transform="matrix(0.05,0,0,0.05,47.800000000000004,0)" xlink:href="#ay"/><use transform="matrix(0.05,0,0,0.05,57.800000000000004,0)" xlink:href="#ae"/></g><g id="S"><use transform="matrix(0.05,0,0,0.05,0,0)" xlink:href="#ad"/><use transform="matrix(0.05,0,0,0.05,5,0)" xlink:href="#ae"/><use transform="matrix(0.05,0,0,0.05,15,0)" xlink:href="#ao"/><use transform="matrix(0.05,0,0,0.05,18.95,0)" xlink:href="#ae"/><use transform="matrix(0.05,0,0,0.05,28.950000000000003,0)" xlink:href="#as"/><use transform="matrix(0.05,0,0,0.05,33.95,0)" xlink:href="#an"/><use transform="matrix(0.05,0,0,0.05,43.95,0)" xlink:href="#af"/><use transform="matrix(0.05,0,0,0.05,53.95,0)" xlink:href="#aj"/><use transform="matrix(0.05,0,0,0.05,57.900000000000006,0)" xlink:href="#ah"/><use transform="matrix(0.05,0,0,0.05,66.9,0)" xlink:href="#ay"/><use transform="matrix(0.05,0,0,0.05,76.9,0)" xlink:href="#ae"/></g><g id="T"><use transform="matrix(0.05,0,0,0.05,0,0)" xlink:href="#am"/><use transform="matrix(0.05,0,0,0.05,9,0)" xlink:href="#ah"/><use transform="matrix(0.05,0,0,0.05,18,0)" xlink:href="#ag"/><use transform="matrix(0.05,0,0,0.05,28,0)" xlink:href="#ar"/><use transform="matrix(0.05,0,0,0.05,42.95,0)" xlink:href="#az"/><use transform="matrix(0.05,0,0,0.05,52.95,0)" xlink:href="#aj"/><use transform="matrix(0.05,0,0,0.05,56.900000000000006,0)" xlink:href="#an"/></g><g id="U"><use transform="matrix(0.05,0,0,0.05,0,0)" xlink:href="#ap"/><use transform="matrix(0.05,0,0,0.05,10,0)" xlink:href="#ae"/><use transform="matrix(0.05,0,0,0.05,20,0)" xlink:href="#af"/><use transform="matrix(0.05,0,0,0.05,30,0)" xlink:href="#ag"/><use transform="matrix(0.05,0,0,0.05,40,0)" xlink:href="#al"/><use transform="matrix(0.05,0,0,0.05,45.95,0)" xlink:href="#an"/></g><g id="V"><use transform="matrix(0.05,0,0,0.05,0,0)" xlink:href="#ag"/><use transform="matrix(0.05,0,0,0.05,10,0)" xlink:href="#ap"/></g><path d="M140-251c81 0 123 46 123 126C263-53 228-8 163 1c7 30 30 48 69 40v23c-55 16-95-15-103-61C56-3 17-48 17-125c0-80 42-126 123-126zm0 227c63 0 89-41 89-101s-29-99-89-99c-61 0-89 39-89 99S79-25 140-24" id="aG"/><path d="M141-36C126-15 110 5 73 4 37 3 15-17 15-53c-1-64 63-63 125-63 3-35-9-54-41-54-24 1-41 7-42 31l-33-3c5-37 33-52 76-52 45 0 72 20 72 64v82c-1 20 7 32 28 27v20c-31 9-61-2-59-35zM48-53c0 20 12 33 32 33 41-3 63-29 60-74-43 2-92-5-92 41zm62-158l-58-49v-5h36c12 19 30 32 38 54h-16" id="aH"/><g id="W"><use transform="matrix(0.05,0,0,0.05,0,0)" xlink:href="#aG"/><use transform="matrix(0.05,0,0,0.05,14,0)" xlink:href="#ai"/><use transform="matrix(0.05,0,0,0.05,24,0)" xlink:href="#ag"/><use transform="matrix(0.05,0,0,0.05,34,0)" xlink:href="#af"/><use transform="matrix(0.05,0,0,0.05,44,0)" xlink:href="#ad"/><use transform="matrix(0.05,0,0,0.05,49,0)" xlink:href="#aj"/><use transform="matrix(0.05,0,0,0.05,52.95,0)" xlink:href="#ad"/><use transform="matrix(0.05,0,0,0.05,57.95,0)" xlink:href="#aH"/></g><path d="M140-251c81 0 123 46 123 126C263-46 219 4 140 4 59 4 17-45 17-125s42-126 123-126zm0 227c63 0 89-41 89-101s-29-99-89-99c-61 0-89 39-89 99S79-25 140-24" id="aI"/><g id="X"><use transform="matrix(0.05,0,0,0.05,0,0)" xlink:href="#aI"/><use transform="matrix(0.05,0,0,0.05,14,0)" xlink:href="#au"/><use transform="matrix(0.05,0,0,0.05,24,0)" xlink:href="#ae"/><use transform="matrix(0.05,0,0,0.05,34,0)" xlink:href="#al"/><use transform="matrix(0.05,0,0,0.05,39.95,0)" xlink:href="#ag"/><use transform="matrix(0.05,0,0,0.05,49.95,0)" xlink:href="#ad"/><use transform="matrix(0.05,0,0,0.05,54.95,0)" xlink:href="#an"/><use transform="matrix(0.05,0,0,0.05,64.95,0)" xlink:href="#al"/><use transform="matrix(0.05,0,0,0.05,70.9,0)" xlink:href="#ae"/></g><g id="Y"><use transform="matrix(0.05,0,0,0.05,0,0)" xlink:href="#aG"/><use transform="matrix(0.05,0,0,0.05,14,0)" xlink:href="#ai"/><use transform="matrix(0.05,0,0,0.05,24,0)" xlink:href="#ag"/><use transform="matrix(0.05,0,0,0.05,34,0)" xlink:href="#af"/><use transform="matrix(0.05,0,0,0.05,44,0)" xlink:href="#ad"/><use transform="matrix(0.05,0,0,0.05,49,0)" xlink:href="#aj"/><use transform="matrix(0.05,0,0,0.05,52.95,0)" xlink:href="#ad"/><use transform="matrix(0.05,0,0,0.05,57.95,0)" xlink:href="#aH"/></g><g id="Z"><use transform="matrix(0.05,0,0,0.05,0,0)" xlink:href="#ax"/><use transform="matrix(0.05,0,0,0.05,12.950000000000001,0)" xlink:href="#aj"/><use transform="matrix(0.05,0,0,0.05,16.900000000000002,0)" xlink:href="#ah"/><use transform="matrix(0.05,0,0,0.05,25.900000000000002,0)" xlink:href="#ay"/><use transform="matrix(0.05,0,0,0.05,35.900000000000006,0)" xlink:href="#aj"/><use transform="matrix(0.05,0,0,0.05,39.85000000000001,0)" xlink:href="#ae"/><use transform="matrix(0.05,0,0,0.05,49.85000000000001,0)" xlink:href="#am"/><use transform="matrix(0.05,0,0,0.05,58.85,0)" xlink:href="#ad"/><use transform="matrix(0.05,0,0,0.05,63.85,0)" xlink:href="#ag"/></g><g id="aa"><use transform="matrix(0.05,0,0,0.05,0,0)" xlink:href="#au"/><use transform="matrix(0.05,0,0,0.05,10,0)" xlink:href="#al"/><use transform="matrix(0.05,0,0,0.05,15.949999999999998,0)" xlink:href="#ae"/><use transform="matrix(0.05,0,0,0.05,25.950000000000003,0)" xlink:href="#ao"/><use transform="matrix(0.05,0,0,0.05,29.899999999999995,0)" xlink:href="#aj"/><use transform="matrix(0.05,0,0,0.05,33.85,0)" xlink:href="#ae"/><use transform="matrix(0.05,0,0,0.05,43.85,0)" xlink:href="#ak"/><use transform="matrix(0.05,0,0,0.05,52.85,0)" xlink:href="#an"/></g><path d="M9 0v-24l116-142H16v-24h144v24L44-24h123V0H9" id="aJ"/><g id="ab"><use transform="matrix(0.05,0,0,0.05,0,0)" xlink:href="#ax"/><use transform="matrix(0.05,0,0,0.05,12.950000000000001,0)" xlink:href="#aj"/><use transform="matrix(0.05,0,0,0.05,16.900000000000002,0)" xlink:href="#ah"/><use transform="matrix(0.05,0,0,0.05,25.900000000000002,0)" xlink:href="#ae"/><use transform="matrix(0.05,0,0,0.05,35.900000000000006,0)" xlink:href="#aJ"/><use transform="matrix(0.05,0,0,0.05,44.900000000000006,0)" xlink:href="#aj"/><use transform="matrix(0.05,0,0,0.05,48.85000000000001,0)" xlink:href="#an"/><use transform="matrix(0.05,0,0,0.05,58.85,0)" xlink:href="#af"/><use transform="matrix(0.05,0,0,0.05,68.85000000000001,0)" xlink:href="#ae"/></g></defs></g></svg>