<svg xmlns="http://www.w3.org/2000/svg" xmlns:xlink="http://www.w3.org/1999/xlink" xmlns:lucid="lucid" width="1540" height="1031.6"><g transform="translate(-120 270)" lucid:page-tab-id="0_0"><path d="M1015.2 661.6c0 44.18-35.82 80-80 80s-80-35.82-80-80 35.82-80 80-80 80 35.82 80 80z" stroke="#000" stroke-width="2" fill="#fff"/><use xlink:href="#a" transform="matrix(1,0,0,1,860.1999999999534,586.5999999999767) translate(13.75 80.025)"/><use xlink:href="#b" transform="matrix(1,0,0,1,860.1999999999534,586.5999999999767) translate(99.7 80.025)"/><path d="M1360 581.6h160v160h-160z" stroke="#000" stroke-width="2" fill="#fff"/><use xlink:href="#c" transform="matrix(1,0,0,1,1365,586.5999999999767) translate(56.05 80.025)"/><path d="M380 581.6h175.36v160H380z" stroke="#000" stroke-width="2" fill="#fff"/><use xlink:href="#d" transform="matrix(1,0,0,1,385,586.5999999999999) translate(7.099999999999994 80.025)"/><use xlink:href="#e" transform="matrix(1,0,0,1,385,586.5999999999999) translate(101.95 80.025)"/><path d="M607.1 606.97h-32.24v-2h32.24zm268.3-.05h-49.75v-2h49.75z"/><path d="M875.92 606.4l-.45.52-.1-2h2.02zM573.86 610.62l-14.27-4.64 14.26-4.64z"/><path d="M574.86 612l-18.5-6.02 18.5-6zm-12.03-6.02l10.03 3.26v-6.52z"/><use xlink:href="#f" transform="matrix(1,0,0,1,607.1018710109928,595.149971976878) translate(0 14.4)"/><use xlink:href="#g" transform="matrix(1,0,0,1,607.1018710109928,595.149971976878) translate(63.85 14.4)"/><use xlink:href="#h" transform="matrix(1,0,0,1,607.1018710109928,595.149971976878) translate(162.60000000000002 14.4)"/><path d="M619.32 627.84h-44.46v-2h44.46zm241.7 0h-61.95v-2h61.96z"/><path d="M861.8 627.32l-.23.52H861v-2h1.54zM573.86 631.48l-14.27-4.64 14.26-4.63z"/><path d="M574.86 632.85l-18.5-6 18.5-6.02zm-12.03-6l10.03 3.25v-6.52z"/><use xlink:href="#f" transform="matrix(1,0,0,1,619.3198091070411,616.0415186986182) translate(0 14.4)"/><use xlink:href="#i" transform="matrix(1,0,0,1,619.3198091070411,616.0415186986182) translate(63.85 14.4)"/><path d="M597.16 680.14h-39.8v-2h39.8zm240.48 0h-62.88v-2h62.88z"/><path d="M557.38 680.14h-1.02v-2h1.02zM852.9 679.14l-14.26 4.63v-9.27z"/><path d="M856.14 679.14l-18.5 6v-12zm-16.5 3.26l10.03-3.26-10.03-3.26z"/><use xlink:href="#j" transform="matrix(1,0,0,1,597.1642129684437,668.3386984115571) translate(0 14.4)"/><use xlink:href="#k" transform="matrix(1,0,0,1,597.1642129684437,668.3386984115571) translate(83.85000000000001 14.4)"/><path d="M592.9 700.62h-35.54v-2h35.55zm252.3 0h-52.54v-2h52.53z"/><path d="M557.38 700.62h-1.02v-2h1.02zM860.46 699.62l-14.27 4.63v-9.27z"/><path d="M863.7 699.62l-18.5 6V693.6zm-16.5 3.25l10.02-3.25-10.03-3.26z"/><use xlink:href="#j" transform="matrix(1,0,0,1,592.9147275253438,688.8152420822566) translate(0 14.4)"/><use xlink:href="#i" transform="matrix(1,0,0,1,592.9147275253438,688.8152420822566) translate(83.85000000000001 14.4)"/><path d="M1340.5 610.9H998.55v-2h341.95z"/><path d="M998.57 610.9h-.24l-.93-1.2-.72-.8h1.9zM1355.76 609.9l-14.26 4.63v-9.27z"/><path d="M1359 609.9l-18.5 6v-12zm-16.5 3.26l10.03-3.26-10.03-3.26z"/><use xlink:href="#l" transform="matrix(1,0,0,1,1070.9736264566618,584.2980165294255) translate(0 14.4)"/><use xlink:href="#g" transform="matrix(1,0,0,1,1070.9736264566618,584.2980165294255) translate(59.900000000000006 14.4)"/><use xlink:href="#h" transform="matrix(1,0,0,1,1070.9736264566618,584.2980165294255) translate(158.65000000000003 14.4)"/><path d="M1091.85 632.38h-80.48v-2h80.48zm248.65 0h-104.85v-2h104.85z"/><path d="M1011.4 632.38h-.66l-.4-1.05-.4-.95h1.46zM1355.76 631.38L1341.5 636v-9.26z"/><path d="M1359 631.38l-18.5 6v-12.02zm-16.5 3.25l10.03-3.25-10.03-3.26z"/><use xlink:href="#m" transform="matrix(1,0,0,1,1091.8502319514223,620.575442311329) translate(0 14.4)"/><use xlink:href="#h" transform="matrix(1,0,0,1,1091.8502319514223,620.575442311329) translate(87.85000000000001 14.4)"/><path d="M1074.22 675.87h-40.64v-2h40.64zm283.78 0h-58.13v-2H1358z"/><path d="M1359 675.87h-1.03v-2h1.03zM1032.58 679.5l-14.26-4.63 14.26-4.63z"/><path d="M1033.58 680.88l-18.5-6 18.5-6.02zm-12.03-6l10.03 3.25v-6.52z"/><use xlink:href="#n" transform="matrix(1,0,0,1,1074.2151627041555,664.0727518134715) translate(0 14.4)"/><use xlink:href="#o" transform="matrix(1,0,0,1,1074.2151627041555,664.0727518134715) translate(78.85000000000001 14.4)"/><use xlink:href="#h" transform="matrix(1,0,0,1,1074.2151627041555,664.0727518134715) translate(169.70000000000002 14.4)"/><path d="M1115.68 699.76h-90.03v-2h90.03zm242.32 0h-107.52v-2H1358z"/><path d="M1359 699.76h-1.03v-2h1.03zM1024.65 703.4l-14.26-4.64 14.25-4.63z"/><path d="M1025.65 704.77l-18.5-6 18.5-6.02zm-12.03-6l10.03 3.25v-6.52z"/><use xlink:href="#n" transform="matrix(1,0,0,1,1115.6752716125497,687.9620527626209) translate(0 14.4)"/><use xlink:href="#h" transform="matrix(1,0,0,1,1115.6752716125497,687.9620527626209) translate(78.85000000000001 14.4)"/><path d="M1128.35 652.84h-94.26v-2h94.25zm229.65 0h-111.75v-2H1358z"/><path d="M1359 652.84h-1.03v-2h1.03zM1033.1 656.47l-14.27-4.63 14.26-4.64z"/><path d="M1034.1 657.85l-18.5-6 18.5-6.03zm-12.04-6l10.03 3.25v-6.52z"/><use xlink:href="#p" transform="matrix(1,0,0,1,1128.3453554458613,641.0366401839345) translate(0 14.4)"/><path d="M560-240h160v220H560z" stroke="#000" stroke-width="2" fill="#fff"/><path d="M710-230h-15v20h15z" stroke="#000" fill="#fff"/><path d="M700-226.67h-10v3.34h10zm0 10h-10v3.34h10z" stroke="#000" fill="#fff"/><use xlink:href="#q" transform="matrix(1,0,0,1,560.0000000000181,-240) translate(46.529999999999994 103.775)"/><use xlink:href="#r" transform="matrix(1,0,0,1,560.0000000000181,-240) translate(38.57999999999999 125.375)"/><path d="M1104.64-240h160v220h-160z" stroke="#000" stroke-width="2" fill="#fff"/><path d="M1254.64-230h-15v20h15z" stroke="#000" fill="#fff"/><path d="M1244.64-226.67h-10v3.34h10zm0 10h-10v3.34h10z" stroke="#000" fill="#fff"/><use xlink:href="#s" transform="matrix(1,0,0,1,1104.6425922469934,-240) translate(50.58 90.025)"/><use xlink:href="#t" transform="matrix(1,0,0,1,1104.6425922469934,-240) translate(33.12999999999999 111.625)"/><use xlink:href="#h" transform="matrix(1,0,0,1,1104.6425922469934,-240) translate(52.029999999999994 133.225)"/><path d="M555.36 220h160v120h-160z" stroke="#000" stroke-width="2" fill="#fff"/><path d="M705.36 230h-15v20h15z" stroke="#000" fill="#fff"/><path d="M695.36 233.33h-10v3.34h10zm0 10h-10v3.34h10z" stroke="#000" fill="#fff"/><use xlink:href="#u" transform="matrix(1,0,0,1,555.3574077530246,220) translate(24.054999999999993 63.15)"/><use xlink:href="#v" transform="matrix(1,0,0,1,555.3574077530246,220) translate(96.005 63.15)"/><path d="M1100 220h160v120h-160z" stroke="#000" stroke-width="2" fill="#fff"/><path d="M1250 230h-15v20h15z" stroke="#000" fill="#fff"/><path d="M1240 233.33h-10v3.34h10zm0 10h-10v3.34h10z" stroke="#000" fill="#fff"/><use xlink:href="#s" transform="matrix(1,0,0,1,1100.0000000000182,220) translate(50.58 51.9)"/><use xlink:href="#i" transform="matrix(1,0,0,1,1100.0000000000182,220) translate(22.054999999999993 73.5)"/><path d="M882.68 280h11M927.68 280h5" stroke="#000" stroke-width="2" fill="none"/><path d="M907.68 266c7.73 0 14 6.27 14 14s-6.27 14-14 14-14-6.27-14-14 6.27-14 14-14z" stroke="#000" stroke-width="2" fill="#fff"/><path d="M907.68 300c11.04 0 20-8.95 20-20s-8.96-20-20-20" stroke="#000" stroke-width="2" fill="none"/><path d="M882.68 279.2h11v1.6h-11z" fill="none"/><path d="M933.68 280H1098" stroke="#000" stroke-width="2" fill="none"/><path d="M933.7 281h-1.02v-2h1.02zM1099 281h-1.03v-2h1.03z"/><path d="M881.68 280H717.36" stroke="#000" stroke-width="2" fill="none"/><path d="M882.68 281h-1.03v-2h1.03zM717.38 281h-1.02v-2h1.02z"/><path d="M640 125v-11M640 80v-5" stroke="#000" stroke-width="2" fill="none"/><path d="M626 100c0-7.73 6.27-14 14-14s14 6.27 14 14-6.27 14-14 14-14-6.27-14-14z" stroke="#000" stroke-width="2" fill="#fff"/><path d="M660 100c0-11.05-8.95-20-20-20s-20 8.95-20 20" stroke="#000" stroke-width="2" fill="none"/><path d="M639.2 125v-11h1.6v11z" fill="none"/><path d="M640 74v-92" stroke="#000" stroke-width="2" fill="none"/><path d="M639 75v-1.03h2V75zM641-17.97h-2V-19h2z"/><path d="M640 126v92" stroke="#000" stroke-width="2" fill="none"/><path d="M641 126.03h-2V125h2zM641 219h-2v-1.03h2z"/><path d="M640 74V2" stroke="#000" stroke-width="2" fill="none"/><path d="M639 75v-1.03h2V75z"/><path d="M640 2.03V1M640 74V2" stroke="#000" stroke-width="2" fill="none"/><path d="M639 75v-1.03h2V75z"/><path d="M640 2.03V1" stroke="#000" stroke-width="2" fill="none"/><path d="M660 75h140v50H660z" stroke="#000" stroke-opacity="0" stroke-width="2" fill="#fff" fill-opacity="0"/><use xlink:href="#p" transform="matrix(1,0,0,1,665.0000000000181,80) translate(6.049999999999997 24.4)"/><path d="M787.68 200h240v60h-240z" stroke="#000" stroke-opacity="0" stroke-width="2" fill="#fff" fill-opacity="0"/><use xlink:href="#w" transform="matrix(1,0,0,1,792.6787038765214,205) translate(27.599999999999994 30.025)"/><use xlink:href="#x" transform="matrix(1,0,0,1,792.6787038765214,205) translate(150.5 30.025)"/><path d="M1145 375v10m0 40c-11.05 0-20-8.95-20-20s8.95-20 20-20 20 8.95 20 20-8.95 20-20 20z" stroke="#000" stroke-width="2" fill="#fff"/><path d="M1145.8 375v10h-1.6v-10z" fill="none"/><path d="M1145 374v-32" stroke="#000" stroke-width="2" fill="none"/><path d="M1144 375v-1.03h2V375zM1146 342.03h-2V341h2z"/><path d="M1200 375v10m0 40c-11.05 0-20-8.95-20-20s8.95-20 20-20 20 8.95 20 20-8.95 20-20 20z" stroke="#000" stroke-width="2" fill="#fff"/><path d="M1200.8 375v10h-1.6v-10z" fill="none"/><path d="M1200 374v-32" stroke="#000" stroke-width="2" fill="none"/><path d="M1199 375v-1.03h2V375zM1201 342.03h-2V341h2z"/><g fill="none"><path d="M1250 394v-10m-20 30c0-11.05 8.95-20 20-20s20 8.95 20 20" stroke="#000" stroke-width="2"/><path d="M1230 414c0-11.05 8.95-20 20-20s20 8.95 20 20zM1249.2 394v-10h1.6v10z"/></g><path d="M1247 341" stroke="#000" stroke-width="2" fill="none"/><path/><path/><path d="M1250 383v-41" stroke="#000" stroke-width="2" fill="none"/><path d="M1249 384v-1.03h2V384zM1251 342.03h-2V341h2z"/><path d="M1220 362.6h240v74.8h-240z" stroke="#000" stroke-opacity="0" stroke-width="2" fill="#fff" fill-opacity="0"/><use xlink:href="#y" transform="matrix(1,0,0,1,1225,367.6) translate(56.05 24.55625)"/><use xlink:href="#z" transform="matrix(1,0,0,1,1225,367.6) translate(89.05 46.15625)"/><path d="M1080 420h240v60h-240z" stroke="#000" stroke-opacity="0" stroke-width="2" fill="#fff" fill-opacity="0"/><use xlink:href="#A" transform="matrix(1,0,0,1,1085,425) translate(102.025 30.025)"/><path d="M1060 370h60v60h-60z" stroke="#000" stroke-opacity="0" stroke-width="2" fill="#fff" fill-opacity="0"/><use xlink:href="#B" transform="matrix(1,0,0,1,1065,375) translate(9.049999999999999 17.525)"/><use xlink:href="#C" transform="matrix(1,0,0,1,1065,375) translate(5.024999999999999 39.125)"/><g fill="none"><path d="M685 395v-10m-20 30c0-11.05 8.95-20 20-20s20 8.95 20 20" stroke="#000" stroke-width="2"/><path d="M665 415c0-11.05 8.95-20 20-20s20 8.95 20 20zM684.2 395v-10h1.6v10z"/></g><path d="M685 384v-42" stroke="#000" stroke-width="2" fill="none"/><path d="M684 385v-1.03h2V385zM686 342.03h-2V341h2z"/><path d="M594.7 342v21h.3v21" stroke="#000" stroke-width="2" fill="none"/><path d="M595.7 342.03h-2V341h2zM594 385v-1.03h2V385z"/><g fill="none"><path d="M595 395v-10m-20 30c0-11.05 8.95-20 20-20s20 8.95 20 20" stroke="#000" stroke-width="2"/><path d="M575 415c0-11.05 8.95-20 20-20s20 8.95 20 20zM594.2 395v-10h1.6v10z"/></g><path d="M550 420h90v60h-90z" stroke="#000" stroke-opacity="0" stroke-width="2" fill="#fff" fill-opacity="0"/><use xlink:href="#D" transform="matrix(1,0,0,1,555.0000000000362,425.00000000000006) translate(3.0749999999999957 17.525)"/><use xlink:href="#E" transform="matrix(1,0,0,1,555.0000000000362,425.00000000000006) translate(28.025 39.125)"/><path d="M640 401.8h90v96.4h-90z" stroke="#000" stroke-opacity="0" stroke-width="2" fill="#fff" fill-opacity="0"/><use xlink:href="#D" transform="matrix(1,0,0,1,645,406.8) translate(3.0749999999999957 25.5)"/><use xlink:href="#F" transform="matrix(1,0,0,1,645,406.8) translate(-6.400000000000006 47.1)"/><use xlink:href="#C" transform="matrix(1,0,0,1,645,406.8) translate(20.025 68.7)"/><path d="M460-40h10m-30-20c11.05 0 20 8.95 20 20s-8.95 20-20 20" stroke="#000" stroke-width="2" fill="none"/><path d="M440-60c11.05 0 20 8.95 20 20s-8.95 20-20 20zM460-40.8h10v1.6h-10z" fill="none"/><path d="M460-100h10m-30-20c11.05 0 20 8.95 20 20s-8.95 20-20 20" stroke="#000" stroke-width="2" fill="none"/><path d="M440-120c11.05 0 20 8.95 20 20s-8.95 20-20 20zM460-100.8h10v1.6h-10z" fill="none"/><path d="M470-160h-10m-40 0c0-11.05 8.95-20 20-20s20 8.95 20 20-8.95 20-20 20-20-8.95-20-20z" stroke="#000" stroke-width="2" fill="#fff"/><path d="M470-159.2h-10v-1.6h10z" fill="none"/><path d="M470-220h-10m-40 0c0-11.05 8.95-20 20-20s20 8.95 20 20-8.95 20-20 20-20-8.95-20-20z" stroke="#000" stroke-width="2" fill="#fff"/><path d="M470-219.2h-10v-1.6h10z" fill="none"/><path d="M471-220h87" stroke="#000" stroke-width="2" fill="none"/><path d="M471.03-219H470v-2h1.03zM559-219h-1.03v-2H559z"/><path d="M471-160h87" stroke="#000" stroke-width="2" fill="none"/><path d="M471.03-159H470v-2h1.03zM559-159h-1.03v-2H559z"/><path d="M471-100h87" stroke="#000" stroke-width="2" fill="none"/><path d="M471.03-99H470v-2h1.03zM559-99h-1.03v-2H559z"/><path d="M471-40h87" stroke="#000" stroke-width="2" fill="none"/><path d="M471.03-39H470v-2h1.03zM559-39h-1.03v-2H559z"/><path d="M140-70h260v60H140z" stroke="#000" stroke-opacity="0" stroke-width="2" fill="#fff" fill-opacity="0"/><use xlink:href="#n" transform="matrix(1,0,0,1,145,-65) translate(2.3999999999999773 30.025)"/><use xlink:href="#G" transform="matrix(1,0,0,1,145,-65) translate(81.24999999999999 30.025)"/><use xlink:href="#H" transform="matrix(1,0,0,1,145,-65) translate(207.05 30.025)"/><path d="M140-130h260v60H140z" stroke="#000" stroke-opacity="0" stroke-width="2" fill="#fff" fill-opacity="0"/><g><use xlink:href="#n" transform="matrix(1,0,0,1,145,-125) translate(26.399999999999977 30.025)"/><use xlink:href="#I" transform="matrix(1,0,0,1,145,-125) translate(105.24999999999999 30.025)"/><use xlink:href="#J" transform="matrix(1,0,0,1,145,-125) translate(191.1 30.025)"/></g><path d="M140-190h260v60H140z" stroke="#000" stroke-opacity="0" stroke-width="2" fill="#fff" fill-opacity="0"/><g><use xlink:href="#m" transform="matrix(1,0,0,1,145,-185) translate(125.24999999999999 30.025)"/><use xlink:href="#K" transform="matrix(1,0,0,1,145,-185) translate(213.1 30.025)"/></g><path d="M140-250h260v60H140z" stroke="#000" stroke-opacity="0" stroke-width="2" fill="#fff" fill-opacity="0"/><g><use xlink:href="#l" transform="matrix(1,0,0,1,145,-245) translate(147.14999999999998 30.025)"/><use xlink:href="#H" transform="matrix(1,0,0,1,145,-245) translate(207.04999999999998 30.025)"/></g><path d="M900-130h11M945-130h5" stroke="#000" stroke-width="2" fill="none"/><path d="M925-144c7.73 0 14 6.27 14 14s-6.27 14-14 14-14-6.27-14-14 6.27-14 14-14z" stroke="#000" stroke-width="2" fill="#fff"/><path d="M925-110c11.05 0 20-8.95 20-20s-8.95-20-20-20" stroke="#000" stroke-width="2" fill="none"/><path d="M900-130.8h11v1.6h-11z" fill="none"/><path d="M951-130h151.64" stroke="#000" stroke-width="2" fill="none"/><path d="M951.03-129H950v-2h1.03zM1103.64-129h-1.02v-2h1.02z"/><path d="M899-130H722" stroke="#000" stroke-width="2" fill="none"/><path d="M900-129h-1.03v-2H900zM722.03-129H721v-2h1.03z"/><path d="M810-115h240v60H810z" stroke="#000" stroke-opacity="0" stroke-width="2" fill="#fff" fill-opacity="0"/><g><use xlink:href="#L" transform="matrix(1,0,0,1,815,-109.99999999988358) translate(38.19999999999999 30.025)"/><use xlink:href="#x" transform="matrix(1,0,0,1,815,-109.99999999988358) translate(139.9 30.025)"/></g><g fill="none"><path d="M1340-180h-10m30 20c-11.05 0-20-8.95-20-20s8.95-20 20-20" stroke="#000" stroke-width="2"/><path d="M1360-160c-11.05 0-20-8.95-20-20s8.95-20 20-20zM1340-179.2h-10v-1.6h10z"/></g><path d="M1330-85h10m40 0c0 11.05-8.95 20-20 20s-20-8.95-20-20 8.95-20 20-20 20 8.95 20 20z" stroke="#000" stroke-width="2" fill="#fff"/><path d="M1330-85.8h10v1.6h-10z" fill="none"/><path d="M1329-180h-62.36" stroke="#000" stroke-width="2" fill="none"/><path d="M1330-179h-1.03v-2h1.03zM1266.67-179h-1.03v-2h1.03z"/><path d="M1329-85h-62.36" stroke="#000" stroke-width="2" fill="none"/><path d="M1330-84h-1.03v-2h1.03zM1266.67-84h-1.03v-2h1.03z"/><path d="M1380-210h240v60h-240z" stroke="#000" stroke-opacity="0" stroke-width="2" fill="#fff" fill-opacity="0"/><g><use xlink:href="#L" transform="matrix(1,0,0,1,1385,-205) translate(0 30.025)"/><use xlink:href="#x" transform="matrix(1,0,0,1,1385,-205) translate(101.70000000000002 30.025)"/></g><path d="M1400-122.4h240v74.8h-240z" stroke="#000" stroke-opacity="0" stroke-width="2" fill="#fff" fill-opacity="0"/><g><use xlink:href="#M" transform="matrix(1,0,0,1,1405,-117.39999999988359) translate(0 36.74375)"/><use xlink:href="#x" transform="matrix(1,0,0,1,1405,-117.39999999988359) translate(36.900000000000006 36.74375)"/></g><defs><path d="M160-131c35 5 61 23 61 61C221 17 115-2 30 0v-248c76 3 177-17 177 60 0 33-19 50-47 57zm-97-11c50-1 110 9 110-42 0-47-63-36-110-37v79zm0 115c55-2 124 14 124-45 0-56-70-42-124-44v89" id="N"/><path d="M141-36C126-15 110 5 73 4 37 3 15-17 15-53c-1-64 63-63 125-63 3-35-9-54-41-54-24 1-41 7-42 31l-33-3c5-37 33-52 76-52 45 0 72 20 72 64v82c-1 20 7 32 28 27v20c-31 9-61-2-59-35zM48-53c0 20 12 33 32 33 41-3 63-29 60-74-43 2-92-5-92 41" id="O"/><path d="M117-194c89-4 53 116 60 194h-32v-121c0-31-8-49-39-48C34-167 62-67 57 0H25l-1-190h30c1 10-1 24 2 32 11-22 29-35 61-36" id="P"/><path d="M96-169c-40 0-48 33-48 73s9 75 48 75c24 0 41-14 43-38l32 2c-6 37-31 61-74 61-59 0-76-41-82-99-10-93 101-131 147-64 4 7 5 14 7 22l-32 3c-4-21-16-35-41-35" id="Q"/><path d="M100-194c62-1 85 37 85 99 1 63-27 99-86 99S16-35 15-95c0-66 28-99 85-99zM99-20c44 1 53-31 53-75 0-43-8-75-51-75s-53 32-53 75 10 74 51 75" id="R"/><path d="M210-169c-67 3-38 105-44 169h-31v-121c0-29-5-50-35-48C34-165 62-65 56 0H25l-1-190h30c1 10-1 24 2 32 10-44 99-50 107 0 11-21 27-35 58-36 85-2 47 119 55 194h-31v-121c0-29-5-49-35-48" id="S"/><path d="M59-47c-2 24 18 29 38 22v24C64 9 27 4 27-40v-127H5v-23h24l9-43h21v43h35v23H59v120" id="T"/><g id="a"><use transform="matrix(0.05,0,0,0.05,0,0)" xlink:href="#N"/><use transform="matrix(0.05,0,0,0.05,12,0)" xlink:href="#O"/><use transform="matrix(0.05,0,0,0.05,22,0)" xlink:href="#P"/><use transform="matrix(0.05,0,0,0.05,32,0)" xlink:href="#Q"/><use transform="matrix(0.05,0,0,0.05,41,0)" xlink:href="#R"/><use transform="matrix(0.05,0,0,0.05,51,0)" xlink:href="#S"/><use transform="matrix(0.05,0,0,0.05,65.95,0)" xlink:href="#O"/><use transform="matrix(0.05,0,0,0.05,75.95,0)" xlink:href="#T"/></g><path d="M205 0l-28-72H64L36 0H1l101-248h38L239 0h-34zm-38-99l-47-123c-12 45-31 82-46 123h93" id="U"/><path d="M127-220V0H93v-220H8v-28h204v28h-85" id="V"/><path d="M240 0l2-218c-23 76-54 145-80 218h-23L58-218 59 0H30v-248h44l77 211c21-75 51-140 76-211h43V0h-30" id="W"/><g id="b"><use transform="matrix(0.05,0,0,0.05,0,0)" xlink:href="#U"/><use transform="matrix(0.05,0,0,0.05,10.65,0)" xlink:href="#V"/><use transform="matrix(0.05,0,0,0.05,21.6,0)" xlink:href="#W"/></g><path d="M232-93c-1 65-40 97-104 97C67 4 28-28 28-90v-158h33c8 89-33 224 67 224 102 0 64-133 71-224h33v155" id="X"/><path d="M135-143c-3-34-86-38-87 0 15 53 115 12 119 90S17 21 10-45l28-5c4 36 97 45 98 0-10-56-113-15-118-90-4-57 82-63 122-42 12 7 21 19 24 35" id="Y"/><path d="M100-194c63 0 86 42 84 106H49c0 40 14 67 53 68 26 1 43-12 49-29l28 8c-11 28-37 45-77 45C44 4 14-33 15-96c1-61 26-98 85-98zm52 81c6-60-76-77-97-28-3 7-6 17-6 28h103" id="Z"/><path d="M114-163C36-179 61-72 57 0H25l-1-190h30c1 12-1 29 2 39 6-27 23-49 58-41v29" id="aa"/><g id="c"><use transform="matrix(0.05,0,0,0.05,0,0)" xlink:href="#X"/><use transform="matrix(0.05,0,0,0.05,12.950000000000001,0)" xlink:href="#Y"/><use transform="matrix(0.05,0,0,0.05,21.950000000000003,0)" xlink:href="#Z"/><use transform="matrix(0.05,0,0,0.05,31.950000000000003,0)" xlink:href="#aa"/></g><path d="M33 0v-248h34V0H33" id="ab"/><path d="M101-234c-31-9-42 10-38 44h38v23H63V0H32v-167H5v-23h27c-7-52 17-82 69-68v24" id="ac"/><path d="M24-231v-30h32v30H24zM24 0v-190h32V0H24" id="ad"/><g id="d"><use transform="matrix(0.05,0,0,0.05,0,0)" xlink:href="#ab"/><use transform="matrix(0.05,0,0,0.05,5,0)" xlink:href="#P"/><use transform="matrix(0.05,0,0,0.05,15,0)" xlink:href="#ac"/><use transform="matrix(0.05,0,0,0.05,20,0)" xlink:href="#R"/><use transform="matrix(0.05,0,0,0.05,30,0)" xlink:href="#aa"/><use transform="matrix(0.05,0,0,0.05,35.95,0)" xlink:href="#S"/><use transform="matrix(0.05,0,0,0.05,50.900000000000006,0)" xlink:href="#O"/><use transform="matrix(0.05,0,0,0.05,60.900000000000006,0)" xlink:href="#T"/><use transform="matrix(0.05,0,0,0.05,65.9,0)" xlink:href="#ad"/><use transform="matrix(0.05,0,0,0.05,69.85000000000001,0)" xlink:href="#R"/><use transform="matrix(0.05,0,0,0.05,79.85000000000001,0)" xlink:href="#P"/></g><path d="M179-190L93 31C79 59 56 82 12 73V49c39 6 53-20 64-50L1-190h34L92-34l54-156h33" id="ae"/><g id="e"><use transform="matrix(0.05,0,0,0.05,0,0)" xlink:href="#Y"/><use transform="matrix(0.05,0,0,0.05,9,0)" xlink:href="#ae"/><use transform="matrix(0.05,0,0,0.05,18,0)" xlink:href="#Y"/><use transform="matrix(0.05,0,0,0.05,27,0)" xlink:href="#T"/><use transform="matrix(0.05,0,0,0.05,32,0)" xlink:href="#Z"/><use transform="matrix(0.05,0,0,0.05,42,0)" xlink:href="#S"/></g><path d="M137 0h-34L2-248h35l83 218 83-218h36" id="af"/><g id="f"><use transform="matrix(0.05,0,0,0.05,0,0)" xlink:href="#af"/><use transform="matrix(0.05,0,0,0.05,11,0)" xlink:href="#Z"/><use transform="matrix(0.05,0,0,0.05,21,0)" xlink:href="#aa"/><use transform="matrix(0.05,0,0,0.05,26.950000000000003,0)" xlink:href="#ad"/><use transform="matrix(0.05,0,0,0.05,30.899999999999995,0)" xlink:href="#ac"/><use transform="matrix(0.05,0,0,0.05,35.9,0)" xlink:href="#ad"/><use transform="matrix(0.05,0,0,0.05,39.85,0)" xlink:href="#Q"/><use transform="matrix(0.05,0,0,0.05,48.85,0)" xlink:href="#O"/></g><path d="M85-194c31 0 48 13 60 33l-1-100h32l1 261h-30c-2-10 0-23-3-31C134-8 116 4 85 4 32 4 16-35 15-94c0-66 23-100 70-100zm9 24c-40 0-46 34-46 75 0 40 6 74 45 74 42 0 51-32 51-76 0-42-9-74-50-73" id="ag"/><path d="M115-194c55 1 70 41 70 98S169 2 115 4C84 4 66-9 55-30l1 105H24l-1-265h31l2 30c10-21 28-34 59-34zm-8 174c40 0 45-34 45-75s-6-73-45-74c-42 0-51 32-51 76 0 43 10 73 51 73" id="ah"/><path d="M115-194c53 0 69 39 70 98 0 66-23 100-70 100C84 3 66-7 56-30L54 0H23l1-261h32v101c10-23 28-34 59-34zm-8 174c40 0 45-34 45-75 0-40-5-75-45-74-42 0-51 32-51 76 0 43 10 73 51 73" id="ai"/><path d="M24 0v-261h32V0H24" id="aj"/><path d="M141-36C126-15 110 5 73 4 37 3 15-17 15-53c-1-64 63-63 125-63 3-35-9-54-41-54-24 1-41 7-42 31l-33-3c5-37 33-52 76-52 45 0 72 20 72 64v82c-1 20 7 32 28 27v20c-31 9-61-2-59-35zM48-53c0 20 12 33 32 33 41-3 63-29 60-74-43 2-92-5-92 41zm62-158l-58-49v-5h36c12 19 30 32 38 54h-16" id="ak"/><g id="g"><use transform="matrix(0.05,0,0,0.05,0,0)" xlink:href="#ag"/><use transform="matrix(0.05,0,0,0.05,10,0)" xlink:href="#ad"/><use transform="matrix(0.05,0,0,0.05,13.949999999999998,0)" xlink:href="#Y"/><use transform="matrix(0.05,0,0,0.05,22.95,0)" xlink:href="#ah"/><use transform="matrix(0.05,0,0,0.05,32.95,0)" xlink:href="#R"/><use transform="matrix(0.05,0,0,0.05,42.95,0)" xlink:href="#P"/><use transform="matrix(0.05,0,0,0.05,52.95,0)" xlink:href="#ad"/><use transform="matrix(0.05,0,0,0.05,56.900000000000006,0)" xlink:href="#ai"/><use transform="matrix(0.05,0,0,0.05,66.9,0)" xlink:href="#ad"/><use transform="matrix(0.05,0,0,0.05,70.85000000000001,0)" xlink:href="#aj"/><use transform="matrix(0.05,0,0,0.05,74.80000000000001,0)" xlink:href="#ad"/><use transform="matrix(0.05,0,0,0.05,78.75000000000001,0)" xlink:href="#T"/><use transform="matrix(0.05,0,0,0.05,83.75000000000001,0)" xlink:href="#ak"/></g><g id="h"><use transform="matrix(0.05,0,0,0.05,0,0)" xlink:href="#ag"/><use transform="matrix(0.05,0,0,0.05,10,0)" xlink:href="#Z"/><use transform="matrix(0.05,0,0,0.05,20,0)" xlink:href="#P"/><use transform="matrix(0.05,0,0,0.05,30,0)" xlink:href="#O"/><use transform="matrix(0.05,0,0,0.05,40,0)" xlink:href="#aa"/><use transform="matrix(0.05,0,0,0.05,45.95,0)" xlink:href="#R"/></g><path d="M84 4C-5 8 30-112 23-190h32v120c0 31 7 50 39 49 72-2 45-101 50-169h31l1 190h-30c-1-10 1-25-2-33-11 22-28 36-60 37" id="al"/><path d="M9 0v-24l116-142H16v-24h144v24L44-24h123V0H9" id="am"/><g id="i"><use transform="matrix(0.05,0,0,0.05,0,0)" xlink:href="#O"/><use transform="matrix(0.05,0,0,0.05,10,0)" xlink:href="#al"/><use transform="matrix(0.05,0,0,0.05,20,0)" xlink:href="#T"/><use transform="matrix(0.05,0,0,0.05,25,0)" xlink:href="#Z"/><use transform="matrix(0.05,0,0,0.05,35,0)" xlink:href="#P"/><use transform="matrix(0.05,0,0,0.05,45,0)" xlink:href="#T"/><use transform="matrix(0.05,0,0,0.05,50,0)" xlink:href="#ad"/><use transform="matrix(0.05,0,0,0.05,53.95,0)" xlink:href="#Q"/><use transform="matrix(0.05,0,0,0.05,62.95,0)" xlink:href="#O"/><use transform="matrix(0.05,0,0,0.05,72.95,0)" xlink:href="#am"/><use transform="matrix(0.05,0,0,0.05,81.95,0)" xlink:href="#ad"/><use transform="matrix(0.05,0,0,0.05,85.9,0)" xlink:href="#R"/><use transform="matrix(0.05,0,0,0.05,95.9,0)" xlink:href="#P"/><use transform="matrix(0.05,0,0,0.05,105.9,0)" xlink:href="#Z"/></g><path d="M212-179c-10-28-35-45-73-45-59 0-87 40-87 99 0 60 29 101 89 101 43 0 62-24 78-52l27 14C228-24 195 4 139 4 59 4 22-46 18-125c-6-104 99-153 187-111 19 9 31 26 39 46" id="an"/><g id="j"><use transform="matrix(0.05,0,0,0.05,0,0)" xlink:href="#an"/><use transform="matrix(0.05,0,0,0.05,12.950000000000001,0)" xlink:href="#R"/><use transform="matrix(0.05,0,0,0.05,22.950000000000003,0)" xlink:href="#P"/><use transform="matrix(0.05,0,0,0.05,32.95,0)" xlink:href="#ac"/><use transform="matrix(0.05,0,0,0.05,37.95,0)" xlink:href="#Z"/><use transform="matrix(0.05,0,0,0.05,47.95,0)" xlink:href="#aa"/><use transform="matrix(0.05,0,0,0.05,53.900000000000006,0)" xlink:href="#S"/><use transform="matrix(0.05,0,0,0.05,68.85000000000001,0)" xlink:href="#O"/></g><g id="k"><use transform="matrix(0.05,0,0,0.05,0,0)" xlink:href="#ag"/><use transform="matrix(0.05,0,0,0.05,10,0)" xlink:href="#ad"/><use transform="matrix(0.05,0,0,0.05,13.949999999999998,0)" xlink:href="#Y"/><use transform="matrix(0.05,0,0,0.05,22.95,0)" xlink:href="#ah"/><use transform="matrix(0.05,0,0,0.05,32.95,0)" xlink:href="#R"/><use transform="matrix(0.05,0,0,0.05,42.95,0)" xlink:href="#P"/><use transform="matrix(0.05,0,0,0.05,52.95,0)" xlink:href="#ad"/><use transform="matrix(0.05,0,0,0.05,56.900000000000006,0)" xlink:href="#ai"/><use transform="matrix(0.05,0,0,0.05,66.9,0)" xlink:href="#ad"/><use transform="matrix(0.05,0,0,0.05,70.85000000000001,0)" xlink:href="#aj"/><use transform="matrix(0.05,0,0,0.05,74.80000000000001,0)" xlink:href="#ad"/><use transform="matrix(0.05,0,0,0.05,78.75000000000001,0)" xlink:href="#T"/><use transform="matrix(0.05,0,0,0.05,83.75000000000001,0)" xlink:href="#ak"/></g><g id="l"><use transform="matrix(0.05,0,0,0.05,0,0)" xlink:href="#W"/><use transform="matrix(0.05,0,0,0.05,14.950000000000001,0)" xlink:href="#R"/><use transform="matrix(0.05,0,0,0.05,24.950000000000003,0)" xlink:href="#Y"/><use transform="matrix(0.05,0,0,0.05,33.95,0)" xlink:href="#T"/><use transform="matrix(0.05,0,0,0.05,38.95,0)" xlink:href="#aa"/><use transform="matrix(0.05,0,0,0.05,44.900000000000006,0)" xlink:href="#O"/></g><path d="M30 0v-248h187v28H63v79h144v27H63v87h162V0H30" id="ao"/><g id="m"><use transform="matrix(0.05,0,0,0.05,0,0)" xlink:href="#ao"/><use transform="matrix(0.05,0,0,0.05,12,0)" xlink:href="#S"/><use transform="matrix(0.05,0,0,0.05,26.950000000000003,0)" xlink:href="#ad"/><use transform="matrix(0.05,0,0,0.05,30.900000000000002,0)" xlink:href="#Y"/><use transform="matrix(0.05,0,0,0.05,39.900000000000006,0)" xlink:href="#Y"/><use transform="matrix(0.05,0,0,0.05,48.900000000000006,0)" xlink:href="#ad"/><use transform="matrix(0.05,0,0,0.05,52.85,0)" xlink:href="#R"/><use transform="matrix(0.05,0,0,0.05,62.85,0)" xlink:href="#P"/><use transform="matrix(0.05,0,0,0.05,72.85000000000001,0)" xlink:href="#Z"/></g><path d="M233-177c-1 41-23 64-60 70L243 0h-38l-65-103H63V0H30v-248c88 3 205-21 203 71zM63-129c60-2 137 13 137-47 0-61-80-42-137-45v92" id="ap"/><path d="M106-169C34-169 62-67 57 0H25v-261h32l-1 103c12-21 28-36 61-36 89 0 53 116 60 194h-32v-121c2-32-8-49-39-48" id="aq"/><g id="n"><use transform="matrix(0.05,0,0,0.05,0,0)" xlink:href="#ap"/><use transform="matrix(0.05,0,0,0.05,12.950000000000001,0)" xlink:href="#ad"/><use transform="matrix(0.05,0,0,0.05,16.900000000000002,0)" xlink:href="#Q"/><use transform="matrix(0.05,0,0,0.05,25.900000000000002,0)" xlink:href="#aq"/><use transform="matrix(0.05,0,0,0.05,35.900000000000006,0)" xlink:href="#ad"/><use transform="matrix(0.05,0,0,0.05,39.85000000000001,0)" xlink:href="#Z"/><use transform="matrix(0.05,0,0,0.05,49.85000000000001,0)" xlink:href="#Y"/><use transform="matrix(0.05,0,0,0.05,58.85,0)" xlink:href="#T"/><use transform="matrix(0.05,0,0,0.05,63.85,0)" xlink:href="#O"/></g><g id="o"><use transform="matrix(0.05,0,0,0.05,0,0)" xlink:href="#ag"/><use transform="matrix(0.05,0,0,0.05,10,0)" xlink:href="#ad"/><use transform="matrix(0.05,0,0,0.05,13.949999999999998,0)" xlink:href="#Y"/><use transform="matrix(0.05,0,0,0.05,22.95,0)" xlink:href="#ah"/><use transform="matrix(0.05,0,0,0.05,32.95,0)" xlink:href="#R"/><use transform="matrix(0.05,0,0,0.05,42.95,0)" xlink:href="#P"/><use transform="matrix(0.05,0,0,0.05,52.95,0)" xlink:href="#ad"/><use transform="matrix(0.05,0,0,0.05,56.900000000000006,0)" xlink:href="#ai"/><use transform="matrix(0.05,0,0,0.05,66.9,0)" xlink:href="#ad"/><use transform="matrix(0.05,0,0,0.05,70.85000000000001,0)" xlink:href="#T"/><use transform="matrix(0.05,0,0,0.05,75.85000000000001,0)" xlink:href="#ak"/></g><g id="p"><use transform="matrix(0.05,0,0,0.05,0,0)" xlink:href="#U"/><use transform="matrix(0.05,0,0,0.05,12,0)" xlink:href="#al"/><use transform="matrix(0.05,0,0,0.05,22,0)" xlink:href="#T"/><use transform="matrix(0.05,0,0,0.05,27,0)" xlink:href="#Z"/><use transform="matrix(0.05,0,0,0.05,37,0)" xlink:href="#P"/><use transform="matrix(0.05,0,0,0.05,47,0)" xlink:href="#T"/><use transform="matrix(0.05,0,0,0.05,52,0)" xlink:href="#ad"/><use transform="matrix(0.05,0,0,0.05,55.95,0)" xlink:href="#Q"/><use transform="matrix(0.05,0,0,0.05,64.95,0)" xlink:href="#O"/><use transform="matrix(0.05,0,0,0.05,74.95,0)" xlink:href="#am"/><use transform="matrix(0.05,0,0,0.05,83.95,0)" xlink:href="#ad"/><use transform="matrix(0.05,0,0,0.05,87.9,0)" xlink:href="#R"/><use transform="matrix(0.05,0,0,0.05,97.9,0)" xlink:href="#P"/><use transform="matrix(0.05,0,0,0.05,107.9,0)" xlink:href="#Z"/></g><path d="M143 4C61 4 22-44 18-125c-5-107 100-154 193-111 17 8 29 25 37 43l-32 9c-13-25-37-40-76-40-61 0-88 39-88 99 0 61 29 100 91 101 35 0 62-11 79-27v-45h-74v-28h105v86C228-13 192 4 143 4" id="ar"/><g id="q"><use transform="matrix(0.05,0,0,0.05,0,0)" xlink:href="#ar"/><use transform="matrix(0.05,0,0,0.05,14,0)" xlink:href="#Z"/><use transform="matrix(0.05,0,0,0.05,24,0)" xlink:href="#Y"/><use transform="matrix(0.05,0,0,0.05,33,0)" xlink:href="#ad"/><use transform="matrix(0.05,0,0,0.05,36.95,0)" xlink:href="#R"/><use transform="matrix(0.05,0,0,0.05,46.95,0)" xlink:href="#P"/><use transform="matrix(0.05,0,0,0.05,56.95,0)" xlink:href="#Z"/></g><g id="r"><use transform="matrix(0.05,0,0,0.05,0,0)" xlink:href="#R"/><use transform="matrix(0.05,0,0,0.05,10,0)" xlink:href="#ah"/><use transform="matrix(0.05,0,0,0.05,20,0)" xlink:href="#Z"/><use transform="matrix(0.05,0,0,0.05,30,0)" xlink:href="#aa"/><use transform="matrix(0.05,0,0,0.05,35.95,0)" xlink:href="#O"/><use transform="matrix(0.05,0,0,0.05,45.95,0)" xlink:href="#am"/><use transform="matrix(0.05,0,0,0.05,54.95,0)" xlink:href="#ad"/><use transform="matrix(0.05,0,0,0.05,58.900000000000006,0)" xlink:href="#R"/><use transform="matrix(0.05,0,0,0.05,68.9,0)" xlink:href="#P"/><use transform="matrix(0.05,0,0,0.05,78.9,0)" xlink:href="#ad"/></g><g id="s"><use transform="matrix(0.05,0,0,0.05,0,0)" xlink:href="#af"/><use transform="matrix(0.05,0,0,0.05,11,0)" xlink:href="#Z"/><use transform="matrix(0.05,0,0,0.05,21,0)" xlink:href="#aa"/><use transform="matrix(0.05,0,0,0.05,26.950000000000003,0)" xlink:href="#ad"/><use transform="matrix(0.05,0,0,0.05,30.899999999999995,0)" xlink:href="#ac"/><use transform="matrix(0.05,0,0,0.05,35.9,0)" xlink:href="#ad"/><use transform="matrix(0.05,0,0,0.05,39.85,0)" xlink:href="#Q"/><use transform="matrix(0.05,0,0,0.05,48.85,0)" xlink:href="#O"/></g><g id="t"><use transform="matrix(0.05,0,0,0.05,0,0)" xlink:href="#ag"/><use transform="matrix(0.05,0,0,0.05,10,0)" xlink:href="#ad"/><use transform="matrix(0.05,0,0,0.05,13.949999999999998,0)" xlink:href="#Y"/><use transform="matrix(0.05,0,0,0.05,22.95,0)" xlink:href="#ah"/><use transform="matrix(0.05,0,0,0.05,32.95,0)" xlink:href="#R"/><use transform="matrix(0.05,0,0,0.05,42.95,0)" xlink:href="#P"/><use transform="matrix(0.05,0,0,0.05,52.95,0)" xlink:href="#ad"/><use transform="matrix(0.05,0,0,0.05,56.900000000000006,0)" xlink:href="#ai"/><use transform="matrix(0.05,0,0,0.05,66.9,0)" xlink:href="#ad"/><use transform="matrix(0.05,0,0,0.05,70.85000000000001,0)" xlink:href="#aj"/><use transform="matrix(0.05,0,0,0.05,74.80000000000001,0)" xlink:href="#ad"/><use transform="matrix(0.05,0,0,0.05,78.75000000000001,0)" xlink:href="#T"/><use transform="matrix(0.05,0,0,0.05,83.75000000000001,0)" xlink:href="#ak"/></g><g id="u"><use transform="matrix(0.05,0,0,0.05,0,0)" xlink:href="#ar"/><use transform="matrix(0.05,0,0,0.05,14,0)" xlink:href="#Z"/><use transform="matrix(0.05,0,0,0.05,24,0)" xlink:href="#Y"/><use transform="matrix(0.05,0,0,0.05,33,0)" xlink:href="#ad"/><use transform="matrix(0.05,0,0,0.05,36.95,0)" xlink:href="#R"/><use transform="matrix(0.05,0,0,0.05,46.95,0)" xlink:href="#P"/><use transform="matrix(0.05,0,0,0.05,56.95,0)" xlink:href="#Z"/></g><g id="v"><use transform="matrix(0.05,0,0,0.05,0,0)" xlink:href="#Q"/><use transform="matrix(0.05,0,0,0.05,9,0)" xlink:href="#O"/><use transform="matrix(0.05,0,0,0.05,19,0)" xlink:href="#aa"/><use transform="matrix(0.05,0,0,0.05,24.95,0)" xlink:href="#T"/><use transform="matrix(0.05,0,0,0.05,29.950000000000003,0)" xlink:href="#O"/></g><g id="w"><use transform="matrix(0.05,0,0,0.05,0,0)" xlink:href="#U"/><use transform="matrix(0.05,0,0,0.05,12,0)" xlink:href="#al"/><use transform="matrix(0.05,0,0,0.05,22,0)" xlink:href="#T"/><use transform="matrix(0.05,0,0,0.05,27,0)" xlink:href="#Z"/><use transform="matrix(0.05,0,0,0.05,37,0)" xlink:href="#P"/><use transform="matrix(0.05,0,0,0.05,47,0)" xlink:href="#T"/><use transform="matrix(0.05,0,0,0.05,52,0)" xlink:href="#ad"/><use transform="matrix(0.05,0,0,0.05,55.95,0)" xlink:href="#Q"/><use transform="matrix(0.05,0,0,0.05,64.95,0)" xlink:href="#O"/><use transform="matrix(0.05,0,0,0.05,74.95,0)" xlink:href="#am"/><use transform="matrix(0.05,0,0,0.05,83.95,0)" xlink:href="#ad"/><use transform="matrix(0.05,0,0,0.05,87.9,0)" xlink:href="#R"/><use transform="matrix(0.05,0,0,0.05,97.9,0)" xlink:href="#P"/><use transform="matrix(0.05,0,0,0.05,107.9,0)" xlink:href="#Z"/></g><g id="x"><use transform="matrix(0.05,0,0,0.05,0,0)" xlink:href="#Q"/><use transform="matrix(0.05,0,0,0.05,9,0)" xlink:href="#aj"/><use transform="matrix(0.05,0,0,0.05,12.949999999999998,0)" xlink:href="#ad"/><use transform="matrix(0.05,0,0,0.05,16.9,0)" xlink:href="#Z"/><use transform="matrix(0.05,0,0,0.05,26.899999999999995,0)" xlink:href="#P"/><use transform="matrix(0.05,0,0,0.05,36.9,0)" xlink:href="#T"/><use transform="matrix(0.05,0,0,0.05,41.9,0)" xlink:href="#Z"/></g><g id="y"><use transform="matrix(0.05,0,0,0.05,0,0)" xlink:href="#U"/><use transform="matrix(0.05,0,0,0.05,12,0)" xlink:href="#al"/><use transform="matrix(0.05,0,0,0.05,22,0)" xlink:href="#T"/><use transform="matrix(0.05,0,0,0.05,27,0)" xlink:href="#Z"/><use transform="matrix(0.05,0,0,0.05,37,0)" xlink:href="#P"/><use transform="matrix(0.05,0,0,0.05,47,0)" xlink:href="#T"/><use transform="matrix(0.05,0,0,0.05,52,0)" xlink:href="#ad"/><use transform="matrix(0.05,0,0,0.05,55.95,0)" xlink:href="#Q"/><use transform="matrix(0.05,0,0,0.05,64.95,0)" xlink:href="#O"/><use transform="matrix(0.05,0,0,0.05,74.95,0)" xlink:href="#am"/><use transform="matrix(0.05,0,0,0.05,83.95,0)" xlink:href="#ad"/><use transform="matrix(0.05,0,0,0.05,87.9,0)" xlink:href="#R"/><use transform="matrix(0.05,0,0,0.05,97.9,0)" xlink:href="#P"/><use transform="matrix(0.05,0,0,0.05,107.9,0)" xlink:href="#Z"/></g><g id="z"><use transform="matrix(0.05,0,0,0.05,0,0)" xlink:href="#Q"/><use transform="matrix(0.05,0,0,0.05,9,0)" xlink:href="#aj"/><use transform="matrix(0.05,0,0,0.05,12.949999999999998,0)" xlink:href="#ad"/><use transform="matrix(0.05,0,0,0.05,16.9,0)" xlink:href="#Z"/><use transform="matrix(0.05,0,0,0.05,26.899999999999995,0)" xlink:href="#P"/><use transform="matrix(0.05,0,0,0.05,36.9,0)" xlink:href="#T"/><use transform="matrix(0.05,0,0,0.05,41.9,0)" xlink:href="#Z"/></g><path d="M30-248c87 1 191-15 191 75 0 78-77 80-158 76V0H30v-248zm33 125c57 0 124 11 124-50 0-59-68-47-124-48v98" id="as"/><g id="A"><use transform="matrix(0.05,0,0,0.05,0,0)" xlink:href="#as"/><use transform="matrix(0.05,0,0,0.05,12,0)" xlink:href="#ad"/><use transform="matrix(0.05,0,0,0.05,15.949999999999998,0)" xlink:href="#P"/></g><path d="M30-248c118-7 216 8 213 122C240-48 200 0 122 0H30v-248zM63-27c89 8 146-16 146-99s-60-101-146-95v194" id="at"/><g id="B"><use transform="matrix(0.05,0,0,0.05,0,0)" xlink:href="#at"/><use transform="matrix(0.05,0,0,0.05,12.950000000000001,0)" xlink:href="#O"/><use transform="matrix(0.05,0,0,0.05,22.950000000000003,0)" xlink:href="#T"/><use transform="matrix(0.05,0,0,0.05,27.950000000000003,0)" xlink:href="#ad"/></g><g id="C"><use transform="matrix(0.05,0,0,0.05,0,0)" xlink:href="#Q"/><use transform="matrix(0.05,0,0,0.05,9,0)" xlink:href="#O"/><use transform="matrix(0.05,0,0,0.05,19,0)" xlink:href="#aa"/><use transform="matrix(0.05,0,0,0.05,24.95,0)" xlink:href="#T"/><use transform="matrix(0.05,0,0,0.05,29.950000000000003,0)" xlink:href="#O"/></g><g id="D"><use transform="matrix(0.05,0,0,0.05,0,0)" xlink:href="#ap"/><use transform="matrix(0.05,0,0,0.05,12.950000000000001,0)" xlink:href="#ad"/><use transform="matrix(0.05,0,0,0.05,16.900000000000002,0)" xlink:href="#Q"/><use transform="matrix(0.05,0,0,0.05,25.900000000000002,0)" xlink:href="#aq"/><use transform="matrix(0.05,0,0,0.05,35.900000000000006,0)" xlink:href="#ad"/><use transform="matrix(0.05,0,0,0.05,39.85000000000001,0)" xlink:href="#Z"/><use transform="matrix(0.05,0,0,0.05,49.85000000000001,0)" xlink:href="#Y"/><use transform="matrix(0.05,0,0,0.05,58.85,0)" xlink:href="#T"/><use transform="matrix(0.05,0,0,0.05,63.85,0)" xlink:href="#O"/></g><g id="E"><use transform="matrix(0.05,0,0,0.05,0,0)" xlink:href="#ah"/><use transform="matrix(0.05,0,0,0.05,10,0)" xlink:href="#ad"/><use transform="matrix(0.05,0,0,0.05,13.949999999999998,0)" xlink:href="#P"/></g><g id="F"><use transform="matrix(0.05,0,0,0.05,0,0)" xlink:href="#ad"/><use transform="matrix(0.05,0,0,0.05,3.95,0)" xlink:href="#P"/><use transform="matrix(0.05,0,0,0.05,13.949999999999998,0)" xlink:href="#Y"/><use transform="matrix(0.05,0,0,0.05,22.95,0)" xlink:href="#Z"/><use transform="matrix(0.05,0,0,0.05,32.95,0)" xlink:href="#aa"/><use transform="matrix(0.05,0,0,0.05,38.900000000000006,0)" xlink:href="#ad"/><use transform="matrix(0.05,0,0,0.05,42.85000000000001,0)" xlink:href="#S"/><use transform="matrix(0.05,0,0,0.05,57.80000000000001,0)" xlink:href="#Z"/><use transform="matrix(0.05,0,0,0.05,67.80000000000001,0)" xlink:href="#P"/><use transform="matrix(0.05,0,0,0.05,77.80000000000001,0)" xlink:href="#T"/><use transform="matrix(0.05,0,0,0.05,82.80000000000001,0)" xlink:href="#R"/></g><path d="M108 0H70L1-190h34L89-25l56-165h34" id="au"/><g id="G"><use transform="matrix(0.05,0,0,0.05,0,0)" xlink:href="#au"/><use transform="matrix(0.05,0,0,0.05,9,0)" xlink:href="#ad"/><use transform="matrix(0.05,0,0,0.05,12.949999999999998,0)" xlink:href="#Y"/><use transform="matrix(0.05,0,0,0.05,21.95,0)" xlink:href="#al"/><use transform="matrix(0.05,0,0,0.05,31.950000000000003,0)" xlink:href="#O"/><use transform="matrix(0.05,0,0,0.05,41.95,0)" xlink:href="#aj"/><use transform="matrix(0.05,0,0,0.05,45.900000000000006,0)" xlink:href="#ad"/><use transform="matrix(0.05,0,0,0.05,49.85000000000001,0)" xlink:href="#am"/><use transform="matrix(0.05,0,0,0.05,58.85,0)" xlink:href="#am"/><use transform="matrix(0.05,0,0,0.05,67.85000000000001,0)" xlink:href="#O"/><use transform="matrix(0.05,0,0,0.05,77.85000000000001,0)" xlink:href="#am"/><use transform="matrix(0.05,0,0,0.05,86.85000000000001,0)" xlink:href="#ad"/><use transform="matrix(0.05,0,0,0.05,90.80000000000001,0)" xlink:href="#R"/><use transform="matrix(0.05,0,0,0.05,100.80000000000001,0)" xlink:href="#P"/><use transform="matrix(0.05,0,0,0.05,110.80000000000001,0)" xlink:href="#Z"/></g><g id="H"><use transform="matrix(0.05,0,0,0.05,0,0)" xlink:href="#Y"/><use transform="matrix(0.05,0,0,0.05,9,0)" xlink:href="#O"/><use transform="matrix(0.05,0,0,0.05,19,0)" xlink:href="#aj"/><use transform="matrix(0.05,0,0,0.05,22.95,0)" xlink:href="#ag"/><use transform="matrix(0.05,0,0,0.05,32.95,0)" xlink:href="#R"/></g><g id="I"><use transform="matrix(0.05,0,0,0.05,0,0)" xlink:href="#Z"/><use transform="matrix(0.05,0,0,0.05,10,0)" xlink:href="#S"/><use transform="matrix(0.05,0,0,0.05,24.950000000000003,0)" xlink:href="#ad"/><use transform="matrix(0.05,0,0,0.05,28.900000000000002,0)" xlink:href="#Y"/><use transform="matrix(0.05,0,0,0.05,37.900000000000006,0)" xlink:href="#Y"/><use transform="matrix(0.05,0,0,0.05,46.900000000000006,0)" xlink:href="#ad"/><use transform="matrix(0.05,0,0,0.05,50.85000000000001,0)" xlink:href="#R"/><use transform="matrix(0.05,0,0,0.05,60.85,0)" xlink:href="#P"/><use transform="matrix(0.05,0,0,0.05,70.85000000000001,0)" xlink:href="#Z"/></g><g id="J"><use transform="matrix(0.05,0,0,0.05,0,0)" xlink:href="#Y"/><use transform="matrix(0.05,0,0,0.05,9,0)" xlink:href="#R"/><use transform="matrix(0.05,0,0,0.05,19,0)" xlink:href="#S"/><use transform="matrix(0.05,0,0,0.05,33.95,0)" xlink:href="#S"/><use transform="matrix(0.05,0,0,0.05,48.900000000000006,0)" xlink:href="#O"/></g><g id="K"><use transform="matrix(0.05,0,0,0.05,0,0)" xlink:href="#Y"/><use transform="matrix(0.05,0,0,0.05,9,0)" xlink:href="#R"/><use transform="matrix(0.05,0,0,0.05,19,0)" xlink:href="#aj"/><use transform="matrix(0.05,0,0,0.05,22.95,0)" xlink:href="#ag"/><use transform="matrix(0.05,0,0,0.05,32.95,0)" xlink:href="#ad"/></g><g id="L"><use transform="matrix(0.05,0,0,0.05,0,0)" xlink:href="#at"/><use transform="matrix(0.05,0,0,0.05,12.950000000000001,0)" xlink:href="#ad"/><use transform="matrix(0.05,0,0,0.05,16.900000000000002,0)" xlink:href="#Y"/><use transform="matrix(0.05,0,0,0.05,25.900000000000002,0)" xlink:href="#ah"/><use transform="matrix(0.05,0,0,0.05,35.900000000000006,0)" xlink:href="#R"/><use transform="matrix(0.05,0,0,0.05,45.900000000000006,0)" xlink:href="#P"/><use transform="matrix(0.05,0,0,0.05,55.900000000000006,0)" xlink:href="#ad"/><use transform="matrix(0.05,0,0,0.05,59.85,0)" xlink:href="#ai"/><use transform="matrix(0.05,0,0,0.05,69.85000000000001,0)" xlink:href="#ad"/><use transform="matrix(0.05,0,0,0.05,73.80000000000001,0)" xlink:href="#aj"/><use transform="matrix(0.05,0,0,0.05,77.75000000000001,0)" xlink:href="#ad"/><use transform="matrix(0.05,0,0,0.05,81.70000000000002,0)" xlink:href="#T"/><use transform="matrix(0.05,0,0,0.05,86.70000000000002,0)" xlink:href="#ak"/></g><g id="M"><use transform="matrix(0.05,0,0,0.05,0,0)" xlink:href="#at"/><use transform="matrix(0.05,0,0,0.05,12.950000000000001,0)" xlink:href="#O"/><use transform="matrix(0.05,0,0,0.05,22.950000000000003,0)" xlink:href="#T"/><use transform="matrix(0.05,0,0,0.05,27.950000000000003,0)" xlink:href="#ad"/></g></defs></g></svg>