<svg xmlns="http://www.w3.org/2000/svg" xmlns:xlink="http://www.w3.org/1999/xlink" xmlns:lucid="lucid" width="614.42" height="740"><g transform="translate(-685.575 -100)" lucid:page-tab-id="0_0"><path d="M900 490c0 49.7-40.3 90-90 90s-90-40.3-90-90 40.3-90 90-90 90 40.3 90 90z" stroke="#000" stroke-width="2" fill="#fff"/><use xlink:href="#a" transform="matrix(1,0,0,1,725,405) translate(69 88.775)"/><path d="M730 700h160v120H730zM720 120h160v120H720z" stroke="#000" stroke-width="2" fill="#fff"/><use xlink:href="#b" transform="matrix(1,0,0,1,725,125) translate(56.05 59.0875)"/><path d="M1120 430h160v120h-160z" stroke="#000" stroke-width="2" fill="#fff"/><use xlink:href="#c" transform="matrix(1,0,0,1,1125,435) translate(49.5 59.0875)"/><path d="M757 398.27h-2V310.8h2zm0-109.07h-2V242h2z"/><path d="M757 242.03h-2V241h2zM756 413.54l-4.64-14.27h9.28z"/><path d="M756 416.77l-6-18.5h12zm-3.26-16.5L756 410.3l3.26-10.03z"/><use xlink:href="#d" transform="matrix(1,0,0,1,696.575,289.2) translate(0 14.4)"/><use xlink:href="#e" transform="matrix(1,0,0,1,696.575,289.2) translate(47 14.4)"/><path d="M1118 457.92H913.66" stroke="#000" stroke-width="2" fill="none"/><path d="M1119 458.92h-1.03v-2h1.03z"/><path d="M898.4 457.92l14.26-4.64v9.27z" stroke="#000" stroke-width="2"/><path d="M893.67 528.02h206.83" stroke="#000" stroke-width="2" fill="none"/><path d="M893.7 529.02h-1.47l.9-2h.57z"/><path d="M1115.76 528.02l-14.26 4.63v-9.27z" stroke="#000" stroke-width="2"/><path d="M856.3 698V586.82" stroke="#000" stroke-width="2" fill="none"/><path d="M857.3 699h-2v-1.03h2z"/><path d="M856.3 571.55l4.64 14.27h-9.27z" stroke="#000" stroke-width="2"/><path d="M775.9 575.38V680.5" stroke="#000" stroke-width="2" fill="none"/><path d="M775.52 574.24l1.38.52v.65h-2v-1.43z"/><path d="M775.9 695.76l-4.64-14.26h9.27z" stroke="#000" stroke-width="2"/><path d="M856.96 411.06V259.5" stroke="#000" stroke-width="2" fill="none"/><path d="M857.96 412.65l-.03-.02-1.97-1.15v-.44h2z"/><path d="M856.96 244.24l4.63 14.26h-9.28z" stroke="#000" stroke-width="2"/><defs><path d="M187 0l-14-72H61L19 0h-37l149-248h38L221 0h-34zm-19-99l-22-123L76-99h92" id="f"/><path d="M67-162c32-53 139-36 121 50C175-51 163 2 97 4 68 4 52-11 42-31 38 6 28 39 22 75H-9l50-265h29c-1 10 0 20-3 28zm89 36c0-26-10-43-35-43-54 0-67 50-69 103-1 29 14 45 42 46 53 0 62-58 62-106" id="g"/><g id="a"><use transform="matrix(0.05,0,0,0.05,0,0)" xlink:href="#f"/><use transform="matrix(0.05,0,0,0.05,12,0)" xlink:href="#g"/><use transform="matrix(0.05,0,0,0.05,22,0)" xlink:href="#g"/></g><path d="M232-93c-1 65-40 97-104 97C67 4 28-28 28-90v-158h33c8 89-33 224 67 224 102 0 64-133 71-224h33v155" id="h"/><path d="M135-143c-3-34-86-38-87 0 15 53 115 12 119 90S17 21 10-45l28-5c4 36 97 45 98 0-10-56-113-15-118-90-4-57 82-63 122-42 12 7 21 19 24 35" id="i"/><path d="M100-194c63 0 86 42 84 106H49c0 40 14 67 53 68 26 1 43-12 49-29l28 8c-11 28-37 45-77 45C44 4 14-33 15-96c1-61 26-98 85-98zm52 81c6-60-76-77-97-28-3 7-6 17-6 28h103" id="j"/><path d="M114-163C36-179 61-72 57 0H25l-1-190h30c1 12-1 29 2 39 6-27 23-49 58-41v29" id="k"/><g id="b"><use transform="matrix(0.05,0,0,0.05,0,0)" xlink:href="#h"/><use transform="matrix(0.05,0,0,0.05,12.950000000000001,0)" xlink:href="#i"/><use transform="matrix(0.05,0,0,0.05,21.950000000000003,0)" xlink:href="#j"/><use transform="matrix(0.05,0,0,0.05,31.950000000000003,0)" xlink:href="#k"/></g><path d="M160-131c35 5 61 23 61 61C221 17 115-2 30 0v-248c76 3 177-17 177 60 0 33-19 50-47 57zm-97-11c50-1 110 9 110-42 0-47-63-36-110-37v79zm0 115c55-2 124 14 124-45 0-56-70-42-124-44v89" id="l"/><path d="M141-36C126-15 110 5 73 4 37 3 15-17 15-53c-1-64 63-63 125-63 3-35-9-54-41-54-24 1-41 7-42 31l-33-3c5-37 33-52 76-52 45 0 72 20 72 64v82c-1 20 7 32 28 27v20c-31 9-61-2-59-35zM48-53c0 20 12 33 32 33 41-3 63-29 60-74-43 2-92-5-92 41" id="m"/><path d="M117-194c89-4 53 116 60 194h-32v-121c0-31-8-49-39-48C34-167 62-67 57 0H25l-1-190h30c1 10-1 24 2 32 11-22 29-35 61-36" id="n"/><path d="M96-169c-40 0-48 33-48 73s9 75 48 75c24 0 41-14 43-38l32 2c-6 37-31 61-74 61-59 0-76-41-82-99-10-93 101-131 147-64 4 7 5 14 7 22l-32 3c-4-21-16-35-41-35" id="o"/><g id="c"><use transform="matrix(0.05,0,0,0.05,0,0)" xlink:href="#l"/><use transform="matrix(0.05,0,0,0.05,12,0)" xlink:href="#m"/><use transform="matrix(0.05,0,0,0.05,22,0)" xlink:href="#n"/><use transform="matrix(0.05,0,0,0.05,32,0)" xlink:href="#o"/><use transform="matrix(0.05,0,0,0.05,41,0)" xlink:href="#m"/></g><path d="M30-248c87 1 191-15 191 75 0 78-77 80-158 76V0H30v-248zm33 125c57 0 124 11 124-50 0-59-68-47-124-48v98" id="p"/><path d="M177-190C167-65 218 103 67 71c-23-6-38-20-44-43l32-5c15 47 100 32 89-28v-30C133-14 115 1 83 1 29 1 15-40 15-95c0-56 16-97 71-98 29-1 48 16 59 35 1-10 0-23 2-32h30zM94-22c36 0 50-32 50-73 0-42-14-75-50-75-39 0-46 34-46 75s6 73 46 73" id="q"/><g id="d"><use transform="matrix(0.05,0,0,0.05,0,0)" xlink:href="#p"/><use transform="matrix(0.05,0,0,0.05,12,0)" xlink:href="#m"/><use transform="matrix(0.05,0,0,0.05,22,0)" xlink:href="#q"/><use transform="matrix(0.05,0,0,0.05,32,0)" xlink:href="#m"/></g><path d="M115-194c53 0 69 39 70 98 0 66-23 100-70 100C84 3 66-7 56-30L54 0H23l1-261h32v101c10-23 28-34 59-34zm-8 174c40 0 45-34 45-75 0-40-5-75-45-74-42 0-51 32-51 76 0 43 10 73 51 73" id="r"/><path d="M100-194c62-1 85 37 85 99 1 63-27 99-86 99S16-35 15-95c0-66 28-99 85-99zM99-20c44 1 53-31 53-75 0-43-8-75-51-75s-53 32-53 75 10 74 51 75" id="s"/><path d="M24 0v-261h32V0H24" id="t"/><path d="M59-47c-2 24 18 29 38 22v24C64 9 27 4 27-40v-127H5v-23h24l9-43h21v43h35v23H59v120" id="u"/><path d="M24-231v-30h32v30H24zM24 0v-190h32V0H24" id="v"/><g id="e"><use transform="matrix(0.05,0,0,0.05,0,0)" xlink:href="#r"/><use transform="matrix(0.05,0,0,0.05,10,0)" xlink:href="#s"/><use transform="matrix(0.05,0,0,0.05,20,0)" xlink:href="#t"/><use transform="matrix(0.05,0,0,0.05,23.95,0)" xlink:href="#t"/><use transform="matrix(0.05,0,0,0.05,27.899999999999995,0)" xlink:href="#j"/><use transform="matrix(0.05,0,0,0.05,37.9,0)" xlink:href="#u"/><use transform="matrix(0.05,0,0,0.05,42.9,0)" xlink:href="#u"/><use transform="matrix(0.05,0,0,0.05,47.9,0)" xlink:href="#v"/><use transform="matrix(0.05,0,0,0.05,51.85,0)" xlink:href="#n"/><use transform="matrix(0.05,0,0,0.05,61.85,0)" xlink:href="#s"/></g></defs></g></svg>