<svg xmlns="http://www.w3.org/2000/svg" xmlns:xlink="http://www.w3.org/1999/xlink" xmlns:lucid="lucid" width="2147.47" height="798.6"><g transform="translate(247.475 -60)" lucid:page-tab-id="0_0"><path d="M0 290c0 16.57-13.43 30-30 30s-30-13.43-30-30 13.43-30 30-30 30 13.43 30 30z" stroke="#000" stroke-width="2" fill="#fff"/><use xlink:href="#a" transform="matrix(1,0,0,1,-60,320) translate(-3.9750000000000014 14.4)"/><use xlink:href="#b" transform="matrix(1,0,0,1,-60,320) translate(0.02499999999999858 36)"/><path d="M1100 100h160v120h-160z" stroke="#000" stroke-width="2" fill="#fff"/><use xlink:href="#c" transform="matrix(1,0,0,1,1100,100) translate(17.429999999999986 63.15)"/><use xlink:href="#d" transform="matrix(1,0,0,1,1100,100) translate(88.63 63.15)"/><path d="M680 380h160v120H680z" stroke="#000" stroke-width="2" fill="#fff"/><use xlink:href="#e" transform="matrix(1,0,0,1,680,380) translate(6.054999999999987 51.9)"/><use xlink:href="#f" transform="matrix(1,0,0,1,680,380) translate(90.955 51.9)"/><use xlink:href="#g" transform="matrix(1,0,0,1,680,380) translate(48.05499999999999 73.5)"/><path d="M938.5 250.1h-2v-3.18h2zm142-89.1h-142v64.32h-2V159h144z"/><path d="M938.5 252.1l-1-1-1 1v-2.04h2zM1095.76 160l-14.26 4.64v-9.28z"/><path d="M1099 160l-18.5 6v-12zm-16.5 3.26l10.03-3.26-10.03-3.26z"/><use xlink:href="#h" transform="matrix(1,0,0,1,914.75,225.31823537682087) translate(0 14.4)"/><use xlink:href="#i" transform="matrix(1,0,0,1,914.75,225.31823537682087) translate(15.5 14.4)"/><path d="M1088.5 424h91.58v2h-93.58V291h-54.05v-2h56.05zM977.4 291v-2h9.55v2z"/><path d="M977.44 291h-2.03l1-1-1-1h2.04zM1195.35 425l-14.27 4.64v-9.28z"/><path d="M1198.6 425l-18.52 6v-12zm-16.52 3.26l10.03-3.26-10.02-3.26z"/><use xlink:href="#j" transform="matrix(1,0,0,1,986.9502621996764,279.2) translate(0 14.4)"/><use xlink:href="#i" transform="matrix(1,0,0,1,986.9502621996764,279.2) translate(15.5 14.4)"/><path d="M1200 425l37.5-37.5L1275 425l-37.5 37.5z" stroke="#000" stroke-width="2" fill="#fff"/><path d="M1222.5 410l30 30m-30 0l30-30" stroke="#000" stroke-width="4" fill="none"/><use xlink:href="#k" transform="matrix(1,0,0,1,1200,462.5) translate(-5.425000000000004 14.4)"/><use xlink:href="#l" transform="matrix(1,0,0,1,1200,462.5) translate(-8.5 36)"/><path d="M1311.2 328.5h-72.7v56.6h-2v-58.6h74.7zm29.3 0h-6.36v-2h6.36z"/><path d="M1238.5 387.1l-1-1-1 1v-2.04h2zM1355.76 327.5l-14.26 4.64v-9.28z"/><path d="M1359 327.5l-18.5 6v-12zm-16.5 3.26l10.03-3.26-10.03-3.26z"/><use xlink:href="#m" transform="matrix(1,0,0,1,1311.1916666666666,316.7) translate(0 14.4)"/><path d="M1360 267.5h160v120h-160z" stroke="#000" stroke-width="2" fill="#fff"/><use xlink:href="#n" transform="matrix(1,0,0,1,1360,267.5) translate(35.07999999999999 63.15)"/><use xlink:href="#o" transform="matrix(1,0,0,1,1360,267.5) translate(82.07999999999998 63.15)"/><path d="M1238.5 506.5h69.5v2h-71.5v-43.6h2zm102 0v2h-3.16v-2z"/><path d="M1238.5 464.94h-2v-2.03l1 1 1-1zM1355.76 507.5l-14.26 4.64v-9.28z"/><path d="M1359 507.5l-18.5 6v-12zm-16.5 3.26l10.03-3.26-10.03-3.26z"/><use xlink:href="#p" transform="matrix(1,0,0,1,1307.9916666666666,496.7) translate(0 14.4)"/><path d="M1360 447.5h160v120h-160z" stroke="#000" stroke-width="2" fill="#fff"/><use xlink:href="#c" transform="matrix(1,0,0,1,1360,447.5) translate(17.429999999999986 63.15)"/><use xlink:href="#d" transform="matrix(1,0,0,1,1360,447.5) translate(88.63 63.15)"/><path d="M1680 425c0 16.57-13.43 30-30 30s-30-13.43-30-30 13.43-30 30-30 30 13.43 30 30z" stroke="#000" stroke-width="6" fill="#fff"/><path d="M1671.25 425c0 11.74-9.5 21.25-21.25 21.25-11.74 0-21.25-9.5-21.25-21.25 0-11.74 9.5-21.25 21.25-21.25 11.74 0 21.25 9.5 21.25 21.25z"/><use xlink:href="#q" transform="matrix(1,0,0,1,1620,455) translate(14 14.4)"/><path d="M1522 507.5h128v-34" stroke="#000" stroke-width="2" fill="none"/><path d="M1522.03 508.5H1521v-2h1.03z"/><path d="M1650 458.24l4.64 14.26h-9.28z" stroke="#000" stroke-width="2"/><path d="M1522 327.5h128v49" stroke="#000" stroke-width="2" fill="none"/><path d="M1522.03 328.5H1521v-2h1.03z"/><path d="M1650 391.76l-4.64-14.26h9.28z" stroke="#000" stroke-width="2"/><path d="M660 590c0 16.57-13.43 30-30 30s-30-13.43-30-30 13.43-30 30-30 30 13.43 30 30z" stroke="#000" stroke-width="2" fill="#fff"/><path d="M657 590c0 14.9-12.1 27-27 27s-27-12.1-27-27 12.1-27 27-27 27 12.1 27 27z" stroke="#000" stroke-width="2" fill="#fff"/><path d="M650 590c0 11.05-8.95 20-20 20s-20-8.95-20-20 8.95-20 20-20 20 8.95 20 20zm0 0h-4m1.32 10l-3.46-2m-3.86 9.32l-2-3.46m-8 6.14v-4m-10 1.32l2-3.46m-9.32-3.86l3.46-2m-6.14-8h4m-1.32-10l3.46 2m3.86-9.32l2 3.46m8-6.14v4m10-1.32l-2 3.46m9.32 3.86l-3.46 2M630 590v-12m0 12h7" stroke="#000" stroke-width="2" fill="#fff"/><use xlink:href="#r" transform="matrix(1,0,0,1,600,620) translate(12.25 14.4)"/><use xlink:href="#s" transform="matrix(1,0,0,1,600,620) translate(27.75 14.4)"/><use xlink:href="#t" transform="matrix(1,0,0,1,600,620) translate(11 36)"/><path d="M536.5 290l37.5-37.5 37.5 37.5-37.5 37.5z" stroke="#000" stroke-width="2" fill="#fff"/><path d="M559 275l30 30m-30 0l30-30" stroke="#000" stroke-width="4" fill="none"/><use xlink:href="#u" transform="matrix(1,0,0,1,536.4962576563028,327.5) translate(5 14.4)"/><use xlink:href="#v" transform="matrix(1,0,0,1,536.4962576563028,327.5) translate(14.524999999999999 36)"/><path d="M574 329.9V440h86.5" stroke="#000" stroke-width="2" fill="none"/><path d="M575 329.94h-2v-2.03l1 1 1-1z"/><path d="M675.76 440l-14.26 4.64v-9.28z" stroke="#000" stroke-width="2"/><path d="M900 290l37.5-37.5L975 290l-37.5 37.5z" stroke="#000" stroke-width="2" fill="#fff"/><path d="M922.5 275l30 30m-30 0l30-30" stroke="#000" stroke-width="4" fill="none"/><use xlink:href="#w" transform="matrix(1,0,0,1,900,327.5) translate(5.024999999999999 14.4)"/><path d="M613.9 290H880.1" stroke="#000" stroke-width="2" fill="none"/><path d="M613.94 291h-2.03l1-1-1-1h2.04z"/><path d="M895.35 290l-14.27 4.64v-9.28z" stroke="#000" stroke-width="2"/><path d="M842 440h95.5v-92.58" stroke="#000" stroke-width="2" fill="none"/><path d="M842.03 441H841v-2h1.03z"/><path d="M937.5 332.15l4.64 14.27h-9.28z" stroke="#000" stroke-width="2"/><path d="M280 230h160v120H280z" stroke="#000" stroke-width="2" fill="#fff"/><use xlink:href="#x" transform="matrix(1,0,0,1,280,230) translate(23.555 51.9)"/><use xlink:href="#y" transform="matrix(1,0,0,1,280,230) translate(73.455 51.9)"/><use xlink:href="#z" transform="matrix(1,0,0,1,280,230) translate(42.029999999999994 73.5)"/><path d="M442 290h74.58" stroke="#000" stroke-width="2" fill="none"/><path d="M442.03 291H441v-2h1.03z"/><path d="M531.85 290l-14.27 4.64v-9.28z" stroke="#000" stroke-width="2"/><path d="M1262 160h99.5" stroke="#000" stroke-width="2" fill="none"/><path d="M1262.03 161H1261v-2h1.03z"/><path d="M1376.76 160l-14.26 4.64v-9.28z" stroke="#000" stroke-width="2"/><path d="M1440 160c0 16.57-13.43 30-30 30s-30-13.43-30-30 13.43-30 30-30 30 13.43 30 30z" stroke="#000" stroke-width="6" fill="#fff"/><path d="M1431.25 160c0 11.74-9.5 21.25-21.25 21.25-11.74 0-21.25-9.5-21.25-21.25 0-11.74 9.5-21.25 21.25-21.25 11.74 0 21.25 9.5 21.25 21.25z"/><path d="M-100 80h1820v520H-100z" fill-opacity="0"/><path d="M-79.84 80h2m10.1 0h20.14m10.08 0h2.02m10.07 0h20.16M4.8 80h2.02m10.08 0h20.15m10.08 0h2.02m10.07 0h20.16m10.08 0h2m10.1 0h20.15m10.08 0h2.02m10.08 0h20.15m10.08 0h2.02m10.08 0h20.16m10.07 0h2.02m10.08 0h20.15m10.08 0h2.02m10.07 0H291m10.1 0h2m10.08 0h20.15m10.08 0h2.03m10.07 0h20.16m10.08 0h2m10.1 0h20.14m10.08 0h2.02m10.08 0h20.15m10.1 0h2m10.08 0h20.16m10.07 0h2.03m10.08 0h20.16m10.08 0h2m10.1 0h20.15m10.06 0h2.02m10.08 0h20.15m10.1 0h2m10.08 0h20.16m10.08 0h2m10.1 0h20.14m10.08 0h2.02m10.07 0h20.16m10.07 0h2m10.1 0h20.14m10.1 0h2m10.1 0h20.14m10.08 0h2m10.1 0h20.15m10.07 0h2.02m10.08 0h20.15m10.07 0h2m10.1 0h20.15m10.07 0h2m10.1 0h20.14m10.08 0h2.02m10.07 0h20.17m10.08 0h2m10.1 0h20.14m10.07 0h2.02m10.06 0h20.16m10.08 0h2m10.1 0h20.14m10.08 0h2.02m10.08 0h20.15m10.08 0h2m10.1 0h20.15m10.07 0h2.02m10.07 0h20.15m10.08 0h2m10.1 0h20.15m10.07 0h2.02m10.08 0h20.15m10.08 0h2.02m10.07 0h20.16m10.08 0h2m10.1 0h20.14m10.08 0h2.02m10.07 0h20.15m10.08 0h2m10.1 0h20.15m10.07 0h2.02m10.08 0h20.15m10.08 0h2m10.1 0h20.15m10.07 0h2.02m10.08 0h20.15m10.08 0h2m10.1 0H1720v10.32m0 10.3v2.08m0 10.32v20.63m0 10.32v2.06m0 10.32v20.63m0 10.32v2.07m0 10.3v20.65m0 10.3v2.08m0 10.32v20.63m0 10.32v2.06m0 10.32v20.63m0 10.32v2.07m0 10.3v20.65m0 10.3v2.08m0 10.32v20.63m0 10.32v2.06m0 10.32v20.63m0 10.32v2.07m0 10.3v20.65m0 10.3v2.08m0 10.32v20.63m0 10.32v2.06m0 10.32v20.63m0 10.32v2.07m0 10.3V600h-10.08m-10.08 0h-2m-10.1 0h-20.14m-10.08 0h-2.02m-10.07 0h-20.16m-10.08 0h-2.02m-10.08 0h-20.15m-10.08 0h-2.02m-10.07 0h-20.16m-10.08 0h-2m-10.1 0h-20.15m-10.08 0h-2.02m-10.08 0h-20.15m-10.08 0h-2.02m-10.08 0h-20.16m-10.07 0h-2.02m-10.08 0h-20.15m-10.08 0h-2.02m-10.07 0H1329m-10.1 0h-2m-10.08 0h-20.15m-10.08 0h-2.03m-10.07 0h-20.16m-10.08 0h-2m-10.1 0h-20.14m-10.08 0h-2.02m-10.08 0h-20.15m-10.1 0h-2m-10.08 0h-20.16m-10.07 0h-2.03m-10.08 0h-20.16m-10.08 0h-2m-10.1 0h-20.15m-10.06 0h-2.02m-10.08 0H990.4m-10.1 0h-2m-10.08 0h-20.16m-10.08 0h-2m-10.1 0h-20.14m-10.08 0h-2.02m-10.07 0H863.4m-10.07 0h-2m-10.1 0H821.1m-10.1 0h-2m-10.1 0h-20.14m-10.08 0h-2m-10.1 0h-20.15m-10.07 0h-2.02m-10.08 0H694.1m-10.07 0h-2m-10.1 0H651.8m-10.07 0h-2m-10.1 0h-20.14m-10.08 0h-2.02m-10.07 0h-20.17m-10.08 0h-2m-10.1 0h-20.14m-10.07 0h-2.02m-10.06 0h-20.16m-10.08 0h-2m-10.1 0h-20.14m-10.08 0h-2.02m-10.08 0h-20.15m-10.08 0h-2m-10.1 0H355.5m-10.07 0h-2.02m-10.07 0h-20.15m-10.08 0h-2m-10.1 0h-20.15m-10.07 0h-2.02m-10.08 0h-20.15m-10.08 0h-2.02m-10.07 0H186.2m-10.08 0h-2m-10.1 0H143.9m-10.08 0h-2.02m-10.07 0h-20.15m-10.08 0h-2m-10.1 0H59.23m-10.07 0h-2.02m-10.08 0H16.9m-10.08 0h-2m-10.1 0h-20.15m-10.07 0h-2.02m-10.08 0h-20.15m-10.08 0h-2m-10.1 0H-100v-10.32m0-10.3v-2.08m0-10.32v-20.63m0-10.32v-2.06m0-10.32v-20.63m0-10.32v-2.07m0-10.3v-20.65m0-10.3v-2.08m0-10.32v-20.63m0-10.32v-2.06m0-10.32v-20.63m0-10.32v-2.07m0-10.3v-20.65m0-10.3v-2.08m0-10.32v-20.63m0-10.32v-2.06m0-10.32v-20.63m0-10.32v-2.07m0-10.3v-20.65m0-10.3v-2.08m0-10.32v-20.63m0-10.32v-2.06m0-10.32v-20.63m0-10.32v-2.07m0-10.3V80h10.08" stroke="#000" stroke-width="2" fill="none"/><use xlink:href="#A" transform="matrix(1,0,0,1,-80,100) translate(823.55 14.4)"/><use xlink:href="#b" transform="matrix(1,0,0,1,-80,100) translate(896.5 14.4)"/><path d="M-160 370c0 16.57-13.43 30-30 30s-30-13.43-30-30 13.43-30 30-30 30 13.43 30 30z" stroke="#000" stroke-width="2" fill="#fff"/><path d="M-210 358.75h40v22.5h-40z" stroke="#000" stroke-width="2" fill="#fff"/><path d="M-210 358.75l20 11.25 20-11.25" stroke="#000" stroke-width="2" fill="none"/><use xlink:href="#a" transform="matrix(1,0,0,1,-220,400) translate(-3.9750000000000014 14.4)"/><use xlink:href="#B" transform="matrix(1,0,0,1,-220,400) translate(-6.475000000000001 36)"/><path d="M-158 370h38.5" stroke="#000" stroke-width="2" fill="none"/><path d="M-157.97 371h-1.1l.07-.98-.03-1.02h1.06z"/><path d="M-104.24 370l-14.26 4.63v-9.27z" stroke="#000" stroke-width="2"/><path d="M1880 340c0 16.57-13.43 30-30 30s-30-13.43-30-30 13.43-30 30-30 30 13.43 30 30z" stroke="#000" stroke-width="6" fill="#fff"/><use xlink:href="#q" transform="matrix(1,0,0,1,1820,370) translate(14 14.4)"/><path d="M660 770c0 16.57-13.43 30-30 30s-30-13.43-30-30 13.43-30 30-30 30 13.43 30 30z" stroke="#000" stroke-width="6" fill="#fff"/><path d="M610 758.75h40v22.5h-40z" stroke="#000" stroke-width="2"/><path d="M610 758.75L630 770l20-11.25" stroke="#fff" stroke-width="2" fill="none"/><use xlink:href="#C" transform="matrix(1,0,0,1,600,800) translate(9 14.4)"/><use xlink:href="#D" transform="matrix(1,0,0,1,600,800) translate(13.575 36)"/><path d="M630 622v98.5" stroke="#000" stroke-width="2" fill="none"/><path d="M629.98 621l1.02-.03v1.06h-2v-1.1z"/><path d="M630 735.76l-4.64-14.26h9.28z" stroke="#000" stroke-width="2"/><path d="M2 290h78.08" stroke="#000" stroke-width="2" fill="none"/><path d="M2.03 291H.93l.07-.98L.97 289h1.06z"/><path d="M95.35 290l-14.27 4.64v-9.28z" stroke="#000" stroke-width="2"/><path d="M100 290l37.5-37.5L175 290l-37.5 37.5z" stroke="#000" stroke-width="2" fill="#fff"/><path d="M137.5 267.5v45M115 290h45" stroke="#000" stroke-width="4" fill="none"/><path d="M137.5 329.9v90.6" stroke="#000" stroke-width="2" fill="none"/><path d="M138.5 329.94h-2v-2.03l1 1 1-1z"/><path d="M137.5 435.76l-4.64-14.26h9.28z" stroke="#000" stroke-width="2"/><path d="M167.5 470c0 16.57-13.43 30-30 30s-30-13.43-30-30 13.43-30 30-30 30 13.43 30 30z" stroke="#000" stroke-width="2" fill="#fff"/><path d="M164.5 470c0 14.9-12.1 27-27 27s-27-12.1-27-27 12.1-27 27-27 27 12.1 27 27z" stroke="#000" stroke-width="2" fill="#fff"/><path d="M157.5 470c0 11.05-8.95 20-20 20s-20-8.95-20-20 8.95-20 20-20 20 8.95 20 20zm0 0h-4m1.32 10l-3.46-2m-3.86 9.32l-2-3.46m-8 6.14v-4m-10 1.32l2-3.46m-9.32-3.86l3.46-2m-6.14-8h4m-1.32-10l3.46 2m3.86-9.32l2 3.46m8-6.14v4m10-1.32l-2 3.46m9.32 3.86l-3.46 2m-13.86 8v-12m0 12h7" stroke="#000" stroke-width="2" fill="#fff"/><g><use xlink:href="#r" transform="matrix(1,0,0,1,107.5,500) translate(17.25 14.4)"/><use xlink:href="#E" transform="matrix(1,0,0,1,107.5,500) translate(32.75 14.4)"/><use xlink:href="#t" transform="matrix(1,0,0,1,107.5,500) translate(11 36)"/></g><path d="M169.5 470h51" stroke="#000" stroke-width="2" fill="none"/><path d="M169.53 471h-1.1l.07-.98-.03-1.02h1.06z"/><path d="M235.76 470l-14.26 4.64v-9.28z" stroke="#000" stroke-width="2"/><path d="M240 410h160v120H240z" stroke="#000" stroke-width="2" fill="#fff"/><g><use xlink:href="#n" transform="matrix(1,0,0,1,240,410) translate(35.07999999999999 63.15)"/><use xlink:href="#o" transform="matrix(1,0,0,1,240,410) translate(82.07999999999998 63.15)"/></g><path d="M177.4 290h83.1" stroke="#000" stroke-width="2" fill="none"/><path d="M177.44 291h-2.03l1-1-1-1h2.04z"/><path d="M275.76 290l-14.26 4.64v-9.28z" stroke="#000" stroke-width="2"/><path d="M1722 340h76.5" stroke="#000" stroke-width="2" fill="none"/><path d="M1722.03 341H1721v-2h1.03z"/><path d="M1813.76 340l-14.26 4.64v-9.28z" stroke="#000" stroke-width="2"/><defs><path d="M233-177c-1 41-23 64-60 70L243 0h-38l-65-103H63V0H30v-248c88 3 205-21 203 71zM63-129c60-2 137 13 137-47 0-61-80-42-137-45v92" id="F"/><path d="M100-194c63 0 86 42 84 106H49c0 40 14 67 53 68 26 1 43-12 49-29l28 8c-11 28-37 45-77 45C44 4 14-33 15-96c1-61 26-98 85-98zm52 81c6-60-76-77-97-28-3 7-6 17-6 28h103" id="G"/><path d="M101-234c-31-9-42 10-38 44h38v23H63V0H32v-167H5v-23h27c-7-52 17-82 69-68v24" id="H"/><path d="M100-194c62-1 85 37 85 99 1 63-27 99-86 99S16-35 15-95c0-66 28-99 85-99zM99-20c44 1 53-31 53-75 0-43-8-75-51-75s-53 32-53 75 10 74 51 75" id="I"/><path d="M84 4C-5 8 30-112 23-190h32v120c0 31 7 50 39 49 72-2 45-101 50-169h31l1 190h-30c-1-10 1-25-2-33-11 22-28 36-60 37" id="J"/><path d="M117-194c89-4 53 116 60 194h-32v-121c0-31-8-49-39-48C34-167 62-67 57 0H25l-1-190h30c1 10-1 24 2 32 11-22 29-35 61-36" id="K"/><path d="M85-194c31 0 48 13 60 33l-1-100h32l1 261h-30c-2-10 0-23-3-31C134-8 116 4 85 4 32 4 16-35 15-94c0-66 23-100 70-100zm9 24c-40 0-46 34-46 75 0 40 6 74 45 74 42 0 51-32 51-76 0-42-9-74-50-73" id="L"/><g id="a"><use transform="matrix(0.05,0,0,0.05,0,0)" xlink:href="#F"/><use transform="matrix(0.05,0,0,0.05,12.950000000000001,0)" xlink:href="#G"/><use transform="matrix(0.05,0,0,0.05,22.950000000000003,0)" xlink:href="#H"/><use transform="matrix(0.05,0,0,0.05,27.950000000000003,0)" xlink:href="#I"/><use transform="matrix(0.05,0,0,0.05,37.95,0)" xlink:href="#J"/><use transform="matrix(0.05,0,0,0.05,47.95,0)" xlink:href="#K"/><use transform="matrix(0.05,0,0,0.05,57.95,0)" xlink:href="#L"/></g><path d="M114-163C36-179 61-72 57 0H25l-1-190h30c1 12-1 29 2 39 6-27 23-49 58-41v29" id="M"/><path d="M145-31C134-9 116 4 85 4 32 4 16-35 15-94c0-59 17-99 70-100 32-1 48 14 60 33 0-11-1-24 2-32h30l-1 268h-32zM93-21c41 0 51-33 51-76s-8-73-50-73c-40 0-46 35-46 75s5 74 45 74" id="N"/><path d="M135-143c-3-34-86-38-87 0 15 53 115 12 119 90S17 21 10-45l28-5c4 36 97 45 98 0-10-56-113-15-118-90-4-57 82-63 122-42 12 7 21 19 24 35" id="O"/><path d="M59-47c-2 24 18 29 38 22v24C64 9 27 4 27-40v-127H5v-23h24l9-43h21v43h35v23H59v120" id="P"/><g id="b"><use transform="matrix(0.05,0,0,0.05,0,0)" xlink:href="#M"/><use transform="matrix(0.05,0,0,0.05,5.95,0)" xlink:href="#G"/><use transform="matrix(0.05,0,0,0.05,15.949999999999998,0)" xlink:href="#N"/><use transform="matrix(0.05,0,0,0.05,25.950000000000003,0)" xlink:href="#J"/><use transform="matrix(0.05,0,0,0.05,35.95,0)" xlink:href="#G"/><use transform="matrix(0.05,0,0,0.05,45.95,0)" xlink:href="#O"/><use transform="matrix(0.05,0,0,0.05,54.95,0)" xlink:href="#P"/></g><path d="M127-220V0H93v-220H8v-28h204v28h-85" id="Q"/><path d="M141-36C126-15 110 5 73 4 37 3 15-17 15-53c-1-64 63-63 125-63 3-35-9-54-41-54-24 1-41 7-42 31l-33-3c5-37 33-52 76-52 45 0 72 20 72 64v82c-1 20 7 32 28 27v20c-31 9-61-2-59-35zM48-53c0 20 12 33 32 33 41-3 63-29 60-74-43 2-92-5-92 41" id="R"/><g id="c"><use transform="matrix(0.05,0,0,0.05,0,0)" xlink:href="#Q"/><use transform="matrix(0.05,0,0,0.05,10.3,0)" xlink:href="#M"/><use transform="matrix(0.05,0,0,0.05,16.25,0)" xlink:href="#R"/><use transform="matrix(0.05,0,0,0.05,26.25,0)" xlink:href="#K"/><use transform="matrix(0.05,0,0,0.05,36.25,0)" xlink:href="#O"/><use transform="matrix(0.05,0,0,0.05,45.25,0)" xlink:href="#H"/><use transform="matrix(0.05,0,0,0.05,50.25,0)" xlink:href="#G"/><use transform="matrix(0.05,0,0,0.05,60.25,0)" xlink:href="#M"/></g><path d="M210-169c-67 3-38 105-44 169h-31v-121c0-29-5-50-35-48C34-165 62-65 56 0H25l-1-190h30c1 10-1 24 2 32 10-44 99-50 107 0 11-21 27-35 58-36 85-2 47 119 55 194h-31v-121c0-29-5-49-35-48" id="S"/><path d="M179-190L93 31C79 59 56 82 12 73V49c39 6 53-20 64-50L1-190h34L92-34l54-156h33" id="T"/><g id="d"><use transform="matrix(0.05,0,0,0.05,0,0)" xlink:href="#S"/><use transform="matrix(0.05,0,0,0.05,14.950000000000001,0)" xlink:href="#I"/><use transform="matrix(0.05,0,0,0.05,24.950000000000003,0)" xlink:href="#K"/><use transform="matrix(0.05,0,0,0.05,34.95,0)" xlink:href="#G"/><use transform="matrix(0.05,0,0,0.05,44.95,0)" xlink:href="#T"/></g><path d="M30 0v-248h187v28H63v79h144v27H63v87h162V0H30" id="U"/><path d="M115-194c55 1 70 41 70 98S169 2 115 4C84 4 66-9 55-30l1 105H24l-1-265h31l2 30c10-21 28-34 59-34zm-8 174c40 0 45-34 45-75s-6-73-45-74c-42 0-51 32-51 76 0 43 10 73 51 73" id="V"/><path d="M24 0v-261h32V0H24" id="W"/><g id="e"><use transform="matrix(0.05,0,0,0.05,0,0)" xlink:href="#U"/><use transform="matrix(0.05,0,0,0.05,12,0)" xlink:href="#S"/><use transform="matrix(0.05,0,0,0.05,26.950000000000003,0)" xlink:href="#V"/><use transform="matrix(0.05,0,0,0.05,36.95,0)" xlink:href="#W"/><use transform="matrix(0.05,0,0,0.05,40.900000000000006,0)" xlink:href="#I"/><use transform="matrix(0.05,0,0,0.05,50.900000000000006,0)" xlink:href="#T"/><use transform="matrix(0.05,0,0,0.05,59.900000000000006,0)" xlink:href="#G"/><use transform="matrix(0.05,0,0,0.05,69.9,0)" xlink:href="#G"/></g><path d="M96-169c-40 0-48 33-48 73s9 75 48 75c24 0 41-14 43-38l32 2c-6 37-31 61-74 61-59 0-76-41-82-99-10-93 101-131 147-64 4 7 5 14 7 22l-32 3c-4-21-16-35-41-35" id="X"/><g id="f"><use transform="matrix(0.05,0,0,0.05,0,0)" xlink:href="#R"/><use transform="matrix(0.05,0,0,0.05,10,0)" xlink:href="#X"/><use transform="matrix(0.05,0,0,0.05,19,0)" xlink:href="#X"/><use transform="matrix(0.05,0,0,0.05,28,0)" xlink:href="#I"/><use transform="matrix(0.05,0,0,0.05,38,0)" xlink:href="#J"/><use transform="matrix(0.05,0,0,0.05,48,0)" xlink:href="#K"/><use transform="matrix(0.05,0,0,0.05,58,0)" xlink:href="#P"/></g><path d="M24-231v-30h32v30H24zM24 0v-190h32V0H24" id="Y"/><g id="g"><use transform="matrix(0.05,0,0,0.05,0,0)" xlink:href="#X"/><use transform="matrix(0.05,0,0,0.05,9,0)" xlink:href="#M"/><use transform="matrix(0.05,0,0,0.05,14.949999999999998,0)" xlink:href="#G"/><use transform="matrix(0.05,0,0,0.05,24.95,0)" xlink:href="#R"/><use transform="matrix(0.05,0,0,0.05,34.95,0)" xlink:href="#P"/><use transform="matrix(0.05,0,0,0.05,39.95,0)" xlink:href="#Y"/><use transform="matrix(0.05,0,0,0.05,43.900000000000006,0)" xlink:href="#I"/><use transform="matrix(0.05,0,0,0.05,53.900000000000006,0)" xlink:href="#K"/></g><path d="M18-100v-36l175-74v27L42-118l151 64v27" id="Z"/><use transform="matrix(0.05,0,0,0.05,0,0)" xlink:href="#Z" id="h"/><path d="M101-251c82-7 93 87 43 132L82-64C71-53 59-42 53-27h129V0H18c2-99 128-94 128-182 0-28-16-43-45-43s-46 15-49 41l-32-3c6-41 34-60 81-64" id="aa"/><path d="M101-251c68 0 85 55 85 127S166 4 100 4C33 4 14-52 14-124c0-73 17-127 87-127zm-1 229c47 0 54-49 54-102s-4-102-53-102c-51 0-55 48-55 102 0 53 5 102 54 102" id="ab"/><g id="i"><use transform="matrix(0.05,0,0,0.05,0,0)" xlink:href="#aa"/><use transform="matrix(0.05,0,0,0.05,10,0)" xlink:href="#ab"/><use transform="matrix(0.05,0,0,0.05,20,0)" xlink:href="#ab"/></g><path d="M18-27v-27l151-64-151-65v-27l175 74v36" id="ac"/><use transform="matrix(0.05,0,0,0.05,0,0)" xlink:href="#ac" id="j"/><path d="M185-189c-5-48-123-54-124 2 14 75 158 14 163 119 3 78-121 87-175 55-17-10-28-26-33-46l33-7c5 56 141 63 141-1 0-78-155-14-162-118-5-82 145-84 179-34 5 7 8 16 11 25" id="ad"/><path d="M108 0H70L1-190h34L89-25l56-165h34" id="ae"/><g id="k"><use transform="matrix(0.05,0,0,0.05,0,0)" xlink:href="#ad"/><use transform="matrix(0.05,0,0,0.05,12,0)" xlink:href="#J"/><use transform="matrix(0.05,0,0,0.05,22,0)" xlink:href="#V"/><use transform="matrix(0.05,0,0,0.05,32,0)" xlink:href="#G"/><use transform="matrix(0.05,0,0,0.05,42,0)" xlink:href="#M"/><use transform="matrix(0.05,0,0,0.05,47.95,0)" xlink:href="#ae"/><use transform="matrix(0.05,0,0,0.05,56.95,0)" xlink:href="#Y"/><use transform="matrix(0.05,0,0,0.05,60.900000000000006,0)" xlink:href="#O"/><use transform="matrix(0.05,0,0,0.05,69.9,0)" xlink:href="#I"/><use transform="matrix(0.05,0,0,0.05,79.9,0)" xlink:href="#M"/></g><g id="l"><use transform="matrix(0.05,0,0,0.05,0,0)" xlink:href="#R"/><use transform="matrix(0.05,0,0,0.05,10,0)" xlink:href="#X"/><use transform="matrix(0.05,0,0,0.05,19,0)" xlink:href="#X"/><use transform="matrix(0.05,0,0,0.05,28,0)" xlink:href="#G"/><use transform="matrix(0.05,0,0,0.05,38,0)" xlink:href="#V"/><use transform="matrix(0.05,0,0,0.05,48,0)" xlink:href="#P"/><use transform="matrix(0.05,0,0,0.05,53,0)" xlink:href="#R"/><use transform="matrix(0.05,0,0,0.05,63,0)" xlink:href="#K"/><use transform="matrix(0.05,0,0,0.05,73,0)" xlink:href="#X"/><use transform="matrix(0.05,0,0,0.05,82,0)" xlink:href="#G"/></g><path d="M190 0L58-211 59 0H30v-248h39L202-35l-2-213h31V0h-41" id="af"/><g id="m"><use transform="matrix(0.05,0,0,0.05,0,0)" xlink:href="#af"/><use transform="matrix(0.05,0,0,0.05,12.950000000000001,0)" xlink:href="#I"/></g><g id="n"><use transform="matrix(0.05,0,0,0.05,0,0)" xlink:href="#ad"/><use transform="matrix(0.05,0,0,0.05,12,0)" xlink:href="#G"/><use transform="matrix(0.05,0,0,0.05,22,0)" xlink:href="#K"/><use transform="matrix(0.05,0,0,0.05,32,0)" xlink:href="#L"/></g><g id="o"><use transform="matrix(0.05,0,0,0.05,0,0)" xlink:href="#G"/><use transform="matrix(0.05,0,0,0.05,10,0)" xlink:href="#S"/><use transform="matrix(0.05,0,0,0.05,24.950000000000003,0)" xlink:href="#R"/><use transform="matrix(0.05,0,0,0.05,34.95,0)" xlink:href="#Y"/><use transform="matrix(0.05,0,0,0.05,38.900000000000006,0)" xlink:href="#W"/></g><path d="M137-103V0h-34v-103L8-248h37l75 118 75-118h37" id="ag"/><g id="p"><use transform="matrix(0.05,0,0,0.05,0,0)" xlink:href="#ag"/><use transform="matrix(0.05,0,0,0.05,10.35,0)" xlink:href="#G"/><use transform="matrix(0.05,0,0,0.05,20.35,0)" xlink:href="#O"/></g><g id="q"><use transform="matrix(0.05,0,0,0.05,0,0)" xlink:href="#U"/><use transform="matrix(0.05,0,0,0.05,12,0)" xlink:href="#K"/><use transform="matrix(0.05,0,0,0.05,22,0)" xlink:href="#L"/></g><use transform="matrix(0.05,0,0,0.05,0,0)" xlink:href="#ac" id="r"/><path d="M126-127c33 6 58 20 58 59 0 88-139 92-164 29-3-8-5-16-6-25l32-3c6 27 21 44 54 44 32 0 52-15 52-46 0-38-36-46-79-43v-28c39 1 72-4 72-42 0-27-17-43-46-43-28 0-47 15-49 41l-32-3c6-42 35-63 81-64 48-1 79 21 79 65 0 36-21 52-52 59" id="ah"/><g id="s"><use transform="matrix(0.05,0,0,0.05,0,0)" xlink:href="#ah"/><use transform="matrix(0.05,0,0,0.05,10,0)" xlink:href="#ab"/></g><g id="t"><use transform="matrix(0.05,0,0,0.05,0,0)" xlink:href="#L"/><use transform="matrix(0.05,0,0,0.05,10,0)" xlink:href="#R"/><use transform="matrix(0.05,0,0,0.05,20,0)" xlink:href="#T"/><use transform="matrix(0.05,0,0,0.05,29,0)" xlink:href="#O"/></g><path d="M205 0l-28-72H64L36 0H1l101-248h38L239 0h-34zm-38-99l-47-123c-12 45-31 82-46 123h93" id="ai"/><g id="u"><use transform="matrix(0.05,0,0,0.05,0,0)" xlink:href="#ai"/><use transform="matrix(0.05,0,0,0.05,12,0)" xlink:href="#X"/><use transform="matrix(0.05,0,0,0.05,21,0)" xlink:href="#X"/><use transform="matrix(0.05,0,0,0.05,30,0)" xlink:href="#I"/><use transform="matrix(0.05,0,0,0.05,40,0)" xlink:href="#J"/><use transform="matrix(0.05,0,0,0.05,50,0)" xlink:href="#K"/><use transform="matrix(0.05,0,0,0.05,60,0)" xlink:href="#P"/></g><path d="M141 0L90-78 38 0H4l68-98-65-92h35l48 74 47-74h35l-64 92 68 98h-35" id="aj"/><g id="v"><use transform="matrix(0.05,0,0,0.05,0,0)" xlink:href="#G"/><use transform="matrix(0.05,0,0,0.05,10,0)" xlink:href="#aj"/><use transform="matrix(0.05,0,0,0.05,19,0)" xlink:href="#Y"/><use transform="matrix(0.05,0,0,0.05,22.95,0)" xlink:href="#O"/><use transform="matrix(0.05,0,0,0.05,31.950000000000003,0)" xlink:href="#P"/><use transform="matrix(0.05,0,0,0.05,36.95,0)" xlink:href="#O"/></g><path d="M160-131c35 5 61 23 61 61C221 17 115-2 30 0v-248c76 3 177-17 177 60 0 33-19 50-47 57zm-97-11c50-1 110 9 110-42 0-47-63-36-110-37v79zm0 115c55-2 124 14 124-45 0-56-70-42-124-44v89" id="ak"/><g id="w"><use transform="matrix(0.05,0,0,0.05,0,0)" xlink:href="#ak"/><use transform="matrix(0.05,0,0,0.05,12,0)" xlink:href="#R"/><use transform="matrix(0.05,0,0,0.05,22,0)" xlink:href="#W"/><use transform="matrix(0.05,0,0,0.05,25.950000000000003,0)" xlink:href="#R"/><use transform="matrix(0.05,0,0,0.05,35.95,0)" xlink:href="#K"/><use transform="matrix(0.05,0,0,0.05,45.95,0)" xlink:href="#X"/><use transform="matrix(0.05,0,0,0.05,54.95,0)" xlink:href="#G"/></g><path d="M137 0h-34L2-248h35l83 218 83-218h36" id="al"/><g id="x"><use transform="matrix(0.05,0,0,0.05,0,0)" xlink:href="#al"/><use transform="matrix(0.05,0,0,0.05,11,0)" xlink:href="#G"/><use transform="matrix(0.05,0,0,0.05,21,0)" xlink:href="#M"/><use transform="matrix(0.05,0,0,0.05,26.950000000000003,0)" xlink:href="#Y"/><use transform="matrix(0.05,0,0,0.05,30.899999999999995,0)" xlink:href="#H"/><use transform="matrix(0.05,0,0,0.05,35.9,0)" xlink:href="#T"/></g><g id="y"><use transform="matrix(0.05,0,0,0.05,0,0)" xlink:href="#R"/><use transform="matrix(0.05,0,0,0.05,10,0)" xlink:href="#X"/><use transform="matrix(0.05,0,0,0.05,19,0)" xlink:href="#X"/><use transform="matrix(0.05,0,0,0.05,28,0)" xlink:href="#I"/><use transform="matrix(0.05,0,0,0.05,38,0)" xlink:href="#J"/><use transform="matrix(0.05,0,0,0.05,48,0)" xlink:href="#K"/><use transform="matrix(0.05,0,0,0.05,58,0)" xlink:href="#P"/></g><g id="z"><use transform="matrix(0.05,0,0,0.05,0,0)" xlink:href="#G"/><use transform="matrix(0.05,0,0,0.05,10,0)" xlink:href="#aj"/><use transform="matrix(0.05,0,0,0.05,19,0)" xlink:href="#Y"/><use transform="matrix(0.05,0,0,0.05,22.95,0)" xlink:href="#O"/><use transform="matrix(0.05,0,0,0.05,31.950000000000003,0)" xlink:href="#P"/><use transform="matrix(0.05,0,0,0.05,36.95,0)" xlink:href="#R"/><use transform="matrix(0.05,0,0,0.05,46.95,0)" xlink:href="#K"/><use transform="matrix(0.05,0,0,0.05,56.95,0)" xlink:href="#X"/><use transform="matrix(0.05,0,0,0.05,65.95,0)" xlink:href="#G"/></g><g id="A"><use transform="matrix(0.05,0,0,0.05,0,0)" xlink:href="#F"/><use transform="matrix(0.05,0,0,0.05,12.950000000000001,0)" xlink:href="#G"/><use transform="matrix(0.05,0,0,0.05,22.950000000000003,0)" xlink:href="#H"/><use transform="matrix(0.05,0,0,0.05,27.950000000000003,0)" xlink:href="#I"/><use transform="matrix(0.05,0,0,0.05,37.95,0)" xlink:href="#J"/><use transform="matrix(0.05,0,0,0.05,47.95,0)" xlink:href="#K"/><use transform="matrix(0.05,0,0,0.05,57.95,0)" xlink:href="#L"/></g><path d="M177-190C167-65 218 103 67 71c-23-6-38-20-44-43l32-5c15 47 100 32 89-28v-30C133-14 115 1 83 1 29 1 15-40 15-95c0-56 16-97 71-98 29-1 48 16 59 35 1-10 0-23 2-32h30zM94-22c36 0 50-32 50-73 0-42-14-75-50-75-39 0-46 34-46 75s6 73 46 73" id="am"/><g id="B"><use transform="matrix(0.05,0,0,0.05,0,0)" xlink:href="#S"/><use transform="matrix(0.05,0,0,0.05,14.950000000000001,0)" xlink:href="#G"/><use transform="matrix(0.05,0,0,0.05,24.950000000000003,0)" xlink:href="#O"/><use transform="matrix(0.05,0,0,0.05,33.95,0)" xlink:href="#O"/><use transform="matrix(0.05,0,0,0.05,42.95,0)" xlink:href="#R"/><use transform="matrix(0.05,0,0,0.05,52.95,0)" xlink:href="#am"/><use transform="matrix(0.05,0,0,0.05,62.95,0)" xlink:href="#G"/></g><g id="C"><use transform="matrix(0.05,0,0,0.05,0,0)" xlink:href="#ad"/><use transform="matrix(0.05,0,0,0.05,12,0)" xlink:href="#G"/><use transform="matrix(0.05,0,0,0.05,22,0)" xlink:href="#K"/><use transform="matrix(0.05,0,0,0.05,32,0)" xlink:href="#L"/></g><g id="D"><use transform="matrix(0.05,0,0,0.05,0,0)" xlink:href="#S"/><use transform="matrix(0.05,0,0,0.05,14.950000000000001,0)" xlink:href="#R"/><use transform="matrix(0.05,0,0,0.05,24.950000000000003,0)" xlink:href="#Y"/><use transform="matrix(0.05,0,0,0.05,28.900000000000002,0)" xlink:href="#W"/></g><path d="M64 0c3-98 48-159 88-221H18v-27h164v26C143-157 98-101 97 0H64" id="an"/><use transform="matrix(0.05,0,0,0.05,0,0)" xlink:href="#an" id="E"/></defs></g></svg>