<svg xmlns="http://www.w3.org/2000/svg" xmlns:xlink="http://www.w3.org/1999/xlink" xmlns:lucid="lucid" width="1860.6" height="1580"><g transform="translate(-13.541537603284723 -220)" lucid:page-tab-id="0_0"><path d="M1060 320c0 44.18-35.82 80-80 80s-80-35.82-80-80 35.82-80 80-80 80 35.82 80 80z" stroke="#000" stroke-width="2" fill="#fff"/><use xlink:href="#a" transform="matrix(1,0,0,1,905,245) translate(29.725 80.025)"/><path d="M440 260h160v120H440z" stroke="#000" stroke-width="2" fill="#fff"/><use xlink:href="#b" transform="matrix(1,0,0,1,445,265) translate(36.05 59.0875)"/><path d="M1460 260h160v120h-160z" stroke="#000" stroke-width="2" fill="#fff"/><use xlink:href="#c" transform="matrix(1,0,0,1,1465,265) translate(51.55 59.0875)"/><path d="M900 620h160v120H900z" stroke="#000" stroke-width="2" fill="#fff"/><use xlink:href="#d" transform="matrix(1,0,0,1,905,625) translate(16.549999999999997 59.0875)"/><use xlink:href="#e" transform="matrix(1,0,0,1,905,625) translate(93.5 59.0875)"/><path d="M1153.68 284.05h-100.62v-2h100.62zm286.82 0h-83.12v-2h83.12z"/><path d="M1053.08 284.05h-.5l-1.04-2h1.54zM1455.76 283.05l-14.26 4.63v-9.27z"/><path d="M1459 283.05l-18.5 6v-12zm-16.5 3.26l10.03-3.25-10.03-3.26z"/><use xlink:href="#f" transform="matrix(1,0,0,1,1153.6781946834328,272.2495344796003) translate(0 14.4)"/><use xlink:href="#g" transform="matrix(1,0,0,1,1153.6781946834328,272.2495344796003) translate(78.85000000000001 14.4)"/><use xlink:href="#h" transform="matrix(1,0,0,1,1153.6781946834328,272.2495344796003) translate(174.75 14.4)"/><path d="M1175 352.33h-101.82v-2h101.8zm283 0h-119.3v-2H1458z"/><path d="M1459 352.33h-1.03v-2h1.03zM1072.18 355.97l-14.27-4.64 14.28-4.63z"/><path d="M1073.18 357.35l-18.5-6.02 18.5-6zm-12.03-6.02l10.03 3.26v-6.53z"/><use xlink:href="#f" transform="matrix(1,0,0,1,1174.9889175880924,340.5333333333333) translate(0 14.4)"/><use xlink:href="#i" transform="matrix(1,0,0,1,1174.9889175880924,340.5333333333333) translate(78.85000000000001 14.4)"/><use xlink:href="#j" transform="matrix(1,0,0,1,1174.9889175880924,340.5333333333333) translate(112.80000000000001 14.4)"/><path d="M668.8 288.33H602v-2h66.8zm218.6 0h-82.86v-2h82.85z"/><path d="M602.03 288.33H601v-2h1.03zM902.66 287.33l-14.27 4.64v-9.27z"/><path d="M905.9 287.33l-18.5 6.02v-12.03zm-16.5 3.26l10.02-3.27-10.03-3.26z"/><use xlink:href="#k" transform="matrix(1,0,0,1,668.7916666666667,276.5333333333333) translate(0 14.4)"/><use xlink:href="#l" transform="matrix(1,0,0,1,668.7916666666667,276.5333333333333) translate(68.80000000000001 14.4)"/><path d="M950.86 396.6v203.9" stroke="#000" stroke-width="2" fill="none"/><path d="M950.34 395.4l1.52.54v.67h-2v-1.4z"/><path d="M950.86 615.76l-4.63-14.26h9.27z" stroke="#000" stroke-width="2"/><use xlink:href="#m" transform="matrix(1,0,0,1,819.0143114120239,496.49281340201605) translate(0 14.4)"/><use xlink:href="#n" transform="matrix(1,0,0,1,819.0143114120239,496.49281340201605) translate(73.95 14.4)"/><path d="M1028.33 618h-2V404.22h2z"/><path d="M1028.33 619h-2v-1.03h2zM1031.97 403.22h-9.27l4.63-14.27z"/><path d="M1033.35 404.22h-12.03l6-18.5zm-9.28-2h6.52l-3.27-10.03z"/><use xlink:href="#o" transform="matrix(1,0,0,1,1035.3333333333333,491.55820283819065) translate(0 14.4)"/><use xlink:href="#l" transform="matrix(1,0,0,1,1035.3333333333333,491.55820283819065) translate(83.85000000000001 14.4)"/><path d="M662.82 305.48H619.5v-2h43.32zm236.67 0h-60.83v-2h60.82z"/><path d="M900.42 304.8l-.1.68h-.85v-2h1.25zM618.5 309.12l-14.26-4.64 14.26-4.63z"/><path d="M619.5 310.5l-18.5-6.02 18.5-6zm-12.03-6.02l10.03 3.26v-6.52z"/><use xlink:href="#p" transform="matrix(1,0,0,1,662.8224214338843,293.6807853808459) translate(0 14.4)"/><use xlink:href="#q" transform="matrix(1,0,0,1,662.8224214338843,293.6807853808459) translate(83.95 14.4)"/><path d="M633.17 332.33H602v-2h31.17zm248.13 0h-13.68v-2h13.68z"/><path d="M602.03 332.33H601v-2h1.03zM896.56 331.33l-14.26 4.64v-9.27z"/><path d="M899.8 331.33l-18.5 6.02v-12.03zm-16.5 3.26l10.03-3.27-10.03-3.26z"/><use xlink:href="#r" transform="matrix(1,0,0,1,633.1748925378105,320.5333333333333) translate(0 14.4)"/><use xlink:href="#s" transform="matrix(1,0,0,1,633.1748925378105,320.5333333333333) translate(91.80000000000001 14.4)"/><use xlink:href="#t" transform="matrix(1,0,0,1,633.1748925378105,320.5333333333333) translate(110.75000000000001 14.4)"/><path d="M1701.54 1031.56H1840v60h-138.46z" fill="none"/><use xlink:href="#u" transform="matrix(1,0,0,1,1701.5415376032847,1031.5562324738735) translate(0 33.6)"/><use xlink:href="#v" transform="matrix(1,0,0,1,1701.5415376032847,1031.5562324738735) translate(50.900000000000006 33.6)"/><path d="M33.54 1117.34h240v60h-240z" fill="none"/><use xlink:href="#w" transform="matrix(1,0,0,1,33.54153760328472,1117.3447730823211) translate(168.14999999999998 33.6)"/><path d="M42.02 1051.52h240v60h-240z" fill="none"/><use xlink:href="#x" transform="matrix(1,0,0,1,42.018872374224685,1051.5228893192811) translate(68.29999999999998 33.6)"/><use xlink:href="#y" transform="matrix(1,0,0,1,42.018872374224685,1051.5228893192811) translate(149.1 33.6)"/><path d="M1025.1 1338.42h240v60h-240z" fill="none"/><use xlink:href="#z" transform="matrix(1,0,0,1,1025.1009756727522,1338.4200071215341) translate(0 33.6)"/><path d="M634.4 1078.18h240v60h-240z" fill="none"/><use xlink:href="#A" transform="matrix(1,0,0,1,634.4029700753706,1078.1827762347643) translate(60.575 33.6)"/><use xlink:href="#B" transform="matrix(1,0,0,1,634.4029700753706,1078.1827762347643) translate(107.575 33.6)"/><path d="M988.82 1720h134.2v60h-134.2z" fill="none"/><use xlink:href="#C" transform="matrix(1,0,0,1,988.8241450643683,1720) translate(0 22.799999999999997)"/><use xlink:href="#D" transform="matrix(1,0,0,1,988.8241450643683,1720) translate(0 44.4)"/><path d="M1121.1 1040h240v60h-240z" fill="none"/><use xlink:href="#E" transform="matrix(1,0,0,1,1121.1009756727522,1040) translate(57.125 33.6)"/><use xlink:href="#F" transform="matrix(1,0,0,1,1121.1009756727522,1040) translate(94.025 33.6)"/><use xlink:href="#G" transform="matrix(1,0,0,1,1121.1009756727522,1040) translate(119.025 33.6)"/><path d="M400 1040h200v236.84H400z" stroke="#000" stroke-width="2" fill="#fff"/><path d="M590 1050h-15v20h15z" stroke="#000" fill="#fff"/><path d="M580 1053.33h-10v3.34h10zm0 10h-10v3.34h10z" stroke="#000" fill="#fff"/><use xlink:href="#H" transform="matrix(1,0,0,1,400,1040) translate(36.105 125.49375)"/><use xlink:href="#I" transform="matrix(1,0,0,1,400,1040) translate(106.00500000000001 125.49375)"/><use xlink:href="#J" transform="matrix(1,0,0,1,400,1040) translate(124.95500000000001 125.49375)"/><path d="M861.8 1040h268.37v236.84H861.8z" stroke="#000" stroke-width="2" fill="#fff"/><path d="M1120.17 1050h-15v20h15z" stroke="#000" fill="#fff"/><path d="M1110.17 1053.33h-10v3.34h10zm0 10h-10v3.34h10z" stroke="#000" fill="#fff"/><use xlink:href="#K" transform="matrix(1,0,0,1,861.7850214129022,1040.0000000000002) translate(72.605 125.49375)"/><use xlink:href="#I" transform="matrix(1,0,0,1,861.7850214129022,1040.0000000000002) translate(133.505 125.49375)"/><use xlink:href="#L" transform="matrix(1,0,0,1,861.7850214129022,1040.0000000000002) translate(152.455 125.49375)"/><path d="M1385.98 1040h193.27v236.84h-193.27z" stroke="#000" stroke-width="2" fill="#fff"/><path d="M1569.25 1050h-15v20h15z" stroke="#000" fill="#fff"/><path d="M1559.25 1053.33h-10v3.34h10zm0 10h-10v3.34h10z" stroke="#000" fill="#fff"/><use xlink:href="#M" transform="matrix(1,0,0,1,1385.9768462709862,1040) translate(17.57999999999999 125.49375)"/><use xlink:href="#N" transform="matrix(1,0,0,1,1385.9768462709862,1040) translate(94.53 125.49375)"/><path d="M863.98 1460h266.2v156.84h-266.2z" stroke="#000" stroke-width="2" fill="#fff"/><path d="M1120.17 1470h-15v20h15z" stroke="#000" fill="#fff"/><path d="M1110.17 1473.33h-10v3.34h10zm0 10h-10v3.34h10z" stroke="#000" fill="#fff"/><use xlink:href="#M" transform="matrix(1,0,0,1,863.9816212647536,1460) translate(25.12999999999999 83.0875)"/><use xlink:href="#O" transform="matrix(1,0,0,1,863.9816212647536,1460) translate(102.08 83.0875)"/><use xlink:href="#P" transform="matrix(1,0,0,1,863.9816212647536,1460) translate(190.98000000000002 83.0875)"/><path d="M995.98 1393.42v-11M995.98 1348.42v-5" stroke="#000" stroke-width="2" fill="none"/><path d="M981.98 1368.42c0-7.73 6.26-14 14-14 7.73 0 14 6.27 14 14s-6.27 14-14 14c-7.74 0-14-6.27-14-14z" stroke="#000" stroke-width="2" fill="#fff"/><path d="M1015.98 1368.42c0-11.05-8.96-20-20-20-11.05 0-20 8.95-20 20" stroke="#000" stroke-width="2" fill="none"/><path d="M995.18 1393.42v-11h1.6v11z" fill="none"/><path d="M726.85 1158.42h11M771.85 1158.42h5" stroke="#000" stroke-width="2" fill="none"/><path d="M751.85 1144.42c7.73 0 14 6.27 14 14s-6.27 14-14 14-14-6.27-14-14 6.27-14 14-14z" stroke="#000" stroke-width="2" fill="#fff"/><path d="M751.85 1178.42c11.05 0 20-8.95 20-20s-8.95-20-20-20" stroke="#000" stroke-width="2" fill="none"/><path d="M726.85 1157.62h11v1.6h-11z" fill="none"/><path d="M1216.1 1114h11M1261.1 1114h5" stroke="#000" stroke-width="2" fill="none"/><path d="M1241.1 1100c7.73 0 14 6.25 14 14 0 7.72-6.27 14-14 14s-14-6.28-14-14c0-7.75 6.27-14 14-14z" stroke="#000" stroke-width="2" fill="#fff"/><path d="M1241.1 1134c11.05 0 20-8.97 20-20 0-11.06-8.95-20-20-20" stroke="#000" stroke-width="2" fill="none"/><path d="M1216.1 1113.2h11v1.6h-11z" fill="none"/><path d="M321.54 1082.56h10m-30-20c11.05 0 20 8.96 20 20 0 11.05-8.95 20-20 20" stroke="#000" stroke-width="2" fill="none"/><path d="M301.54 1062.56c11.05 0 20 8.96 20 20 0 11.05-8.95 20-20 20zM321.54 1081.76h10v1.6h-10z" fill="none"/><path d="M1026.85 1658.42v10m0 40c-11.04 0-20-8.95-20-20s8.96-20 20-20c11.05 0 20 8.95 20 20s-8.95 20-20 20z" stroke="#000" stroke-width="2" fill="#fff"/><path d="M1027.65 1658.42v10h-1.6v-10z" fill="none"/><path d="M321.54 1147.34h10m-30-20c11.05 0 20 8.96 20 20 0 11.05-8.95 20-20 20" stroke="#000" stroke-width="2" fill="none"/><path d="M301.54 1127.34c11.05 0 20 8.96 20 20 0 11.05-8.95 20-20 20zM321.54 1146.54h10v1.6h-10zM1681.54 1217.98h172.6v60h-172.6z" fill="none"/><use xlink:href="#Q" transform="matrix(1,0,0,1,1681.5415376032847,1217.9799928783905) translate(0 33.6)"/><use xlink:href="#v" transform="matrix(1,0,0,1,1681.5415376032847,1217.9799928783905) translate(57.95 33.6)"/><g fill="none"><path d="M1651.54 1247.98h-10m30 20c-11.04 0-20-8.95-20-20s8.96-20 20-20" stroke="#000" stroke-width="2"/><path d="M1671.54 1267.98c-11.04 0-20-8.95-20-20s8.96-20 20-20zM1651.54 1248.78h-10v-1.6h10z"/></g><path d="M1641.54 1061.56h10m40 0c0 11.04-8.95 20-20 20-11.04 0-20-8.96-20-20 0-11.05 8.96-20 20-20 11.05 0 20 8.95 20 20z" stroke="#000" stroke-width="2" fill="#fff"/><path d="M1641.54 1060.76h10v1.6h-10zM900 1700h77.28v60H900z" fill="none"/><use xlink:href="#R" transform="matrix(1,0,0,1,900,1700) translate(2.0749999999999957 22.799999999999997)"/><use xlink:href="#D" transform="matrix(1,0,0,1,900,1700) translate(5.524999999999999 44.4)"/><g fill="none"><path d="M956.3 1673.42v-10m-20 30c0-11.05 8.94-20 20-20 11.03 0 20 8.95 20 20" stroke="#000" stroke-width="2"/><path d="M936.3 1693.42c0-11.05 8.94-20 20-20 11.03 0 20 8.95 20 20zM955.5 1673.42v-10h1.6v10z"/></g><path d="M999.58 878.42h95.4v100h-95.4z" fill="none"/><use xlink:href="#S" transform="matrix(1,0,0,1,999.5818813238247,878.4200071215339) translate(8.524999999999999 42.8)"/><use xlink:href="#T" transform="matrix(1,0,0,1,999.5818813238247,878.4200071215339) translate(2.049999999999997 64.4)"/><path d="M1047.28 1005v-10m0-40c11.05 0 20 8.95 20 20s-8.95 20-20 20c-11.04 0-20-8.95-20-20s8.96-20 20-20z" stroke="#000" stroke-width="2" fill="#fff"/><path d="M1046.48 1005v-10h1.6v10zM1112.6 1648.42h134.2v60h-134.2z" fill="none"/><use xlink:href="#U" transform="matrix(1,0,0,1,1112.608674977204,1648.4200071215516) translate(28.074999999999996 22.799999999999997)"/><use xlink:href="#D" transform="matrix(1,0,0,1,1112.608674977204,1648.4200071215516) translate(34.025 44.4)"/><g fill="none"><path d="M1092.6 1673.42v-10m-20 30c0-11.05 8.96-20 20-20 11.05 0 20 8.95 20 20" stroke="#000" stroke-width="2"/><path d="M1072.6 1693.42c0-11.05 8.96-20 20-20 11.05 0 20 8.95 20 20zM1091.8 1673.42v-10h1.6v10z"/></g><path d="M332.54 1082.56H398" stroke="#000" stroke-width="2" fill="none"/><path d="M332.57 1083.56h-1.03v-2h1.03zM399 1083.56h-1.03v-2H399z"/><path d="M332.54 1147.34H398" stroke="#000" stroke-width="2" fill="none"/><path d="M332.57 1148.34h-1.03v-2h1.03zM399 1148.34h-1.03v-2H399z"/><path d="M997.08 1458v-31.8h-1.1v-31.78" stroke="#000" stroke-width="2" fill="none"/><path d="M998.08 1459h-2v-1.03h2zM996.98 1394.45h-2v-1.03h2z"/><path d="M995.98 1342.42v-63.58" stroke="#000" stroke-width="2" fill="none"/><path d="M994.98 1343.42v-1.03h2v1.02zM996.98 1278.87h-2v-1.03h2z"/><path d="M777.85 1158.42h81.93" stroke="#000" stroke-width="2" fill="none"/><path d="M777.88 1159.42h-1.03v-2h1.03zM860.8 1159.42h-1.04v-2h1.03z"/><path d="M725.85 1158.42H602" stroke="#000" stroke-width="2" fill="none"/><path d="M726.85 1159.42h-1.02v-2h1.02zM602.03 1159.42H601v-2h1.03z"/><path d="M1215.1 1114h-82.93" stroke="#000" stroke-width="2" fill="none"/><path d="M1216.1 1115h-1.02v-2h1.02zM1132.2 1115h-1.03v-2h1.02z"/><path d="M1267.1 1114h116.88" stroke="#000" stroke-width="2" fill="none"/><path d="M1267.13 1115h-1.03v-2h1.03zM1384.98 1115h-1.03v-2h1.03z"/><path d="M1047.28 1006v32" stroke="#000" stroke-width="2" fill="none"/><path d="M1048.28 1006.03h-2V1005h2zM1048.28 1039h-2v-1.03h2z"/><path d="M1640.54 1061.56h-59.3" stroke="#000" stroke-width="2" fill="none"/><path d="M1641.54 1062.56h-1.02v-2h1.02zM1581.28 1062.56h-1.03v-2h1.03z"/><path d="M1640.54 1247.98h-59.3" stroke="#000" stroke-width="2" fill="none"/><path d="M1641.54 1248.98h-1.02v-2h1.02zM1581.28 1248.98h-1.03v-2h1.03z"/><path d="M1092.6 1662.42v-21.8h1.1v-21.78" stroke="#000" stroke-width="2" fill="none"/><path d="M1091.6 1663.42v-1.03h2v1.02zM1094.7 1618.87h-2v-1.03h2z"/><path d="M1026.85 1657.42v-19.3h1.1v-19.28" stroke="#000" stroke-width="2" fill="none"/><path d="M1025.85 1658.42v-1.03h2v1.02zM1028.95 1618.87h-2v-1.03h2z"/><path d="M956.3 1662.42v-21.8h1.1v-21.78" stroke="#000" stroke-width="2" fill="none"/><path d="M955.3 1663.42v-1.03h2v1.02zM958.4 1618.87h-2v-1.03h2z"/><path d="M1121.1 1216.84h240v60h-240z" fill="none"/><g><use xlink:href="#E" transform="matrix(1,0,0,1,1121.1009756727522,1216.8400142430683) translate(60.099999999999994 33.6)"/><use xlink:href="#F" transform="matrix(1,0,0,1,1121.1009756727522,1216.8400142430683) translate(97 33.6)"/><use xlink:href="#V" transform="matrix(1,0,0,1,1121.1009756727522,1216.8400142430683) translate(122 33.6)"/></g><g><path d="M1266.1 1194h-11M1221.1 1194h-5" stroke="#000" stroke-width="2" fill="none"/><path d="M1241.1 1208c-7.73 0-14-6.28-14-14 0-7.75 6.27-14 14-14s14 6.25 14 14c0 7.72-6.27 14-14 14z" stroke="#000" stroke-width="2" fill="#fff"/><path d="M1241.1 1174c-11.04 0-20 8.94-20 20 0 11.03 8.96 20 20 20" stroke="#000" stroke-width="2" fill="none"/><path d="M1266.1 1194.8h-11v-1.6h11z" fill="none"/></g><path d="M1215.1 1194h-82.93" stroke="#000" stroke-width="2" fill="none"/><path d="M1216.1 1195h-1.02v-2h1.02z"/><path d="M1132.2 1194h-1.03M1267.1 1194h116.88" stroke="#000" stroke-width="2" fill="none"/><path d="M1267.13 1195h-1.03v-2h1.03z"/><path d="M1383.95 1194h1.03" stroke="#000" stroke-width="2" fill="none"/><defs><path d="M137 0h-34L2-248h35l83 218 83-218h36" id="W"/><path d="M24-231v-30h32v30H24zM24 0v-190h32V0H24" id="X"/><path d="M85-194c31 0 48 13 60 33l-1-100h32l1 261h-30c-2-10 0-23-3-31C134-8 116 4 85 4 32 4 16-35 15-94c0-66 23-100 70-100zm9 24c-40 0-46 34-46 75 0 40 6 74 45 74 42 0 51-32 51-76 0-42-9-74-50-73" id="Y"/><path d="M100-194c63 0 86 42 84 106H49c0 40 14 67 53 68 26 1 43-12 49-29l28 8c-11 28-37 45-77 45C44 4 14-33 15-96c1-61 26-98 85-98zm52 81c6-60-76-77-97-28-3 7-6 17-6 28h103" id="Z"/><path d="M100-194c62-1 85 37 85 99 1 63-27 99-86 99S16-35 15-95c0-66 28-99 85-99zM99-20c44 1 53-31 53-75 0-43-8-75-51-75s-53 32-53 75 10 74 51 75" id="aa"/><path d="M177-190C167-65 218 103 67 71c-23-6-38-20-44-43l32-5c15 47 100 32 89-28v-30C133-14 115 1 83 1 29 1 15-40 15-95c0-56 16-97 71-98 29-1 48 16 59 35 1-10 0-23 2-32h30zM94-22c36 0 50-32 50-73 0-42-14-75-50-75-39 0-46 34-46 75s6 73 46 73" id="ab"/><path d="M141-36C126-15 110 5 73 4 37 3 15-17 15-53c-1-64 63-63 125-63 3-35-9-54-41-54-24 1-41 7-42 31l-33-3c5-37 33-52 76-52 45 0 72 20 72 64v82c-1 20 7 32 28 27v20c-31 9-61-2-59-35zM48-53c0 20 12 33 32 33 41-3 63-29 60-74-43 2-92-5-92 41" id="ac"/><path d="M210-169c-67 3-38 105-44 169h-31v-121c0-29-5-50-35-48C34-165 62-65 56 0H25l-1-190h30c1 10-1 24 2 32 10-44 99-50 107 0 11-21 27-35 58-36 85-2 47 119 55 194h-31v-121c0-29-5-49-35-48" id="ad"/><g id="a"><use transform="matrix(0.05,0,0,0.05,0,0)" xlink:href="#W"/><use transform="matrix(0.05,0,0,0.05,11.65,0)" xlink:href="#X"/><use transform="matrix(0.05,0,0,0.05,15.600000000000001,0)" xlink:href="#Y"/><use transform="matrix(0.05,0,0,0.05,25.6,0)" xlink:href="#Z"/><use transform="matrix(0.05,0,0,0.05,35.6,0)" xlink:href="#aa"/><use transform="matrix(0.05,0,0,0.05,45.6,0)" xlink:href="#ab"/><use transform="matrix(0.05,0,0,0.05,55.6,0)" xlink:href="#ac"/><use transform="matrix(0.05,0,0,0.05,65.6,0)" xlink:href="#ad"/><use transform="matrix(0.05,0,0,0.05,80.55,0)" xlink:href="#Z"/></g><path d="M143 4C61 4 22-44 18-125c-5-107 100-154 193-111 17 8 29 25 37 43l-32 9c-13-25-37-40-76-40-61 0-88 39-88 99 0 61 29 100 91 101 35 0 62-11 79-27v-45h-74v-28h105v86C228-13 192 4 143 4" id="ae"/><path d="M96-169c-40 0-48 33-48 73s9 75 48 75c24 0 41-14 43-38l32 2c-6 37-31 61-74 61-59 0-76-41-82-99-10-93 101-131 147-64 4 7 5 14 7 22l-32 3c-4-21-16-35-41-35" id="af"/><path d="M59-47c-2 24 18 29 38 22v24C64 9 27 4 27-40v-127H5v-23h24l9-43h21v43h35v23H59v120" id="ag"/><path d="M114-163C36-179 61-72 57 0H25l-1-190h30c1 12-1 29 2 39 6-27 23-49 58-41v29" id="ah"/><g id="b"><use transform="matrix(0.05,0,0,0.05,0,0)" xlink:href="#ae"/><use transform="matrix(0.05,0,0,0.05,14,0)" xlink:href="#X"/><use transform="matrix(0.05,0,0,0.05,17.95,0)" xlink:href="#aa"/><use transform="matrix(0.05,0,0,0.05,27.950000000000003,0)" xlink:href="#af"/><use transform="matrix(0.05,0,0,0.05,36.95,0)" xlink:href="#ac"/><use transform="matrix(0.05,0,0,0.05,46.95,0)" xlink:href="#ag"/><use transform="matrix(0.05,0,0,0.05,51.95,0)" xlink:href="#aa"/><use transform="matrix(0.05,0,0,0.05,61.95,0)" xlink:href="#ah"/><use transform="matrix(0.05,0,0,0.05,67.9,0)" xlink:href="#Z"/></g><path d="M212-179c-10-28-35-45-73-45-59 0-87 40-87 99 0 60 29 101 89 101 43 0 62-24 78-52l27 14C228-24 195 4 139 4 59 4 22-46 18-125c-6-104 99-153 187-111 19 9 31 26 39 46" id="ai"/><path d="M24 0v-261h32V0H24" id="aj"/><path d="M84 4C-5 8 30-112 23-190h32v120c0 31 7 50 39 49 72-2 45-101 50-169h31l1 190h-30c-1-10 1-25-2-33-11 22-28 36-60 37" id="ak"/><g id="c"><use transform="matrix(0.05,0,0,0.05,0,0)" xlink:href="#ai"/><use transform="matrix(0.05,0,0,0.05,12.950000000000001,0)" xlink:href="#aj"/><use transform="matrix(0.05,0,0,0.05,16.900000000000002,0)" xlink:href="#aa"/><use transform="matrix(0.05,0,0,0.05,26.900000000000002,0)" xlink:href="#ak"/><use transform="matrix(0.05,0,0,0.05,36.900000000000006,0)" xlink:href="#Y"/></g><path d="M205 0l-28-72H64L36 0H1l101-248h38L239 0h-34zm-38-99l-47-123c-12 45-31 82-46 123h93" id="al"/><path d="M115-194c55 1 70 41 70 98S169 2 115 4C84 4 66-9 55-30l1 105H24l-1-265h31l2 30c10-21 28-34 59-34zm-8 174c40 0 45-34 45-75s-6-73-45-74c-42 0-51 32-51 76 0 43 10 73 51 73" id="am"/><path d="M0 4l72-265h28L28 4H0" id="an"/><path d="M30-248c87 1 191-15 191 75 0 78-77 80-158 76V0H30v-248zm33 125c57 0 124 11 124-50 0-59-68-47-124-48v98" id="ao"/><path d="M179-190L93 31C79 59 56 82 12 73V49c39 6 53-20 64-50L1-190h34L92-34l54-156h33" id="ap"/><g id="d"><use transform="matrix(0.05,0,0,0.05,0,0)" xlink:href="#al"/><use transform="matrix(0.05,0,0,0.05,12,0)" xlink:href="#am"/><use transform="matrix(0.05,0,0,0.05,22,0)" xlink:href="#am"/><use transform="matrix(0.05,0,0,0.05,32,0)" xlink:href="#an"/><use transform="matrix(0.05,0,0,0.05,37,0)" xlink:href="#ao"/><use transform="matrix(0.05,0,0,0.05,49,0)" xlink:href="#aj"/><use transform="matrix(0.05,0,0,0.05,52.95,0)" xlink:href="#ac"/><use transform="matrix(0.05,0,0,0.05,62.95,0)" xlink:href="#ap"/></g><path d="M135-143c-3-34-86-38-87 0 15 53 115 12 119 90S17 21 10-45l28-5c4 36 97 45 98 0-10-56-113-15-118-90-4-57 82-63 122-42 12 7 21 19 24 35" id="aq"/><g id="e"><use transform="matrix(0.05,0,0,0.05,0,0)" xlink:href="#aq"/><use transform="matrix(0.05,0,0,0.05,9,0)" xlink:href="#ag"/><use transform="matrix(0.05,0,0,0.05,14,0)" xlink:href="#aa"/><use transform="matrix(0.05,0,0,0.05,24,0)" xlink:href="#ah"/><use transform="matrix(0.05,0,0,0.05,29.950000000000003,0)" xlink:href="#Z"/></g><path d="M233-177c-1 41-23 64-60 70L243 0h-38l-65-103H63V0H30v-248c88 3 205-21 203 71zM63-129c60-2 137 13 137-47 0-61-80-42-137-45v92" id="ar"/><path d="M106-169C34-169 62-67 57 0H25v-261h32l-1 103c12-21 28-36 61-36 89 0 53 116 60 194h-32v-121c2-32-8-49-39-48" id="as"/><g id="f"><use transform="matrix(0.05,0,0,0.05,0,0)" xlink:href="#ar"/><use transform="matrix(0.05,0,0,0.05,12.950000000000001,0)" xlink:href="#X"/><use transform="matrix(0.05,0,0,0.05,16.900000000000002,0)" xlink:href="#af"/><use transform="matrix(0.05,0,0,0.05,25.900000000000002,0)" xlink:href="#as"/><use transform="matrix(0.05,0,0,0.05,35.900000000000006,0)" xlink:href="#X"/><use transform="matrix(0.05,0,0,0.05,39.85000000000001,0)" xlink:href="#Z"/><use transform="matrix(0.05,0,0,0.05,49.85000000000001,0)" xlink:href="#aq"/><use transform="matrix(0.05,0,0,0.05,58.85,0)" xlink:href="#ag"/><use transform="matrix(0.05,0,0,0.05,63.85,0)" xlink:href="#ac"/></g><path d="M108 0H70L1-190h34L89-25l56-165h34" id="at"/><g id="g"><use transform="matrix(0.05,0,0,0.05,0,0)" xlink:href="#aq"/><use transform="matrix(0.05,0,0,0.05,9,0)" xlink:href="#ac"/><use transform="matrix(0.05,0,0,0.05,19,0)" xlink:href="#aj"/><use transform="matrix(0.05,0,0,0.05,22.95,0)" xlink:href="#at"/><use transform="matrix(0.05,0,0,0.05,31.950000000000003,0)" xlink:href="#ac"/><use transform="matrix(0.05,0,0,0.05,41.95,0)" xlink:href="#ag"/><use transform="matrix(0.05,0,0,0.05,46.95,0)" xlink:href="#ac"/><use transform="matrix(0.05,0,0,0.05,56.95,0)" xlink:href="#ab"/><use transform="matrix(0.05,0,0,0.05,66.95,0)" xlink:href="#ab"/><use transform="matrix(0.05,0,0,0.05,76.95,0)" xlink:href="#X"/><use transform="matrix(0.05,0,0,0.05,80.9,0)" xlink:href="#aa"/></g><g id="h"><use transform="matrix(0.05,0,0,0.05,0,0)" xlink:href="#Y"/><use transform="matrix(0.05,0,0,0.05,10,0)" xlink:href="#ac"/><use transform="matrix(0.05,0,0,0.05,20,0)" xlink:href="#ag"/><use transform="matrix(0.05,0,0,0.05,25,0)" xlink:href="#X"/></g><g id="i"><use transform="matrix(0.05,0,0,0.05,0,0)" xlink:href="#Y"/><use transform="matrix(0.05,0,0,0.05,10,0)" xlink:href="#ac"/><use transform="matrix(0.05,0,0,0.05,20,0)" xlink:href="#ag"/><use transform="matrix(0.05,0,0,0.05,25,0)" xlink:href="#X"/></g><g id="j"><use transform="matrix(0.05,0,0,0.05,0,0)" xlink:href="#aq"/><use transform="matrix(0.05,0,0,0.05,9,0)" xlink:href="#ac"/><use transform="matrix(0.05,0,0,0.05,19,0)" xlink:href="#aj"/><use transform="matrix(0.05,0,0,0.05,22.95,0)" xlink:href="#at"/><use transform="matrix(0.05,0,0,0.05,31.950000000000003,0)" xlink:href="#ac"/><use transform="matrix(0.05,0,0,0.05,41.95,0)" xlink:href="#ag"/><use transform="matrix(0.05,0,0,0.05,46.95,0)" xlink:href="#X"/></g><g id="k"><use transform="matrix(0.05,0,0,0.05,0,0)" xlink:href="#ar"/><use transform="matrix(0.05,0,0,0.05,12.950000000000001,0)" xlink:href="#X"/><use transform="matrix(0.05,0,0,0.05,16.900000000000002,0)" xlink:href="#af"/><use transform="matrix(0.05,0,0,0.05,25.900000000000002,0)" xlink:href="#as"/><use transform="matrix(0.05,0,0,0.05,35.900000000000006,0)" xlink:href="#X"/><use transform="matrix(0.05,0,0,0.05,39.85000000000001,0)" xlink:href="#Z"/><use transform="matrix(0.05,0,0,0.05,49.85000000000001,0)" xlink:href="#Y"/><use transform="matrix(0.05,0,0,0.05,59.85,0)" xlink:href="#X"/></g><path d="M145-31C134-9 116 4 85 4 32 4 16-35 15-94c0-59 17-99 70-100 32-1 48 14 60 33 0-11-1-24 2-32h30l-1 268h-32zM93-21c41 0 51-33 51-76s-8-73-50-73c-40 0-46 35-46 75s5 74 45 74" id="au"/><g id="l"><use transform="matrix(0.05,0,0,0.05,0,0)" xlink:href="#ac"/><use transform="matrix(0.05,0,0,0.05,10,0)" xlink:href="#af"/><use transform="matrix(0.05,0,0,0.05,19,0)" xlink:href="#au"/><use transform="matrix(0.05,0,0,0.05,29,0)" xlink:href="#ak"/><use transform="matrix(0.05,0,0,0.05,39,0)" xlink:href="#X"/><use transform="matrix(0.05,0,0,0.05,42.95,0)" xlink:href="#aq"/><use transform="matrix(0.05,0,0,0.05,51.95,0)" xlink:href="#ag"/><use transform="matrix(0.05,0,0,0.05,56.95,0)" xlink:href="#aa"/></g><g id="m"><use transform="matrix(0.05,0,0,0.05,0,0)" xlink:href="#al"/><use transform="matrix(0.05,0,0,0.05,12,0)" xlink:href="#af"/><use transform="matrix(0.05,0,0,0.05,21,0)" xlink:href="#au"/><use transform="matrix(0.05,0,0,0.05,31,0)" xlink:href="#ak"/><use transform="matrix(0.05,0,0,0.05,41,0)" xlink:href="#X"/><use transform="matrix(0.05,0,0,0.05,44.95,0)" xlink:href="#aq"/><use transform="matrix(0.05,0,0,0.05,53.95,0)" xlink:href="#ag"/><use transform="matrix(0.05,0,0,0.05,58.95,0)" xlink:href="#aa"/></g><path d="M117-194c89-4 53 116 60 194h-32v-121c0-31-8-49-39-48C34-167 62-67 57 0H25l-1-190h30c1 10-1 24 2 32 11-22 29-35 61-36" id="av"/><path d="M16-82v-28h88v28H16" id="aw"/><g id="n"><use transform="matrix(0.05,0,0,0.05,0,0)" xlink:href="#X"/><use transform="matrix(0.05,0,0,0.05,3.95,0)" xlink:href="#av"/><use transform="matrix(0.05,0,0,0.05,13.949999999999998,0)" xlink:href="#aw"/><use transform="matrix(0.05,0,0,0.05,19.9,0)" xlink:href="#ac"/><use transform="matrix(0.05,0,0,0.05,29.899999999999995,0)" xlink:href="#am"/><use transform="matrix(0.05,0,0,0.05,39.9,0)" xlink:href="#am"/></g><path d="M101-234c-31-9-42 10-38 44h38v23H63V0H32v-167H5v-23h27c-7-52 17-82 69-68v24" id="ax"/><g id="o"><use transform="matrix(0.05,0,0,0.05,0,0)" xlink:href="#ai"/><use transform="matrix(0.05,0,0,0.05,12.950000000000001,0)" xlink:href="#aa"/><use transform="matrix(0.05,0,0,0.05,22.950000000000003,0)" xlink:href="#av"/><use transform="matrix(0.05,0,0,0.05,32.95,0)" xlink:href="#ax"/><use transform="matrix(0.05,0,0,0.05,37.95,0)" xlink:href="#Z"/><use transform="matrix(0.05,0,0,0.05,47.95,0)" xlink:href="#ah"/><use transform="matrix(0.05,0,0,0.05,53.900000000000006,0)" xlink:href="#ad"/><use transform="matrix(0.05,0,0,0.05,68.85000000000001,0)" xlink:href="#ac"/></g><path d="M63-220v92h138v28H63V0H30v-248h175v28H63" id="ay"/><path d="M115-194c53 0 69 39 70 98 0 66-23 100-70 100C84 3 66-7 56-30L54 0H23l1-261h32v101c10-23 28-34 59-34zm-8 174c40 0 45-34 45-75 0-40-5-75-45-74-42 0-51 32-51 76 0 43 10 73 51 73" id="az"/><path d="M143 0L79-87 56-68V0H24v-261h32v163l83-92h37l-77 82L181 0h-38" id="aA"/><g id="p"><use transform="matrix(0.05,0,0,0.05,0,0)" xlink:href="#ay"/><use transform="matrix(0.05,0,0,0.05,10.950000000000001,0)" xlink:href="#Z"/><use transform="matrix(0.05,0,0,0.05,20.950000000000003,0)" xlink:href="#Z"/><use transform="matrix(0.05,0,0,0.05,30.950000000000003,0)" xlink:href="#Y"/><use transform="matrix(0.05,0,0,0.05,40.95,0)" xlink:href="#az"/><use transform="matrix(0.05,0,0,0.05,50.95,0)" xlink:href="#ac"/><use transform="matrix(0.05,0,0,0.05,60.95,0)" xlink:href="#af"/><use transform="matrix(0.05,0,0,0.05,69.95,0)" xlink:href="#aA"/></g><g id="q"><use transform="matrix(0.05,0,0,0.05,0,0)" xlink:href="#ac"/><use transform="matrix(0.05,0,0,0.05,10,0)" xlink:href="#ak"/><use transform="matrix(0.05,0,0,0.05,20,0)" xlink:href="#Y"/><use transform="matrix(0.05,0,0,0.05,30,0)" xlink:href="#X"/><use transform="matrix(0.05,0,0,0.05,33.95,0)" xlink:href="#aa"/><use transform="matrix(0.05,0,0,0.05,43.95,0)" xlink:href="#an"/><use transform="matrix(0.05,0,0,0.05,48.95,0)" xlink:href="#at"/><use transform="matrix(0.05,0,0,0.05,57.95,0)" xlink:href="#X"/><use transform="matrix(0.05,0,0,0.05,61.900000000000006,0)" xlink:href="#Y"/><use transform="matrix(0.05,0,0,0.05,71.9,0)" xlink:href="#Z"/><use transform="matrix(0.05,0,0,0.05,81.9,0)" xlink:href="#aa"/></g><path d="M30-248c118-7 216 8 213 122C240-48 200 0 122 0H30v-248zM63-27c89 8 146-16 146-99s-60-101-146-95v194" id="aB"/><g id="r"><use transform="matrix(0.05,0,0,0.05,0,0)" xlink:href="#aB"/><use transform="matrix(0.05,0,0,0.05,12.950000000000001,0)" xlink:href="#X"/><use transform="matrix(0.05,0,0,0.05,16.900000000000002,0)" xlink:href="#aq"/><use transform="matrix(0.05,0,0,0.05,25.900000000000002,0)" xlink:href="#am"/><use transform="matrix(0.05,0,0,0.05,35.900000000000006,0)" xlink:href="#aa"/><use transform="matrix(0.05,0,0,0.05,45.900000000000006,0)" xlink:href="#aq"/><use transform="matrix(0.05,0,0,0.05,54.900000000000006,0)" xlink:href="#X"/><use transform="matrix(0.05,0,0,0.05,58.85,0)" xlink:href="#ag"/><use transform="matrix(0.05,0,0,0.05,63.85,0)" xlink:href="#X"/><use transform="matrix(0.05,0,0,0.05,67.80000000000001,0)" xlink:href="#at"/><use transform="matrix(0.05,0,0,0.05,76.80000000000001,0)" xlink:href="#aa"/></g><g id="s"><use transform="matrix(0.05,0,0,0.05,0,0)" xlink:href="#X"/><use transform="matrix(0.05,0,0,0.05,3.95,0)" xlink:href="#av"/></g><g id="t"><use transform="matrix(0.05,0,0,0.05,0,0)" xlink:href="#X"/><use transform="matrix(0.05,0,0,0.05,3.95,0)" xlink:href="#av"/><use transform="matrix(0.05,0,0,0.05,13.949999999999998,0)" xlink:href="#am"/><use transform="matrix(0.05,0,0,0.05,23.95,0)" xlink:href="#ak"/><use transform="matrix(0.05,0,0,0.05,33.95,0)" xlink:href="#ag"/><use transform="matrix(0.05,0,0,0.05,38.95,0)" xlink:href="#an"/><use transform="matrix(0.05,0,0,0.05,43.95,0)" xlink:href="#am"/><use transform="matrix(0.05,0,0,0.05,53.95,0)" xlink:href="#Z"/><use transform="matrix(0.05,0,0,0.05,63.95,0)" xlink:href="#ah"/><use transform="matrix(0.05,0,0,0.05,69.9,0)" xlink:href="#ah"/><use transform="matrix(0.05,0,0,0.05,75.85000000000001,0)" xlink:href="#X"/><use transform="matrix(0.05,0,0,0.05,79.80000000000001,0)" xlink:href="#ax"/><use transform="matrix(0.05,0,0,0.05,84.80000000000001,0)" xlink:href="#Z"/><use transform="matrix(0.05,0,0,0.05,94.80000000000001,0)" xlink:href="#ah"/><use transform="matrix(0.05,0,0,0.05,100.75000000000001,0)" xlink:href="#X"/><use transform="matrix(0.05,0,0,0.05,104.7,0)" xlink:href="#af"/><use transform="matrix(0.05,0,0,0.05,113.7,0)" xlink:href="#ac"/></g><path d="M190 0L58-211 59 0H30v-248h39L202-35l-2-213h31V0h-41" id="aC"/><g id="u"><use transform="matrix(0.05,0,0,0.05,0,0)" xlink:href="#aC"/><use transform="matrix(0.05,0,0,0.05,12.950000000000001,0)" xlink:href="#ak"/><use transform="matrix(0.05,0,0,0.05,22.950000000000003,0)" xlink:href="#aa"/><use transform="matrix(0.05,0,0,0.05,32.95,0)" xlink:href="#at"/><use transform="matrix(0.05,0,0,0.05,41.95,0)" xlink:href="#X"/></g><g id="v"><use transform="matrix(0.05,0,0,0.05,0,0)" xlink:href="#am"/><use transform="matrix(0.05,0,0,0.05,10,0)" xlink:href="#ah"/><use transform="matrix(0.05,0,0,0.05,15.949999999999998,0)" xlink:href="#aa"/><use transform="matrix(0.05,0,0,0.05,25.950000000000003,0)" xlink:href="#ab"/><use transform="matrix(0.05,0,0,0.05,35.95,0)" xlink:href="#ah"/><use transform="matrix(0.05,0,0,0.05,41.900000000000006,0)" xlink:href="#Z"/><use transform="matrix(0.05,0,0,0.05,51.900000000000006,0)" xlink:href="#aq"/><use transform="matrix(0.05,0,0,0.05,60.900000000000006,0)" xlink:href="#aq"/><use transform="matrix(0.05,0,0,0.05,69.9,0)" xlink:href="#X"/></g><g id="w"><use transform="matrix(0.05,0,0,0.05,0,0)" xlink:href="#ai"/><use transform="matrix(0.05,0,0,0.05,12.950000000000001,0)" xlink:href="#aa"/><use transform="matrix(0.05,0,0,0.05,22.950000000000003,0)" xlink:href="#ad"/><use transform="matrix(0.05,0,0,0.05,37.900000000000006,0)" xlink:href="#ac"/><use transform="matrix(0.05,0,0,0.05,47.900000000000006,0)" xlink:href="#av"/><use transform="matrix(0.05,0,0,0.05,57.900000000000006,0)" xlink:href="#Y"/><use transform="matrix(0.05,0,0,0.05,67.9,0)" xlink:href="#X"/></g><g id="x"><use transform="matrix(0.05,0,0,0.05,0,0)" xlink:href="#ao"/><use transform="matrix(0.05,0,0,0.05,12,0)" xlink:href="#Z"/><use transform="matrix(0.05,0,0,0.05,22,0)" xlink:href="#ah"/><use transform="matrix(0.05,0,0,0.05,27.950000000000003,0)" xlink:href="#X"/><use transform="matrix(0.05,0,0,0.05,31.899999999999995,0)" xlink:href="#ax"/><use transform="matrix(0.05,0,0,0.05,36.9,0)" xlink:href="#Z"/><use transform="matrix(0.05,0,0,0.05,46.9,0)" xlink:href="#ah"/><use transform="matrix(0.05,0,0,0.05,52.85,0)" xlink:href="#X"/><use transform="matrix(0.05,0,0,0.05,56.800000000000004,0)" xlink:href="#af"/><use transform="matrix(0.05,0,0,0.05,65.80000000000001,0)" xlink:href="#ac"/></g><path d="M9 0v-24l116-142H16v-24h144v24L44-24h123V0H9" id="aD"/><g id="y"><use transform="matrix(0.05,0,0,0.05,0,0)" xlink:href="#aq"/><use transform="matrix(0.05,0,0,0.05,9,0)" xlink:href="#Z"/><use transform="matrix(0.05,0,0,0.05,19,0)" xlink:href="#aj"/><use transform="matrix(0.05,0,0,0.05,22.95,0)" xlink:href="#Z"/><use transform="matrix(0.05,0,0,0.05,32.95,0)" xlink:href="#aD"/><use transform="matrix(0.05,0,0,0.05,41.95,0)" xlink:href="#X"/><use transform="matrix(0.05,0,0,0.05,45.900000000000006,0)" xlink:href="#aa"/><use transform="matrix(0.05,0,0,0.05,55.900000000000006,0)" xlink:href="#av"/><use transform="matrix(0.05,0,0,0.05,65.9,0)" xlink:href="#ac"/><use transform="matrix(0.05,0,0,0.05,75.9,0)" xlink:href="#ag"/><use transform="matrix(0.05,0,0,0.05,80.9,0)" xlink:href="#ac"/></g><path d="M232-93c-1 65-40 97-104 97C67 4 28-28 28-90v-158h33c8 89-33 224 67 224 102 0 64-133 71-224h33v155" id="aE"/><g id="z"><use transform="matrix(0.05,0,0,0.05,0,0)" xlink:href="#aE"/><use transform="matrix(0.05,0,0,0.05,12.950000000000001,0)" xlink:href="#am"/><use transform="matrix(0.05,0,0,0.05,22.950000000000003,0)" xlink:href="#ab"/><use transform="matrix(0.05,0,0,0.05,32.95,0)" xlink:href="#ah"/><use transform="matrix(0.05,0,0,0.05,38.900000000000006,0)" xlink:href="#ac"/><use transform="matrix(0.05,0,0,0.05,48.900000000000006,0)" xlink:href="#Y"/><use transform="matrix(0.05,0,0,0.05,58.900000000000006,0)" xlink:href="#Z"/></g><g id="A"><use transform="matrix(0.05,0,0,0.05,0,0)" xlink:href="#ao"/><use transform="matrix(0.05,0,0,0.05,12,0)" xlink:href="#ac"/><use transform="matrix(0.05,0,0,0.05,22,0)" xlink:href="#ab"/><use transform="matrix(0.05,0,0,0.05,32,0)" xlink:href="#ac"/></g><g id="B"><use transform="matrix(0.05,0,0,0.05,0,0)" xlink:href="#az"/><use transform="matrix(0.05,0,0,0.05,10,0)" xlink:href="#aa"/><use transform="matrix(0.05,0,0,0.05,20,0)" xlink:href="#aj"/><use transform="matrix(0.05,0,0,0.05,23.95,0)" xlink:href="#aj"/><use transform="matrix(0.05,0,0,0.05,27.899999999999995,0)" xlink:href="#Z"/><use transform="matrix(0.05,0,0,0.05,37.9,0)" xlink:href="#ag"/><use transform="matrix(0.05,0,0,0.05,42.9,0)" xlink:href="#ag"/><use transform="matrix(0.05,0,0,0.05,47.9,0)" xlink:href="#X"/><use transform="matrix(0.05,0,0,0.05,51.85,0)" xlink:href="#av"/><use transform="matrix(0.05,0,0,0.05,61.85,0)" xlink:href="#aa"/></g><g id="C"><use transform="matrix(0.05,0,0,0.05,0,0)" xlink:href="#ao"/><use transform="matrix(0.05,0,0,0.05,12,0)" xlink:href="#ac"/><use transform="matrix(0.05,0,0,0.05,22,0)" xlink:href="#ab"/><use transform="matrix(0.05,0,0,0.05,32,0)" xlink:href="#ac"/><use transform="matrix(0.05,0,0,0.05,42,0)" xlink:href="#ad"/><use transform="matrix(0.05,0,0,0.05,56.95,0)" xlink:href="#Z"/><use transform="matrix(0.05,0,0,0.05,66.95,0)" xlink:href="#av"/><use transform="matrix(0.05,0,0,0.05,76.95,0)" xlink:href="#ag"/><use transform="matrix(0.05,0,0,0.05,81.95,0)" xlink:href="#aa"/></g><g id="D"><use transform="matrix(0.05,0,0,0.05,0,0)" xlink:href="#ac"/><use transform="matrix(0.05,0,0,0.05,10,0)" xlink:href="#af"/><use transform="matrix(0.05,0,0,0.05,19,0)" xlink:href="#au"/><use transform="matrix(0.05,0,0,0.05,29,0)" xlink:href="#ak"/><use transform="matrix(0.05,0,0,0.05,39,0)" xlink:href="#X"/><use transform="matrix(0.05,0,0,0.05,42.95,0)" xlink:href="#aq"/><use transform="matrix(0.05,0,0,0.05,51.95,0)" xlink:href="#ag"/><use transform="matrix(0.05,0,0,0.05,56.95,0)" xlink:href="#aa"/></g><g id="E"><use transform="matrix(0.05,0,0,0.05,0,0)" xlink:href="#aB"/><use transform="matrix(0.05,0,0,0.05,12.950000000000001,0)" xlink:href="#ac"/><use transform="matrix(0.05,0,0,0.05,22.950000000000003,0)" xlink:href="#ag"/><use transform="matrix(0.05,0,0,0.05,27.950000000000003,0)" xlink:href="#X"/></g><g id="F"><use transform="matrix(0.05,0,0,0.05,0,0)" xlink:href="#Y"/><use transform="matrix(0.05,0,0,0.05,10,0)" xlink:href="#ac"/></g><g id="G"><use transform="matrix(0.05,0,0,0.05,0,0)" xlink:href="#af"/><use transform="matrix(0.05,0,0,0.05,9,0)" xlink:href="#ac"/><use transform="matrix(0.05,0,0,0.05,19,0)" xlink:href="#ah"/><use transform="matrix(0.05,0,0,0.05,24.95,0)" xlink:href="#X"/><use transform="matrix(0.05,0,0,0.05,28.899999999999995,0)" xlink:href="#af"/><use transform="matrix(0.05,0,0,0.05,37.9,0)" xlink:href="#ac"/><use transform="matrix(0.05,0,0,0.05,47.9,0)" xlink:href="#ah"/><use transform="matrix(0.05,0,0,0.05,53.85,0)" xlink:href="#Z"/></g><path d="M185-189c-5-48-123-54-124 2 14 75 158 14 163 119 3 78-121 87-175 55-17-10-28-26-33-46l33-7c5 56 141 63 141-1 0-78-155-14-162-118-5-82 145-84 179-34 5 7 8 16 11 25" id="aF"/><g id="H"><use transform="matrix(0.05,0,0,0.05,0,0)" xlink:href="#aF"/><use transform="matrix(0.05,0,0,0.05,12,0)" xlink:href="#X"/><use transform="matrix(0.05,0,0,0.05,15.949999999999998,0)" xlink:href="#aq"/><use transform="matrix(0.05,0,0,0.05,24.95,0)" xlink:href="#ag"/><use transform="matrix(0.05,0,0,0.05,29.950000000000003,0)" xlink:href="#Z"/><use transform="matrix(0.05,0,0,0.05,39.95,0)" xlink:href="#ad"/><use transform="matrix(0.05,0,0,0.05,54.900000000000006,0)" xlink:href="#ac"/></g><g id="I"><use transform="matrix(0.05,0,0,0.05,0,0)" xlink:href="#Y"/><use transform="matrix(0.05,0,0,0.05,10,0)" xlink:href="#X"/></g><g id="J"><use transform="matrix(0.05,0,0,0.05,0,0)" xlink:href="#X"/><use transform="matrix(0.05,0,0,0.05,3.95,0)" xlink:href="#av"/><use transform="matrix(0.05,0,0,0.05,13.949999999999998,0)" xlink:href="#am"/><use transform="matrix(0.05,0,0,0.05,23.95,0)" xlink:href="#ak"/><use transform="matrix(0.05,0,0,0.05,33.95,0)" xlink:href="#ag"/></g><path d="M240 0l2-218c-23 76-54 145-80 218h-23L58-218 59 0H30v-248h44l77 211c21-75 51-140 76-211h43V0h-30" id="aG"/><g id="K"><use transform="matrix(0.05,0,0,0.05,0,0)" xlink:href="#aG"/><use transform="matrix(0.05,0,0,0.05,14.950000000000001,0)" xlink:href="#aa"/><use transform="matrix(0.05,0,0,0.05,24.950000000000003,0)" xlink:href="#ag"/><use transform="matrix(0.05,0,0,0.05,29.950000000000003,0)" xlink:href="#aa"/><use transform="matrix(0.05,0,0,0.05,39.95,0)" xlink:href="#ah"/><use transform="matrix(0.05,0,0,0.05,45.900000000000006,0)" xlink:href="#Z"/></g><g id="L"><use transform="matrix(0.05,0,0,0.05,0,0)" xlink:href="#ab"/><use transform="matrix(0.05,0,0,0.05,10,0)" xlink:href="#X"/><use transform="matrix(0.05,0,0,0.05,13.949999999999998,0)" xlink:href="#aa"/><use transform="matrix(0.05,0,0,0.05,23.95,0)" xlink:href="#af"/><use transform="matrix(0.05,0,0,0.05,32.95,0)" xlink:href="#aa"/></g><g id="M"><use transform="matrix(0.05,0,0,0.05,0,0)" xlink:href="#ae"/><use transform="matrix(0.05,0,0,0.05,14,0)" xlink:href="#Z"/><use transform="matrix(0.05,0,0,0.05,24,0)" xlink:href="#aq"/><use transform="matrix(0.05,0,0,0.05,33,0)" xlink:href="#ag"/><use transform="matrix(0.05,0,0,0.05,38,0)" xlink:href="#X"/><use transform="matrix(0.05,0,0,0.05,41.95,0)" xlink:href="#aa"/><use transform="matrix(0.05,0,0,0.05,51.95,0)" xlink:href="#av"/><use transform="matrix(0.05,0,0,0.05,61.95,0)" xlink:href="#Z"/></g><g id="N"><use transform="matrix(0.05,0,0,0.05,0,0)" xlink:href="#aq"/><use transform="matrix(0.05,0,0,0.05,9,0)" xlink:href="#ac"/><use transform="matrix(0.05,0,0,0.05,19,0)" xlink:href="#aj"/><use transform="matrix(0.05,0,0,0.05,22.95,0)" xlink:href="#at"/><use transform="matrix(0.05,0,0,0.05,31.950000000000003,0)" xlink:href="#ac"/><use transform="matrix(0.05,0,0,0.05,41.95,0)" xlink:href="#ag"/><use transform="matrix(0.05,0,0,0.05,46.95,0)" xlink:href="#ac"/><use transform="matrix(0.05,0,0,0.05,56.95,0)" xlink:href="#ab"/><use transform="matrix(0.05,0,0,0.05,66.95,0)" xlink:href="#ab"/><use transform="matrix(0.05,0,0,0.05,76.95,0)" xlink:href="#X"/></g><g id="O"><use transform="matrix(0.05,0,0,0.05,0,0)" xlink:href="#am"/><use transform="matrix(0.05,0,0,0.05,10,0)" xlink:href="#ac"/><use transform="matrix(0.05,0,0,0.05,20,0)" xlink:href="#ab"/><use transform="matrix(0.05,0,0,0.05,30,0)" xlink:href="#ac"/><use transform="matrix(0.05,0,0,0.05,40,0)" xlink:href="#ad"/><use transform="matrix(0.05,0,0,0.05,54.95,0)" xlink:href="#Z"/><use transform="matrix(0.05,0,0,0.05,64.95,0)" xlink:href="#av"/><use transform="matrix(0.05,0,0,0.05,74.95,0)" xlink:href="#ag"/><use transform="matrix(0.05,0,0,0.05,79.95,0)" xlink:href="#X"/></g><g id="P"><use transform="matrix(0.05,0,0,0.05,0,0)" xlink:href="#X"/><use transform="matrix(0.05,0,0,0.05,3.95,0)" xlink:href="#av"/><use transform="matrix(0.05,0,0,0.05,13.949999999999998,0)" xlink:href="#aw"/><use transform="matrix(0.05,0,0,0.05,19.9,0)" xlink:href="#ac"/><use transform="matrix(0.05,0,0,0.05,29.899999999999995,0)" xlink:href="#am"/><use transform="matrix(0.05,0,0,0.05,39.9,0)" xlink:href="#am"/></g><g id="Q"><use transform="matrix(0.05,0,0,0.05,0,0)" xlink:href="#W"/><use transform="matrix(0.05,0,0,0.05,11,0)" xlink:href="#Z"/><use transform="matrix(0.05,0,0,0.05,21,0)" xlink:href="#af"/><use transform="matrix(0.05,0,0,0.05,30,0)" xlink:href="#af"/><use transform="matrix(0.05,0,0,0.05,39,0)" xlink:href="#as"/><use transform="matrix(0.05,0,0,0.05,49,0)" xlink:href="#X"/></g><g id="R"><use transform="matrix(0.05,0,0,0.05,0,0)" xlink:href="#ar"/><use transform="matrix(0.05,0,0,0.05,12.950000000000001,0)" xlink:href="#X"/><use transform="matrix(0.05,0,0,0.05,16.900000000000002,0)" xlink:href="#af"/><use transform="matrix(0.05,0,0,0.05,25.900000000000002,0)" xlink:href="#as"/><use transform="matrix(0.05,0,0,0.05,35.900000000000006,0)" xlink:href="#X"/><use transform="matrix(0.05,0,0,0.05,39.85000000000001,0)" xlink:href="#Z"/><use transform="matrix(0.05,0,0,0.05,49.85000000000001,0)" xlink:href="#aq"/><use transform="matrix(0.05,0,0,0.05,58.85,0)" xlink:href="#ag"/><use transform="matrix(0.05,0,0,0.05,63.85,0)" xlink:href="#ac"/></g><g id="S"><use transform="matrix(0.05,0,0,0.05,0,0)" xlink:href="#ay"/><use transform="matrix(0.05,0,0,0.05,10.950000000000001,0)" xlink:href="#Z"/><use transform="matrix(0.05,0,0,0.05,20.950000000000003,0)" xlink:href="#Z"/><use transform="matrix(0.05,0,0,0.05,30.950000000000003,0)" xlink:href="#Y"/><use transform="matrix(0.05,0,0,0.05,40.95,0)" xlink:href="#az"/><use transform="matrix(0.05,0,0,0.05,50.95,0)" xlink:href="#ac"/><use transform="matrix(0.05,0,0,0.05,60.95,0)" xlink:href="#af"/><use transform="matrix(0.05,0,0,0.05,69.95,0)" xlink:href="#aA"/></g><g id="T"><use transform="matrix(0.05,0,0,0.05,0,0)" xlink:href="#ac"/><use transform="matrix(0.05,0,0,0.05,10,0)" xlink:href="#ak"/><use transform="matrix(0.05,0,0,0.05,20,0)" xlink:href="#Y"/><use transform="matrix(0.05,0,0,0.05,30,0)" xlink:href="#X"/><use transform="matrix(0.05,0,0,0.05,33.95,0)" xlink:href="#aa"/><use transform="matrix(0.05,0,0,0.05,43.95,0)" xlink:href="#an"/><use transform="matrix(0.05,0,0,0.05,48.95,0)" xlink:href="#at"/><use transform="matrix(0.05,0,0,0.05,57.95,0)" xlink:href="#X"/><use transform="matrix(0.05,0,0,0.05,61.900000000000006,0)" xlink:href="#Y"/><use transform="matrix(0.05,0,0,0.05,71.9,0)" xlink:href="#Z"/><use transform="matrix(0.05,0,0,0.05,81.9,0)" xlink:href="#aa"/></g><g id="U"><use transform="matrix(0.05,0,0,0.05,0,0)" xlink:href="#ai"/><use transform="matrix(0.05,0,0,0.05,12.950000000000001,0)" xlink:href="#aa"/><use transform="matrix(0.05,0,0,0.05,22.950000000000003,0)" xlink:href="#av"/><use transform="matrix(0.05,0,0,0.05,32.95,0)" xlink:href="#ax"/><use transform="matrix(0.05,0,0,0.05,37.95,0)" xlink:href="#Z"/><use transform="matrix(0.05,0,0,0.05,47.95,0)" xlink:href="#ah"/><use transform="matrix(0.05,0,0,0.05,53.900000000000006,0)" xlink:href="#ad"/><use transform="matrix(0.05,0,0,0.05,68.85000000000001,0)" xlink:href="#ac"/></g><g id="V"><use transform="matrix(0.05,0,0,0.05,0,0)" xlink:href="#aq"/><use transform="matrix(0.05,0,0,0.05,9,0)" xlink:href="#ac"/><use transform="matrix(0.05,0,0,0.05,19,0)" xlink:href="#aj"/><use transform="matrix(0.05,0,0,0.05,22.95,0)" xlink:href="#at"/><use transform="matrix(0.05,0,0,0.05,31.950000000000003,0)" xlink:href="#ac"/><use transform="matrix(0.05,0,0,0.05,41.95,0)" xlink:href="#ah"/><use transform="matrix(0.05,0,0,0.05,47.900000000000006,0)" xlink:href="#Z"/></g></defs></g></svg>