<svg xmlns="http://www.w3.org/2000/svg" xmlns:xlink="http://www.w3.org/1999/xlink" xmlns:lucid="lucid" width="1100" height="840"><g transform="translate(-420 -240)" lucid:page-tab-id="0_0"><path d="M1015.2 661.6c0 44.18-35.82 80-80 80s-80-35.82-80-80 35.82-80 80-80 80 35.82 80 80z" stroke="#000" stroke-width="2" fill="#fff"/><use xlink:href="#a" transform="matrix(1,0,0,1,860.1999999999999,586.5999999999999) translate(24.099999999999994 65.9625)"/><use xlink:href="#b" transform="matrix(1,0,0,1,860.1999999999999,586.5999999999999) translate(44.55 87.5625)"/><path d="M1260 601.6h160v120h-160z" stroke="#000" stroke-width="2" fill="#fff"/><use xlink:href="#c" transform="matrix(1,0,0,1,1265,606.5999999999767) translate(47.025 59.0875)"/><path d="M480 601.6h160v120H480z" stroke="#000" stroke-width="2" fill="#fff"/><use xlink:href="#d" transform="matrix(1,0,0,1,485,606.5999999999767) translate(47.575 59.0875)"/><path d="M855.2 320h160v120h-160z" stroke="#000" stroke-width="2" fill="#fff"/><use xlink:href="#e" transform="matrix(1,0,0,1,860.1999999999534,325) translate(54.5 59.0875)"/><path d="M855.2 900h160v120h-160z" stroke="#000" stroke-width="2" fill="#fff"/><use xlink:href="#f" transform="matrix(1,0,0,1,860.1999999999534,905) translate(29.375 59.0875)"/><path d="M1075.5 633.82h-63.6v-2h63.6zm165 0h-46.1v-2h46.1z"/><path d="M1011.93 633.82h-.66l-.74-2h1.4zM1255.76 632.82l-14.26 4.63v-9.27z"/><path d="M1259 632.82l-18.5 6V626.8zm-16.5 3.25l10.03-3.25-10.03-3.26z"/><use xlink:href="#g" transform="matrix(1,0,0,1,1075.5001652514381,622.0155651276335) translate(0 14.4)"/><use xlink:href="#h" transform="matrix(1,0,0,1,1075.5001652514381,622.0155651276335) translate(49.95 14.4)"/><path d="M1090.96 682.34h-58.7v-2h58.7zm167.04 0h-76.2v-2h76.2z"/><path d="M1259 682.34h-1.03v-2h1.03zM1031.27 685.98l-14.27-4.64 14.27-4.63z"/><path d="M1032.27 687.36l-18.5-6.02 18.5-6zm-12.03-6.02l10.03 3.26v-6.5z"/><use xlink:href="#i" transform="matrix(1,0,0,1,1090.9579331334355,670.5443661343539) translate(0 14.4)"/><use xlink:href="#j" transform="matrix(1,0,0,1,1090.9579331334355,670.5443661343539) translate(48.95 14.4)"/><path d="M1072.75 704.67h-49.85v-2h49.85zm185.25 0h-67.35v-2H1258z"/><path d="M1259 704.67h-1.03v-2h1.03zM1021.9 708.3l-14.26-4.63 14.26-4.64z"/><path d="M1022.9 709.68l-18.5-6 18.5-6.02zm-12.03-6l10.03 3.25v-6.52z"/><use xlink:href="#i" transform="matrix(1,0,0,1,1072.7495967411232,692.8676145974453) translate(0 14.4)"/><use xlink:href="#k" transform="matrix(1,0,0,1,1072.7495967411232,692.8676145974453) translate(48.95 14.4)"/><path d="M974.9 880.5h-2v-68.97h2zm0-90.57h-2v-56.18h2z"/><path d="M974.9 733.77h-2v-.5l1.66-.86.35-.2zM973.9 895.76l-4.63-14.26h9.27z"/><path d="M973.9 899l-6-18.5h12.02zm-3.25-16.5l3.26 10.03 3.26-10.03z"/><use xlink:href="#l" transform="matrix(1,0,0,1,896.5555297135207,789.9252166108861) translate(0 14.4)"/><use xlink:href="#m" transform="matrix(1,0,0,1,896.5555297135207,789.9252166108861) translate(71.95 14.4)"/><path d="M893.93 898h-2v-40.86h2zm0-62.46h-2v-86.36h2z"/><path d="M893.93 899h-2v-1.03h2zM897.57 748.18h-9.28l4.63-14.26z"/><path d="M898.94 749.18h-12.02l6-18.5zm-9.27-2h6.52l-3.27-10.03z"/><use xlink:href="#n" transform="matrix(1,0,0,1,827.5799385236546,835.5422895572032) translate(0 14.4)"/><use xlink:href="#o" transform="matrix(1,0,0,1,827.5799385236546,835.5422895572032) translate(47 14.4)"/><path d="M688.54 662.6H659.5v-2h29.04zm164.66 0h-23.76v-2h23.76z"/><path d="M854.2 661.6v1h-1.03v-2h1.06zM658.5 666.24l-14.26-4.64 14.26-4.64z"/><path d="M659.5 667.6l-18.5-6 18.5-6zm-12.03-6l10.03 3.26v-6.52z"/><use xlink:href="#l" transform="matrix(1,0,0,1,688.5404477451065,650.8) translate(0 14.4)"/><use xlink:href="#h" transform="matrix(1,0,0,1,688.5404477451065,650.8) translate(71.95 14.4)"/><path d="M936.2 579.6h-2v-58h2zm0-79.6h-2v-40.5h2z"/><path d="M936.2 580.63l-1-.03h-1v-1.03h2zM939.84 458.5h-9.28l4.64-14.26z"/><path d="M941.2 459.5h-12l6-18.5zm-9.26-2h6.52l-3.26-10.03z"/><use xlink:href="#i" transform="matrix(1,0,0,1,876.2499999999534,499.99999571767825) translate(0 14.4)"/><use xlink:href="#k" transform="matrix(1,0,0,1,876.2499999999534,499.99999571767825) translate(48.95 14.4)"/><path d="M1100 300h400v245.2h-400z" fill="#fff" fill-opacity="0"/><path d="M1140 300h-40v245.2h40" stroke="#000" stroke-width="2" fill="none"/><use xlink:href="#p" transform="matrix(1,0,0,1,1115,305) translate(0 37.70000000000001)"/><use xlink:href="#q" transform="matrix(1,0,0,1,1115,305) translate(15.850000000000001 37.70000000000001)"/><use xlink:href="#r" transform="matrix(1,0,0,1,1115,305) translate(79.70000000000002 37.70000000000001)"/><use xlink:href="#s" transform="matrix(1,0,0,1,1115,305) translate(158.50000000000003 37.70000000000001)"/><use xlink:href="#t" transform="matrix(1,0,0,1,1115,305) translate(238.35000000000002 37.70000000000001)"/><use xlink:href="#u" transform="matrix(1,0,0,1,1115,305) translate(257.3 37.70000000000001)"/><use xlink:href="#v" transform="matrix(1,0,0,1,1115,305) translate(353.15000000000003 37.70000000000001)"/><use xlink:href="#w" transform="matrix(1,0,0,1,1115,305) translate(0 59.30000000000001)"/><use xlink:href="#x" transform="matrix(1,0,0,1,1115,305) translate(66.9 59.30000000000001)"/><use xlink:href="#y" transform="matrix(1,0,0,1,1115,305) translate(116.85000000000001 59.30000000000001)"/><use xlink:href="#z" transform="matrix(1,0,0,1,1115,305) translate(135.8 59.30000000000001)"/><use xlink:href="#p" transform="matrix(1,0,0,1,1115,305) translate(0 80.90000000000002)"/><use xlink:href="#q" transform="matrix(1,0,0,1,1115,305) translate(15.850000000000001 80.90000000000002)"/><use xlink:href="#A" transform="matrix(1,0,0,1,1115,305) translate(79.70000000000002 80.90000000000002)"/><use xlink:href="#B" transform="matrix(1,0,0,1,1115,305) translate(177.55 80.90000000000002)"/><use xlink:href="#C" transform="matrix(1,0,0,1,1115,305) translate(277.40000000000003 80.90000000000002)"/><use xlink:href="#D" transform="matrix(1,0,0,1,1115,305) translate(311.40000000000003 80.90000000000002)"/><use xlink:href="#E" transform="matrix(1,0,0,1,1115,305) translate(0 102.50000000000003)"/><use xlink:href="#F" transform="matrix(1,0,0,1,1115,305) translate(68.8 102.50000000000003)"/><use xlink:href="#G" transform="matrix(1,0,0,1,1115,305) translate(97.75 102.50000000000003)"/><use xlink:href="#p" transform="matrix(1,0,0,1,1115,305) translate(0 124.10000000000002)"/><use xlink:href="#q" transform="matrix(1,0,0,1,1115,305) translate(15.850000000000001 124.10000000000002)"/><use xlink:href="#H" transform="matrix(1,0,0,1,1115,305) translate(79.70000000000002 124.10000000000002)"/><use xlink:href="#I" transform="matrix(1,0,0,1,1115,305) translate(144.50000000000003 124.10000000000002)"/><use xlink:href="#J" transform="matrix(1,0,0,1,1115,305) translate(256.35 124.10000000000002)"/><use xlink:href="#K" transform="matrix(1,0,0,1,1115,305) translate(290.35 124.10000000000002)"/><use xlink:href="#L" transform="matrix(1,0,0,1,1115,305) translate(303.25 124.10000000000002)"/><use xlink:href="#J" transform="matrix(1,0,0,1,1115,305) translate(0 145.70000000000002)"/><use xlink:href="#M" transform="matrix(1,0,0,1,1115,305) translate(34 145.70000000000002)"/><use xlink:href="#N" transform="matrix(1,0,0,1,1115,305) translate(105.9 145.70000000000002)"/><use xlink:href="#p" transform="matrix(1,0,0,1,1115,305) translate(0 167.3)"/><use xlink:href="#O" transform="matrix(1,0,0,1,1115,305) translate(15.850000000000001 167.3)"/><use xlink:href="#P" transform="matrix(1,0,0,1,1115,305) translate(67.75 167.3)"/><use xlink:href="#C" transform="matrix(1,0,0,1,1115,305) translate(116.7 167.3)"/><use xlink:href="#Q" transform="matrix(1,0,0,1,1115,305) translate(150.7 167.3)"/><use xlink:href="#R" transform="matrix(1,0,0,1,1115,305) translate(240.64999999999998 167.3)"/><use xlink:href="#S" transform="matrix(1,0,0,1,1115,305) translate(255.64999999999998 167.3)"/><use xlink:href="#T" transform="matrix(1,0,0,1,1115,305) translate(0 188.9)"/><use xlink:href="#U" transform="matrix(1,0,0,1,1115,305) translate(101.75 188.9)"/><use xlink:href="#V" transform="matrix(1,0,0,1,1115,305) translate(193.65 188.9)"/><use xlink:href="#W" transform="matrix(1,0,0,1,1115,305) translate(0 210.5)"/><use xlink:href="#X" transform="matrix(1,0,0,1,1115,305) translate(115.75 210.5)"/><use xlink:href="#Y" transform="matrix(1,0,0,1,1115,305) translate(158.65 210.5)"/><path d="M812.8 260H1060v220H812.8z" fill-opacity="0"/><path d="M832.42 260h1.96m9.8 0h19.63m9.82 0h1.96m9.8 0h19.63m9.82 0h1.96m9.8 0h19.63m9.82 0h1.96m9.8 0h19.63m9.82 0h1.96m9.8 0h19.63m9.82 0h1.96m9.8 0h9.82v10.48m0 10.47v2.1m0 10.47v20.96m0 10.47v2.1m0 10.47v20.96m0 10.47v2.1m0 10.47v20.96m0 10.47v2.1m0 10.47v20.96m0 10.47v2.1m0 10.47V480h-9.8m-9.82 0h-1.96m-9.8 0h-19.63m-9.82 0h-1.96m-9.8 0h-19.63m-9.82 0h-1.96m-9.8 0h-19.63m-9.82 0h-1.96m-9.8 0h-19.63m-9.82 0h-1.96m-9.8 0h-19.63m-9.82 0h-1.96m-9.8 0h-9.82v-10.48m0-10.47v-2.1m0-10.47v-20.96m0-10.47v-2.1m0-10.47v-20.96m0-10.47v-2.1m0-10.47v-20.96m0-10.47v-2.1m0-10.47v-20.96m0-10.47v-2.1m0-10.47V260h9.8" stroke="#000" stroke-width="2" fill="none"/><g><use xlink:href="#Z" transform="matrix(1,0,0,1,832.7999999999302,280) translate(26.07499999999999 14.4)"/><use xlink:href="#aa" transform="matrix(1,0,0,1,832.7999999999302,280) translate(124.975 14.4)"/></g><path d="M440 540h240v220H440z" fill-opacity="0"/><path d="M459.05 540h1.9m9.53 0h19.04m9.53 0h1.9m9.53 0h19.04m9.53 0h1.9m9.53 0h19.04m9.53 0h1.9m9.53 0h19.04m9.53 0h1.9m9.53 0h19.04m9.53 0h1.9m9.53 0H680v10.48m0 10.47v2.1m0 10.47v20.96m0 10.47v2.1m0 10.47v20.96m0 10.47v2.1m0 10.47v20.96m0 10.47v2.1m0 10.47v20.96m0 10.47v2.1m0 10.47V760h-9.52m-9.53 0h-1.9m-9.53 0h-19.04m-9.53 0h-1.9m-9.53 0h-19.04m-9.53 0h-1.9m-9.53 0h-19.04m-9.53 0h-1.9m-9.53 0h-19.04m-9.53 0h-1.9m-9.53 0h-19.04m-9.53 0h-1.9m-9.53 0H440v-10.48m0-10.47v-2.1m0-10.47v-20.96m0-10.47v-2.1m0-10.47v-20.96m0-10.47v-2.1m0-10.47v-20.96m0-10.47v-2.1m0-10.47v-20.96m0-10.47v-2.1m0-10.47V540h9.52" stroke="#000" stroke-width="2" fill="none"/><g><use xlink:href="#ab" transform="matrix(1,0,0,1,460,560) translate(79.025 14.4)"/></g><path d="M812.8 860h244.8v200H812.8z" fill-opacity="0"/><path d="M832.23 860h1.94m9.72 0h19.4m9.73 0h1.94m9.72 0h19.4m9.73 0h1.94m9.72 0h19.4m9.73 0h1.94m9.72 0h19.4m9.73 0h1.94m9.72 0h19.4m9.73 0h1.94m9.72 0h9.7v9.52m0 9.53v1.9m0 9.53v19.04m0 9.53v1.9m0 9.53v19.04m0 9.53v1.9m0 9.53v19.04m0 9.53v1.9m0 9.53v19.04m0 9.53v1.9m0 9.53v9.52h-9.7m-9.73 0h-1.94m-9.72 0h-19.4m-9.73 0h-1.94m-9.72 0h-19.4m-9.73 0h-1.94m-9.72 0h-19.4m-9.73 0h-1.94m-9.72 0h-19.4m-9.73 0h-1.94m-9.72 0h-19.4m-9.73 0h-1.94m-9.72 0h-9.7v-9.52m0-9.53v-1.9m0-9.53v-19.04m0-9.53v-1.9m0-9.53v-19.04m0-9.53v-1.9m0-9.53v-19.04m0-9.53v-1.9m0-9.53v-19.04m0-9.53v-1.9m0-9.53V860h9.7" stroke="#000" stroke-width="2" fill="none"/><path d="M883.74 1028.4h102.92v31.6H883.74z" fill="#fff" fill-opacity="0"/><g><use xlink:href="#ac" transform="matrix(1,0,0,1,888.7374999999535,1033.4) translate(0 14.4)"/></g><path d="M1217.6 540h244.8v200h-244.8z" fill-opacity="0"/><path d="M1237.03 540h1.94m9.72 0h19.4m9.73 0h1.94m9.72 0h19.4m9.73 0h1.94m9.72 0h19.4m9.73 0h1.94m9.72 0h19.4m9.73 0h1.94m9.72 0h19.4m9.73 0h1.94m9.72 0h9.7v9.52m0 9.53v1.9m0 9.53v19.04m0 9.53v1.9m0 9.53v19.04m0 9.53v1.9m0 9.53v19.04m0 9.53v1.9m0 9.53v19.04m0 9.53v1.9m0 9.53V740h-9.7m-9.73 0h-1.94m-9.72 0h-19.4m-9.73 0h-1.94m-9.72 0h-19.4m-9.73 0h-1.94m-9.72 0h-19.4m-9.73 0h-1.94m-9.72 0h-19.4m-9.73 0h-1.94m-9.72 0h-19.4m-9.73 0h-1.94m-9.72 0h-9.7v-9.52m0-9.53v-1.9m0-9.53v-19.04m0-9.53v-1.9m0-9.53v-19.04m0-9.53v-1.9m0-9.53v-19.04m0-9.53v-1.9m0-9.53v-19.04m0-9.53v-1.9m0-9.53V540h9.7" stroke="#000" stroke-width="2" fill="none"/><path d="M1310 560h60v40h-60z" fill="#fff" fill-opacity="0"/><g><use xlink:href="#ab" transform="matrix(1,0,0,1,1315,565) translate(0 14.4)"/></g><defs><path d="M30 0v-248h187v28H63v79h144v27H63v87h162V0H30" id="ad"/><path d="M16-82v-28h88v28H16" id="ae"/><path d="M96-169c-40 0-48 33-48 73s9 75 48 75c24 0 41-14 43-38l32 2c-6 37-31 61-74 61-59 0-76-41-82-99-10-93 101-131 147-64 4 7 5 14 7 22l-32 3c-4-21-16-35-41-35" id="af"/><path d="M100-194c62-1 85 37 85 99 1 63-27 99-86 99S16-35 15-95c0-66 28-99 85-99zM99-20c44 1 53-31 53-75 0-43-8-75-51-75s-53 32-53 75 10 74 51 75" id="ag"/><path d="M210-169c-67 3-38 105-44 169h-31v-121c0-29-5-50-35-48C34-165 62-65 56 0H25l-1-190h30c1 10-1 24 2 32 10-44 99-50 107 0 11-21 27-35 58-36 85-2 47 119 55 194h-31v-121c0-29-5-49-35-48" id="ah"/><path d="M100-194c63 0 86 42 84 106H49c0 40 14 67 53 68 26 1 43-12 49-29l28 8c-11 28-37 45-77 45C44 4 14-33 15-96c1-61 26-98 85-98zm52 81c6-60-76-77-97-28-3 7-6 17-6 28h103" id="ai"/><path d="M114-163C36-179 61-72 57 0H25l-1-190h30c1 12-1 29 2 39 6-27 23-49 58-41v29" id="aj"/><g id="a"><use transform="matrix(0.05,0,0,0.05,0,0)" xlink:href="#ad"/><use transform="matrix(0.05,0,0,0.05,12,0)" xlink:href="#ae"/><use transform="matrix(0.05,0,0,0.05,17.95,0)" xlink:href="#af"/><use transform="matrix(0.05,0,0,0.05,26.950000000000003,0)" xlink:href="#ag"/><use transform="matrix(0.05,0,0,0.05,36.95,0)" xlink:href="#ah"/><use transform="matrix(0.05,0,0,0.05,51.900000000000006,0)" xlink:href="#ah"/><use transform="matrix(0.05,0,0,0.05,66.85000000000001,0)" xlink:href="#ai"/><use transform="matrix(0.05,0,0,0.05,76.85000000000001,0)" xlink:href="#aj"/><use transform="matrix(0.05,0,0,0.05,82.80000000000001,0)" xlink:href="#af"/><use transform="matrix(0.05,0,0,0.05,91.80000000000001,0)" xlink:href="#ai"/></g><path d="M206 0h-36l-40-164L89 0H53L-1-190h32L70-26l43-164h34l41 164 42-164h31" id="ak"/><path d="M115-194c53 0 69 39 70 98 0 66-23 100-70 100C84 3 66-7 56-30L54 0H23l1-261h32v101c10-23 28-34 59-34zm-8 174c40 0 45-34 45-75 0-40-5-75-45-74-42 0-51 32-51 76 0 43 10 73 51 73" id="al"/><path d="M135-143c-3-34-86-38-87 0 15 53 115 12 119 90S17 21 10-45l28-5c4 36 97 45 98 0-10-56-113-15-118-90-4-57 82-63 122-42 12 7 21 19 24 35" id="am"/><path d="M24-231v-30h32v30H24zM24 0v-190h32V0H24" id="an"/><path d="M59-47c-2 24 18 29 38 22v24C64 9 27 4 27-40v-127H5v-23h24l9-43h21v43h35v23H59v120" id="ao"/><g id="b"><use transform="matrix(0.05,0,0,0.05,0,0)" xlink:href="#ak"/><use transform="matrix(0.05,0,0,0.05,12.950000000000001,0)" xlink:href="#ai"/><use transform="matrix(0.05,0,0,0.05,22.950000000000003,0)" xlink:href="#al"/><use transform="matrix(0.05,0,0,0.05,32.95,0)" xlink:href="#am"/><use transform="matrix(0.05,0,0,0.05,41.95,0)" xlink:href="#an"/><use transform="matrix(0.05,0,0,0.05,45.900000000000006,0)" xlink:href="#ao"/><use transform="matrix(0.05,0,0,0.05,50.900000000000006,0)" xlink:href="#ai"/></g><path d="M160-131c35 5 61 23 61 61C221 17 115-2 30 0v-248c76 3 177-17 177 60 0 33-19 50-47 57zm-97-11c50-1 110 9 110-42 0-47-63-36-110-37v79zm0 115c55-2 124 14 124-45 0-56-70-42-124-44v89" id="ap"/><path d="M84 4C-5 8 30-112 23-190h32v120c0 31 7 50 39 49 72-2 45-101 50-169h31l1 190h-30c-1-10 1-25-2-33-11 22-28 36-60 37" id="aq"/><path d="M179-190L93 31C79 59 56 82 12 73V49c39 6 53-20 64-50L1-190h34L92-34l54-156h33" id="ar"/><g id="c"><use transform="matrix(0.05,0,0,0.05,0,0)" xlink:href="#ap"/><use transform="matrix(0.05,0,0,0.05,12,0)" xlink:href="#aq"/><use transform="matrix(0.05,0,0,0.05,22,0)" xlink:href="#ar"/><use transform="matrix(0.05,0,0,0.05,31,0)" xlink:href="#ai"/><use transform="matrix(0.05,0,0,0.05,41,0)" xlink:href="#aj"/><use transform="matrix(0.05,0,0,0.05,46.95,0)" xlink:href="#am"/></g><path d="M185-189c-5-48-123-54-124 2 14 75 158 14 163 119 3 78-121 87-175 55-17-10-28-26-33-46l33-7c5 56 141 63 141-1 0-78-155-14-162-118-5-82 145-84 179-34 5 7 8 16 11 25" id="as"/><path d="M24 0v-261h32V0H24" id="at"/><g id="d"><use transform="matrix(0.05,0,0,0.05,0,0)" xlink:href="#as"/><use transform="matrix(0.05,0,0,0.05,12,0)" xlink:href="#ai"/><use transform="matrix(0.05,0,0,0.05,22,0)" xlink:href="#at"/><use transform="matrix(0.05,0,0,0.05,25.950000000000003,0)" xlink:href="#at"/><use transform="matrix(0.05,0,0,0.05,29.899999999999995,0)" xlink:href="#ai"/><use transform="matrix(0.05,0,0,0.05,39.9,0)" xlink:href="#aj"/><use transform="matrix(0.05,0,0,0.05,45.85,0)" xlink:href="#am"/></g><path d="M141-36C126-15 110 5 73 4 37 3 15-17 15-53c-1-64 63-63 125-63 3-35-9-54-41-54-24 1-41 7-42 31l-33-3c5-37 33-52 76-52 45 0 72 20 72 64v82c-1 20 7 32 28 27v20c-31 9-61-2-59-35zM48-53c0 20 12 33 32 33 41-3 63-29 60-74-43 2-92-5-92 41" id="au"/><path d="M117-194c89-4 53 116 60 194h-32v-121c0-31-8-49-39-48C34-167 62-67 57 0H25l-1-190h30c1 10-1 24 2 32 11-22 29-35 61-36" id="av"/><path d="M143 0L79-87 56-68V0H24v-261h32v163l83-92h37l-77 82L181 0h-38" id="aw"/><g id="e"><use transform="matrix(0.05,0,0,0.05,0,0)" xlink:href="#ap"/><use transform="matrix(0.05,0,0,0.05,12,0)" xlink:href="#au"/><use transform="matrix(0.05,0,0,0.05,22,0)" xlink:href="#av"/><use transform="matrix(0.05,0,0,0.05,32,0)" xlink:href="#aw"/></g><path d="M266 0h-40l-56-210L115 0H75L2-248h35L96-30l15-64 43-154h32l59 218 59-218h35" id="ax"/><path d="M106-169C34-169 62-67 57 0H25v-261h32l-1 103c12-21 28-36 61-36 89 0 53 116 60 194h-32v-121c2-32-8-49-39-48" id="ay"/><g id="f"><use transform="matrix(0.05,0,0,0.05,0,0)" xlink:href="#ax"/><use transform="matrix(0.05,0,0,0.05,16.3,0)" xlink:href="#au"/><use transform="matrix(0.05,0,0,0.05,26.3,0)" xlink:href="#aj"/><use transform="matrix(0.05,0,0,0.05,32.25,0)" xlink:href="#ai"/><use transform="matrix(0.05,0,0,0.05,42.25,0)" xlink:href="#ay"/><use transform="matrix(0.05,0,0,0.05,52.25,0)" xlink:href="#ag"/><use transform="matrix(0.05,0,0,0.05,62.25,0)" xlink:href="#aq"/><use transform="matrix(0.05,0,0,0.05,72.25,0)" xlink:href="#am"/><use transform="matrix(0.05,0,0,0.05,81.25,0)" xlink:href="#ai"/></g><g id="g"><use transform="matrix(0.05,0,0,0.05,0,0)" xlink:href="#as"/><use transform="matrix(0.05,0,0,0.05,12,0)" xlink:href="#ay"/><use transform="matrix(0.05,0,0,0.05,22,0)" xlink:href="#ag"/><use transform="matrix(0.05,0,0,0.05,32,0)" xlink:href="#ak"/></g><path d="M115-194c55 1 70 41 70 98S169 2 115 4C84 4 66-9 55-30l1 105H24l-1-265h31l2 30c10-21 28-34 59-34zm-8 174c40 0 45-34 45-75s-6-73-45-74c-42 0-51 32-51 76 0 43 10 73 51 73" id="az"/><path d="M85-194c31 0 48 13 60 33l-1-100h32l1 261h-30c-2-10 0-23-3-31C134-8 116 4 85 4 32 4 16-35 15-94c0-66 23-100 70-100zm9 24c-40 0-46 34-46 75 0 40 6 74 45 74 42 0 51-32 51-76 0-42-9-74-50-73" id="aA"/><g id="h"><use transform="matrix(0.05,0,0,0.05,0,0)" xlink:href="#az"/><use transform="matrix(0.05,0,0,0.05,10,0)" xlink:href="#aj"/><use transform="matrix(0.05,0,0,0.05,15.949999999999998,0)" xlink:href="#ag"/><use transform="matrix(0.05,0,0,0.05,25.950000000000003,0)" xlink:href="#aA"/><use transform="matrix(0.05,0,0,0.05,35.95,0)" xlink:href="#aq"/><use transform="matrix(0.05,0,0,0.05,45.95,0)" xlink:href="#af"/><use transform="matrix(0.05,0,0,0.05,54.95,0)" xlink:href="#ao"/><use transform="matrix(0.05,0,0,0.05,59.95,0)" xlink:href="#am"/></g><path d="M240 0l2-218c-23 76-54 145-80 218h-23L58-218 59 0H30v-248h44l77 211c21-75 51-140 76-211h43V0h-30" id="aB"/><g id="i"><use transform="matrix(0.05,0,0,0.05,0,0)" xlink:href="#aB"/><use transform="matrix(0.05,0,0,0.05,14.950000000000001,0)" xlink:href="#au"/><use transform="matrix(0.05,0,0,0.05,24.950000000000003,0)" xlink:href="#aw"/><use transform="matrix(0.05,0,0,0.05,33.95,0)" xlink:href="#ai"/></g><g id="j"><use transform="matrix(0.05,0,0,0.05,0,0)" xlink:href="#ag"/><use transform="matrix(0.05,0,0,0.05,10,0)" xlink:href="#aj"/><use transform="matrix(0.05,0,0,0.05,15.949999999999998,0)" xlink:href="#aA"/><use transform="matrix(0.05,0,0,0.05,25.950000000000003,0)" xlink:href="#ai"/><use transform="matrix(0.05,0,0,0.05,35.95,0)" xlink:href="#aj"/></g><g id="k"><use transform="matrix(0.05,0,0,0.05,0,0)" xlink:href="#az"/><use transform="matrix(0.05,0,0,0.05,10,0)" xlink:href="#au"/><use transform="matrix(0.05,0,0,0.05,20,0)" xlink:href="#ar"/><use transform="matrix(0.05,0,0,0.05,29,0)" xlink:href="#ah"/><use transform="matrix(0.05,0,0,0.05,43.95,0)" xlink:href="#ai"/><use transform="matrix(0.05,0,0,0.05,53.95,0)" xlink:href="#av"/><use transform="matrix(0.05,0,0,0.05,63.95,0)" xlink:href="#ao"/></g><path d="M233-177c-1 41-23 64-60 70L243 0h-38l-65-103H63V0H30v-248c88 3 205-21 203 71zM63-129c60-2 137 13 137-47 0-61-80-42-137-45v92" id="aC"/><path d="M145-31C134-9 116 4 85 4 32 4 16-35 15-94c0-59 17-99 70-100 32-1 48 14 60 33 0-11-1-24 2-32h30l-1 268h-32zM93-21c41 0 51-33 51-76s-8-73-50-73c-40 0-46 35-46 75s5 74 45 74" id="aD"/><g id="l"><use transform="matrix(0.05,0,0,0.05,0,0)" xlink:href="#aC"/><use transform="matrix(0.05,0,0,0.05,12.950000000000001,0)" xlink:href="#ai"/><use transform="matrix(0.05,0,0,0.05,22.950000000000003,0)" xlink:href="#aD"/><use transform="matrix(0.05,0,0,0.05,32.95,0)" xlink:href="#aq"/><use transform="matrix(0.05,0,0,0.05,42.95,0)" xlink:href="#ai"/><use transform="matrix(0.05,0,0,0.05,52.95,0)" xlink:href="#am"/><use transform="matrix(0.05,0,0,0.05,61.95,0)" xlink:href="#ao"/></g><path d="M108 0H70L1-190h34L89-25l56-165h34" id="aE"/><g id="m"><use transform="matrix(0.05,0,0,0.05,0,0)" xlink:href="#au"/><use transform="matrix(0.05,0,0,0.05,10,0)" xlink:href="#aE"/><use transform="matrix(0.05,0,0,0.05,19,0)" xlink:href="#au"/><use transform="matrix(0.05,0,0,0.05,29,0)" xlink:href="#an"/><use transform="matrix(0.05,0,0,0.05,32.95,0)" xlink:href="#at"/><use transform="matrix(0.05,0,0,0.05,36.900000000000006,0)" xlink:href="#au"/><use transform="matrix(0.05,0,0,0.05,46.900000000000006,0)" xlink:href="#al"/><use transform="matrix(0.05,0,0,0.05,56.900000000000006,0)" xlink:href="#an"/><use transform="matrix(0.05,0,0,0.05,60.85,0)" xlink:href="#at"/><use transform="matrix(0.05,0,0,0.05,64.80000000000001,0)" xlink:href="#an"/><use transform="matrix(0.05,0,0,0.05,68.75000000000001,0)" xlink:href="#ao"/><use transform="matrix(0.05,0,0,0.05,73.75000000000001,0)" xlink:href="#ar"/></g><g id="n"><use transform="matrix(0.05,0,0,0.05,0,0)" xlink:href="#as"/><use transform="matrix(0.05,0,0,0.05,12,0)" xlink:href="#ai"/><use transform="matrix(0.05,0,0,0.05,22,0)" xlink:href="#av"/><use transform="matrix(0.05,0,0,0.05,32,0)" xlink:href="#aA"/></g><g id="o"><use transform="matrix(0.05,0,0,0.05,0,0)" xlink:href="#au"/><use transform="matrix(0.05,0,0,0.05,10,0)" xlink:href="#aE"/><use transform="matrix(0.05,0,0,0.05,19,0)" xlink:href="#au"/><use transform="matrix(0.05,0,0,0.05,29,0)" xlink:href="#an"/><use transform="matrix(0.05,0,0,0.05,32.95,0)" xlink:href="#at"/><use transform="matrix(0.05,0,0,0.05,36.900000000000006,0)" xlink:href="#au"/><use transform="matrix(0.05,0,0,0.05,46.900000000000006,0)" xlink:href="#al"/><use transform="matrix(0.05,0,0,0.05,56.900000000000006,0)" xlink:href="#an"/><use transform="matrix(0.05,0,0,0.05,60.85,0)" xlink:href="#at"/><use transform="matrix(0.05,0,0,0.05,64.80000000000001,0)" xlink:href="#an"/><use transform="matrix(0.05,0,0,0.05,68.75000000000001,0)" xlink:href="#aj"/><use transform="matrix(0.05,0,0,0.05,74.70000000000002,0)" xlink:href="#ar"/></g><path d="M31-102c2-46 33-77 78-77 44 0 75 31 77 77 1 41-36 78-77 78s-80-37-78-78" id="aF"/><use transform="matrix(0.05,0,0,0.05,0,0)" xlink:href="#aF" id="p"/><g id="q"><use transform="matrix(0.05,0,0,0.05,0,0)" xlink:href="#as"/><use transform="matrix(0.05,0,0,0.05,12,0)" xlink:href="#an"/><use transform="matrix(0.05,0,0,0.05,15.949999999999998,0)" xlink:href="#am"/><use transform="matrix(0.05,0,0,0.05,24.95,0)" xlink:href="#ao"/><use transform="matrix(0.05,0,0,0.05,29.950000000000003,0)" xlink:href="#ai"/><use transform="matrix(0.05,0,0,0.05,39.95,0)" xlink:href="#ah"/><use transform="matrix(0.05,0,0,0.05,54.900000000000006,0)" xlink:href="#an"/></g><path d="M33-154v-36h34v36H33zM33 0v-36h34V0H33" id="aG"/><g id="r"><use transform="matrix(0.05,0,0,0.05,0,0)" xlink:href="#am"/><use transform="matrix(0.05,0,0,0.05,9,0)" xlink:href="#aq"/><use transform="matrix(0.05,0,0,0.05,19,0)" xlink:href="#az"/><use transform="matrix(0.05,0,0,0.05,29,0)" xlink:href="#ai"/><use transform="matrix(0.05,0,0,0.05,39,0)" xlink:href="#aj"/><use transform="matrix(0.05,0,0,0.05,44.95,0)" xlink:href="#an"/><use transform="matrix(0.05,0,0,0.05,48.900000000000006,0)" xlink:href="#ag"/><use transform="matrix(0.05,0,0,0.05,58.900000000000006,0)" xlink:href="#aj"/><use transform="matrix(0.05,0,0,0.05,64.85000000000001,0)" xlink:href="#an"/><use transform="matrix(0.05,0,0,0.05,68.80000000000001,0)" xlink:href="#aG"/></g><path d="M9 0v-24l116-142H16v-24h144v24L44-24h123V0H9" id="aH"/><g id="s"><use transform="matrix(0.05,0,0,0.05,0,0)" xlink:href="#aq"/><use transform="matrix(0.05,0,0,0.05,10,0)" xlink:href="#ao"/><use transform="matrix(0.05,0,0,0.05,15,0)" xlink:href="#an"/><use transform="matrix(0.05,0,0,0.05,18.95,0)" xlink:href="#at"/><use transform="matrix(0.05,0,0,0.05,22.9,0)" xlink:href="#an"/><use transform="matrix(0.05,0,0,0.05,26.849999999999994,0)" xlink:href="#aH"/><use transform="matrix(0.05,0,0,0.05,35.849999999999994,0)" xlink:href="#aH"/><use transform="matrix(0.05,0,0,0.05,44.849999999999994,0)" xlink:href="#au"/><use transform="matrix(0.05,0,0,0.05,54.849999999999994,0)" xlink:href="#av"/><use transform="matrix(0.05,0,0,0.05,64.85,0)" xlink:href="#ag"/></g><g id="t"><use transform="matrix(0.05,0,0,0.05,0,0)" xlink:href="#at"/><use transform="matrix(0.05,0,0,0.05,3.95,0)" xlink:href="#ai"/></g><path d="M101-234c-31-9-42 10-38 44h38v23H63V0H32v-167H5v-23h27c-7-52 17-82 69-68v24" id="aI"/><path d="M141-36C126-15 110 5 73 4 37 3 15-17 15-53c-1-64 63-63 125-63 3-35-9-54-41-54-24 1-41 7-42 31l-33-3c5-37 33-52 76-52 45 0 72 20 72 64v82c-1 20 7 32 28 27v20c-31 9-61-2-59-35zM48-53c0 20 12 33 32 33 41-3 63-29 60-74-43 2-92-5-92 41zm62-158l-58-49v-5h36c12 19 30 32 38 54h-16" id="aJ"/><g id="u"><use transform="matrix(0.05,0,0,0.05,0,0)" xlink:href="#aI"/><use transform="matrix(0.05,0,0,0.05,5,0)" xlink:href="#aq"/><use transform="matrix(0.05,0,0,0.05,15,0)" xlink:href="#av"/><use transform="matrix(0.05,0,0,0.05,25,0)" xlink:href="#aH"/><use transform="matrix(0.05,0,0,0.05,34,0)" xlink:href="#an"/><use transform="matrix(0.05,0,0,0.05,37.95,0)" xlink:href="#ag"/><use transform="matrix(0.05,0,0,0.05,47.95,0)" xlink:href="#av"/><use transform="matrix(0.05,0,0,0.05,57.95,0)" xlink:href="#au"/><use transform="matrix(0.05,0,0,0.05,67.95,0)" xlink:href="#at"/><use transform="matrix(0.05,0,0,0.05,71.9,0)" xlink:href="#an"/><use transform="matrix(0.05,0,0,0.05,75.85000000000001,0)" xlink:href="#ao"/><use transform="matrix(0.05,0,0,0.05,80.85000000000001,0)" xlink:href="#aJ"/></g><g id="v"><use transform="matrix(0.05,0,0,0.05,0,0)" xlink:href="#aA"/><use transform="matrix(0.05,0,0,0.05,10,0)" xlink:href="#ai"/><use transform="matrix(0.05,0,0,0.05,20,0)" xlink:href="#at"/></g><g id="w"><use transform="matrix(0.05,0,0,0.05,0,0)" xlink:href="#am"/><use transform="matrix(0.05,0,0,0.05,9,0)" xlink:href="#an"/><use transform="matrix(0.05,0,0,0.05,12.949999999999998,0)" xlink:href="#am"/><use transform="matrix(0.05,0,0,0.05,21.95,0)" xlink:href="#ao"/><use transform="matrix(0.05,0,0,0.05,26.950000000000003,0)" xlink:href="#ai"/><use transform="matrix(0.05,0,0,0.05,36.95,0)" xlink:href="#ah"/><use transform="matrix(0.05,0,0,0.05,51.900000000000006,0)" xlink:href="#au"/></g><g id="x"><use transform="matrix(0.05,0,0,0.05,0,0)" xlink:href="#az"/><use transform="matrix(0.05,0,0,0.05,10,0)" xlink:href="#aj"/><use transform="matrix(0.05,0,0,0.05,15.949999999999998,0)" xlink:href="#ai"/><use transform="matrix(0.05,0,0,0.05,25.950000000000003,0)" xlink:href="#am"/><use transform="matrix(0.05,0,0,0.05,34.95,0)" xlink:href="#ag"/></g><g id="y"><use transform="matrix(0.05,0,0,0.05,0,0)" xlink:href="#an"/><use transform="matrix(0.05,0,0,0.05,3.95,0)" xlink:href="#av"/></g><g id="z"><use transform="matrix(0.05,0,0,0.05,0,0)" xlink:href="#af"/><use transform="matrix(0.05,0,0,0.05,9,0)" xlink:href="#ag"/><use transform="matrix(0.05,0,0,0.05,19,0)" xlink:href="#av"/><use transform="matrix(0.05,0,0,0.05,29,0)" xlink:href="#am"/><use transform="matrix(0.05,0,0,0.05,38,0)" xlink:href="#an"/><use transform="matrix(0.05,0,0,0.05,41.95,0)" xlink:href="#aA"/><use transform="matrix(0.05,0,0,0.05,51.95,0)" xlink:href="#ai"/><use transform="matrix(0.05,0,0,0.05,61.95,0)" xlink:href="#aj"/><use transform="matrix(0.05,0,0,0.05,67.9,0)" xlink:href="#au"/><use transform="matrix(0.05,0,0,0.05,77.9,0)" xlink:href="#aH"/><use transform="matrix(0.05,0,0,0.05,86.9,0)" xlink:href="#an"/><use transform="matrix(0.05,0,0,0.05,90.85000000000001,0)" xlink:href="#ag"/><use transform="matrix(0.05,0,0,0.05,100.85000000000001,0)" xlink:href="#av"/><use transform="matrix(0.05,0,0,0.05,110.85000000000001,0)" xlink:href="#ai"/></g><g id="A"><use transform="matrix(0.05,0,0,0.05,0,0)" xlink:href="#am"/><use transform="matrix(0.05,0,0,0.05,9,0)" xlink:href="#aq"/><use transform="matrix(0.05,0,0,0.05,19,0)" xlink:href="#al"/><use transform="matrix(0.05,0,0,0.05,29,0)" xlink:href="#ag"/><use transform="matrix(0.05,0,0,0.05,39,0)" xlink:href="#aj"/><use transform="matrix(0.05,0,0,0.05,44.95,0)" xlink:href="#aA"/><use transform="matrix(0.05,0,0,0.05,54.95,0)" xlink:href="#an"/><use transform="matrix(0.05,0,0,0.05,58.900000000000006,0)" xlink:href="#av"/><use transform="matrix(0.05,0,0,0.05,68.9,0)" xlink:href="#au"/><use transform="matrix(0.05,0,0,0.05,78.9,0)" xlink:href="#ao"/><use transform="matrix(0.05,0,0,0.05,83.9,0)" xlink:href="#an"/><use transform="matrix(0.05,0,0,0.05,87.85000000000001,0)" xlink:href="#aG"/></g><g id="B"><use transform="matrix(0.05,0,0,0.05,0,0)" xlink:href="#am"/><use transform="matrix(0.05,0,0,0.05,9,0)" xlink:href="#ag"/><use transform="matrix(0.05,0,0,0.05,19,0)" xlink:href="#ao"/><use transform="matrix(0.05,0,0,0.05,24,0)" xlink:href="#ao"/><use transform="matrix(0.05,0,0,0.05,29,0)" xlink:href="#ag"/><use transform="matrix(0.05,0,0,0.05,39,0)" xlink:href="#am"/><use transform="matrix(0.05,0,0,0.05,48,0)" xlink:href="#an"/><use transform="matrix(0.05,0,0,0.05,51.95,0)" xlink:href="#am"/><use transform="matrix(0.05,0,0,0.05,60.95,0)" xlink:href="#ao"/><use transform="matrix(0.05,0,0,0.05,65.95,0)" xlink:href="#ai"/><use transform="matrix(0.05,0,0,0.05,75.95,0)" xlink:href="#ah"/><use transform="matrix(0.05,0,0,0.05,90.9,0)" xlink:href="#an"/></g><g id="C"><use transform="matrix(0.05,0,0,0.05,0,0)" xlink:href="#af"/><use transform="matrix(0.05,0,0,0.05,9,0)" xlink:href="#ay"/><use transform="matrix(0.05,0,0,0.05,19,0)" xlink:href="#ai"/></g><path d="M177-190C167-65 218 103 67 71c-23-6-38-20-44-43l32-5c15 47 100 32 89-28v-30C133-14 115 1 83 1 29 1 15-40 15-95c0-56 16-97 71-98 29-1 48 16 59 35 1-10 0-23 2-32h30zM94-22c36 0 50-32 50-73 0-42-14-75-50-75-39 0-46 34-46 75s6 73 46 73" id="aK"/><g id="D"><use transform="matrix(0.05,0,0,0.05,0,0)" xlink:href="#aE"/><use transform="matrix(0.05,0,0,0.05,9,0)" xlink:href="#ai"/><use transform="matrix(0.05,0,0,0.05,19,0)" xlink:href="#av"/><use transform="matrix(0.05,0,0,0.05,29,0)" xlink:href="#aK"/><use transform="matrix(0.05,0,0,0.05,39,0)" xlink:href="#ag"/><use transform="matrix(0.05,0,0,0.05,49,0)" xlink:href="#av"/><use transform="matrix(0.05,0,0,0.05,59,0)" xlink:href="#ag"/></g><g id="E"><use transform="matrix(0.05,0,0,0.05,0,0)" xlink:href="#aq"/><use transform="matrix(0.05,0,0,0.05,10,0)" xlink:href="#ao"/><use transform="matrix(0.05,0,0,0.05,15,0)" xlink:href="#an"/><use transform="matrix(0.05,0,0,0.05,18.95,0)" xlink:href="#at"/><use transform="matrix(0.05,0,0,0.05,22.9,0)" xlink:href="#an"/><use transform="matrix(0.05,0,0,0.05,26.849999999999994,0)" xlink:href="#aH"/><use transform="matrix(0.05,0,0,0.05,35.849999999999994,0)" xlink:href="#aH"/><use transform="matrix(0.05,0,0,0.05,44.849999999999994,0)" xlink:href="#au"/><use transform="matrix(0.05,0,0,0.05,54.849999999999994,0)" xlink:href="#ao"/><use transform="matrix(0.05,0,0,0.05,59.849999999999994,0)" xlink:href="#an"/></g><g id="F"><use transform="matrix(0.05,0,0,0.05,0,0)" xlink:href="#aA"/><use transform="matrix(0.05,0,0,0.05,10,0)" xlink:href="#au"/><use transform="matrix(0.05,0,0,0.05,20,0)" xlink:href="#at"/></g><g id="G"><use transform="matrix(0.05,0,0,0.05,0,0)" xlink:href="#am"/><use transform="matrix(0.05,0,0,0.05,9,0)" xlink:href="#an"/><use transform="matrix(0.05,0,0,0.05,12.949999999999998,0)" xlink:href="#am"/><use transform="matrix(0.05,0,0,0.05,21.95,0)" xlink:href="#ao"/><use transform="matrix(0.05,0,0,0.05,26.950000000000003,0)" xlink:href="#ai"/><use transform="matrix(0.05,0,0,0.05,36.95,0)" xlink:href="#ah"/><use transform="matrix(0.05,0,0,0.05,51.900000000000006,0)" xlink:href="#au"/></g><g id="H"><use transform="matrix(0.05,0,0,0.05,0,0)" xlink:href="#az"/><use transform="matrix(0.05,0,0,0.05,10,0)" xlink:href="#au"/><use transform="matrix(0.05,0,0,0.05,20,0)" xlink:href="#aj"/><use transform="matrix(0.05,0,0,0.05,25.950000000000003,0)" xlink:href="#an"/><use transform="matrix(0.05,0,0,0.05,29.899999999999995,0)" xlink:href="#ao"/><use transform="matrix(0.05,0,0,0.05,34.9,0)" xlink:href="#au"/><use transform="matrix(0.05,0,0,0.05,44.9,0)" xlink:href="#aj"/><use transform="matrix(0.05,0,0,0.05,50.85,0)" xlink:href="#an"/><use transform="matrix(0.05,0,0,0.05,54.800000000000004,0)" xlink:href="#aG"/></g><g id="I"><use transform="matrix(0.05,0,0,0.05,0,0)" xlink:href="#an"/><use transform="matrix(0.05,0,0,0.05,3.95,0)" xlink:href="#av"/><use transform="matrix(0.05,0,0,0.05,13.949999999999998,0)" xlink:href="#ao"/><use transform="matrix(0.05,0,0,0.05,18.95,0)" xlink:href="#ai"/><use transform="matrix(0.05,0,0,0.05,28.950000000000003,0)" xlink:href="#aj"/><use transform="matrix(0.05,0,0,0.05,34.9,0)" xlink:href="#au"/><use transform="matrix(0.05,0,0,0.05,44.9,0)" xlink:href="#aK"/><use transform="matrix(0.05,0,0,0.05,54.900000000000006,0)" xlink:href="#an"/><use transform="matrix(0.05,0,0,0.05,58.85,0)" xlink:href="#am"/><use transform="matrix(0.05,0,0,0.05,67.85,0)" xlink:href="#af"/><use transform="matrix(0.05,0,0,0.05,76.85,0)" xlink:href="#ag"/><use transform="matrix(0.05,0,0,0.05,86.85,0)" xlink:href="#av"/><use transform="matrix(0.05,0,0,0.05,96.85,0)" xlink:href="#ag"/></g><g id="J"><use transform="matrix(0.05,0,0,0.05,0,0)" xlink:href="#af"/><use transform="matrix(0.05,0,0,0.05,9,0)" xlink:href="#ag"/><use transform="matrix(0.05,0,0,0.05,19,0)" xlink:href="#av"/></g><g id="K"><use transform="matrix(0.05,0,0,0.05,0,0)" xlink:href="#an"/><use transform="matrix(0.05,0,0,0.05,3.95,0)" xlink:href="#at"/></g><g id="L"><use transform="matrix(0.05,0,0,0.05,0,0)" xlink:href="#am"/><use transform="matrix(0.05,0,0,0.05,9,0)" xlink:href="#an"/><use transform="matrix(0.05,0,0,0.05,12.949999999999998,0)" xlink:href="#am"/><use transform="matrix(0.05,0,0,0.05,21.95,0)" xlink:href="#ao"/><use transform="matrix(0.05,0,0,0.05,26.950000000000003,0)" xlink:href="#ai"/><use transform="matrix(0.05,0,0,0.05,36.95,0)" xlink:href="#ah"/><use transform="matrix(0.05,0,0,0.05,51.900000000000006,0)" xlink:href="#au"/></g><g id="M"><use transform="matrix(0.05,0,0,0.05,0,0)" xlink:href="#aj"/><use transform="matrix(0.05,0,0,0.05,5.95,0)" xlink:href="#au"/><use transform="matrix(0.05,0,0,0.05,15.949999999999998,0)" xlink:href="#az"/><use transform="matrix(0.05,0,0,0.05,25.950000000000003,0)" xlink:href="#az"/><use transform="matrix(0.05,0,0,0.05,35.95,0)" xlink:href="#ag"/><use transform="matrix(0.05,0,0,0.05,45.95,0)" xlink:href="#aj"/><use transform="matrix(0.05,0,0,0.05,51.900000000000006,0)" xlink:href="#ao"/><use transform="matrix(0.05,0,0,0.05,56.900000000000006,0)" xlink:href="#ag"/></g><g id="N"><use transform="matrix(0.05,0,0,0.05,0,0)" xlink:href="#az"/><use transform="matrix(0.05,0,0,0.05,10,0)" xlink:href="#au"/><use transform="matrix(0.05,0,0,0.05,20,0)" xlink:href="#aj"/><use transform="matrix(0.05,0,0,0.05,25.950000000000003,0)" xlink:href="#an"/><use transform="matrix(0.05,0,0,0.05,29.899999999999995,0)" xlink:href="#ao"/><use transform="matrix(0.05,0,0,0.05,34.9,0)" xlink:href="#au"/><use transform="matrix(0.05,0,0,0.05,44.9,0)" xlink:href="#aj"/><use transform="matrix(0.05,0,0,0.05,50.85,0)" xlink:href="#an"/><use transform="matrix(0.05,0,0,0.05,54.800000000000004,0)" xlink:href="#ag"/></g><path d="M205 0l-28-72H64L36 0H1l101-248h38L239 0h-34zm-38-99l-47-123c-12 45-31 82-46 123h93" id="aL"/><g id="O"><use transform="matrix(0.05,0,0,0.05,0,0)" xlink:href="#aL"/><use transform="matrix(0.05,0,0,0.05,12,0)" xlink:href="#ao"/><use transform="matrix(0.05,0,0,0.05,17,0)" xlink:href="#ao"/><use transform="matrix(0.05,0,0,0.05,22,0)" xlink:href="#ag"/><use transform="matrix(0.05,0,0,0.05,32,0)" xlink:href="#aj"/><use transform="matrix(0.05,0,0,0.05,37.95,0)" xlink:href="#an"/><use transform="matrix(0.05,0,0,0.05,41.900000000000006,0)" xlink:href="#aG"/></g><g id="P"><use transform="matrix(0.05,0,0,0.05,0,0)" xlink:href="#ai"/><use transform="matrix(0.05,0,0,0.05,10,0)" xlink:href="#av"/><use transform="matrix(0.05,0,0,0.05,20,0)" xlink:href="#ao"/><use transform="matrix(0.05,0,0,0.05,25,0)" xlink:href="#an"/><use transform="matrix(0.05,0,0,0.05,28.950000000000003,0)" xlink:href="#ao"/><use transform="matrix(0.05,0,0,0.05,33.95,0)" xlink:href="#aJ"/></g><g id="Q"><use transform="matrix(0.05,0,0,0.05,0,0)" xlink:href="#az"/><use transform="matrix(0.05,0,0,0.05,10,0)" xlink:href="#aj"/><use transform="matrix(0.05,0,0,0.05,15.949999999999998,0)" xlink:href="#ag"/><use transform="matrix(0.05,0,0,0.05,25.950000000000003,0)" xlink:href="#aA"/><use transform="matrix(0.05,0,0,0.05,35.95,0)" xlink:href="#aq"/><use transform="matrix(0.05,0,0,0.05,45.95,0)" xlink:href="#af"/><use transform="matrix(0.05,0,0,0.05,54.95,0)" xlink:href="#ag"/><use transform="matrix(0.05,0,0,0.05,64.95,0)" xlink:href="#av"/><use transform="matrix(0.05,0,0,0.05,74.95,0)" xlink:href="#ag"/></g><use transform="matrix(0.05,0,0,0.05,0,0)" xlink:href="#ag" id="R"/><g id="S"><use transform="matrix(0.05,0,0,0.05,0,0)" xlink:href="#af"/><use transform="matrix(0.05,0,0,0.05,9,0)" xlink:href="#ag"/><use transform="matrix(0.05,0,0,0.05,19,0)" xlink:href="#av"/><use transform="matrix(0.05,0,0,0.05,29,0)" xlink:href="#am"/><use transform="matrix(0.05,0,0,0.05,38,0)" xlink:href="#aq"/><use transform="matrix(0.05,0,0,0.05,48,0)" xlink:href="#ah"/><use transform="matrix(0.05,0,0,0.05,62.95,0)" xlink:href="#au"/><use transform="matrix(0.05,0,0,0.05,72.95,0)" xlink:href="#av"/><use transform="matrix(0.05,0,0,0.05,82.95,0)" xlink:href="#ag"/></g><g id="T"><use transform="matrix(0.05,0,0,0.05,0,0)" xlink:href="#an"/><use transform="matrix(0.05,0,0,0.05,3.95,0)" xlink:href="#av"/><use transform="matrix(0.05,0,0,0.05,13.949999999999998,0)" xlink:href="#aI"/><use transform="matrix(0.05,0,0,0.05,18.95,0)" xlink:href="#ag"/><use transform="matrix(0.05,0,0,0.05,28.950000000000003,0)" xlink:href="#aj"/><use transform="matrix(0.05,0,0,0.05,34.9,0)" xlink:href="#ah"/><use transform="matrix(0.05,0,0,0.05,49.85,0)" xlink:href="#au"/><use transform="matrix(0.05,0,0,0.05,59.85,0)" xlink:href="#aH"/><use transform="matrix(0.05,0,0,0.05,68.85,0)" xlink:href="#an"/><use transform="matrix(0.05,0,0,0.05,72.8,0)" xlink:href="#ag"/><use transform="matrix(0.05,0,0,0.05,82.8,0)" xlink:href="#av"/><use transform="matrix(0.05,0,0,0.05,92.8,0)" xlink:href="#an"/></g><g id="U"><use transform="matrix(0.05,0,0,0.05,0,0)" xlink:href="#av"/><use transform="matrix(0.05,0,0,0.05,10,0)" xlink:href="#ai"/><use transform="matrix(0.05,0,0,0.05,20,0)" xlink:href="#af"/><use transform="matrix(0.05,0,0,0.05,29,0)" xlink:href="#ai"/><use transform="matrix(0.05,0,0,0.05,39,0)" xlink:href="#am"/><use transform="matrix(0.05,0,0,0.05,48,0)" xlink:href="#am"/><use transform="matrix(0.05,0,0,0.05,57,0)" xlink:href="#au"/><use transform="matrix(0.05,0,0,0.05,67,0)" xlink:href="#aj"/><use transform="matrix(0.05,0,0,0.05,72.95,0)" xlink:href="#an"/><use transform="matrix(0.05,0,0,0.05,76.9,0)" xlink:href="#ai"/></g><g id="V"><use transform="matrix(0.05,0,0,0.05,0,0)" xlink:href="#az"/><use transform="matrix(0.05,0,0,0.05,10,0)" xlink:href="#ai"/><use transform="matrix(0.05,0,0,0.05,20,0)" xlink:href="#aj"/></g><path d="M58-248c1 32-1 62-14 81H22c9-13 17-27 17-46H23v-35h35" id="aM"/><g id="W"><use transform="matrix(0.05,0,0,0.05,0,0)" xlink:href="#at"/><use transform="matrix(0.05,0,0,0.05,3.95,0)" xlink:href="#aM"/><use transform="matrix(0.05,0,0,0.05,7.9,0)" xlink:href="#ai"/><use transform="matrix(0.05,0,0,0.05,17.9,0)" xlink:href="#at"/><use transform="matrix(0.05,0,0,0.05,21.849999999999998,0)" xlink:href="#au"/><use transform="matrix(0.05,0,0,0.05,31.849999999999994,0)" xlink:href="#al"/><use transform="matrix(0.05,0,0,0.05,41.849999999999994,0)" xlink:href="#ag"/><use transform="matrix(0.05,0,0,0.05,51.849999999999994,0)" xlink:href="#aj"/><use transform="matrix(0.05,0,0,0.05,57.79999999999999,0)" xlink:href="#au"/><use transform="matrix(0.05,0,0,0.05,67.8,0)" xlink:href="#aH"/><use transform="matrix(0.05,0,0,0.05,76.8,0)" xlink:href="#an"/><use transform="matrix(0.05,0,0,0.05,80.75,0)" xlink:href="#ag"/><use transform="matrix(0.05,0,0,0.05,90.75,0)" xlink:href="#av"/><use transform="matrix(0.05,0,0,0.05,100.75,0)" xlink:href="#ai"/></g><g id="X"><use transform="matrix(0.05,0,0,0.05,0,0)" xlink:href="#aA"/><use transform="matrix(0.05,0,0,0.05,10,0)" xlink:href="#ai"/><use transform="matrix(0.05,0,0,0.05,20,0)" xlink:href="#at"/><use transform="matrix(0.05,0,0,0.05,23.95,0)" xlink:href="#at"/><use transform="matrix(0.05,0,0,0.05,27.899999999999995,0)" xlink:href="#ai"/></g><g id="Y"><use transform="matrix(0.05,0,0,0.05,0,0)" xlink:href="#aj"/><use transform="matrix(0.05,0,0,0.05,5.95,0)" xlink:href="#an"/><use transform="matrix(0.05,0,0,0.05,9.9,0)" xlink:href="#af"/><use transform="matrix(0.05,0,0,0.05,18.9,0)" xlink:href="#ay"/><use transform="matrix(0.05,0,0,0.05,28.899999999999995,0)" xlink:href="#an"/><use transform="matrix(0.05,0,0,0.05,32.85,0)" xlink:href="#ai"/><use transform="matrix(0.05,0,0,0.05,42.85,0)" xlink:href="#am"/><use transform="matrix(0.05,0,0,0.05,51.85,0)" xlink:href="#ao"/><use transform="matrix(0.05,0,0,0.05,56.85,0)" xlink:href="#ai"/></g><g id="Z"><use transform="matrix(0.05,0,0,0.05,0,0)" xlink:href="#as"/><use transform="matrix(0.05,0,0,0.05,12,0)" xlink:href="#aq"/><use transform="matrix(0.05,0,0,0.05,22,0)" xlink:href="#al"/><use transform="matrix(0.05,0,0,0.05,32,0)" xlink:href="#ag"/><use transform="matrix(0.05,0,0,0.05,42,0)" xlink:href="#aj"/><use transform="matrix(0.05,0,0,0.05,47.95,0)" xlink:href="#aA"/><use transform="matrix(0.05,0,0,0.05,57.95,0)" xlink:href="#ai"/><use transform="matrix(0.05,0,0,0.05,67.95,0)" xlink:href="#aj"/><use transform="matrix(0.05,0,0,0.05,73.9,0)" xlink:href="#ai"/><use transform="matrix(0.05,0,0,0.05,83.9,0)" xlink:href="#aA"/></g><g id="aa"><use transform="matrix(0.05,0,0,0.05,0,0)" xlink:href="#am"/><use transform="matrix(0.05,0,0,0.05,9,0)" xlink:href="#ar"/><use transform="matrix(0.05,0,0,0.05,18,0)" xlink:href="#am"/><use transform="matrix(0.05,0,0,0.05,27,0)" xlink:href="#ao"/><use transform="matrix(0.05,0,0,0.05,32,0)" xlink:href="#ai"/><use transform="matrix(0.05,0,0,0.05,42,0)" xlink:href="#ah"/></g><g id="ab"><use transform="matrix(0.05,0,0,0.05,0,0)" xlink:href="#aL"/><use transform="matrix(0.05,0,0,0.05,12,0)" xlink:href="#af"/><use transform="matrix(0.05,0,0,0.05,21,0)" xlink:href="#ao"/><use transform="matrix(0.05,0,0,0.05,26,0)" xlink:href="#ag"/><use transform="matrix(0.05,0,0,0.05,36,0)" xlink:href="#aj"/></g><g id="ac"><use transform="matrix(0.05,0,0,0.05,0,0)" xlink:href="#as"/><use transform="matrix(0.05,0,0,0.05,12,0)" xlink:href="#aq"/><use transform="matrix(0.05,0,0,0.05,22,0)" xlink:href="#al"/><use transform="matrix(0.05,0,0,0.05,32,0)" xlink:href="#ag"/><use transform="matrix(0.05,0,0,0.05,42,0)" xlink:href="#aj"/><use transform="matrix(0.05,0,0,0.05,47.95,0)" xlink:href="#aA"/><use transform="matrix(0.05,0,0,0.05,57.95,0)" xlink:href="#an"/><use transform="matrix(0.05,0,0,0.05,61.900000000000006,0)" xlink:href="#av"/><use transform="matrix(0.05,0,0,0.05,71.9,0)" xlink:href="#au"/><use transform="matrix(0.05,0,0,0.05,81.9,0)" xlink:href="#ao"/><use transform="matrix(0.05,0,0,0.05,86.9,0)" xlink:href="#ag"/></g></defs></g></svg>