<svg xmlns="http://www.w3.org/2000/svg" xmlns:xlink="http://www.w3.org/1999/xlink" xmlns:lucid="lucid" width="857.17" height="840"><g transform="translate(-280 -220)" lucid:page-tab-id="0_0"><path d="M980 640c0 44.18-35.82 80-80 80s-80-35.82-80-80 35.82-80 80-80 80 35.82 80 80z" stroke="#000" stroke-width="2" fill="#fff"/><use xlink:href="#a" transform="matrix(1,0,0,1,825,565) translate(23.599999999999994 80.025)"/><use xlink:href="#b" transform="matrix(1,0,0,1,825,565) translate(93.5 80.025)"/><path d="M300 580h160v120H300z" stroke="#000" stroke-width="2" fill="#fff"/><use xlink:href="#c" transform="matrix(1,0,0,1,305,585) translate(47.075 59.0875)"/><path d="M820 920h160v120H820z" stroke="#000" stroke-width="2" fill="#fff"/><use xlink:href="#d" transform="matrix(1,0,0,1,825,925) translate(42.625 59.0875)"/><path d="M820 240h160v120H820z" stroke="#000" stroke-width="2" fill="#fff"/><use xlink:href="#e" transform="matrix(1,0,0,1,825,245) translate(44.599999999999994 48.775)"/><use xlink:href="#f" transform="matrix(1,0,0,1,825,245) translate(28.099999999999994 70.375)"/><path d="M863.35 566.8V379.5" stroke="#000" stroke-width="2" fill="none"/><path d="M864.35 567.27l-2 1.04v-1.54h2z"/><path d="M863.35 364.24l4.63 14.26h-9.27z" stroke="#000" stroke-width="2"/><use xlink:href="#g" transform="matrix(1,0,0,1,686.5456015431255,453.59529270894444) translate(0 14.4)"/><use xlink:href="#h" transform="matrix(1,0,0,1,686.5456015431255,453.59529270894444) translate(78.85000000000001 14.4)"/><path d="M901 918h-2v-87.2h2zm0-108.8h-2v-69.7h2z"/><path d="M901 919h-2v-1.03h2zM904.64 738.5h-9.28l4.64-14.26z"/><path d="M906 739.5h-12l6-18.5zm-9.26-2h6.52L900 727.47z"/><use xlink:href="#i" transform="matrix(1,0,0,1,793.625,809.2000042823219) translate(0 14.4)"/><use xlink:href="#j" transform="matrix(1,0,0,1,793.625,809.2000042823219) translate(126.85000000000001 14.4)"/><path d="M530.52 617.7H479.5v-2h51.02zm290.92 0h-68.52v-2h68.52z"/><path d="M822.15 617.7h-.74v-2h1.33zM478.5 621.34l-14.26-4.64 14.26-4.64z"/><path d="M479.5 622.7l-18.5-6 18.5-6zm-12.03-6l10.03 3.26v-6.52z"/><use xlink:href="#k" transform="matrix(1,0,0,1,530.5188047599795,605.9001252745074) translate(0 14.4)"/><use xlink:href="#l" transform="matrix(1,0,0,1,530.5188047599795,605.9001252745074) translate(85.5 14.4)"/><use xlink:href="#m" transform="matrix(1,0,0,1,530.5188047599795,605.9001252745074) translate(156.45 14.4)"/><path d="M575.62 641H462v-2h113.62zm224.88 0h-96.13v-2h96.13z"/><path d="M462.03 641H461v-2h1.03zM815.76 640l-14.26 4.64v-9.28z"/><path d="M819 640l-18.5 6v-12zm-16.5 3.26l10.03-3.26-10.03-3.26z"/><use xlink:href="#g" transform="matrix(1,0,0,1,575.6249957176782,629.2) translate(0 14.4)"/><use xlink:href="#n" transform="matrix(1,0,0,1,575.6249957176782,629.2) translate(78.85000000000001 14.4)"/><path d="M560.15 659.05H462v-2h98.15zm242.4 0H721.9v-2h80.66z"/><path d="M462.03 659.05H461v-2h1.03zM817.82 658.05l-14.26 4.64v-9.28z"/><path d="M821.06 658.05l-18.5 6v-12zm-16.5 3.26l10.03-3.25-10.04-3.26z"/><use xlink:href="#o" transform="matrix(1,0,0,1,560.1541286310719,647.2505416511283) translate(0 14.4)"/><use xlink:href="#p" transform="matrix(1,0,0,1,560.1541286310719,647.2505416511283) translate(70.85000000000001 14.4)"/><path d="M585.9 679.43H462v-2h123.9zm224.3 0H703.8v-2h106.4z"/><path d="M462.03 679.43H461v-2h1.03zM825.47 678.43l-14.26 4.64v-9.27z"/><path d="M828.7 678.43l-18.5 6v-12zm-16.5 3.26l10.04-3.27-10.03-3.26z"/><g><use xlink:href="#q" transform="matrix(1,0,0,1,585.904843151539,667.6326380739508) translate(0 14.4)"/></g><path d="M944.37 362v191.76" stroke="#000" stroke-width="2" fill="none"/><path d="M945.37 362.03h-2V361h2z"/><path d="M944.37 569.03l-4.63-14.27H949z" stroke="#000" stroke-width="2"/><g><use xlink:href="#r" transform="matrix(1,0,0,1,952.3704675907785,455.83078664292054) translate(0 14.4)"/><use xlink:href="#h" transform="matrix(1,0,0,1,952.3704675907785,455.83078664292054) translate(83.85000000000001 14.4)"/></g><defs><path d="M209 0H11v-25l151-195H24v-28h176v25L50-27h159V0" id="s"/><path d="M141-36C126-15 110 5 73 4 37 3 15-17 15-53c-1-64 63-63 125-63 3-35-9-54-41-54-24 1-41 7-42 31l-33-3c5-37 33-52 76-52 45 0 72 20 72 64v82c-1 20 7 32 28 27v20c-31 9-61-2-59-35zM48-53c0 20 12 33 32 33 41-3 63-29 60-74-43 2-92-5-92 41" id="t"/><path d="M24 0v-261h32V0H24" id="u"/><path d="M117-194c89-4 53 116 60 194h-32v-121c0-31-8-49-39-48C34-167 62-67 57 0H25l-1-190h30c1 10-1 24 2 32 11-22 29-35 61-36" id="v"/><path d="M85-194c31 0 48 13 60 33l-1-100h32l1 261h-30c-2-10 0-23-3-31C134-8 116 4 85 4 32 4 16-35 15-94c0-66 23-100 70-100zm9 24c-40 0-46 34-46 75 0 40 6 74 45 74 42 0 51-32 51-76 0-42-9-74-50-73" id="w"/><path d="M100-194c62-1 85 37 85 99 1 63-27 99-86 99S16-35 15-95c0-66 28-99 85-99zM99-20c44 1 53-31 53-75 0-43-8-75-51-75s-53 32-53 75 10 74 51 75" id="x"/><g id="a"><use transform="matrix(0.05,0,0,0.05,0,0)" xlink:href="#s"/><use transform="matrix(0.05,0,0,0.05,10.950000000000001,0)" xlink:href="#t"/><use transform="matrix(0.05,0,0,0.05,20.950000000000003,0)" xlink:href="#u"/><use transform="matrix(0.05,0,0,0.05,24.900000000000002,0)" xlink:href="#t"/><use transform="matrix(0.05,0,0,0.05,34.900000000000006,0)" xlink:href="#v"/><use transform="matrix(0.05,0,0,0.05,44.900000000000006,0)" xlink:href="#w"/><use transform="matrix(0.05,0,0,0.05,54.900000000000006,0)" xlink:href="#x"/></g><path d="M24-231v-30h32v30H24zM24 0v-190h32V0H24" id="y"/><path d="M177-190C167-65 218 103 67 71c-23-6-38-20-44-43l32-5c15 47 100 32 89-28v-30C133-14 115 1 83 1 29 1 15-40 15-95c0-56 16-97 71-98 29-1 48 16 59 35 1-10 0-23 2-32h30zM94-22c36 0 50-32 50-73 0-42-14-75-50-75-39 0-46 34-46 75s6 73 46 73" id="z"/><path d="M106-169C34-169 62-67 57 0H25v-261h32l-1 103c12-21 28-36 61-36 89 0 53 116 60 194h-32v-121c2-32-8-49-39-48" id="A"/><path d="M59-47c-2 24 18 29 38 22v24C64 9 27 4 27-40v-127H5v-23h24l9-43h21v43h35v23H59v120" id="B"/><g id="b"><use transform="matrix(0.05,0,0,0.05,0,0)" xlink:href="#u"/><use transform="matrix(0.05,0,0,0.05,3.95,0)" xlink:href="#y"/><use transform="matrix(0.05,0,0,0.05,7.9,0)" xlink:href="#z"/><use transform="matrix(0.05,0,0,0.05,17.9,0)" xlink:href="#A"/><use transform="matrix(0.05,0,0,0.05,27.899999999999995,0)" xlink:href="#B"/></g><path d="M212-179c-10-28-35-45-73-45-59 0-87 40-87 99 0 60 29 101 89 101 43 0 62-24 78-52l27 14C228-24 195 4 139 4 59 4 22-46 18-125c-6-104 99-153 187-111 19 9 31 26 39 46" id="C"/><path d="M100-194c63 0 86 42 84 106H49c0 40 14 67 53 68 26 1 43-12 49-29l28 8c-11 28-37 45-77 45C44 4 14-33 15-96c1-61 26-98 85-98zm52 81c6-60-76-77-97-28-3 7-6 17-6 28h103" id="D"/><g id="c"><use transform="matrix(0.05,0,0,0.05,0,0)" xlink:href="#C"/><use transform="matrix(0.05,0,0,0.05,12.950000000000001,0)" xlink:href="#u"/><use transform="matrix(0.05,0,0,0.05,16.900000000000002,0)" xlink:href="#y"/><use transform="matrix(0.05,0,0,0.05,20.85,0)" xlink:href="#D"/><use transform="matrix(0.05,0,0,0.05,30.85,0)" xlink:href="#v"/><use transform="matrix(0.05,0,0,0.05,40.85,0)" xlink:href="#B"/><use transform="matrix(0.05,0,0,0.05,45.85,0)" xlink:href="#D"/></g><path d="M114-163C36-179 61-72 57 0H25l-1-190h30c1 12-1 29 2 39 6-27 23-49 58-41v29" id="E"/><g id="d"><use transform="matrix(0.05,0,0,0.05,0,0)" xlink:href="#C"/><use transform="matrix(0.05,0,0,0.05,12.950000000000001,0)" xlink:href="#x"/><use transform="matrix(0.05,0,0,0.05,22.950000000000003,0)" xlink:href="#E"/><use transform="matrix(0.05,0,0,0.05,28.900000000000002,0)" xlink:href="#E"/><use transform="matrix(0.05,0,0,0.05,34.85,0)" xlink:href="#y"/><use transform="matrix(0.05,0,0,0.05,38.800000000000004,0)" xlink:href="#D"/><use transform="matrix(0.05,0,0,0.05,48.800000000000004,0)" xlink:href="#E"/><use transform="matrix(0.05,0,0,0.05,54.75,0)" xlink:href="#D"/></g><path d="M96-169c-40 0-48 33-48 73s9 75 48 75c24 0 41-14 43-38l32 2c-6 37-31 61-74 61-59 0-76-41-82-99-10-93 101-131 147-64 4 7 5 14 7 22l-32 3c-4-21-16-35-41-35" id="F"/><path d="M84 4C-5 8 30-112 23-190h32v120c0 31 7 50 39 49 72-2 45-101 50-169h31l1 190h-30c-1-10 1-25-2-33-11 22-28 36-60 37" id="G"/><g id="e"><use transform="matrix(0.05,0,0,0.05,0,0)" xlink:href="#C"/><use transform="matrix(0.05,0,0,0.05,12.950000000000001,0)" xlink:href="#y"/><use transform="matrix(0.05,0,0,0.05,16.900000000000002,0)" xlink:href="#E"/><use transform="matrix(0.05,0,0,0.05,22.85,0)" xlink:href="#F"/><use transform="matrix(0.05,0,0,0.05,31.85,0)" xlink:href="#G"/><use transform="matrix(0.05,0,0,0.05,41.85,0)" xlink:href="#y"/><use transform="matrix(0.05,0,0,0.05,45.800000000000004,0)" xlink:href="#B"/><use transform="matrix(0.05,0,0,0.05,50.800000000000004,0)" xlink:href="#x"/></g><path d="M240 0l2-218c-23 76-54 145-80 218h-23L58-218 59 0H30v-248h44l77 211c21-75 51-140 76-211h43V0h-30" id="H"/><path d="M135-143c-3-34-86-38-87 0 15 53 115 12 119 90S17 21 10-45l28-5c4 36 97 45 98 0-10-56-113-15-118-90-4-57 82-63 122-42 12 7 21 19 24 35" id="I"/><g id="f"><use transform="matrix(0.05,0,0,0.05,0,0)" xlink:href="#H"/><use transform="matrix(0.05,0,0,0.05,14.950000000000001,0)" xlink:href="#t"/><use transform="matrix(0.05,0,0,0.05,24.950000000000003,0)" xlink:href="#I"/><use transform="matrix(0.05,0,0,0.05,33.95,0)" xlink:href="#B"/><use transform="matrix(0.05,0,0,0.05,38.95,0)" xlink:href="#D"/><use transform="matrix(0.05,0,0,0.05,48.95,0)" xlink:href="#E"/><use transform="matrix(0.05,0,0,0.05,54.900000000000006,0)" xlink:href="#C"/><use transform="matrix(0.05,0,0,0.05,67.85000000000001,0)" xlink:href="#t"/><use transform="matrix(0.05,0,0,0.05,77.85000000000001,0)" xlink:href="#E"/><use transform="matrix(0.05,0,0,0.05,83.80000000000001,0)" xlink:href="#w"/></g><path d="M233-177c-1 41-23 64-60 70L243 0h-38l-65-103H63V0H30v-248c88 3 205-21 203 71zM63-129c60-2 137 13 137-47 0-61-80-42-137-45v92" id="J"/><g id="g"><use transform="matrix(0.05,0,0,0.05,0,0)" xlink:href="#J"/><use transform="matrix(0.05,0,0,0.05,12.950000000000001,0)" xlink:href="#y"/><use transform="matrix(0.05,0,0,0.05,16.900000000000002,0)" xlink:href="#F"/><use transform="matrix(0.05,0,0,0.05,25.900000000000002,0)" xlink:href="#A"/><use transform="matrix(0.05,0,0,0.05,35.900000000000006,0)" xlink:href="#y"/><use transform="matrix(0.05,0,0,0.05,39.85000000000001,0)" xlink:href="#D"/><use transform="matrix(0.05,0,0,0.05,49.85000000000001,0)" xlink:href="#I"/><use transform="matrix(0.05,0,0,0.05,58.85,0)" xlink:href="#B"/><use transform="matrix(0.05,0,0,0.05,63.85,0)" xlink:href="#t"/></g><path d="M115-194c55 1 70 41 70 98S169 2 115 4C84 4 66-9 55-30l1 105H24l-1-265h31l2 30c10-21 28-34 59-34zm-8 174c40 0 45-34 45-75s-6-73-45-74c-42 0-51 32-51 76 0 43 10 73 51 73" id="K"/><path d="M210-169c-67 3-38 105-44 169h-31v-121c0-29-5-50-35-48C34-165 62-65 56 0H25l-1-190h30c1 10-1 24 2 32 10-44 99-50 107 0 11-21 27-35 58-36 85-2 47 119 55 194h-31v-121c0-29-5-49-35-48" id="L"/><g id="h"><use transform="matrix(0.05,0,0,0.05,0,0)" xlink:href="#K"/><use transform="matrix(0.05,0,0,0.05,10,0)" xlink:href="#t"/><use transform="matrix(0.05,0,0,0.05,20,0)" xlink:href="#z"/><use transform="matrix(0.05,0,0,0.05,30,0)" xlink:href="#t"/><use transform="matrix(0.05,0,0,0.05,40,0)" xlink:href="#L"/><use transform="matrix(0.05,0,0,0.05,54.95,0)" xlink:href="#D"/><use transform="matrix(0.05,0,0,0.05,64.95,0)" xlink:href="#v"/><use transform="matrix(0.05,0,0,0.05,74.95,0)" xlink:href="#B"/><use transform="matrix(0.05,0,0,0.05,79.95,0)" xlink:href="#x"/></g><path d="M205 0l-28-72H64L36 0H1l101-248h38L239 0h-34zm-38-99l-47-123c-12 45-31 82-46 123h93" id="M"/><g id="i"><use transform="matrix(0.05,0,0,0.05,0,0)" xlink:href="#M"/><use transform="matrix(0.05,0,0,0.05,12,0)" xlink:href="#z"/><use transform="matrix(0.05,0,0,0.05,22,0)" xlink:href="#z"/><use transform="matrix(0.05,0,0,0.05,32,0)" xlink:href="#y"/><use transform="matrix(0.05,0,0,0.05,35.95,0)" xlink:href="#x"/><use transform="matrix(0.05,0,0,0.05,45.95,0)" xlink:href="#E"/><use transform="matrix(0.05,0,0,0.05,51.900000000000006,0)" xlink:href="#v"/><use transform="matrix(0.05,0,0,0.05,61.900000000000006,0)" xlink:href="#t"/><use transform="matrix(0.05,0,0,0.05,71.9,0)" xlink:href="#L"/><use transform="matrix(0.05,0,0,0.05,86.85000000000001,0)" xlink:href="#D"/><use transform="matrix(0.05,0,0,0.05,96.85000000000001,0)" xlink:href="#v"/><use transform="matrix(0.05,0,0,0.05,106.85000000000001,0)" xlink:href="#B"/><use transform="matrix(0.05,0,0,0.05,111.85000000000001,0)" xlink:href="#x"/></g><path d="M9 0v-24l116-142H16v-24h144v24L44-24h123V0H9" id="N"/><g id="j"><use transform="matrix(0.05,0,0,0.05,0,0)" xlink:href="#I"/><use transform="matrix(0.05,0,0,0.05,9,0)" xlink:href="#K"/><use transform="matrix(0.05,0,0,0.05,19,0)" xlink:href="#D"/><use transform="matrix(0.05,0,0,0.05,29,0)" xlink:href="#w"/><use transform="matrix(0.05,0,0,0.05,39,0)" xlink:href="#y"/><use transform="matrix(0.05,0,0,0.05,42.95,0)" xlink:href="#N"/><use transform="matrix(0.05,0,0,0.05,51.95,0)" xlink:href="#y"/><use transform="matrix(0.05,0,0,0.05,55.900000000000006,0)" xlink:href="#x"/><use transform="matrix(0.05,0,0,0.05,65.9,0)" xlink:href="#v"/><use transform="matrix(0.05,0,0,0.05,75.9,0)" xlink:href="#D"/></g><path d="M137 0h-34L2-248h35l83 218 83-218h36" id="O"/><g id="k"><use transform="matrix(0.05,0,0,0.05,0,0)" xlink:href="#O"/><use transform="matrix(0.05,0,0,0.05,11.65,0)" xlink:href="#y"/><use transform="matrix(0.05,0,0,0.05,15.600000000000001,0)" xlink:href="#I"/><use transform="matrix(0.05,0,0,0.05,24.6,0)" xlink:href="#G"/><use transform="matrix(0.05,0,0,0.05,34.6,0)" xlink:href="#t"/><use transform="matrix(0.05,0,0,0.05,44.6,0)" xlink:href="#u"/><use transform="matrix(0.05,0,0,0.05,48.550000000000004,0)" xlink:href="#y"/><use transform="matrix(0.05,0,0,0.05,52.5,0)" xlink:href="#N"/><use transform="matrix(0.05,0,0,0.05,61.5,0)" xlink:href="#N"/><use transform="matrix(0.05,0,0,0.05,70.5,0)" xlink:href="#t"/></g><g id="l"><use transform="matrix(0.05,0,0,0.05,0,0)" xlink:href="#K"/><use transform="matrix(0.05,0,0,0.05,10,0)" xlink:href="#E"/><use transform="matrix(0.05,0,0,0.05,15.949999999999998,0)" xlink:href="#x"/><use transform="matrix(0.05,0,0,0.05,25.950000000000003,0)" xlink:href="#w"/><use transform="matrix(0.05,0,0,0.05,35.95,0)" xlink:href="#x"/><use transform="matrix(0.05,0,0,0.05,45.95,0)" xlink:href="#B"/><use transform="matrix(0.05,0,0,0.05,50.95,0)" xlink:href="#B"/><use transform="matrix(0.05,0,0,0.05,55.95,0)" xlink:href="#x"/></g><g id="m"><use transform="matrix(0.05,0,0,0.05,0,0)" xlink:href="#K"/><use transform="matrix(0.05,0,0,0.05,10,0)" xlink:href="#E"/><use transform="matrix(0.05,0,0,0.05,15.949999999999998,0)" xlink:href="#x"/><use transform="matrix(0.05,0,0,0.05,25.950000000000003,0)" xlink:href="#w"/><use transform="matrix(0.05,0,0,0.05,35.95,0)" xlink:href="#x"/><use transform="matrix(0.05,0,0,0.05,45.95,0)" xlink:href="#B"/><use transform="matrix(0.05,0,0,0.05,50.95,0)" xlink:href="#B"/><use transform="matrix(0.05,0,0,0.05,55.95,0)" xlink:href="#x"/></g><g id="n"><use transform="matrix(0.05,0,0,0.05,0,0)" xlink:href="#x"/><use transform="matrix(0.05,0,0,0.05,10,0)" xlink:href="#E"/><use transform="matrix(0.05,0,0,0.05,15.949999999999998,0)" xlink:href="#w"/><use transform="matrix(0.05,0,0,0.05,25.950000000000003,0)" xlink:href="#y"/><use transform="matrix(0.05,0,0,0.05,29.899999999999995,0)" xlink:href="#v"/><use transform="matrix(0.05,0,0,0.05,39.9,0)" xlink:href="#D"/></g><path d="M33 0v-248h34V0H33" id="P"/><g id="o"><use transform="matrix(0.05,0,0,0.05,0,0)" xlink:href="#P"/><use transform="matrix(0.05,0,0,0.05,5,0)" xlink:href="#v"/><use transform="matrix(0.05,0,0,0.05,15,0)" xlink:href="#I"/><use transform="matrix(0.05,0,0,0.05,24,0)" xlink:href="#D"/><use transform="matrix(0.05,0,0,0.05,34,0)" xlink:href="#E"/><use transform="matrix(0.05,0,0,0.05,39.95,0)" xlink:href="#y"/><use transform="matrix(0.05,0,0,0.05,43.900000000000006,0)" xlink:href="#I"/><use transform="matrix(0.05,0,0,0.05,52.900000000000006,0)" xlink:href="#F"/><use transform="matrix(0.05,0,0,0.05,61.900000000000006,0)" xlink:href="#y"/></g><path d="M108 0H70L1-190h34L89-25l56-165h34" id="Q"/><g id="p"><use transform="matrix(0.05,0,0,0.05,0,0)" xlink:href="#Q"/><use transform="matrix(0.05,0,0,0.05,9,0)" xlink:href="#t"/><use transform="matrix(0.05,0,0,0.05,19,0)" xlink:href="#u"/><use transform="matrix(0.05,0,0,0.05,22.95,0)" xlink:href="#G"/><use transform="matrix(0.05,0,0,0.05,32.95,0)" xlink:href="#B"/><use transform="matrix(0.05,0,0,0.05,37.95,0)" xlink:href="#t"/><use transform="matrix(0.05,0,0,0.05,47.95,0)" xlink:href="#N"/><use transform="matrix(0.05,0,0,0.05,56.95,0)" xlink:href="#y"/><use transform="matrix(0.05,0,0,0.05,60.900000000000006,0)" xlink:href="#x"/><use transform="matrix(0.05,0,0,0.05,70.9,0)" xlink:href="#v"/><use transform="matrix(0.05,0,0,0.05,80.9,0)" xlink:href="#D"/></g><g id="q"><use transform="matrix(0.05,0,0,0.05,0,0)" xlink:href="#M"/><use transform="matrix(0.05,0,0,0.05,12,0)" xlink:href="#G"/><use transform="matrix(0.05,0,0,0.05,22,0)" xlink:href="#B"/><use transform="matrix(0.05,0,0,0.05,27,0)" xlink:href="#D"/><use transform="matrix(0.05,0,0,0.05,37,0)" xlink:href="#v"/><use transform="matrix(0.05,0,0,0.05,47,0)" xlink:href="#B"/><use transform="matrix(0.05,0,0,0.05,52,0)" xlink:href="#y"/><use transform="matrix(0.05,0,0,0.05,55.95,0)" xlink:href="#F"/><use transform="matrix(0.05,0,0,0.05,64.95,0)" xlink:href="#t"/><use transform="matrix(0.05,0,0,0.05,74.95,0)" xlink:href="#N"/><use transform="matrix(0.05,0,0,0.05,83.95,0)" xlink:href="#y"/><use transform="matrix(0.05,0,0,0.05,87.9,0)" xlink:href="#x"/><use transform="matrix(0.05,0,0,0.05,97.9,0)" xlink:href="#v"/><use transform="matrix(0.05,0,0,0.05,107.9,0)" xlink:href="#D"/></g><path d="M101-234c-31-9-42 10-38 44h38v23H63V0H32v-167H5v-23h27c-7-52 17-82 69-68v24" id="R"/><g id="r"><use transform="matrix(0.05,0,0,0.05,0,0)" xlink:href="#C"/><use transform="matrix(0.05,0,0,0.05,12.950000000000001,0)" xlink:href="#x"/><use transform="matrix(0.05,0,0,0.05,22.950000000000003,0)" xlink:href="#v"/><use transform="matrix(0.05,0,0,0.05,32.95,0)" xlink:href="#R"/><use transform="matrix(0.05,0,0,0.05,37.95,0)" xlink:href="#D"/><use transform="matrix(0.05,0,0,0.05,47.95,0)" xlink:href="#E"/><use transform="matrix(0.05,0,0,0.05,53.900000000000006,0)" xlink:href="#L"/><use transform="matrix(0.05,0,0,0.05,68.85000000000001,0)" xlink:href="#t"/></g></defs></g></svg>