<svg xmlns="http://www.w3.org/2000/svg" xmlns:xlink="http://www.w3.org/1999/xlink" xmlns:lucid="lucid" width="1440" height="2000"><g transform="translate(-240 -240)" lucid:page-tab-id="0_0"><path d="M1015.2 661.6c0 44.18-35.82 80-80 80s-80-35.82-80-80 35.82-80 80-80 80 35.82 80 80z" stroke="#000" stroke-width="2" fill="#fff"/><use xlink:href="#a" transform="matrix(1,0,0,1,860.1999999999999,586.5999999999999) translate(24.099999999999994 65.9625)"/><use xlink:href="#b" transform="matrix(1,0,0,1,860.1999999999999,586.5999999999999) translate(44.55 87.5625)"/><path d="M1260 601.6h160v120h-160z" stroke="#000" stroke-width="2" fill="#fff"/><use xlink:href="#c" transform="matrix(1,0,0,1,1265,606.5999999999767) translate(47.025 59.0875)"/><path d="M438.6 601.6h160v120h-160z" stroke="#000" stroke-width="2" fill="#fff"/><use xlink:href="#d" transform="matrix(1,0,0,1,443.60000856457384,606.5999999999767) translate(47.575 59.0875)"/><path d="M855.2 320h160v120h-160z" stroke="#000" stroke-width="2" fill="#fff"/><use xlink:href="#e" transform="matrix(1,0,0,1,860.1999999999534,325) translate(54.5 59.0875)"/><path d="M855.2 900h160v120h-160z" stroke="#000" stroke-width="2" fill="#fff"/><use xlink:href="#f" transform="matrix(1,0,0,1,860.1999999999534,905) translate(29.375 59.0875)"/><path d="M1075.5 633.82h-63.6v-2h63.6zm165 0h-46.1v-2h46.1z"/><path d="M1011.93 633.82h-.66l-.74-2h1.4zM1255.76 632.82l-14.26 4.63v-9.27z"/><path d="M1259 632.82l-18.5 6V626.8zm-16.5 3.25l10.03-3.25-10.03-3.26z"/><use xlink:href="#g" transform="matrix(1,0,0,1,1075.5001652514381,622.0155651276335) translate(0 14.4)"/><use xlink:href="#h" transform="matrix(1,0,0,1,1075.5001652514381,622.0155651276335) translate(49.95 14.4)"/><path d="M1090.96 682.34h-58.7v-2h58.7zm167.04 0h-76.2v-2h76.2z"/><path d="M1259 682.34h-1.03v-2h1.03zM1031.27 685.98l-14.27-4.64 14.27-4.63z"/><path d="M1032.27 687.36l-18.5-6.02 18.5-6zm-12.03-6.02l10.03 3.26v-6.5z"/><use xlink:href="#i" transform="matrix(1,0,0,1,1090.9579331334355,670.5443661343539) translate(0 14.4)"/><use xlink:href="#j" transform="matrix(1,0,0,1,1090.9579331334355,670.5443661343539) translate(48.95 14.4)"/><path d="M1072.75 704.67h-49.85v-2h49.85zm185.25 0h-67.35v-2H1258z"/><path d="M1259 704.67h-1.03v-2h1.03zM1021.9 708.3l-14.26-4.63 14.26-4.64z"/><path d="M1022.9 709.68l-18.5-6 18.5-6.02zm-12.03-6l10.03 3.25v-6.52z"/><use xlink:href="#i" transform="matrix(1,0,0,1,1072.7495967411232,692.8676145974453) translate(0 14.4)"/><use xlink:href="#k" transform="matrix(1,0,0,1,1072.7495967411232,692.8676145974453) translate(48.95 14.4)"/><path d="M974.9 880.5h-2v-68.97h2zm0-90.57h-2v-56.18h2z"/><path d="M974.9 733.77h-2v-.5l1.66-.86.35-.2zM973.9 895.76l-4.63-14.26h9.27z"/><path d="M973.9 899l-6-18.5h12.02zm-3.25-16.5l3.26 10.03 3.26-10.03z"/><use xlink:href="#l" transform="matrix(1,0,0,1,896.5555297135207,789.9252166108861) translate(0 14.4)"/><use xlink:href="#m" transform="matrix(1,0,0,1,896.5555297135207,789.9252166108861) translate(71.95 14.4)"/><path d="M893.93 898h-2v-40.86h2zm0-62.46h-2v-86.36h2z"/><path d="M893.93 899h-2v-1.03h2zM897.57 748.18h-9.28l4.63-14.26z"/><path d="M898.94 749.18h-12.02l6-18.5zm-9.27-2h6.52l-3.27-10.03z"/><use xlink:href="#n" transform="matrix(1,0,0,1,827.5799385236546,835.5422895572032) translate(0 14.4)"/><use xlink:href="#o" transform="matrix(1,0,0,1,827.5799385236546,835.5422895572032) translate(47 14.4)"/><path d="M670.05 662.6H618.1v-2h51.95zm183.15 0h-42.25v-2h42.25z"/><path d="M854.2 661.6v1h-1.03v-2h1.06zM617.1 666.24l-14.26-4.64 14.26-4.64z"/><path d="M618.1 667.6l-18.5-6 18.5-6zm-12.03-6l10.03 3.26v-6.52z"/><use xlink:href="#l" transform="matrix(1,0,0,1,670.0522936564986,650.8) translate(0 14.4)"/><use xlink:href="#h" transform="matrix(1,0,0,1,670.0522936564986,650.8) translate(71.95 14.4)"/><path d="M936.2 579.6h-2v-58h2zm0-79.6h-2v-40.5h2z"/><path d="M936.2 580.63l-1-.03h-1v-1.03h2zM939.84 458.5h-9.28l4.64-14.26z"/><path d="M941.2 459.5h-12l6-18.5zm-9.26-2h6.52l-3.26-10.03z"/><use xlink:href="#i" transform="matrix(1,0,0,1,876.2499999999534,499.99999571767825) translate(0 14.4)"/><use xlink:href="#k" transform="matrix(1,0,0,1,876.2499999999534,499.99999571767825) translate(48.95 14.4)"/><path d="M1120 280h400v245.2h-400z" fill="#fff" fill-opacity="0"/><path d="M1160 280h-40v245.2h40" stroke="#000" stroke-width="2" fill="none"/><use xlink:href="#p" transform="matrix(1,0,0,1,1135,285) translate(0 37.70000000000001)"/><use xlink:href="#q" transform="matrix(1,0,0,1,1135,285) translate(15.850000000000001 37.70000000000001)"/><use xlink:href="#r" transform="matrix(1,0,0,1,1135,285) translate(79.70000000000002 37.70000000000001)"/><use xlink:href="#s" transform="matrix(1,0,0,1,1135,285) translate(158.50000000000003 37.70000000000001)"/><use xlink:href="#t" transform="matrix(1,0,0,1,1135,285) translate(238.35000000000002 37.70000000000001)"/><use xlink:href="#u" transform="matrix(1,0,0,1,1135,285) translate(257.3 37.70000000000001)"/><use xlink:href="#v" transform="matrix(1,0,0,1,1135,285) translate(353.15000000000003 37.70000000000001)"/><use xlink:href="#w" transform="matrix(1,0,0,1,1135,285) translate(0 59.30000000000001)"/><use xlink:href="#x" transform="matrix(1,0,0,1,1135,285) translate(66.9 59.30000000000001)"/><use xlink:href="#y" transform="matrix(1,0,0,1,1135,285) translate(116.85000000000001 59.30000000000001)"/><use xlink:href="#z" transform="matrix(1,0,0,1,1135,285) translate(135.8 59.30000000000001)"/><use xlink:href="#p" transform="matrix(1,0,0,1,1135,285) translate(0 80.90000000000002)"/><use xlink:href="#q" transform="matrix(1,0,0,1,1135,285) translate(15.850000000000001 80.90000000000002)"/><use xlink:href="#A" transform="matrix(1,0,0,1,1135,285) translate(79.70000000000002 80.90000000000002)"/><use xlink:href="#B" transform="matrix(1,0,0,1,1135,285) translate(177.55 80.90000000000002)"/><use xlink:href="#C" transform="matrix(1,0,0,1,1135,285) translate(277.40000000000003 80.90000000000002)"/><use xlink:href="#D" transform="matrix(1,0,0,1,1135,285) translate(311.40000000000003 80.90000000000002)"/><use xlink:href="#E" transform="matrix(1,0,0,1,1135,285) translate(0 102.50000000000003)"/><use xlink:href="#F" transform="matrix(1,0,0,1,1135,285) translate(68.8 102.50000000000003)"/><use xlink:href="#G" transform="matrix(1,0,0,1,1135,285) translate(97.75 102.50000000000003)"/><use xlink:href="#p" transform="matrix(1,0,0,1,1135,285) translate(0 124.10000000000002)"/><use xlink:href="#q" transform="matrix(1,0,0,1,1135,285) translate(15.850000000000001 124.10000000000002)"/><use xlink:href="#H" transform="matrix(1,0,0,1,1135,285) translate(79.70000000000002 124.10000000000002)"/><use xlink:href="#I" transform="matrix(1,0,0,1,1135,285) translate(144.50000000000003 124.10000000000002)"/><use xlink:href="#J" transform="matrix(1,0,0,1,1135,285) translate(256.35 124.10000000000002)"/><use xlink:href="#K" transform="matrix(1,0,0,1,1135,285) translate(290.35 124.10000000000002)"/><use xlink:href="#L" transform="matrix(1,0,0,1,1135,285) translate(303.25 124.10000000000002)"/><use xlink:href="#J" transform="matrix(1,0,0,1,1135,285) translate(0 145.70000000000002)"/><use xlink:href="#M" transform="matrix(1,0,0,1,1135,285) translate(34 145.70000000000002)"/><use xlink:href="#N" transform="matrix(1,0,0,1,1135,285) translate(105.9 145.70000000000002)"/><use xlink:href="#p" transform="matrix(1,0,0,1,1135,285) translate(0 167.3)"/><use xlink:href="#O" transform="matrix(1,0,0,1,1135,285) translate(15.850000000000001 167.3)"/><use xlink:href="#P" transform="matrix(1,0,0,1,1135,285) translate(67.75 167.3)"/><use xlink:href="#C" transform="matrix(1,0,0,1,1135,285) translate(116.7 167.3)"/><use xlink:href="#Q" transform="matrix(1,0,0,1,1135,285) translate(150.7 167.3)"/><use xlink:href="#R" transform="matrix(1,0,0,1,1135,285) translate(240.64999999999998 167.3)"/><use xlink:href="#S" transform="matrix(1,0,0,1,1135,285) translate(255.64999999999998 167.3)"/><use xlink:href="#T" transform="matrix(1,0,0,1,1135,285) translate(0 188.9)"/><use xlink:href="#U" transform="matrix(1,0,0,1,1135,285) translate(101.75 188.9)"/><use xlink:href="#V" transform="matrix(1,0,0,1,1135,285) translate(193.65 188.9)"/><use xlink:href="#W" transform="matrix(1,0,0,1,1135,285) translate(0 210.5)"/><use xlink:href="#X" transform="matrix(1,0,0,1,1135,285) translate(115.75 210.5)"/><use xlink:href="#Y" transform="matrix(1,0,0,1,1135,285) translate(158.65 210.5)"/><path d="M812.8 260H1060v220H812.8z" fill-opacity="0"/><path d="M832.42 260h1.96m9.8 0h19.63m9.82 0h1.96m9.8 0h19.63m9.82 0h1.96m9.8 0h19.63m9.82 0h1.96m9.8 0h19.63m9.82 0h1.96m9.8 0h19.63m9.82 0h1.96m9.8 0h9.82v10.48m0 10.47v2.1m0 10.47v20.96m0 10.47v2.1m0 10.47v20.96m0 10.47v2.1m0 10.47v20.96m0 10.47v2.1m0 10.47v20.96m0 10.47v2.1m0 10.47V480h-9.8m-9.82 0h-1.96m-9.8 0h-19.63m-9.82 0h-1.96m-9.8 0h-19.63m-9.82 0h-1.96m-9.8 0h-19.63m-9.82 0h-1.96m-9.8 0h-19.63m-9.82 0h-1.96m-9.8 0h-19.63m-9.82 0h-1.96m-9.8 0h-9.82v-10.48m0-10.47v-2.1m0-10.47v-20.96m0-10.47v-2.1m0-10.47v-20.96m0-10.47v-2.1m0-10.47v-20.96m0-10.47v-2.1m0-10.47v-20.96m0-10.47v-2.1m0-10.47V260h9.8" stroke="#000" stroke-width="2" fill="none"/><use xlink:href="#Z" transform="matrix(1,0,0,1,832.7999999999302,280) translate(26.07499999999999 14.4)"/><use xlink:href="#aa" transform="matrix(1,0,0,1,832.7999999999302,280) translate(124.975 14.4)"/><path d="M398.6 540h240v220h-240z" fill-opacity="0"/><path d="M417.65 540h1.9m9.53 0h19.04m9.53 0h1.9m9.53 0h19.04m9.53 0h1.9m9.53 0h19.04m9.53 0h1.9m9.53 0h19.04m9.53 0h1.9m9.53 0h19.04m9.53 0h1.9m9.53 0h9.52v10.48m0 10.47v2.1m0 10.47v20.96m0 10.47v2.1m0 10.47v20.96m0 10.47v2.1m0 10.47v20.96m0 10.47v2.1m0 10.47v20.96m0 10.47v2.1m0 10.47V760h-9.52m-9.53 0h-1.9m-9.53 0h-19.04m-9.53 0h-1.9m-9.53 0h-19.04m-9.53 0h-1.9m-9.53 0h-19.04m-9.53 0h-1.9m-9.53 0h-19.04m-9.53 0h-1.9m-9.53 0h-19.04m-9.53 0h-1.9m-9.53 0h-9.52v-10.48m0-10.47v-2.1m0-10.47v-20.96m0-10.47v-2.1m0-10.47v-20.96m0-10.47v-2.1m0-10.47v-20.96m0-10.47v-2.1m0-10.47v-20.96m0-10.47v-2.1m0-10.47V540h9.52" stroke="#000" stroke-width="2" fill="none"/><use xlink:href="#ab" transform="matrix(1,0,0,1,418.60000856457384,560) translate(79.025 14.4)"/><path d="M812.8 860h244.8v200H812.8z" fill-opacity="0"/><path d="M832.23 860h1.94m9.72 0h19.4m9.73 0h1.94m9.72 0h19.4m9.73 0h1.94m9.72 0h19.4m9.73 0h1.94m9.72 0h19.4m9.73 0h1.94m9.72 0h19.4m9.73 0h1.94m9.72 0h9.7v9.52m0 9.53v1.9m0 9.53v19.04m0 9.53v1.9m0 9.53v19.04m0 9.53v1.9m0 9.53v19.04m0 9.53v1.9m0 9.53v19.04m0 9.53v1.9m0 9.53v9.52h-9.7m-9.73 0h-1.94m-9.72 0h-19.4m-9.73 0h-1.94m-9.72 0h-19.4m-9.73 0h-1.94m-9.72 0h-19.4m-9.73 0h-1.94m-9.72 0h-19.4m-9.73 0h-1.94m-9.72 0h-19.4m-9.73 0h-1.94m-9.72 0h-9.7v-9.52m0-9.53v-1.9m0-9.53v-19.04m0-9.53v-1.9m0-9.53v-19.04m0-9.53v-1.9m0-9.53v-19.04m0-9.53v-1.9m0-9.53v-19.04m0-9.53v-1.9m0-9.53V860h9.7" stroke="#000" stroke-width="2" fill="none"/><path d="M883.74 1028.4h102.92v31.6H883.74z" fill="#fff" fill-opacity="0"/><use xlink:href="#ac" transform="matrix(1,0,0,1,888.7374999999535,1033.4) translate(0 14.4)"/><path d="M1217.6 540h244.8v200h-244.8z" fill-opacity="0"/><path d="M1237.03 540h1.94m9.72 0h19.4m9.73 0h1.94m9.72 0h19.4m9.73 0h1.94m9.72 0h19.4m9.73 0h1.94m9.72 0h19.4m9.73 0h1.94m9.72 0h19.4m9.73 0h1.94m9.72 0h9.7v9.52m0 9.53v1.9m0 9.53v19.04m0 9.53v1.9m0 9.53v19.04m0 9.53v1.9m0 9.53v19.04m0 9.53v1.9m0 9.53v19.04m0 9.53v1.9m0 9.53V740h-9.7m-9.73 0h-1.94m-9.72 0h-19.4m-9.73 0h-1.94m-9.72 0h-19.4m-9.73 0h-1.94m-9.72 0h-19.4m-9.73 0h-1.94m-9.72 0h-19.4m-9.73 0h-1.94m-9.72 0h-19.4m-9.73 0h-1.94m-9.72 0h-9.7v-9.52m0-9.53v-1.9m0-9.53v-19.04m0-9.53v-1.9m0-9.53v-19.04m0-9.53v-1.9m0-9.53v-19.04m0-9.53v-1.9m0-9.53v-19.04m0-9.53v-1.9m0-9.53V540h9.7" stroke="#000" stroke-width="2" fill="none"/><path d="M1310 560h60v40h-60z" fill="#fff" fill-opacity="0"/><use xlink:href="#ab" transform="matrix(1,0,0,1,1315,565) translate(0 14.4)"/><path d="M300 1800h-40v-640h40" stroke="#000" stroke-width="2" fill="#fff"/><path d="M300 1800h1360v-320H300zM300 1160h1360v320H300z" fill="none"/><path d="M300 1480h1360M300 1800v-320m0 0v-320m0 0h1360v320M300 1800h1360v-320" stroke="#000" stroke-width="2" fill="none"/><use xlink:href="#f" transform="matrix(6.123233995736766e-17,-1,1,6.123233995736766e-17,300,1480) translate(114.375 23.6)"/><use xlink:href="#ad" transform="matrix(6.123233995736766e-17,-1,1,6.123233995736766e-17,259.9999999999999,1800) translate(287.725 23.6)"/><use xlink:href="#ae" transform="matrix(6.123233995736766e-17,-1,1,6.123233995736766e-17,299.9999999999999,1800) translate(127.725 23.6)"/><g stroke="#000" stroke-width="2"><path d="M300 2220h-40v-320h40" fill="#fff"/><path d="M300 2220h1360v-320H300M300 2220v-320" fill="none"/></g><use xlink:href="#af" transform="matrix(6.123233995736766e-17,-1,1,6.123233995736766e-17,260,2220) translate(141.05 23.6)"/><path d="M420 2060c0 16.57-13.43 30-30 30s-30-13.43-30-30 13.43-30 30-30 30 13.43 30 30zM480 2000h160v120H480z" stroke="#000" stroke-width="2" fill="#fff"/><use xlink:href="#ag" transform="matrix(1,0,0,1,480,2000) translate(25.055 51.9)"/><use xlink:href="#ah" transform="matrix(1,0,0,1,480,2000) translate(74.055 51.9)"/><use xlink:href="#ai" transform="matrix(1,0,0,1,480,2000) translate(60.005 73.5)"/><path d="M422 2060h38.5" stroke="#000" stroke-width="2" fill="none"/><path d="M422.03 2061h-1.1l.07-.98-.03-1.02h1.06z"/><path d="M475.76 2060l-14.26 4.64v-9.28z" stroke="#000" stroke-width="2"/><path d="M590 1640c0 16.57-13.43 30-30 30s-30-13.43-30-30 13.43-30 30-30 30 13.43 30 30z" stroke="#000" stroke-width="2" fill="#fff"/><path d="M540 1628.75h40v22.5h-40z" stroke="#000" stroke-width="2" fill="#fff"/><path d="M540 1628.75l20 11.25 20-11.25" stroke="#000" stroke-width="2" fill="none"/><use xlink:href="#aj" transform="matrix(1,0,0,1,530,1670) translate(-2.2749999999999986 14.4)"/><use xlink:href="#ak" transform="matrix(1,0,0,1,530,1670) translate(10 36)"/><path d="M680 1580h160v120H680z" stroke="#000" stroke-width="2" fill="#fff"/><use xlink:href="#al" transform="matrix(1,0,0,1,680,1580) translate(20.555 63.15)"/><use xlink:href="#am" transform="matrix(1,0,0,1,680,1580) translate(70.505 63.15)"/><path d="M592 1640h68.5" stroke="#000" stroke-width="2" fill="none"/><path d="M592.03 1641h-1.1l.07-.98-.03-1.02h1.06z"/><path d="M675.76 1640l-14.26 4.64v-9.28z" stroke="#000" stroke-width="2"/><path d="M560 1998v-308.5" stroke="#000" stroke-width="2" fill="none"/><path d="M561 1999h-2v-1.03h2z"/><path d="M560 1674.24l4.64 14.26h-9.28z" stroke="#000" stroke-width="2"/><path d="M790 2060c0 16.57-13.43 30-30 30s-30-13.43-30-30 13.43-30 30-30 30 13.43 30 30z" stroke="#000" stroke-width="2" fill="#fff"/><path d="M787 2060c0 14.9-12.1 27-27 27s-27-12.1-27-27 12.1-27 27-27 27 12.1 27 27z" stroke="#000" stroke-width="2" fill="#fff"/><path d="M740 2048.75h40v22.5h-40z" stroke="#000" stroke-width="2" fill="#fff"/><path d="M740 2048.75l20 11.25 20-11.25" stroke="#000" stroke-width="2" fill="none"/><use xlink:href="#an" transform="matrix(1,0,0,1,730,2090) translate(4.524999999999999 14.4)"/><use xlink:href="#h" transform="matrix(1,0,0,1,730,2090) translate(-4.475000000000001 36)"/><path d="M642 2060h68.5" stroke="#000" stroke-width="2" fill="none"/><path d="M642.03 2061H641v-2h1.03z"/><path d="M725.76 2060l-14.26 4.64v-9.28z" stroke="#000" stroke-width="2"/><path d="M760 1702v308.5" stroke="#000" stroke-width="2" fill="none"/><path d="M761 1702.03h-2V1701h2z"/><path d="M760 2025.76l-4.64-14.26h9.28z" stroke="#000" stroke-width="2"/><path d="M792 2060h68.5" stroke="#000" stroke-width="2" fill="none"/><path d="M792.03 2061h-1.1l.07-.98-.03-1.02h1.06z"/><path d="M875.76 2060l-14.26 4.64v-9.28z" stroke="#000" stroke-width="2"/><path d="M880 2000h160v120H880z" stroke="#000" stroke-width="2" fill="#fff"/><g><use xlink:href="#ao" transform="matrix(1,0,0,1,880,2000) translate(21.529999999999994 51.9)"/><use xlink:href="#ap" transform="matrix(1,0,0,1,880,2000) translate(58.529999999999994 51.9)"/><use xlink:href="#aq" transform="matrix(1,0,0,1,880,2000) translate(123.48 51.9)"/><use xlink:href="#ar" transform="matrix(1,0,0,1,880,2000) translate(65.03 73.5)"/></g><path d="M960 1998v-308.5" stroke="#000" stroke-width="2" fill="none"/><path d="M961 1999h-2v-1.03h2z"/><path d="M960 1674.24l4.64 14.26h-9.28z" stroke="#000" stroke-width="2"/><path d="M990 1640c0 16.57-13.43 30-30 30s-30-13.43-30-30 13.43-30 30-30 30 13.43 30 30z" stroke="#000" stroke-width="2" fill="#fff"/><path d="M987 1640c0 14.9-12.1 27-27 27s-27-12.1-27-27 12.1-27 27-27 27 12.1 27 27z" stroke="#000" stroke-width="2" fill="#fff"/><path d="M940 1628.75h40v22.5h-40z" stroke="#000" stroke-width="2" fill="#fff"/><path d="M940 1628.75l20 11.25 20-11.25" stroke="#000" stroke-width="2" fill="none"/><g><use xlink:href="#as" transform="matrix(1,0,0,1,930,1670) translate(-0.9750000000000014 14.4)"/><use xlink:href="#at" transform="matrix(1,0,0,1,930,1670) translate(-3.950000000000003 36)"/></g><path d="M842 1640h68.5" stroke="#000" stroke-width="2" fill="none"/><path d="M842.03 1641H841v-2h1.03z"/><path d="M925.76 1640l-14.26 4.64v-9.28z" stroke="#000" stroke-width="2"/><path d="M1020 1320h160v120h-160z" stroke="#000" stroke-width="2" fill="#fff"/><g><use xlink:href="#au" transform="matrix(1,0,0,1,1020,1320) translate(7.154999999999982 63.15)"/><use xlink:href="#m" transform="matrix(1,0,0,1,1020,1320) translate(70.10499999999999 63.15)"/></g><path d="M1100 1318v-46" fill="none"/><path d="M1100 1318v-1.92m0-7.66v-3.84m0-7.66v-3.84m0-7.66v-3.84m0-7.66V1272" stroke="#000" stroke-width="2" fill="none"/><path d="M1101 1319h-2v-1.03h2zM1101 1272.03h-2v-1.06l1 .03 1-.04z"/><path d="M1160 1191.25c0-6.2-26.86-11.25-60-11.25s-60 5.04-60 11.25V1261c0 3.96 26.86 9 60 9s60-5.04 60-11.25z" stroke="#000" stroke-width="2" fill="#fff"/><path d="M1160 1191.25c0 6.2-26.86 11.25-60 11.25s-60-5.04-60-11.25m120 8.55c0 3.96-26.86 9-60 9s-60-5.04-60-11.25m120 8.55c0 3.96-26.86 9-60 9s-60-5.04-60-11.25" stroke="#000" stroke-width="2" fill="#fff"/><g><use xlink:href="#av" transform="matrix(1,0,0,1,1040,1220) translate(21.525 23.6)"/></g><path d="M1000.5 1381H961v227h-2v-229h41.5z"/><path d="M961 1609.08l-.98-.08-1.02.03v-1.06h2zM1015.76 1380l-14.26 4.64v-9.28z"/><path d="M1019 1380l-18.5 6v-12zm-16.5 3.26l10.03-3.26-10.03-3.26z"/><path d="M1100 1442v158.1" stroke="#000" stroke-width="2" fill="none"/><path d="M1101 1442.03h-2V1441h2zM1101 1602.1l-1-1-1 1v-2.04h2z"/><path d="M1062.5 1640l37.5-37.5 37.5 37.5-37.5 37.5z" stroke="#000" stroke-width="2" fill="#fff"/><path d="M1085 1625l30 30m-30 0l30-30" stroke="#000" stroke-width="4" fill="none"/><g><use xlink:href="#aw" transform="matrix(1,0,0,1,1062.5,1677.5) translate(6.049999999999997 14.4)"/><use xlink:href="#ax" transform="matrix(1,0,0,1,1062.5,1677.5) translate(34 14.4)"/><use xlink:href="#ay" transform="matrix(1,0,0,1,1062.5,1677.5) translate(8.524999999999999 36)"/><use xlink:href="#aq" transform="matrix(1,0,0,1,1062.5,1677.5) translate(51.475 36)"/><use xlink:href="#az" transform="matrix(1,0,0,1,1062.5,1677.5) translate(0.04999999999999716 57.6)"/><use xlink:href="#aA" transform="matrix(1,0,0,1,1062.5,1677.5) translate(34.05 57.6)"/></g><path d="M1260 2000h160v120h-160z" stroke="#000" stroke-width="2" fill="#fff"/><g><use xlink:href="#aB" transform="matrix(1,0,0,1,1260,2000) translate(21.57999999999999 63.15)"/><use xlink:href="#aC" transform="matrix(1,0,0,1,1260,2000) translate(57.57999999999999 63.15)"/></g><path d="M1422 2060h38.5" stroke="#000" stroke-width="2" fill="none"/><path d="M1422.03 2061H1421v-2h1.03z"/><path d="M1475.76 2060l-14.26 4.64v-9.28z" stroke="#000" stroke-width="2"/><path d="M1539 2060c0 16.57-13.43 30-30 30s-30-13.43-30-30 13.43-30 30-30 30 13.43 30 30z" stroke="#000" stroke-width="6" fill="#fff"/><path d="M1022.1 1639h38v2h-40v-3.53h2zm0-23.13h-2V1540H803.66v20.5h-2V1538h220.42z"/><path d="M1061.1 1640l1 1h-2.04v-2h2.03zM802.67 1575.76l-4.64-14.26h9.27z"/><path d="M802.67 1579l-6.02-18.5h12.03zm-3.26-16.5l3.27 10.03 3.26-10.03z"/><g><use xlink:href="#aD" transform="matrix(1,0,0,1,1006.4107864376269,1615.8666666666666) translate(0 14.4)"/></g><path d="M1199.96 2059h40.54v2h-42.54v-420h-15.82v-2h17.82zm-60.05-418v-2h19.3v2z"/><path d="M1139.94 1641h-2.03l1-1-1-1h2.04zM1255.76 2060l-14.26 4.64v-9.28z"/><path d="M1259 2060l-18.5 6v-12zm-16.5 3.26l10.03-3.26-10.03-3.26z"/><g><use xlink:href="#aE" transform="matrix(1,0,0,1,1159.1916666666668,1629.2) translate(0 14.4)"/></g><path d="M760 1578v-118.5" stroke="#000" stroke-width="2" fill="none"/><path d="M761 1579h-2v-1.03h2z"/><path d="M760 1444.24l4.64 14.26h-9.28z" stroke="#000" stroke-width="2"/><path d="M680 1320h160v120H680z" stroke="#000" stroke-width="2" fill="#fff"/><g><use xlink:href="#aF" transform="matrix(1,0,0,1,680,1320) translate(12.62999999999999 63.15)"/><use xlink:href="#aG" transform="matrix(1,0,0,1,680,1320) translate(68.57999999999998 63.15)"/></g><path d="M760 1318v-46" fill="none"/><path d="M760 1318v-1.92m0-7.66v-3.84m0-7.66v-3.84m0-7.66v-3.84m0-7.66V1272M760 1317.97v1.03" stroke="#000" stroke-width="2" fill="none"/><path d="M761 1272.03h-2v-1.06l1 .03 1-.04z"/><path d="M820 1191.25c0-6.2-26.86-11.25-60-11.25s-60 5.04-60 11.25V1261c0 3.96 26.86 9 60 9s60-5.04 60-11.25z" stroke="#000" stroke-width="2" fill="#fff"/><path d="M820 1191.25c0 6.2-26.86 11.25-60 11.25s-60-5.04-60-11.25m120 8.55c0 3.96-26.86 9-60 9s-60-5.04-60-11.25m120 8.55c0 3.96-26.86 9-60 9s-60-5.04-60-11.25" stroke="#000" stroke-width="2" fill="#fff"/><g><use xlink:href="#av" transform="matrix(1,0,0,1,700,1220) translate(21.525 23.6)"/></g><defs><path d="M30 0v-248h187v28H63v79h144v27H63v87h162V0H30" id="aH"/><path d="M16-82v-28h88v28H16" id="aI"/><path d="M96-169c-40 0-48 33-48 73s9 75 48 75c24 0 41-14 43-38l32 2c-6 37-31 61-74 61-59 0-76-41-82-99-10-93 101-131 147-64 4 7 5 14 7 22l-32 3c-4-21-16-35-41-35" id="aJ"/><path d="M100-194c62-1 85 37 85 99 1 63-27 99-86 99S16-35 15-95c0-66 28-99 85-99zM99-20c44 1 53-31 53-75 0-43-8-75-51-75s-53 32-53 75 10 74 51 75" id="aK"/><path d="M210-169c-67 3-38 105-44 169h-31v-121c0-29-5-50-35-48C34-165 62-65 56 0H25l-1-190h30c1 10-1 24 2 32 10-44 99-50 107 0 11-21 27-35 58-36 85-2 47 119 55 194h-31v-121c0-29-5-49-35-48" id="aL"/><path d="M100-194c63 0 86 42 84 106H49c0 40 14 67 53 68 26 1 43-12 49-29l28 8c-11 28-37 45-77 45C44 4 14-33 15-96c1-61 26-98 85-98zm52 81c6-60-76-77-97-28-3 7-6 17-6 28h103" id="aM"/><path d="M114-163C36-179 61-72 57 0H25l-1-190h30c1 12-1 29 2 39 6-27 23-49 58-41v29" id="aN"/><g id="a"><use transform="matrix(0.05,0,0,0.05,0,0)" xlink:href="#aH"/><use transform="matrix(0.05,0,0,0.05,12,0)" xlink:href="#aI"/><use transform="matrix(0.05,0,0,0.05,17.95,0)" xlink:href="#aJ"/><use transform="matrix(0.05,0,0,0.05,26.950000000000003,0)" xlink:href="#aK"/><use transform="matrix(0.05,0,0,0.05,36.95,0)" xlink:href="#aL"/><use transform="matrix(0.05,0,0,0.05,51.900000000000006,0)" xlink:href="#aL"/><use transform="matrix(0.05,0,0,0.05,66.85000000000001,0)" xlink:href="#aM"/><use transform="matrix(0.05,0,0,0.05,76.85000000000001,0)" xlink:href="#aN"/><use transform="matrix(0.05,0,0,0.05,82.80000000000001,0)" xlink:href="#aJ"/><use transform="matrix(0.05,0,0,0.05,91.80000000000001,0)" xlink:href="#aM"/></g><path d="M206 0h-36l-40-164L89 0H53L-1-190h32L70-26l43-164h34l41 164 42-164h31" id="aO"/><path d="M115-194c53 0 69 39 70 98 0 66-23 100-70 100C84 3 66-7 56-30L54 0H23l1-261h32v101c10-23 28-34 59-34zm-8 174c40 0 45-34 45-75 0-40-5-75-45-74-42 0-51 32-51 76 0 43 10 73 51 73" id="aP"/><path d="M135-143c-3-34-86-38-87 0 15 53 115 12 119 90S17 21 10-45l28-5c4 36 97 45 98 0-10-56-113-15-118-90-4-57 82-63 122-42 12 7 21 19 24 35" id="aQ"/><path d="M24-231v-30h32v30H24zM24 0v-190h32V0H24" id="aR"/><path d="M59-47c-2 24 18 29 38 22v24C64 9 27 4 27-40v-127H5v-23h24l9-43h21v43h35v23H59v120" id="aS"/><g id="b"><use transform="matrix(0.05,0,0,0.05,0,0)" xlink:href="#aO"/><use transform="matrix(0.05,0,0,0.05,12.950000000000001,0)" xlink:href="#aM"/><use transform="matrix(0.05,0,0,0.05,22.950000000000003,0)" xlink:href="#aP"/><use transform="matrix(0.05,0,0,0.05,32.95,0)" xlink:href="#aQ"/><use transform="matrix(0.05,0,0,0.05,41.95,0)" xlink:href="#aR"/><use transform="matrix(0.05,0,0,0.05,45.900000000000006,0)" xlink:href="#aS"/><use transform="matrix(0.05,0,0,0.05,50.900000000000006,0)" xlink:href="#aM"/></g><path d="M160-131c35 5 61 23 61 61C221 17 115-2 30 0v-248c76 3 177-17 177 60 0 33-19 50-47 57zm-97-11c50-1 110 9 110-42 0-47-63-36-110-37v79zm0 115c55-2 124 14 124-45 0-56-70-42-124-44v89" id="aT"/><path d="M84 4C-5 8 30-112 23-190h32v120c0 31 7 50 39 49 72-2 45-101 50-169h31l1 190h-30c-1-10 1-25-2-33-11 22-28 36-60 37" id="aU"/><path d="M179-190L93 31C79 59 56 82 12 73V49c39 6 53-20 64-50L1-190h34L92-34l54-156h33" id="aV"/><g id="c"><use transform="matrix(0.05,0,0,0.05,0,0)" xlink:href="#aT"/><use transform="matrix(0.05,0,0,0.05,12,0)" xlink:href="#aU"/><use transform="matrix(0.05,0,0,0.05,22,0)" xlink:href="#aV"/><use transform="matrix(0.05,0,0,0.05,31,0)" xlink:href="#aM"/><use transform="matrix(0.05,0,0,0.05,41,0)" xlink:href="#aN"/><use transform="matrix(0.05,0,0,0.05,46.95,0)" xlink:href="#aQ"/></g><path d="M185-189c-5-48-123-54-124 2 14 75 158 14 163 119 3 78-121 87-175 55-17-10-28-26-33-46l33-7c5 56 141 63 141-1 0-78-155-14-162-118-5-82 145-84 179-34 5 7 8 16 11 25" id="aW"/><path d="M24 0v-261h32V0H24" id="aX"/><g id="d"><use transform="matrix(0.05,0,0,0.05,0,0)" xlink:href="#aW"/><use transform="matrix(0.05,0,0,0.05,12,0)" xlink:href="#aM"/><use transform="matrix(0.05,0,0,0.05,22,0)" xlink:href="#aX"/><use transform="matrix(0.05,0,0,0.05,25.950000000000003,0)" xlink:href="#aX"/><use transform="matrix(0.05,0,0,0.05,29.899999999999995,0)" xlink:href="#aM"/><use transform="matrix(0.05,0,0,0.05,39.9,0)" xlink:href="#aN"/><use transform="matrix(0.05,0,0,0.05,45.85,0)" xlink:href="#aQ"/></g><path d="M141-36C126-15 110 5 73 4 37 3 15-17 15-53c-1-64 63-63 125-63 3-35-9-54-41-54-24 1-41 7-42 31l-33-3c5-37 33-52 76-52 45 0 72 20 72 64v82c-1 20 7 32 28 27v20c-31 9-61-2-59-35zM48-53c0 20 12 33 32 33 41-3 63-29 60-74-43 2-92-5-92 41" id="aY"/><path d="M117-194c89-4 53 116 60 194h-32v-121c0-31-8-49-39-48C34-167 62-67 57 0H25l-1-190h30c1 10-1 24 2 32 11-22 29-35 61-36" id="aZ"/><path d="M143 0L79-87 56-68V0H24v-261h32v163l83-92h37l-77 82L181 0h-38" id="ba"/><g id="e"><use transform="matrix(0.05,0,0,0.05,0,0)" xlink:href="#aT"/><use transform="matrix(0.05,0,0,0.05,12,0)" xlink:href="#aY"/><use transform="matrix(0.05,0,0,0.05,22,0)" xlink:href="#aZ"/><use transform="matrix(0.05,0,0,0.05,32,0)" xlink:href="#ba"/></g><path d="M266 0h-40l-56-210L115 0H75L2-248h35L96-30l15-64 43-154h32l59 218 59-218h35" id="bb"/><path d="M106-169C34-169 62-67 57 0H25v-261h32l-1 103c12-21 28-36 61-36 89 0 53 116 60 194h-32v-121c2-32-8-49-39-48" id="bc"/><g id="f"><use transform="matrix(0.05,0,0,0.05,0,0)" xlink:href="#bb"/><use transform="matrix(0.05,0,0,0.05,16.3,0)" xlink:href="#aY"/><use transform="matrix(0.05,0,0,0.05,26.3,0)" xlink:href="#aN"/><use transform="matrix(0.05,0,0,0.05,32.25,0)" xlink:href="#aM"/><use transform="matrix(0.05,0,0,0.05,42.25,0)" xlink:href="#bc"/><use transform="matrix(0.05,0,0,0.05,52.25,0)" xlink:href="#aK"/><use transform="matrix(0.05,0,0,0.05,62.25,0)" xlink:href="#aU"/><use transform="matrix(0.05,0,0,0.05,72.25,0)" xlink:href="#aQ"/><use transform="matrix(0.05,0,0,0.05,81.25,0)" xlink:href="#aM"/></g><g id="g"><use transform="matrix(0.05,0,0,0.05,0,0)" xlink:href="#aW"/><use transform="matrix(0.05,0,0,0.05,12,0)" xlink:href="#bc"/><use transform="matrix(0.05,0,0,0.05,22,0)" xlink:href="#aK"/><use transform="matrix(0.05,0,0,0.05,32,0)" xlink:href="#aO"/></g><path d="M115-194c55 1 70 41 70 98S169 2 115 4C84 4 66-9 55-30l1 105H24l-1-265h31l2 30c10-21 28-34 59-34zm-8 174c40 0 45-34 45-75s-6-73-45-74c-42 0-51 32-51 76 0 43 10 73 51 73" id="bd"/><path d="M85-194c31 0 48 13 60 33l-1-100h32l1 261h-30c-2-10 0-23-3-31C134-8 116 4 85 4 32 4 16-35 15-94c0-66 23-100 70-100zm9 24c-40 0-46 34-46 75 0 40 6 74 45 74 42 0 51-32 51-76 0-42-9-74-50-73" id="be"/><g id="h"><use transform="matrix(0.05,0,0,0.05,0,0)" xlink:href="#bd"/><use transform="matrix(0.05,0,0,0.05,10,0)" xlink:href="#aN"/><use transform="matrix(0.05,0,0,0.05,15.949999999999998,0)" xlink:href="#aK"/><use transform="matrix(0.05,0,0,0.05,25.950000000000003,0)" xlink:href="#be"/><use transform="matrix(0.05,0,0,0.05,35.95,0)" xlink:href="#aU"/><use transform="matrix(0.05,0,0,0.05,45.95,0)" xlink:href="#aJ"/><use transform="matrix(0.05,0,0,0.05,54.95,0)" xlink:href="#aS"/><use transform="matrix(0.05,0,0,0.05,59.95,0)" xlink:href="#aQ"/></g><path d="M240 0l2-218c-23 76-54 145-80 218h-23L58-218 59 0H30v-248h44l77 211c21-75 51-140 76-211h43V0h-30" id="bf"/><g id="i"><use transform="matrix(0.05,0,0,0.05,0,0)" xlink:href="#bf"/><use transform="matrix(0.05,0,0,0.05,14.950000000000001,0)" xlink:href="#aY"/><use transform="matrix(0.05,0,0,0.05,24.950000000000003,0)" xlink:href="#ba"/><use transform="matrix(0.05,0,0,0.05,33.95,0)" xlink:href="#aM"/></g><g id="j"><use transform="matrix(0.05,0,0,0.05,0,0)" xlink:href="#aK"/><use transform="matrix(0.05,0,0,0.05,10,0)" xlink:href="#aN"/><use transform="matrix(0.05,0,0,0.05,15.949999999999998,0)" xlink:href="#be"/><use transform="matrix(0.05,0,0,0.05,25.950000000000003,0)" xlink:href="#aM"/><use transform="matrix(0.05,0,0,0.05,35.95,0)" xlink:href="#aN"/></g><g id="k"><use transform="matrix(0.05,0,0,0.05,0,0)" xlink:href="#bd"/><use transform="matrix(0.05,0,0,0.05,10,0)" xlink:href="#aY"/><use transform="matrix(0.05,0,0,0.05,20,0)" xlink:href="#aV"/><use transform="matrix(0.05,0,0,0.05,29,0)" xlink:href="#aL"/><use transform="matrix(0.05,0,0,0.05,43.95,0)" xlink:href="#aM"/><use transform="matrix(0.05,0,0,0.05,53.95,0)" xlink:href="#aZ"/><use transform="matrix(0.05,0,0,0.05,63.95,0)" xlink:href="#aS"/></g><path d="M233-177c-1 41-23 64-60 70L243 0h-38l-65-103H63V0H30v-248c88 3 205-21 203 71zM63-129c60-2 137 13 137-47 0-61-80-42-137-45v92" id="bg"/><path d="M145-31C134-9 116 4 85 4 32 4 16-35 15-94c0-59 17-99 70-100 32-1 48 14 60 33 0-11-1-24 2-32h30l-1 268h-32zM93-21c41 0 51-33 51-76s-8-73-50-73c-40 0-46 35-46 75s5 74 45 74" id="bh"/><g id="l"><use transform="matrix(0.05,0,0,0.05,0,0)" xlink:href="#bg"/><use transform="matrix(0.05,0,0,0.05,12.950000000000001,0)" xlink:href="#aM"/><use transform="matrix(0.05,0,0,0.05,22.950000000000003,0)" xlink:href="#bh"/><use transform="matrix(0.05,0,0,0.05,32.95,0)" xlink:href="#aU"/><use transform="matrix(0.05,0,0,0.05,42.95,0)" xlink:href="#aM"/><use transform="matrix(0.05,0,0,0.05,52.95,0)" xlink:href="#aQ"/><use transform="matrix(0.05,0,0,0.05,61.95,0)" xlink:href="#aS"/></g><path d="M108 0H70L1-190h34L89-25l56-165h34" id="bi"/><g id="m"><use transform="matrix(0.05,0,0,0.05,0,0)" xlink:href="#aY"/><use transform="matrix(0.05,0,0,0.05,10,0)" xlink:href="#bi"/><use transform="matrix(0.05,0,0,0.05,19,0)" xlink:href="#aY"/><use transform="matrix(0.05,0,0,0.05,29,0)" xlink:href="#aR"/><use transform="matrix(0.05,0,0,0.05,32.95,0)" xlink:href="#aX"/><use transform="matrix(0.05,0,0,0.05,36.900000000000006,0)" xlink:href="#aY"/><use transform="matrix(0.05,0,0,0.05,46.900000000000006,0)" xlink:href="#aP"/><use transform="matrix(0.05,0,0,0.05,56.900000000000006,0)" xlink:href="#aR"/><use transform="matrix(0.05,0,0,0.05,60.85,0)" xlink:href="#aX"/><use transform="matrix(0.05,0,0,0.05,64.80000000000001,0)" xlink:href="#aR"/><use transform="matrix(0.05,0,0,0.05,68.75000000000001,0)" xlink:href="#aS"/><use transform="matrix(0.05,0,0,0.05,73.75000000000001,0)" xlink:href="#aV"/></g><g id="n"><use transform="matrix(0.05,0,0,0.05,0,0)" xlink:href="#aW"/><use transform="matrix(0.05,0,0,0.05,12,0)" xlink:href="#aM"/><use transform="matrix(0.05,0,0,0.05,22,0)" xlink:href="#aZ"/><use transform="matrix(0.05,0,0,0.05,32,0)" xlink:href="#be"/></g><g id="o"><use transform="matrix(0.05,0,0,0.05,0,0)" xlink:href="#aY"/><use transform="matrix(0.05,0,0,0.05,10,0)" xlink:href="#bi"/><use transform="matrix(0.05,0,0,0.05,19,0)" xlink:href="#aY"/><use transform="matrix(0.05,0,0,0.05,29,0)" xlink:href="#aR"/><use transform="matrix(0.05,0,0,0.05,32.95,0)" xlink:href="#aX"/><use transform="matrix(0.05,0,0,0.05,36.900000000000006,0)" xlink:href="#aY"/><use transform="matrix(0.05,0,0,0.05,46.900000000000006,0)" xlink:href="#aP"/><use transform="matrix(0.05,0,0,0.05,56.900000000000006,0)" xlink:href="#aR"/><use transform="matrix(0.05,0,0,0.05,60.85,0)" xlink:href="#aX"/><use transform="matrix(0.05,0,0,0.05,64.80000000000001,0)" xlink:href="#aR"/><use transform="matrix(0.05,0,0,0.05,68.75000000000001,0)" xlink:href="#aN"/><use transform="matrix(0.05,0,0,0.05,74.70000000000002,0)" xlink:href="#aV"/></g><path d="M31-102c2-46 33-77 78-77 44 0 75 31 77 77 1 41-36 78-77 78s-80-37-78-78" id="bj"/><use transform="matrix(0.05,0,0,0.05,0,0)" xlink:href="#bj" id="p"/><g id="q"><use transform="matrix(0.05,0,0,0.05,0,0)" xlink:href="#aW"/><use transform="matrix(0.05,0,0,0.05,12,0)" xlink:href="#aR"/><use transform="matrix(0.05,0,0,0.05,15.949999999999998,0)" xlink:href="#aQ"/><use transform="matrix(0.05,0,0,0.05,24.95,0)" xlink:href="#aS"/><use transform="matrix(0.05,0,0,0.05,29.950000000000003,0)" xlink:href="#aM"/><use transform="matrix(0.05,0,0,0.05,39.95,0)" xlink:href="#aL"/><use transform="matrix(0.05,0,0,0.05,54.900000000000006,0)" xlink:href="#aR"/></g><path d="M33-154v-36h34v36H33zM33 0v-36h34V0H33" id="bk"/><g id="r"><use transform="matrix(0.05,0,0,0.05,0,0)" xlink:href="#aQ"/><use transform="matrix(0.05,0,0,0.05,9,0)" xlink:href="#aU"/><use transform="matrix(0.05,0,0,0.05,19,0)" xlink:href="#bd"/><use transform="matrix(0.05,0,0,0.05,29,0)" xlink:href="#aM"/><use transform="matrix(0.05,0,0,0.05,39,0)" xlink:href="#aN"/><use transform="matrix(0.05,0,0,0.05,44.95,0)" xlink:href="#aR"/><use transform="matrix(0.05,0,0,0.05,48.900000000000006,0)" xlink:href="#aK"/><use transform="matrix(0.05,0,0,0.05,58.900000000000006,0)" xlink:href="#aN"/><use transform="matrix(0.05,0,0,0.05,64.85000000000001,0)" xlink:href="#aR"/><use transform="matrix(0.05,0,0,0.05,68.80000000000001,0)" xlink:href="#bk"/></g><path d="M9 0v-24l116-142H16v-24h144v24L44-24h123V0H9" id="bl"/><g id="s"><use transform="matrix(0.05,0,0,0.05,0,0)" xlink:href="#aU"/><use transform="matrix(0.05,0,0,0.05,10,0)" xlink:href="#aS"/><use transform="matrix(0.05,0,0,0.05,15,0)" xlink:href="#aR"/><use transform="matrix(0.05,0,0,0.05,18.95,0)" xlink:href="#aX"/><use transform="matrix(0.05,0,0,0.05,22.9,0)" xlink:href="#aR"/><use transform="matrix(0.05,0,0,0.05,26.849999999999994,0)" xlink:href="#bl"/><use transform="matrix(0.05,0,0,0.05,35.849999999999994,0)" xlink:href="#bl"/><use transform="matrix(0.05,0,0,0.05,44.849999999999994,0)" xlink:href="#aY"/><use transform="matrix(0.05,0,0,0.05,54.849999999999994,0)" xlink:href="#aZ"/><use transform="matrix(0.05,0,0,0.05,64.85,0)" xlink:href="#aK"/></g><g id="t"><use transform="matrix(0.05,0,0,0.05,0,0)" xlink:href="#aX"/><use transform="matrix(0.05,0,0,0.05,3.95,0)" xlink:href="#aM"/></g><path d="M101-234c-31-9-42 10-38 44h38v23H63V0H32v-167H5v-23h27c-7-52 17-82 69-68v24" id="bm"/><path d="M141-36C126-15 110 5 73 4 37 3 15-17 15-53c-1-64 63-63 125-63 3-35-9-54-41-54-24 1-41 7-42 31l-33-3c5-37 33-52 76-52 45 0 72 20 72 64v82c-1 20 7 32 28 27v20c-31 9-61-2-59-35zM48-53c0 20 12 33 32 33 41-3 63-29 60-74-43 2-92-5-92 41zm62-158l-58-49v-5h36c12 19 30 32 38 54h-16" id="bn"/><g id="u"><use transform="matrix(0.05,0,0,0.05,0,0)" xlink:href="#bm"/><use transform="matrix(0.05,0,0,0.05,5,0)" xlink:href="#aU"/><use transform="matrix(0.05,0,0,0.05,15,0)" xlink:href="#aZ"/><use transform="matrix(0.05,0,0,0.05,25,0)" xlink:href="#bl"/><use transform="matrix(0.05,0,0,0.05,34,0)" xlink:href="#aR"/><use transform="matrix(0.05,0,0,0.05,37.95,0)" xlink:href="#aK"/><use transform="matrix(0.05,0,0,0.05,47.95,0)" xlink:href="#aZ"/><use transform="matrix(0.05,0,0,0.05,57.95,0)" xlink:href="#aY"/><use transform="matrix(0.05,0,0,0.05,67.95,0)" xlink:href="#aX"/><use transform="matrix(0.05,0,0,0.05,71.9,0)" xlink:href="#aR"/><use transform="matrix(0.05,0,0,0.05,75.85000000000001,0)" xlink:href="#aS"/><use transform="matrix(0.05,0,0,0.05,80.85000000000001,0)" xlink:href="#bn"/></g><g id="v"><use transform="matrix(0.05,0,0,0.05,0,0)" xlink:href="#be"/><use transform="matrix(0.05,0,0,0.05,10,0)" xlink:href="#aM"/><use transform="matrix(0.05,0,0,0.05,20,0)" xlink:href="#aX"/></g><g id="w"><use transform="matrix(0.05,0,0,0.05,0,0)" xlink:href="#aQ"/><use transform="matrix(0.05,0,0,0.05,9,0)" xlink:href="#aR"/><use transform="matrix(0.05,0,0,0.05,12.949999999999998,0)" xlink:href="#aQ"/><use transform="matrix(0.05,0,0,0.05,21.95,0)" xlink:href="#aS"/><use transform="matrix(0.05,0,0,0.05,26.950000000000003,0)" xlink:href="#aM"/><use transform="matrix(0.05,0,0,0.05,36.95,0)" xlink:href="#aL"/><use transform="matrix(0.05,0,0,0.05,51.900000000000006,0)" xlink:href="#aY"/></g><g id="x"><use transform="matrix(0.05,0,0,0.05,0,0)" xlink:href="#bd"/><use transform="matrix(0.05,0,0,0.05,10,0)" xlink:href="#aN"/><use transform="matrix(0.05,0,0,0.05,15.949999999999998,0)" xlink:href="#aM"/><use transform="matrix(0.05,0,0,0.05,25.950000000000003,0)" xlink:href="#aQ"/><use transform="matrix(0.05,0,0,0.05,34.95,0)" xlink:href="#aK"/></g><g id="y"><use transform="matrix(0.05,0,0,0.05,0,0)" xlink:href="#aR"/><use transform="matrix(0.05,0,0,0.05,3.95,0)" xlink:href="#aZ"/></g><g id="z"><use transform="matrix(0.05,0,0,0.05,0,0)" xlink:href="#aJ"/><use transform="matrix(0.05,0,0,0.05,9,0)" xlink:href="#aK"/><use transform="matrix(0.05,0,0,0.05,19,0)" xlink:href="#aZ"/><use transform="matrix(0.05,0,0,0.05,29,0)" xlink:href="#aQ"/><use transform="matrix(0.05,0,0,0.05,38,0)" xlink:href="#aR"/><use transform="matrix(0.05,0,0,0.05,41.95,0)" xlink:href="#be"/><use transform="matrix(0.05,0,0,0.05,51.95,0)" xlink:href="#aM"/><use transform="matrix(0.05,0,0,0.05,61.95,0)" xlink:href="#aN"/><use transform="matrix(0.05,0,0,0.05,67.9,0)" xlink:href="#aY"/><use transform="matrix(0.05,0,0,0.05,77.9,0)" xlink:href="#bl"/><use transform="matrix(0.05,0,0,0.05,86.9,0)" xlink:href="#aR"/><use transform="matrix(0.05,0,0,0.05,90.85000000000001,0)" xlink:href="#aK"/><use transform="matrix(0.05,0,0,0.05,100.85000000000001,0)" xlink:href="#aZ"/><use transform="matrix(0.05,0,0,0.05,110.85000000000001,0)" xlink:href="#aM"/></g><g id="A"><use transform="matrix(0.05,0,0,0.05,0,0)" xlink:href="#aQ"/><use transform="matrix(0.05,0,0,0.05,9,0)" xlink:href="#aU"/><use transform="matrix(0.05,0,0,0.05,19,0)" xlink:href="#aP"/><use transform="matrix(0.05,0,0,0.05,29,0)" xlink:href="#aK"/><use transform="matrix(0.05,0,0,0.05,39,0)" xlink:href="#aN"/><use transform="matrix(0.05,0,0,0.05,44.95,0)" xlink:href="#be"/><use transform="matrix(0.05,0,0,0.05,54.95,0)" xlink:href="#aR"/><use transform="matrix(0.05,0,0,0.05,58.900000000000006,0)" xlink:href="#aZ"/><use transform="matrix(0.05,0,0,0.05,68.9,0)" xlink:href="#aY"/><use transform="matrix(0.05,0,0,0.05,78.9,0)" xlink:href="#aS"/><use transform="matrix(0.05,0,0,0.05,83.9,0)" xlink:href="#aR"/><use transform="matrix(0.05,0,0,0.05,87.85000000000001,0)" xlink:href="#bk"/></g><g id="B"><use transform="matrix(0.05,0,0,0.05,0,0)" xlink:href="#aQ"/><use transform="matrix(0.05,0,0,0.05,9,0)" xlink:href="#aK"/><use transform="matrix(0.05,0,0,0.05,19,0)" xlink:href="#aS"/><use transform="matrix(0.05,0,0,0.05,24,0)" xlink:href="#aS"/><use transform="matrix(0.05,0,0,0.05,29,0)" xlink:href="#aK"/><use transform="matrix(0.05,0,0,0.05,39,0)" xlink:href="#aQ"/><use transform="matrix(0.05,0,0,0.05,48,0)" xlink:href="#aR"/><use transform="matrix(0.05,0,0,0.05,51.95,0)" xlink:href="#aQ"/><use transform="matrix(0.05,0,0,0.05,60.95,0)" xlink:href="#aS"/><use transform="matrix(0.05,0,0,0.05,65.95,0)" xlink:href="#aM"/><use transform="matrix(0.05,0,0,0.05,75.95,0)" xlink:href="#aL"/><use transform="matrix(0.05,0,0,0.05,90.9,0)" xlink:href="#aR"/></g><g id="C"><use transform="matrix(0.05,0,0,0.05,0,0)" xlink:href="#aJ"/><use transform="matrix(0.05,0,0,0.05,9,0)" xlink:href="#bc"/><use transform="matrix(0.05,0,0,0.05,19,0)" xlink:href="#aM"/></g><path d="M177-190C167-65 218 103 67 71c-23-6-38-20-44-43l32-5c15 47 100 32 89-28v-30C133-14 115 1 83 1 29 1 15-40 15-95c0-56 16-97 71-98 29-1 48 16 59 35 1-10 0-23 2-32h30zM94-22c36 0 50-32 50-73 0-42-14-75-50-75-39 0-46 34-46 75s6 73 46 73" id="bo"/><g id="D"><use transform="matrix(0.05,0,0,0.05,0,0)" xlink:href="#bi"/><use transform="matrix(0.05,0,0,0.05,9,0)" xlink:href="#aM"/><use transform="matrix(0.05,0,0,0.05,19,0)" xlink:href="#aZ"/><use transform="matrix(0.05,0,0,0.05,29,0)" xlink:href="#bo"/><use transform="matrix(0.05,0,0,0.05,39,0)" xlink:href="#aK"/><use transform="matrix(0.05,0,0,0.05,49,0)" xlink:href="#aZ"/><use transform="matrix(0.05,0,0,0.05,59,0)" xlink:href="#aK"/></g><g id="E"><use transform="matrix(0.05,0,0,0.05,0,0)" xlink:href="#aU"/><use transform="matrix(0.05,0,0,0.05,10,0)" xlink:href="#aS"/><use transform="matrix(0.05,0,0,0.05,15,0)" xlink:href="#aR"/><use transform="matrix(0.05,0,0,0.05,18.95,0)" xlink:href="#aX"/><use transform="matrix(0.05,0,0,0.05,22.9,0)" xlink:href="#aR"/><use transform="matrix(0.05,0,0,0.05,26.849999999999994,0)" xlink:href="#bl"/><use transform="matrix(0.05,0,0,0.05,35.849999999999994,0)" xlink:href="#bl"/><use transform="matrix(0.05,0,0,0.05,44.849999999999994,0)" xlink:href="#aY"/><use transform="matrix(0.05,0,0,0.05,54.849999999999994,0)" xlink:href="#aS"/><use transform="matrix(0.05,0,0,0.05,59.849999999999994,0)" xlink:href="#aR"/></g><g id="F"><use transform="matrix(0.05,0,0,0.05,0,0)" xlink:href="#be"/><use transform="matrix(0.05,0,0,0.05,10,0)" xlink:href="#aY"/><use transform="matrix(0.05,0,0,0.05,20,0)" xlink:href="#aX"/></g><g id="G"><use transform="matrix(0.05,0,0,0.05,0,0)" xlink:href="#aQ"/><use transform="matrix(0.05,0,0,0.05,9,0)" xlink:href="#aR"/><use transform="matrix(0.05,0,0,0.05,12.949999999999998,0)" xlink:href="#aQ"/><use transform="matrix(0.05,0,0,0.05,21.95,0)" xlink:href="#aS"/><use transform="matrix(0.05,0,0,0.05,26.950000000000003,0)" xlink:href="#aM"/><use transform="matrix(0.05,0,0,0.05,36.95,0)" xlink:href="#aL"/><use transform="matrix(0.05,0,0,0.05,51.900000000000006,0)" xlink:href="#aY"/></g><g id="H"><use transform="matrix(0.05,0,0,0.05,0,0)" xlink:href="#bd"/><use transform="matrix(0.05,0,0,0.05,10,0)" xlink:href="#aY"/><use transform="matrix(0.05,0,0,0.05,20,0)" xlink:href="#aN"/><use transform="matrix(0.05,0,0,0.05,25.950000000000003,0)" xlink:href="#aR"/><use transform="matrix(0.05,0,0,0.05,29.899999999999995,0)" xlink:href="#aS"/><use transform="matrix(0.05,0,0,0.05,34.9,0)" xlink:href="#aY"/><use transform="matrix(0.05,0,0,0.05,44.9,0)" xlink:href="#aN"/><use transform="matrix(0.05,0,0,0.05,50.85,0)" xlink:href="#aR"/><use transform="matrix(0.05,0,0,0.05,54.800000000000004,0)" xlink:href="#bk"/></g><g id="I"><use transform="matrix(0.05,0,0,0.05,0,0)" xlink:href="#aR"/><use transform="matrix(0.05,0,0,0.05,3.95,0)" xlink:href="#aZ"/><use transform="matrix(0.05,0,0,0.05,13.949999999999998,0)" xlink:href="#aS"/><use transform="matrix(0.05,0,0,0.05,18.95,0)" xlink:href="#aM"/><use transform="matrix(0.05,0,0,0.05,28.950000000000003,0)" xlink:href="#aN"/><use transform="matrix(0.05,0,0,0.05,34.9,0)" xlink:href="#aY"/><use transform="matrix(0.05,0,0,0.05,44.9,0)" xlink:href="#bo"/><use transform="matrix(0.05,0,0,0.05,54.900000000000006,0)" xlink:href="#aR"/><use transform="matrix(0.05,0,0,0.05,58.85,0)" xlink:href="#aQ"/><use transform="matrix(0.05,0,0,0.05,67.85,0)" xlink:href="#aJ"/><use transform="matrix(0.05,0,0,0.05,76.85,0)" xlink:href="#aK"/><use transform="matrix(0.05,0,0,0.05,86.85,0)" xlink:href="#aZ"/><use transform="matrix(0.05,0,0,0.05,96.85,0)" xlink:href="#aK"/></g><g id="J"><use transform="matrix(0.05,0,0,0.05,0,0)" xlink:href="#aJ"/><use transform="matrix(0.05,0,0,0.05,9,0)" xlink:href="#aK"/><use transform="matrix(0.05,0,0,0.05,19,0)" xlink:href="#aZ"/></g><g id="K"><use transform="matrix(0.05,0,0,0.05,0,0)" xlink:href="#aR"/><use transform="matrix(0.05,0,0,0.05,3.95,0)" xlink:href="#aX"/></g><g id="L"><use transform="matrix(0.05,0,0,0.05,0,0)" xlink:href="#aQ"/><use transform="matrix(0.05,0,0,0.05,9,0)" xlink:href="#aR"/><use transform="matrix(0.05,0,0,0.05,12.949999999999998,0)" xlink:href="#aQ"/><use transform="matrix(0.05,0,0,0.05,21.95,0)" xlink:href="#aS"/><use transform="matrix(0.05,0,0,0.05,26.950000000000003,0)" xlink:href="#aM"/><use transform="matrix(0.05,0,0,0.05,36.95,0)" xlink:href="#aL"/><use transform="matrix(0.05,0,0,0.05,51.900000000000006,0)" xlink:href="#aY"/></g><g id="M"><use transform="matrix(0.05,0,0,0.05,0,0)" xlink:href="#aN"/><use transform="matrix(0.05,0,0,0.05,5.95,0)" xlink:href="#aY"/><use transform="matrix(0.05,0,0,0.05,15.949999999999998,0)" xlink:href="#bd"/><use transform="matrix(0.05,0,0,0.05,25.950000000000003,0)" xlink:href="#bd"/><use transform="matrix(0.05,0,0,0.05,35.95,0)" xlink:href="#aK"/><use transform="matrix(0.05,0,0,0.05,45.95,0)" xlink:href="#aN"/><use transform="matrix(0.05,0,0,0.05,51.900000000000006,0)" xlink:href="#aS"/><use transform="matrix(0.05,0,0,0.05,56.900000000000006,0)" xlink:href="#aK"/></g><g id="N"><use transform="matrix(0.05,0,0,0.05,0,0)" xlink:href="#bd"/><use transform="matrix(0.05,0,0,0.05,10,0)" xlink:href="#aY"/><use transform="matrix(0.05,0,0,0.05,20,0)" xlink:href="#aN"/><use transform="matrix(0.05,0,0,0.05,25.950000000000003,0)" xlink:href="#aR"/><use transform="matrix(0.05,0,0,0.05,29.899999999999995,0)" xlink:href="#aS"/><use transform="matrix(0.05,0,0,0.05,34.9,0)" xlink:href="#aY"/><use transform="matrix(0.05,0,0,0.05,44.9,0)" xlink:href="#aN"/><use transform="matrix(0.05,0,0,0.05,50.85,0)" xlink:href="#aR"/><use transform="matrix(0.05,0,0,0.05,54.800000000000004,0)" xlink:href="#aK"/></g><path d="M205 0l-28-72H64L36 0H1l101-248h38L239 0h-34zm-38-99l-47-123c-12 45-31 82-46 123h93" id="bp"/><g id="O"><use transform="matrix(0.05,0,0,0.05,0,0)" xlink:href="#bp"/><use transform="matrix(0.05,0,0,0.05,12,0)" xlink:href="#aS"/><use transform="matrix(0.05,0,0,0.05,17,0)" xlink:href="#aS"/><use transform="matrix(0.05,0,0,0.05,22,0)" xlink:href="#aK"/><use transform="matrix(0.05,0,0,0.05,32,0)" xlink:href="#aN"/><use transform="matrix(0.05,0,0,0.05,37.95,0)" xlink:href="#aR"/><use transform="matrix(0.05,0,0,0.05,41.900000000000006,0)" xlink:href="#bk"/></g><g id="P"><use transform="matrix(0.05,0,0,0.05,0,0)" xlink:href="#aM"/><use transform="matrix(0.05,0,0,0.05,10,0)" xlink:href="#aZ"/><use transform="matrix(0.05,0,0,0.05,20,0)" xlink:href="#aS"/><use transform="matrix(0.05,0,0,0.05,25,0)" xlink:href="#aR"/><use transform="matrix(0.05,0,0,0.05,28.950000000000003,0)" xlink:href="#aS"/><use transform="matrix(0.05,0,0,0.05,33.95,0)" xlink:href="#bn"/></g><g id="Q"><use transform="matrix(0.05,0,0,0.05,0,0)" xlink:href="#bd"/><use transform="matrix(0.05,0,0,0.05,10,0)" xlink:href="#aN"/><use transform="matrix(0.05,0,0,0.05,15.949999999999998,0)" xlink:href="#aK"/><use transform="matrix(0.05,0,0,0.05,25.950000000000003,0)" xlink:href="#be"/><use transform="matrix(0.05,0,0,0.05,35.95,0)" xlink:href="#aU"/><use transform="matrix(0.05,0,0,0.05,45.95,0)" xlink:href="#aJ"/><use transform="matrix(0.05,0,0,0.05,54.95,0)" xlink:href="#aK"/><use transform="matrix(0.05,0,0,0.05,64.95,0)" xlink:href="#aZ"/><use transform="matrix(0.05,0,0,0.05,74.95,0)" xlink:href="#aK"/></g><use transform="matrix(0.05,0,0,0.05,0,0)" xlink:href="#aK" id="R"/><g id="S"><use transform="matrix(0.05,0,0,0.05,0,0)" xlink:href="#aJ"/><use transform="matrix(0.05,0,0,0.05,9,0)" xlink:href="#aK"/><use transform="matrix(0.05,0,0,0.05,19,0)" xlink:href="#aZ"/><use transform="matrix(0.05,0,0,0.05,29,0)" xlink:href="#aQ"/><use transform="matrix(0.05,0,0,0.05,38,0)" xlink:href="#aU"/><use transform="matrix(0.05,0,0,0.05,48,0)" xlink:href="#aL"/><use transform="matrix(0.05,0,0,0.05,62.95,0)" xlink:href="#aY"/><use transform="matrix(0.05,0,0,0.05,72.95,0)" xlink:href="#aZ"/><use transform="matrix(0.05,0,0,0.05,82.95,0)" xlink:href="#aK"/></g><g id="T"><use transform="matrix(0.05,0,0,0.05,0,0)" xlink:href="#aR"/><use transform="matrix(0.05,0,0,0.05,3.95,0)" xlink:href="#aZ"/><use transform="matrix(0.05,0,0,0.05,13.949999999999998,0)" xlink:href="#bm"/><use transform="matrix(0.05,0,0,0.05,18.95,0)" xlink:href="#aK"/><use transform="matrix(0.05,0,0,0.05,28.950000000000003,0)" xlink:href="#aN"/><use transform="matrix(0.05,0,0,0.05,34.9,0)" xlink:href="#aL"/><use transform="matrix(0.05,0,0,0.05,49.85,0)" xlink:href="#aY"/><use transform="matrix(0.05,0,0,0.05,59.85,0)" xlink:href="#bl"/><use transform="matrix(0.05,0,0,0.05,68.85,0)" xlink:href="#aR"/><use transform="matrix(0.05,0,0,0.05,72.8,0)" xlink:href="#aK"/><use transform="matrix(0.05,0,0,0.05,82.8,0)" xlink:href="#aZ"/><use transform="matrix(0.05,0,0,0.05,92.8,0)" xlink:href="#aR"/></g><g id="U"><use transform="matrix(0.05,0,0,0.05,0,0)" xlink:href="#aZ"/><use transform="matrix(0.05,0,0,0.05,10,0)" xlink:href="#aM"/><use transform="matrix(0.05,0,0,0.05,20,0)" xlink:href="#aJ"/><use transform="matrix(0.05,0,0,0.05,29,0)" xlink:href="#aM"/><use transform="matrix(0.05,0,0,0.05,39,0)" xlink:href="#aQ"/><use transform="matrix(0.05,0,0,0.05,48,0)" xlink:href="#aQ"/><use transform="matrix(0.05,0,0,0.05,57,0)" xlink:href="#aY"/><use transform="matrix(0.05,0,0,0.05,67,0)" xlink:href="#aN"/><use transform="matrix(0.05,0,0,0.05,72.95,0)" xlink:href="#aR"/><use transform="matrix(0.05,0,0,0.05,76.9,0)" xlink:href="#aM"/></g><g id="V"><use transform="matrix(0.05,0,0,0.05,0,0)" xlink:href="#bd"/><use transform="matrix(0.05,0,0,0.05,10,0)" xlink:href="#aM"/><use transform="matrix(0.05,0,0,0.05,20,0)" xlink:href="#aN"/></g><path d="M58-248c1 32-1 62-14 81H22c9-13 17-27 17-46H23v-35h35" id="bq"/><g id="W"><use transform="matrix(0.05,0,0,0.05,0,0)" xlink:href="#aX"/><use transform="matrix(0.05,0,0,0.05,3.95,0)" xlink:href="#bq"/><use transform="matrix(0.05,0,0,0.05,7.9,0)" xlink:href="#aM"/><use transform="matrix(0.05,0,0,0.05,17.9,0)" xlink:href="#aX"/><use transform="matrix(0.05,0,0,0.05,21.849999999999998,0)" xlink:href="#aY"/><use transform="matrix(0.05,0,0,0.05,31.849999999999994,0)" xlink:href="#aP"/><use transform="matrix(0.05,0,0,0.05,41.849999999999994,0)" xlink:href="#aK"/><use transform="matrix(0.05,0,0,0.05,51.849999999999994,0)" xlink:href="#aN"/><use transform="matrix(0.05,0,0,0.05,57.79999999999999,0)" xlink:href="#aY"/><use transform="matrix(0.05,0,0,0.05,67.8,0)" xlink:href="#bl"/><use transform="matrix(0.05,0,0,0.05,76.8,0)" xlink:href="#aR"/><use transform="matrix(0.05,0,0,0.05,80.75,0)" xlink:href="#aK"/><use transform="matrix(0.05,0,0,0.05,90.75,0)" xlink:href="#aZ"/><use transform="matrix(0.05,0,0,0.05,100.75,0)" xlink:href="#aM"/></g><g id="X"><use transform="matrix(0.05,0,0,0.05,0,0)" xlink:href="#be"/><use transform="matrix(0.05,0,0,0.05,10,0)" xlink:href="#aM"/><use transform="matrix(0.05,0,0,0.05,20,0)" xlink:href="#aX"/><use transform="matrix(0.05,0,0,0.05,23.95,0)" xlink:href="#aX"/><use transform="matrix(0.05,0,0,0.05,27.899999999999995,0)" xlink:href="#aM"/></g><g id="Y"><use transform="matrix(0.05,0,0,0.05,0,0)" xlink:href="#aN"/><use transform="matrix(0.05,0,0,0.05,5.95,0)" xlink:href="#aR"/><use transform="matrix(0.05,0,0,0.05,9.9,0)" xlink:href="#aJ"/><use transform="matrix(0.05,0,0,0.05,18.9,0)" xlink:href="#bc"/><use transform="matrix(0.05,0,0,0.05,28.899999999999995,0)" xlink:href="#aR"/><use transform="matrix(0.05,0,0,0.05,32.85,0)" xlink:href="#aM"/><use transform="matrix(0.05,0,0,0.05,42.85,0)" xlink:href="#aQ"/><use transform="matrix(0.05,0,0,0.05,51.85,0)" xlink:href="#aS"/><use transform="matrix(0.05,0,0,0.05,56.85,0)" xlink:href="#aM"/></g><g id="Z"><use transform="matrix(0.05,0,0,0.05,0,0)" xlink:href="#aW"/><use transform="matrix(0.05,0,0,0.05,12,0)" xlink:href="#aU"/><use transform="matrix(0.05,0,0,0.05,22,0)" xlink:href="#aP"/><use transform="matrix(0.05,0,0,0.05,32,0)" xlink:href="#aK"/><use transform="matrix(0.05,0,0,0.05,42,0)" xlink:href="#aN"/><use transform="matrix(0.05,0,0,0.05,47.95,0)" xlink:href="#be"/><use transform="matrix(0.05,0,0,0.05,57.95,0)" xlink:href="#aM"/><use transform="matrix(0.05,0,0,0.05,67.95,0)" xlink:href="#aN"/><use transform="matrix(0.05,0,0,0.05,73.9,0)" xlink:href="#aM"/><use transform="matrix(0.05,0,0,0.05,83.9,0)" xlink:href="#be"/></g><g id="aa"><use transform="matrix(0.05,0,0,0.05,0,0)" xlink:href="#aQ"/><use transform="matrix(0.05,0,0,0.05,9,0)" xlink:href="#aV"/><use transform="matrix(0.05,0,0,0.05,18,0)" xlink:href="#aQ"/><use transform="matrix(0.05,0,0,0.05,27,0)" xlink:href="#aS"/><use transform="matrix(0.05,0,0,0.05,32,0)" xlink:href="#aM"/><use transform="matrix(0.05,0,0,0.05,42,0)" xlink:href="#aL"/></g><g id="ab"><use transform="matrix(0.05,0,0,0.05,0,0)" xlink:href="#bp"/><use transform="matrix(0.05,0,0,0.05,12,0)" xlink:href="#aJ"/><use transform="matrix(0.05,0,0,0.05,21,0)" xlink:href="#aS"/><use transform="matrix(0.05,0,0,0.05,26,0)" xlink:href="#aK"/><use transform="matrix(0.05,0,0,0.05,36,0)" xlink:href="#aN"/></g><g id="ac"><use transform="matrix(0.05,0,0,0.05,0,0)" xlink:href="#aW"/><use transform="matrix(0.05,0,0,0.05,12,0)" xlink:href="#aU"/><use transform="matrix(0.05,0,0,0.05,22,0)" xlink:href="#aP"/><use transform="matrix(0.05,0,0,0.05,32,0)" xlink:href="#aK"/><use transform="matrix(0.05,0,0,0.05,42,0)" xlink:href="#aN"/><use transform="matrix(0.05,0,0,0.05,47.95,0)" xlink:href="#be"/><use transform="matrix(0.05,0,0,0.05,57.95,0)" xlink:href="#aR"/><use transform="matrix(0.05,0,0,0.05,61.900000000000006,0)" xlink:href="#aZ"/><use transform="matrix(0.05,0,0,0.05,71.9,0)" xlink:href="#aY"/><use transform="matrix(0.05,0,0,0.05,81.9,0)" xlink:href="#aS"/><use transform="matrix(0.05,0,0,0.05,86.9,0)" xlink:href="#aK"/></g><g id="ad"><use transform="matrix(0.05,0,0,0.05,0,0)" xlink:href="#bb"/><use transform="matrix(0.05,0,0,0.05,16.599999999999998,0)" xlink:href="#aM"/><use transform="matrix(0.05,0,0,0.05,26.599999999999994,0)" xlink:href="#aP"/><use transform="matrix(0.05,0,0,0.05,36.599999999999994,0)" xlink:href="#aQ"/><use transform="matrix(0.05,0,0,0.05,45.599999999999994,0)" xlink:href="#aR"/><use transform="matrix(0.05,0,0,0.05,49.55,0)" xlink:href="#aS"/><use transform="matrix(0.05,0,0,0.05,54.54999999999999,0)" xlink:href="#aM"/></g><g id="ae"><use transform="matrix(0.05,0,0,0.05,0,0)" xlink:href="#bb"/><use transform="matrix(0.05,0,0,0.05,16.599999999999998,0)" xlink:href="#aM"/><use transform="matrix(0.05,0,0,0.05,26.599999999999994,0)" xlink:href="#aP"/><use transform="matrix(0.05,0,0,0.05,36.599999999999994,0)" xlink:href="#aR"/><use transform="matrix(0.05,0,0,0.05,40.55,0)" xlink:href="#aQ"/><use transform="matrix(0.05,0,0,0.05,49.55,0)" xlink:href="#aS"/><use transform="matrix(0.05,0,0,0.05,54.54999999999999,0)" xlink:href="#aM"/></g><path d="M232-93c-1 65-40 97-104 97C67 4 28-28 28-90v-158h33c8 89-33 224 67 224 102 0 64-133 71-224h33v155" id="br"/><g id="af"><use transform="matrix(0.05,0,0,0.05,0,0)" xlink:href="#br"/><use transform="matrix(0.05,0,0,0.05,12.950000000000001,0)" xlink:href="#aQ"/><use transform="matrix(0.05,0,0,0.05,21.950000000000003,0)" xlink:href="#aM"/><use transform="matrix(0.05,0,0,0.05,31.950000000000003,0)" xlink:href="#aN"/></g><path d="M140-251c81 0 123 46 123 126C263-46 219 4 140 4 59 4 17-45 17-125s42-126 123-126zm0 227c63 0 89-41 89-101s-29-99-89-99c-61 0-89 39-89 99S79-25 140-24" id="bs"/><g id="ag"><use transform="matrix(0.05,0,0,0.05,0,0)" xlink:href="#bs"/><use transform="matrix(0.05,0,0,0.05,14,0)" xlink:href="#bd"/><use transform="matrix(0.05,0,0,0.05,24,0)" xlink:href="#aM"/><use transform="matrix(0.05,0,0,0.05,34,0)" xlink:href="#aZ"/></g><g id="ah"><use transform="matrix(0.05,0,0,0.05,0,0)" xlink:href="#aO"/><use transform="matrix(0.05,0,0,0.05,12.950000000000001,0)" xlink:href="#aM"/><use transform="matrix(0.05,0,0,0.05,22.950000000000003,0)" xlink:href="#aP"/><use transform="matrix(0.05,0,0,0.05,32.95,0)" xlink:href="#aQ"/><use transform="matrix(0.05,0,0,0.05,41.95,0)" xlink:href="#aR"/><use transform="matrix(0.05,0,0,0.05,45.900000000000006,0)" xlink:href="#aS"/><use transform="matrix(0.05,0,0,0.05,50.900000000000006,0)" xlink:href="#aM"/></g><g id="ai"><use transform="matrix(0.05,0,0,0.05,0,0)" xlink:href="#bd"/><use transform="matrix(0.05,0,0,0.05,10,0)" xlink:href="#aY"/><use transform="matrix(0.05,0,0,0.05,20,0)" xlink:href="#bo"/><use transform="matrix(0.05,0,0,0.05,30,0)" xlink:href="#aM"/></g><g id="aj"><use transform="matrix(0.05,0,0,0.05,0,0)" xlink:href="#bb"/><use transform="matrix(0.05,0,0,0.05,16.599999999999998,0)" xlink:href="#aM"/><use transform="matrix(0.05,0,0,0.05,26.599999999999994,0)" xlink:href="#aP"/><use transform="matrix(0.05,0,0,0.05,36.599999999999994,0)" xlink:href="#aQ"/><use transform="matrix(0.05,0,0,0.05,45.599999999999994,0)" xlink:href="#aR"/><use transform="matrix(0.05,0,0,0.05,49.55,0)" xlink:href="#aS"/><use transform="matrix(0.05,0,0,0.05,54.54999999999999,0)" xlink:href="#aM"/></g><g id="ak"><use transform="matrix(0.05,0,0,0.05,0,0)" xlink:href="#bd"/><use transform="matrix(0.05,0,0,0.05,10,0)" xlink:href="#aY"/><use transform="matrix(0.05,0,0,0.05,20,0)" xlink:href="#bo"/><use transform="matrix(0.05,0,0,0.05,30,0)" xlink:href="#aM"/></g><g id="al"><use transform="matrix(0.05,0,0,0.05,0,0)" xlink:href="#aW"/><use transform="matrix(0.05,0,0,0.05,12,0)" xlink:href="#bc"/><use transform="matrix(0.05,0,0,0.05,22,0)" xlink:href="#aK"/><use transform="matrix(0.05,0,0,0.05,32,0)" xlink:href="#aO"/></g><g id="am"><use transform="matrix(0.05,0,0,0.05,0,0)" xlink:href="#bd"/><use transform="matrix(0.05,0,0,0.05,10,0)" xlink:href="#aN"/><use transform="matrix(0.05,0,0,0.05,15.949999999999998,0)" xlink:href="#aK"/><use transform="matrix(0.05,0,0,0.05,25.950000000000003,0)" xlink:href="#be"/><use transform="matrix(0.05,0,0,0.05,35.95,0)" xlink:href="#aU"/><use transform="matrix(0.05,0,0,0.05,45.95,0)" xlink:href="#aJ"/><use transform="matrix(0.05,0,0,0.05,54.95,0)" xlink:href="#aS"/><use transform="matrix(0.05,0,0,0.05,59.95,0)" xlink:href="#aQ"/></g><path d="M212-179c-10-28-35-45-73-45-59 0-87 40-87 99 0 60 29 101 89 101 43 0 62-24 78-52l27 14C228-24 195 4 139 4 59 4 22-46 18-125c-6-104 99-153 187-111 19 9 31 26 39 46" id="bt"/><g id="an"><use transform="matrix(0.05,0,0,0.05,0,0)" xlink:href="#bt"/><use transform="matrix(0.05,0,0,0.05,12.950000000000001,0)" xlink:href="#bc"/><use transform="matrix(0.05,0,0,0.05,22.950000000000003,0)" xlink:href="#aM"/><use transform="matrix(0.05,0,0,0.05,32.95,0)" xlink:href="#aJ"/><use transform="matrix(0.05,0,0,0.05,41.95,0)" xlink:href="#ba"/></g><g id="ao"><use transform="matrix(0.05,0,0,0.05,0,0)" xlink:href="#bp"/><use transform="matrix(0.05,0,0,0.05,12,0)" xlink:href="#be"/><use transform="matrix(0.05,0,0,0.05,22,0)" xlink:href="#be"/></g><g id="ap"><use transform="matrix(0.05,0,0,0.05,0,0)" xlink:href="#bd"/><use transform="matrix(0.05,0,0,0.05,10,0)" xlink:href="#aN"/><use transform="matrix(0.05,0,0,0.05,15.949999999999998,0)" xlink:href="#aK"/><use transform="matrix(0.05,0,0,0.05,25.950000000000003,0)" xlink:href="#be"/><use transform="matrix(0.05,0,0,0.05,35.95,0)" xlink:href="#aU"/><use transform="matrix(0.05,0,0,0.05,45.95,0)" xlink:href="#aJ"/><use transform="matrix(0.05,0,0,0.05,54.95,0)" xlink:href="#aS"/></g><g id="aq"><use transform="matrix(0.05,0,0,0.05,0,0)" xlink:href="#aS"/><use transform="matrix(0.05,0,0,0.05,5,0)" xlink:href="#aK"/></g><g id="ar"><use transform="matrix(0.05,0,0,0.05,0,0)" xlink:href="#aJ"/><use transform="matrix(0.05,0,0,0.05,9,0)" xlink:href="#aY"/><use transform="matrix(0.05,0,0,0.05,19,0)" xlink:href="#aN"/><use transform="matrix(0.05,0,0,0.05,24.95,0)" xlink:href="#aS"/></g><path d="M30-248c87 1 191-15 191 75 0 78-77 80-158 76V0H30v-248zm33 125c57 0 124 11 124-50 0-59-68-47-124-48v98" id="bu"/><g id="as"><use transform="matrix(0.05,0,0,0.05,0,0)" xlink:href="#bu"/><use transform="matrix(0.05,0,0,0.05,12,0)" xlink:href="#aN"/><use transform="matrix(0.05,0,0,0.05,17.95,0)" xlink:href="#aK"/><use transform="matrix(0.05,0,0,0.05,27.950000000000003,0)" xlink:href="#be"/><use transform="matrix(0.05,0,0,0.05,37.95,0)" xlink:href="#aU"/><use transform="matrix(0.05,0,0,0.05,47.95,0)" xlink:href="#aJ"/><use transform="matrix(0.05,0,0,0.05,56.95,0)" xlink:href="#aS"/></g><g id="at"><use transform="matrix(0.05,0,0,0.05,0,0)" xlink:href="#aN"/><use transform="matrix(0.05,0,0,0.05,5.95,0)" xlink:href="#aM"/><use transform="matrix(0.05,0,0,0.05,15.949999999999998,0)" xlink:href="#aJ"/><use transform="matrix(0.05,0,0,0.05,24.95,0)" xlink:href="#aM"/><use transform="matrix(0.05,0,0,0.05,34.95,0)" xlink:href="#aR"/><use transform="matrix(0.05,0,0,0.05,38.900000000000006,0)" xlink:href="#bi"/><use transform="matrix(0.05,0,0,0.05,47.900000000000006,0)" xlink:href="#aM"/><use transform="matrix(0.05,0,0,0.05,57.900000000000006,0)" xlink:href="#be"/></g><g id="au"><use transform="matrix(0.05,0,0,0.05,0,0)" xlink:href="#br"/><use transform="matrix(0.05,0,0,0.05,12.950000000000001,0)" xlink:href="#bd"/><use transform="matrix(0.05,0,0,0.05,22.950000000000003,0)" xlink:href="#be"/><use transform="matrix(0.05,0,0,0.05,32.95,0)" xlink:href="#aY"/><use transform="matrix(0.05,0,0,0.05,42.95,0)" xlink:href="#aS"/><use transform="matrix(0.05,0,0,0.05,47.95,0)" xlink:href="#aM"/></g><path d="M30-248c118-7 216 8 213 122C240-48 200 0 122 0H30v-248zM63-27c89 8 146-16 146-99s-60-101-146-95v194" id="bv"/><g id="av"><use transform="matrix(0.05,0,0,0.05,0,0)" xlink:href="#bv"/><use transform="matrix(0.05,0,0,0.05,12.950000000000001,0)" xlink:href="#aY"/><use transform="matrix(0.05,0,0,0.05,22.950000000000003,0)" xlink:href="#aS"/><use transform="matrix(0.05,0,0,0.05,27.950000000000003,0)" xlink:href="#aY"/><use transform="matrix(0.05,0,0,0.05,37.95,0)" xlink:href="#aP"/><use transform="matrix(0.05,0,0,0.05,47.95,0)" xlink:href="#aY"/><use transform="matrix(0.05,0,0,0.05,57.95,0)" xlink:href="#aQ"/><use transform="matrix(0.05,0,0,0.05,66.95,0)" xlink:href="#aM"/></g><g id="aw"><use transform="matrix(0.05,0,0,0.05,0,0)" xlink:href="#bv"/><use transform="matrix(0.05,0,0,0.05,12.950000000000001,0)" xlink:href="#aK"/></g><g id="ax"><use transform="matrix(0.05,0,0,0.05,0,0)" xlink:href="#aU"/><use transform="matrix(0.05,0,0,0.05,10,0)" xlink:href="#aQ"/><use transform="matrix(0.05,0,0,0.05,19,0)" xlink:href="#aM"/><use transform="matrix(0.05,0,0,0.05,29,0)" xlink:href="#aN"/></g><g id="ay"><use transform="matrix(0.05,0,0,0.05,0,0)" xlink:href="#aO"/><use transform="matrix(0.05,0,0,0.05,12.950000000000001,0)" xlink:href="#aY"/><use transform="matrix(0.05,0,0,0.05,22.950000000000003,0)" xlink:href="#aZ"/><use transform="matrix(0.05,0,0,0.05,32.95,0)" xlink:href="#aS"/></g><g id="az"><use transform="matrix(0.05,0,0,0.05,0,0)" xlink:href="#aP"/><use transform="matrix(0.05,0,0,0.05,10,0)" xlink:href="#aU"/><use transform="matrix(0.05,0,0,0.05,20,0)" xlink:href="#aV"/></g><g id="aA"><use transform="matrix(0.05,0,0,0.05,0,0)" xlink:href="#aL"/><use transform="matrix(0.05,0,0,0.05,14.950000000000001,0)" xlink:href="#aK"/><use transform="matrix(0.05,0,0,0.05,24.950000000000003,0)" xlink:href="#aN"/><use transform="matrix(0.05,0,0,0.05,30.900000000000002,0)" xlink:href="#aM"/></g><g id="aB"><use transform="matrix(0.05,0,0,0.05,0,0)" xlink:href="#aT"/><use transform="matrix(0.05,0,0,0.05,12,0)" xlink:href="#aU"/><use transform="matrix(0.05,0,0,0.05,22,0)" xlink:href="#aV"/></g><path d="M87 75C49 33 22-17 22-94c0-76 28-126 65-167h31c-38 41-64 92-64 168S80 34 118 75H87" id="bw"/><path d="M33-261c38 41 65 92 65 168S71 34 33 75H2C39 34 66-17 66-93S39-220 2-261h31" id="bx"/><g id="aC"><use transform="matrix(0.05,0,0,0.05,0,0)" xlink:href="#bd"/><use transform="matrix(0.05,0,0,0.05,10,0)" xlink:href="#aN"/><use transform="matrix(0.05,0,0,0.05,15.949999999999998,0)" xlink:href="#aK"/><use transform="matrix(0.05,0,0,0.05,25.950000000000003,0)" xlink:href="#be"/><use transform="matrix(0.05,0,0,0.05,35.95,0)" xlink:href="#aU"/><use transform="matrix(0.05,0,0,0.05,45.95,0)" xlink:href="#aJ"/><use transform="matrix(0.05,0,0,0.05,54.95,0)" xlink:href="#aS"/><use transform="matrix(0.05,0,0,0.05,59.95,0)" xlink:href="#bw"/><use transform="matrix(0.05,0,0,0.05,65.9,0)" xlink:href="#aQ"/><use transform="matrix(0.05,0,0,0.05,74.9,0)" xlink:href="#bx"/></g><path d="M137-103V0h-34v-103L8-248h37l75 118 75-118h37" id="by"/><g id="aD"><use transform="matrix(0.05,0,0,0.05,0,0)" xlink:href="#by"/><use transform="matrix(0.05,0,0,0.05,10.35,0)" xlink:href="#aM"/><use transform="matrix(0.05,0,0,0.05,20.35,0)" xlink:href="#aQ"/></g><path d="M190 0L58-211 59 0H30v-248h39L202-35l-2-213h31V0h-41" id="bz"/><g id="aE"><use transform="matrix(0.05,0,0,0.05,0,0)" xlink:href="#bz"/><use transform="matrix(0.05,0,0,0.05,12.950000000000001,0)" xlink:href="#aK"/></g><g id="aF"><use transform="matrix(0.05,0,0,0.05,0,0)" xlink:href="#bt"/><use transform="matrix(0.05,0,0,0.05,12.950000000000001,0)" xlink:href="#bc"/><use transform="matrix(0.05,0,0,0.05,22.950000000000003,0)" xlink:href="#aM"/><use transform="matrix(0.05,0,0,0.05,32.95,0)" xlink:href="#aJ"/><use transform="matrix(0.05,0,0,0.05,41.95,0)" xlink:href="#ba"/></g><g id="aG"><use transform="matrix(0.05,0,0,0.05,0,0)" xlink:href="#aY"/><use transform="matrix(0.05,0,0,0.05,10,0)" xlink:href="#bi"/><use transform="matrix(0.05,0,0,0.05,19,0)" xlink:href="#aY"/><use transform="matrix(0.05,0,0,0.05,29,0)" xlink:href="#aR"/><use transform="matrix(0.05,0,0,0.05,32.95,0)" xlink:href="#aX"/><use transform="matrix(0.05,0,0,0.05,36.900000000000006,0)" xlink:href="#aY"/><use transform="matrix(0.05,0,0,0.05,46.900000000000006,0)" xlink:href="#aP"/><use transform="matrix(0.05,0,0,0.05,56.900000000000006,0)" xlink:href="#aR"/><use transform="matrix(0.05,0,0,0.05,60.85,0)" xlink:href="#aX"/><use transform="matrix(0.05,0,0,0.05,64.80000000000001,0)" xlink:href="#aS"/><use transform="matrix(0.05,0,0,0.05,69.80000000000001,0)" xlink:href="#aV"/></g></defs></g></svg>