<svg xmlns="http://www.w3.org/2000/svg" xmlns:xlink="http://www.w3.org/1999/xlink" xmlns:lucid="lucid" width="2620.97" height="420.69"><g transform="translate(-119.025 -378.9142135623731)" lucid:page-tab-id="0_0"><path d="M200 570c0 16.57-13.43 30-30 30s-30-13.43-30-30 13.43-30 30-30 30 13.43 30 30z" stroke="#000" stroke-width="2" fill="#fff"/><path d="M150 558.75h40v22.5h-40z" stroke="#000" stroke-width="2" fill="#fff"/><path d="M150 558.75L170 570l20-11.25" stroke="#000" stroke-width="2" fill="none"/><use xlink:href="#a" transform="matrix(1,0,0,1,140,600) translate(11.049999999999997 14.4)"/><use xlink:href="#b" transform="matrix(1,0,0,1,140,600) translate(0.02499999999999858 36)"/><path d="M200 400h160v60H200z" fill="#fff" fill-opacity="0"/><path d="M216 400h-16v60h16" stroke="#000" stroke-width="2" fill="none"/><use xlink:href="#c" transform="matrix(1,0,0,1,215,405) translate(0 20.299999999999997)"/><use xlink:href="#d" transform="matrix(1,0,0,1,215,405) translate(0 41.9)"/><path d="M198 430h-28v108" fill="none"/><path d="M198 430h-9.07m-9.06 0H170v8.27m0 9.06v18.14m0 9.06v18.14m0 9.06v18.14m0 9.06V538" stroke="#000" stroke-width="2" fill="none"/><path d="M199 431h-1.03v-2H199zM171 539.08l-.98-.08-1.02.03v-1.06h2z"/><path d="M202 570h77.5" stroke="#000" stroke-width="2" fill="none"/><path d="M202.03 571h-1.1l.07-.98-.03-1.02h1.06z"/><path d="M294.76 570l-14.26 4.64v-9.28z" stroke="#000" stroke-width="2"/><path d="M299 510h160v120H299z" stroke="#000" stroke-width="2" fill="#fff"/><use xlink:href="#e" transform="matrix(1,0,0,1,298.99937627606676,510) translate(19.604999999999997 63.15)"/><use xlink:href="#f" transform="matrix(1,0,0,1,298.99937627606676,510) translate(66.60499999999999 63.15)"/><use xlink:href="#g" transform="matrix(1,0,0,1,298.99937627606676,510) translate(118.505 63.15)"/><path d="M461 570h39.08" stroke="#000" stroke-width="2" fill="none"/><path d="M461.03 571H460v-2h1.03z"/><path d="M515.35 570l-14.27 4.64v-9.28z" stroke="#000" stroke-width="2"/><path d="M520 570l37.5-37.5L595 570l-37.5 37.5z" stroke="#000" stroke-width="2" fill="#fff"/><path d="M580 570c0 12.43-10.07 22.5-22.5 22.5S535 582.43 535 570s10.07-22.5 22.5-22.5S580 557.57 580 570z" stroke="#000" stroke-width="2" fill="none"/><path d="M576.25 570c0 10.36-8.4 18.75-18.75 18.75-10.36 0-18.75-8.4-18.75-18.75 0-10.36 8.4-18.75 18.75-18.75 10.36 0 18.75 8.4 18.75 18.75z" stroke="#000" stroke-width="2" fill="none"/><path d="M557.5 555l-15 11.25 4.5 15h21l4.5-15z" stroke="#000" stroke-width="2" fill="#fff"/><path d="M597.4 570h43.1" stroke="#000" stroke-width="2" fill="none"/><path d="M597.44 571h-2.03l1-1-1-1h2.04z"/><path d="M655.76 570l-14.26 4.64v-9.28z" stroke="#000" stroke-width="2"/><path d="M720 570c0 16.57-13.43 30-30 30s-30-13.43-30-30 13.43-30 30-30 30 13.43 30 30z" stroke="#000" stroke-width="2" fill="#fff"/><path d="M717 570c0 14.9-12.1 27-27 27s-27-12.1-27-27 12.1-27 27-27 27 12.1 27 27z" stroke="#000" stroke-width="2" fill="#fff"/><path d="M670 558.75h40v22.5h-40z" stroke="#000" stroke-width="2" fill="#fff"/><path d="M670 558.75L690 570l20-11.25" stroke="#000" stroke-width="2" fill="none"/><use xlink:href="#h" transform="matrix(1,0,0,1,660,600) translate(8.075 14.4)"/><use xlink:href="#i" transform="matrix(1,0,0,1,660,600) translate(6 36)"/><path d="M557.5 609.9V710h83" stroke="#000" stroke-width="2" fill="none"/><path d="M558.5 609.94h-2v-2.03l1 1 1-1z"/><path d="M655.76 710l-14.26 4.64v-9.28z" stroke="#000" stroke-width="2"/><path d="M720 710c0 16.57-13.43 30-30 30s-30-13.43-30-30 13.43-30 30-30 30 13.43 30 30z" stroke="#000" stroke-width="2" fill="#fff"/><path d="M717 710c0 14.9-12.1 27-27 27s-27-12.1-27-27 12.1-27 27-27 27 12.1 27 27z" stroke="#000" stroke-width="2" fill="#fff"/><path d="M710 710c0 11.05-8.95 20-20 20s-20-8.95-20-20 8.95-20 20-20 20 8.95 20 20zm0 0h-4m1.32 10l-3.46-2m-3.86 9.32l-2-3.46m-8 6.14v-4m-10 1.32l2-3.46m-9.32-3.86l3.46-2m-6.14-8h4m-1.32-10l3.46 2m3.86-9.32l2 3.46m8-6.14v4m10-1.32l-2 3.46m9.32 3.86l-3.46 2M690 710v-12m0 12h7" stroke="#000" stroke-width="2" fill="#fff"/><use xlink:href="#j" transform="matrix(1,0,0,1,660,740) translate(25 14.4)"/><use xlink:href="#k" transform="matrix(1,0,0,1,660,740) translate(-1.4500000000000028 36)"/><path d="M720 428.9c0 16.58-13.43 30-30 30s-30-13.42-30-30c0-16.55 13.43-30 30-30s30 13.45 30 30z" stroke="#000" stroke-width="2" fill="#fff"/><path d="M717 428.9c0 14.93-12.1 27-27 27s-27-12.07-27-27c0-14.9 12.1-27 27-27s27 12.1 27 27z" stroke="#000" stroke-width="2" fill="#fff"/><path d="M670 417.66h40v22.5h-40z" stroke="#000" stroke-width="2" fill="#fff"/><path d="M670 417.66l20 11.25 20-11.24" stroke="#000" stroke-width="2" fill="none"/><use xlink:href="#l" transform="matrix(1,0,0,1,660,458.9142135623731) translate(2.049999999999997 14.4)"/><use xlink:href="#m" transform="matrix(1,0,0,1,660,458.9142135623731) translate(6.024999999999999 36)"/><path d="M722 428.9h59.5" stroke="#000" stroke-width="2" fill="none"/><path d="M722.03 429.9h-1.1l.07-.96-.03-1.03h1.06z"/><path d="M796.76 428.9l-14.26 4.65v-9.27z" stroke="#000" stroke-width="2"/><path d="M860 428.9c0 16.58-13.43 30-30 30s-30-13.42-30-30c0-16.55 13.43-30 30-30s30 13.45 30 30z" stroke="#000" stroke-width="6" fill="#fff"/><path d="M557.5 530.1V428.9h83" stroke="#000" stroke-width="2" fill="none"/><path d="M558.5 532.1l-1-1-1 1v-2.04h2z"/><path d="M655.76 428.9l-14.26 4.65v-9.27z" stroke="#000" stroke-width="2"/><path d="M722 710h59.5" stroke="#000" stroke-width="2" fill="none"/><path d="M722.03 711h-1.1l.07-.98-.03-1.02h1.06z"/><path d="M796.76 710l-14.26 4.64v-9.28z" stroke="#000" stroke-width="2"/><path d="M860 710c0 16.57-13.43 30-30 30s-30-13.43-30-30 13.43-30 30-30 30 13.43 30 30z" stroke="#000" stroke-width="6" fill="#fff"/><path d="M1560 510h160v120h-160z" stroke="#000" stroke-width="2" fill="#fff"/><use xlink:href="#n" transform="matrix(1,0,0,1,1560,510) translate(15.055000000000001 63.15)"/><use xlink:href="#o" transform="matrix(1,0,0,1,1560,510) translate(50.055 63.15)"/><use xlink:href="#p" transform="matrix(1,0,0,1,1560,510) translate(76.005 63.15)"/><path d="M1722 570h58.08" stroke="#000" stroke-width="2" fill="none"/><path d="M1722.03 571H1721v-2h1.03z"/><path d="M1795.35 570l-14.27 4.64v-9.28z" stroke="#000" stroke-width="2"/><path d="M1800 570l37.5-37.5L1875 570l-37.5 37.5z" stroke="#000" stroke-width="2" fill="#fff"/><path d="M1860 570c0 12.43-10.07 22.5-22.5 22.5S1815 582.43 1815 570s10.07-22.5 22.5-22.5 22.5 10.07 22.5 22.5z" stroke="#000" stroke-width="2" fill="none"/><path d="M1856.25 570c0 10.36-8.4 18.75-18.75 18.75-10.36 0-18.75-8.4-18.75-18.75 0-10.36 8.4-18.75 18.75-18.75 10.36 0 18.75 8.4 18.75 18.75z" stroke="#000" stroke-width="2" fill="none"/><path d="M1837.5 555l-15 11.25 4.5 15h21l4.5-15zM2003.54 430c0 16.57-13.43 30-30 30s-30-13.43-30-30 13.43-30 30-30 30 13.43 30 30z" stroke="#000" stroke-width="2" fill="#fff"/><path d="M2000.54 430c0 14.9-12.1 27-27 27s-27-12.1-27-27 12.1-27 27-27 27 12.1 27 27z" stroke="#000" stroke-width="2" fill="#fff"/><path d="M1953.54 418.75h40v22.5h-40z" stroke="#000" stroke-width="2" fill="#fff"/><path d="M1953.54 418.75l20 11.25 20-11.25" stroke="#000" stroke-width="2" fill="none"/><use xlink:href="#l" transform="matrix(1,0,0,1,1943.5432050807801,460) translate(2.049999999999997 14.4)"/><use xlink:href="#m" transform="matrix(1,0,0,1,1943.5432050807801,460) translate(6.024999999999999 36)"/><path d="M2005.54 430h26.73v-1.1h9.23" stroke="#000" stroke-width="2" fill="none"/><path d="M2005.57 431h-1.1l.07-.98-.03-1.02h1.07z"/><path d="M2056.76 428.9l-14.26 4.65v-9.27z" stroke="#000" stroke-width="2"/><path d="M2120 428.9c0 16.58-13.43 30-30 30s-30-13.42-30-30c0-16.55 13.43-30 30-30s30 13.45 30 30z" stroke="#000" stroke-width="6" fill="#fff"/><path d="M1837.5 530.1V430h86.54" stroke="#000" stroke-width="2" fill="none"/><path d="M1838.5 532.1l-1-1-1 1v-2.04h2z"/><path d="M1939.3 430l-14.26 4.64v-9.28z" stroke="#000" stroke-width="2"/><path d="M1997.5 570c0 16.57-13.43 30-30 30s-30-13.43-30-30 13.43-30 30-30 30 13.43 30 30z" stroke="#000" stroke-width="2" fill="#fff"/><path d="M1994.5 570c0 14.9-12.1 27-27 27s-27-12.1-27-27 12.1-27 27-27 27 12.1 27 27z" stroke="#000" stroke-width="2" fill="#fff"/><path d="M1947.5 558.75h40v22.5h-40z" stroke="#000" stroke-width="2" fill="#fff"/><path d="M1947.5 558.75l20 11.25 20-11.25" stroke="#000" stroke-width="2" fill="none"/><use xlink:href="#q" transform="matrix(1,0,0,1,1937.5,600) translate(-5.475000000000001 14.4)"/><use xlink:href="#r" transform="matrix(1,0,0,1,1937.5,600) translate(-18.9 36)"/><use xlink:href="#s" transform="matrix(1,0,0,1,1937.5,600) translate(-3.950000000000003 57.6)"/><path d="M2003.54 710c0 16.57-13.43 30-30 30s-30-13.43-30-30 13.43-30 30-30 30 13.43 30 30z" stroke="#000" stroke-width="2" fill="#fff"/><path d="M2000.54 710c0 14.9-12.1 27-27 27s-27-12.1-27-27 12.1-27 27-27 27 12.1 27 27z" stroke="#000" stroke-width="2" fill="#fff"/><path d="M1993.54 710c0 11.05-8.95 20-20 20-11.04 0-20-8.95-20-20s8.96-20 20-20c11.05 0 20 8.95 20 20zm0 0h-4m1.32 10l-3.46-2m-3.86 9.32l-2-3.46m-8 6.14v-4m-10 1.32l2-3.46m-9.32-3.86l3.47-2m-6.16-8h4m-1.32-10l3.47 2m3.84-9.32l2 3.46m8-6.14v4m10-1.32l-2 3.46m9.32 3.86l-3.46 2m-13.86 8v-12m0 12h7" stroke="#000" stroke-width="2" fill="#fff"/><use xlink:href="#j" transform="matrix(1,0,0,1,1943.5432050807801,740) translate(25 14.4)"/><use xlink:href="#k" transform="matrix(1,0,0,1,1943.5432050807801,740) translate(-1.4500000000000028 36)"/><path d="M2005.54 710h35.96" stroke="#000" stroke-width="2" fill="none"/><path d="M2005.57 711h-1.1l.07-.98-.03-1.02h1.07z"/><path d="M2056.76 710l-14.26 4.64v-9.28z" stroke="#000" stroke-width="2"/><path d="M2120 710c0 16.57-13.43 30-30 30s-30-13.43-30-30 13.43-30 30-30 30 13.43 30 30z" stroke="#000" stroke-width="6" fill="#fff"/><path d="M1837.5 609.9V710h86.54" stroke="#000" stroke-width="2" fill="none"/><path d="M1838.5 609.94h-2v-2.03l1 1 1-1z"/><path d="M1939.3 710l-14.26 4.64v-9.28z" stroke="#000" stroke-width="2"/><path d="M1877.4 570h40.6" stroke="#000" stroke-width="2" fill="none"/><path d="M1877.44 571h-2.03l1-1-1-1h2.04z"/><path d="M1933.26 570l-14.26 4.64v-9.28z" stroke="#000" stroke-width="2"/><path d="M1180 570l37.5-37.5L1255 570l-37.5 37.5z" stroke="#000" stroke-width="2" fill="#fff"/><path d="M1240 570c0 12.43-10.07 22.5-22.5 22.5S1195 582.43 1195 570s10.07-22.5 22.5-22.5 22.5 10.07 22.5 22.5z" stroke="#000" stroke-width="2" fill="none"/><path d="M1236.25 570c0 10.36-8.4 18.75-18.75 18.75-10.36 0-18.75-8.4-18.75-18.75 0-10.36 8.4-18.75 18.75-18.75 10.36 0 18.75 8.4 18.75 18.75z" stroke="#000" stroke-width="2" fill="none"/><path d="M1217.5 555l-15 11.25 4.5 15h21l4.5-15z" stroke="#000" stroke-width="2" fill="#fff"/><path d="M1257.4 570h43.1" stroke="#000" stroke-width="2" fill="none"/><path d="M1257.44 571h-2.03l1-1-1-1h2.04z"/><path d="M1315.76 570l-14.26 4.64v-9.28z" stroke="#000" stroke-width="2"/><path d="M1380 570c0 16.57-13.43 30-30 30s-30-13.43-30-30 13.43-30 30-30 30 13.43 30 30z" stroke="#000" stroke-width="2" fill="#fff"/><path d="M1377 570c0 14.9-12.1 27-27 27s-27-12.1-27-27 12.1-27 27-27 27 12.1 27 27z" stroke="#000" stroke-width="2" fill="#fff"/><path d="M1330 558.75h40v22.5h-40z" stroke="#000" stroke-width="2" fill="#fff"/><path d="M1330 558.75l20 11.25 20-11.25" stroke="#000" stroke-width="2" fill="none"/><use xlink:href="#t" transform="matrix(1,0,0,1,1320,600) translate(9.049999999999997 14.4)"/><use xlink:href="#i" transform="matrix(1,0,0,1,1320,600) translate(6 36)"/><path d="M1217.5 609.9V710h83" stroke="#000" stroke-width="2" fill="none"/><path d="M1218.5 609.94h-2v-2.03l1 1 1-1z"/><path d="M1315.76 710l-14.26 4.64v-9.28z" stroke="#000" stroke-width="2"/><path d="M1380 710c0 16.57-13.43 30-30 30s-30-13.43-30-30 13.43-30 30-30 30 13.43 30 30z" stroke="#000" stroke-width="2" fill="#fff"/><path d="M1377 710c0 14.9-12.1 27-27 27s-27-12.1-27-27 12.1-27 27-27 27 12.1 27 27z" stroke="#000" stroke-width="2" fill="#fff"/><path d="M1370 710c0 11.05-8.95 20-20 20s-20-8.95-20-20 8.95-20 20-20 20 8.95 20 20zm0 0h-4m1.32 10l-3.46-2m-3.86 9.32l-2-3.46m-8 6.14v-4m-10 1.32l2-3.46m-9.32-3.86l3.46-2m-6.14-8h4m-1.32-10l3.46 2m3.86-9.32l2 3.46m8-6.14v4m10-1.32l-2 3.46m9.32 3.86l-3.46 2m-13.86 8v-12m0 12h7" stroke="#000" stroke-width="2" fill="#fff"/><use xlink:href="#j" transform="matrix(1,0,0,1,1320,740) translate(25 14.4)"/><use xlink:href="#k" transform="matrix(1,0,0,1,1320,740) translate(-1.4500000000000028 36)"/><path d="M1380 428.9c0 16.58-13.43 30-30 30s-30-13.42-30-30c0-16.55 13.43-30 30-30s30 13.45 30 30z" stroke="#000" stroke-width="2" fill="#fff"/><path d="M1377 428.9c0 14.93-12.1 27-27 27s-27-12.07-27-27c0-14.9 12.1-27 27-27s27 12.1 27 27z" stroke="#000" stroke-width="2" fill="#fff"/><path d="M1330 417.66h40v22.5h-40z" stroke="#000" stroke-width="2" fill="#fff"/><path d="M1330 417.66l20 11.25 20-11.24" stroke="#000" stroke-width="2" fill="none"/><use xlink:href="#l" transform="matrix(1,0,0,1,1320,458.9142135623731) translate(2.049999999999997 14.4)"/><use xlink:href="#m" transform="matrix(1,0,0,1,1320,458.9142135623731) translate(6.024999999999999 36)"/><path d="M1382 428.9h59.5" stroke="#000" stroke-width="2" fill="none"/><path d="M1382.03 429.9h-1.1l.07-.96-.03-1.03h1.06z"/><path d="M1456.76 428.9l-14.26 4.65v-9.27z" stroke="#000" stroke-width="2"/><path d="M1520 428.9c0 16.58-13.43 30-30 30s-30-13.42-30-30c0-16.55 13.43-30 30-30s30 13.45 30 30z" stroke="#000" stroke-width="6" fill="#fff"/><path d="M1217.5 530.1V428.9h83" stroke="#000" stroke-width="2" fill="none"/><path d="M1218.5 532.1l-1-1-1 1v-2.04h2z"/><path d="M1315.76 428.9l-14.26 4.65v-9.27z" stroke="#000" stroke-width="2"/><path d="M1382 710h59.5" stroke="#000" stroke-width="2" fill="none"/><path d="M1382.03 711h-1.1l.07-.98-.03-1.02h1.06z"/><path d="M1456.76 710l-14.26 4.64v-9.28z" stroke="#000" stroke-width="2"/><path d="M1520 710c0 16.57-13.43 30-30 30s-30-13.43-30-30 13.43-30 30-30 30 13.43 30 30z" stroke="#000" stroke-width="6" fill="#fff"/><path d="M900 510h160v120H900z" stroke="#000" stroke-width="2" fill="#fff"/><use xlink:href="#e" transform="matrix(1,0,0,1,900,510) translate(23.57999999999999 63.15)"/><use xlink:href="#u" transform="matrix(1,0,0,1,900,510) translate(70.57999999999998 63.15)"/><use xlink:href="#g" transform="matrix(1,0,0,1,900,510) translate(114.53 63.15)"/><path d="M722 570h158.5" stroke="#000" stroke-width="2" fill="none"/><path d="M722.03 571h-1.1l.07-.98-.03-1.02h1.06z"/><path d="M895.76 570l-14.26 4.64v-9.28z" stroke="#000" stroke-width="2"/><path d="M1062 570h98.08" stroke="#000" stroke-width="2" fill="none"/><path d="M1062.03 571H1061v-2h1.03z"/><path d="M1175.35 570l-14.27 4.64v-9.28z" stroke="#000" stroke-width="2"/><path d="M1382 570h158.5" stroke="#000" stroke-width="2" fill="none"/><path d="M1382.03 571h-1.1l.07-.98-.03-1.02h1.06z"/><path d="M1555.76 570l-14.26 4.64v-9.28z" stroke="#000" stroke-width="2"/><path d="M1999.5 570h143.08" stroke="#000" stroke-width="2" fill="none"/><path d="M1999.53 571h-1.1l.07-.98-.03-1.02h1.06z"/><path d="M2157.85 570l-14.27 4.64v-9.28z" stroke="#000" stroke-width="2"/><path d="M2162.5 570l37.5-37.5 37.5 37.5-37.5 37.5z" stroke="#000" stroke-width="2" fill="#fff"/><path d="M2200 547.5v45m-22.5-22.5h45" stroke="#000" stroke-width="4" fill="none"/><path d="M2200 530.1v-71.2h60.5" stroke="#000" stroke-width="2" fill="none"/><path d="M2201 532.1l-1-1-1 1v-2.04h2z"/><path d="M2275.76 458.9l-14.26 4.65v-9.27z" stroke="#000" stroke-width="2"/><path d="M2280 398.9h160v120h-160z" stroke="#000" stroke-width="2" fill="#fff"/><use xlink:href="#v" transform="matrix(1,0,0,1,2280,398.9142135623731) translate(37.505 63.15)"/><use xlink:href="#w" transform="matrix(1,0,0,1,2280,398.9142135623731) translate(83.505 63.15)"/><path d="M2200 609.9v49h60.5" stroke="#000" stroke-width="2" fill="none"/><path d="M2201 609.94h-2v-2.03l1 1 1-1z"/><path d="M2275.76 658.9l-14.26 4.65v-9.27z" stroke="#000" stroke-width="2"/><path d="M2280 598.9h160v120h-160z" stroke="#000" stroke-width="2" fill="#fff"/><g><use xlink:href="#v" transform="matrix(1,0,0,1,2280,598.9142135623731) translate(38.055 63.15)"/><use xlink:href="#x" transform="matrix(1,0,0,1,2280,598.9142135623731) translate(84.055 63.15)"/></g><path d="M2442 458.9h77V519" stroke="#000" stroke-width="2" fill="none"/><path d="M2442.03 459.9H2441v-2h1.03z"/><path d="M2519 534.26l-4.64-14.26h9.28z" stroke="#000" stroke-width="2"/><path d="M2481.5 576.4l37.5-37.5 37.5 37.5-37.5 37.5z" stroke="#000" stroke-width="2" fill="#fff"/><path d="M2519 553.9v45m-22.5-22.5h45" stroke="#000" stroke-width="4" fill="none"/><path d="M2442 658.9h77v-25.07" stroke="#000" stroke-width="2" fill="none"/><path d="M2442.03 659.9H2441v-2h1.03z"/><path d="M2519 618.56l4.64 14.27h-9.28z" stroke="#000" stroke-width="2"/><path d="M2558.9 576.4h82.6" stroke="#000" stroke-width="2" fill="none"/><path d="M2558.94 577.4h-2.03l1-1-1-1h2.04z"/><path d="M2656.76 576.4l-14.26 4.65v-9.27z" stroke="#000" stroke-width="2"/><path d="M2720 576.4c0 16.58-13.43 30-30 30s-30-13.42-30-30c0-16.55 13.43-30 30-30s30 13.45 30 30z" stroke="#000" stroke-width="6" fill="#fff"/><defs><path d="M232-93c-1 65-40 97-104 97C67 4 28-28 28-90v-158h33c8 89-33 224 67 224 102 0 64-133 71-224h33v155" id="y"/><path d="M135-143c-3-34-86-38-87 0 15 53 115 12 119 90S17 21 10-45l28-5c4 36 97 45 98 0-10-56-113-15-118-90-4-57 82-63 122-42 12 7 21 19 24 35" id="z"/><path d="M100-194c63 0 86 42 84 106H49c0 40 14 67 53 68 26 1 43-12 49-29l28 8c-11 28-37 45-77 45C44 4 14-33 15-96c1-61 26-98 85-98zm52 81c6-60-76-77-97-28-3 7-6 17-6 28h103" id="A"/><path d="M114-163C36-179 61-72 57 0H25l-1-190h30c1 12-1 29 2 39 6-27 23-49 58-41v29" id="B"/><g id="a"><use transform="matrix(0.05,0,0,0.05,0,0)" xlink:href="#y"/><use transform="matrix(0.05,0,0,0.05,12.950000000000001,0)" xlink:href="#z"/><use transform="matrix(0.05,0,0,0.05,21.950000000000003,0)" xlink:href="#A"/><use transform="matrix(0.05,0,0,0.05,31.950000000000003,0)" xlink:href="#B"/></g><path d="M145-31C134-9 116 4 85 4 32 4 16-35 15-94c0-59 17-99 70-100 32-1 48 14 60 33 0-11-1-24 2-32h30l-1 268h-32zM93-21c41 0 51-33 51-76s-8-73-50-73c-40 0-46 35-46 75s5 74 45 74" id="C"/><path d="M84 4C-5 8 30-112 23-190h32v120c0 31 7 50 39 49 72-2 45-101 50-169h31l1 190h-30c-1-10 1-25-2-33-11 22-28 36-60 37" id="D"/><path d="M59-47c-2 24 18 29 38 22v24C64 9 27 4 27-40v-127H5v-23h24l9-43h21v43h35v23H59v120" id="E"/><g id="b"><use transform="matrix(0.05,0,0,0.05,0,0)" xlink:href="#B"/><use transform="matrix(0.05,0,0,0.05,5.95,0)" xlink:href="#A"/><use transform="matrix(0.05,0,0,0.05,15.949999999999998,0)" xlink:href="#C"/><use transform="matrix(0.05,0,0,0.05,25.950000000000003,0)" xlink:href="#D"/><use transform="matrix(0.05,0,0,0.05,35.95,0)" xlink:href="#A"/><use transform="matrix(0.05,0,0,0.05,45.95,0)" xlink:href="#z"/><use transform="matrix(0.05,0,0,0.05,54.95,0)" xlink:href="#E"/></g><path d="M30-248c118-7 216 8 213 122C240-48 200 0 122 0H30v-248zM63-27c89 8 146-16 146-99s-60-101-146-95v194" id="F"/><path d="M141-36C126-15 110 5 73 4 37 3 15-17 15-53c-1-64 63-63 125-63 3-35-9-54-41-54-24 1-41 7-42 31l-33-3c5-37 33-52 76-52 45 0 72 20 72 64v82c-1 20 7 32 28 27v20c-31 9-61-2-59-35zM48-53c0 20 12 33 32 33 41-3 63-29 60-74-43 2-92-5-92 41" id="G"/><g id="c"><use transform="matrix(0.05,0,0,0.05,0,0)" xlink:href="#F"/><use transform="matrix(0.05,0,0,0.05,12.950000000000001,0)" xlink:href="#G"/><use transform="matrix(0.05,0,0,0.05,22.950000000000003,0)" xlink:href="#E"/><use transform="matrix(0.05,0,0,0.05,27.950000000000003,0)" xlink:href="#A"/></g><path d="M24-231v-30h32v30H24zM24 0v-190h32V0H24" id="H"/><path d="M117-194c89-4 53 116 60 194h-32v-121c0-31-8-49-39-48C34-167 62-67 57 0H25l-1-190h30c1 10-1 24 2 32 11-22 29-35 61-36" id="I"/><path d="M100-194c62-1 85 37 85 99 1 63-27 99-86 99S16-35 15-95c0-66 28-99 85-99zM99-20c44 1 53-31 53-75 0-43-8-75-51-75s-53 32-53 75 10 74 51 75" id="J"/><g id="d"><use transform="matrix(0.05,0,0,0.05,0,0)" xlink:href="#F"/><use transform="matrix(0.05,0,0,0.05,12.950000000000001,0)" xlink:href="#A"/><use transform="matrix(0.05,0,0,0.05,22.950000000000003,0)" xlink:href="#z"/><use transform="matrix(0.05,0,0,0.05,31.950000000000003,0)" xlink:href="#E"/><use transform="matrix(0.05,0,0,0.05,36.95,0)" xlink:href="#H"/><use transform="matrix(0.05,0,0,0.05,40.900000000000006,0)" xlink:href="#I"/><use transform="matrix(0.05,0,0,0.05,50.900000000000006,0)" xlink:href="#G"/><use transform="matrix(0.05,0,0,0.05,60.900000000000006,0)" xlink:href="#E"/><use transform="matrix(0.05,0,0,0.05,65.9,0)" xlink:href="#H"/><use transform="matrix(0.05,0,0,0.05,69.85000000000001,0)" xlink:href="#J"/><use transform="matrix(0.05,0,0,0.05,79.85000000000001,0)" xlink:href="#I"/></g><path d="M185-189c-5-48-123-54-124 2 14 75 158 14 163 119 3 78-121 87-175 55-17-10-28-26-33-46l33-7c5 56 141 63 141-1 0-78-155-14-162-118-5-82 145-84 179-34 5 7 8 16 11 25" id="K"/><path d="M85-194c31 0 48 13 60 33l-1-100h32l1 261h-30c-2-10 0-23-3-31C134-8 116 4 85 4 32 4 16-35 15-94c0-66 23-100 70-100zm9 24c-40 0-46 34-46 75 0 40 6 74 45 74 42 0 51-32 51-76 0-42-9-74-50-73" id="L"/><g id="e"><use transform="matrix(0.05,0,0,0.05,0,0)" xlink:href="#K"/><use transform="matrix(0.05,0,0,0.05,12,0)" xlink:href="#A"/><use transform="matrix(0.05,0,0,0.05,22,0)" xlink:href="#I"/><use transform="matrix(0.05,0,0,0.05,32,0)" xlink:href="#L"/></g><path d="M101-234c-31-9-42 10-38 44h38v23H63V0H32v-167H5v-23h27c-7-52 17-82 69-68v24" id="M"/><path d="M24 0v-261h32V0H24" id="N"/><path d="M177-190C167-65 218 103 67 71c-23-6-38-20-44-43l32-5c15 47 100 32 89-28v-30C133-14 115 1 83 1 29 1 15-40 15-95c0-56 16-97 71-98 29-1 48 16 59 35 1-10 0-23 2-32h30zM94-22c36 0 50-32 50-73 0-42-14-75-50-75-39 0-46 34-46 75s6 73 46 73" id="O"/><path d="M106-169C34-169 62-67 57 0H25v-261h32l-1 103c12-21 28-36 61-36 89 0 53 116 60 194h-32v-121c2-32-8-49-39-48" id="P"/><g id="f"><use transform="matrix(0.05,0,0,0.05,0,0)" xlink:href="#M"/><use transform="matrix(0.05,0,0,0.05,5,0)" xlink:href="#N"/><use transform="matrix(0.05,0,0,0.05,8.95,0)" xlink:href="#H"/><use transform="matrix(0.05,0,0,0.05,12.899999999999999,0)" xlink:href="#O"/><use transform="matrix(0.05,0,0,0.05,22.9,0)" xlink:href="#P"/><use transform="matrix(0.05,0,0,0.05,32.9,0)" xlink:href="#E"/><use transform="matrix(0.05,0,0,0.05,37.9,0)" xlink:href="#z"/></g><g id="g"><use transform="matrix(0.05,0,0,0.05,0,0)" xlink:href="#N"/><use transform="matrix(0.05,0,0,0.05,3.95,0)" xlink:href="#H"/><use transform="matrix(0.05,0,0,0.05,7.9,0)" xlink:href="#z"/><use transform="matrix(0.05,0,0,0.05,16.9,0)" xlink:href="#E"/></g><path d="M63-220v92h138v28H63V0H30v-248h175v28H63" id="Q"/><g id="h"><use transform="matrix(0.05,0,0,0.05,0,0)" xlink:href="#Q"/><use transform="matrix(0.05,0,0,0.05,10.950000000000001,0)" xlink:href="#N"/><use transform="matrix(0.05,0,0,0.05,14.9,0)" xlink:href="#H"/><use transform="matrix(0.05,0,0,0.05,18.85,0)" xlink:href="#O"/><use transform="matrix(0.05,0,0,0.05,28.85,0)" xlink:href="#P"/><use transform="matrix(0.05,0,0,0.05,38.85,0)" xlink:href="#E"/></g><path d="M96-169c-40 0-48 33-48 73s9 75 48 75c24 0 41-14 43-38l32 2c-6 37-31 61-74 61-59 0-76-41-82-99-10-93 101-131 147-64 4 7 5 14 7 22l-32 3c-4-21-16-35-41-35" id="R"/><g id="i"><use transform="matrix(0.05,0,0,0.05,0,0)" xlink:href="#R"/><use transform="matrix(0.05,0,0,0.05,9,0)" xlink:href="#P"/><use transform="matrix(0.05,0,0,0.05,19,0)" xlink:href="#J"/><use transform="matrix(0.05,0,0,0.05,29,0)" xlink:href="#z"/><use transform="matrix(0.05,0,0,0.05,38,0)" xlink:href="#A"/></g><path d="M101-251c82-7 93 87 43 132L82-64C71-53 59-42 53-27h129V0H18c2-99 128-94 128-182 0-28-16-43-45-43s-46 15-49 41l-32-3c6-41 34-60 81-64" id="S"/><use transform="matrix(0.05,0,0,0.05,0,0)" xlink:href="#S" id="j"/><path d="M210-169c-67 3-38 105-44 169h-31v-121c0-29-5-50-35-48C34-165 62-65 56 0H25l-1-190h30c1 10-1 24 2 32 10-44 99-50 107 0 11-21 27-35 58-36 85-2 47 119 55 194h-31v-121c0-29-5-49-35-48" id="T"/><g id="k"><use transform="matrix(0.05,0,0,0.05,0,0)" xlink:href="#T"/><use transform="matrix(0.05,0,0,0.05,14.950000000000001,0)" xlink:href="#H"/><use transform="matrix(0.05,0,0,0.05,18.900000000000002,0)" xlink:href="#I"/><use transform="matrix(0.05,0,0,0.05,28.900000000000002,0)" xlink:href="#D"/><use transform="matrix(0.05,0,0,0.05,38.900000000000006,0)" xlink:href="#E"/><use transform="matrix(0.05,0,0,0.05,43.900000000000006,0)" xlink:href="#A"/><use transform="matrix(0.05,0,0,0.05,53.900000000000006,0)" xlink:href="#z"/></g><path d="M212-179c-10-28-35-45-73-45-59 0-87 40-87 99 0 60 29 101 89 101 43 0 62-24 78-52l27 14C228-24 195 4 139 4 59 4 22-46 18-125c-6-104 99-153 187-111 19 9 31 26 39 46" id="U"/><g id="l"><use transform="matrix(0.05,0,0,0.05,0,0)" xlink:href="#U"/><use transform="matrix(0.05,0,0,0.05,12.950000000000001,0)" xlink:href="#G"/><use transform="matrix(0.05,0,0,0.05,22.950000000000003,0)" xlink:href="#I"/><use transform="matrix(0.05,0,0,0.05,32.95,0)" xlink:href="#R"/><use transform="matrix(0.05,0,0,0.05,41.95,0)" xlink:href="#A"/><use transform="matrix(0.05,0,0,0.05,51.95,0)" xlink:href="#N"/></g><g id="m"><use transform="matrix(0.05,0,0,0.05,0,0)" xlink:href="#G"/><use transform="matrix(0.05,0,0,0.05,10,0)" xlink:href="#R"/><use transform="matrix(0.05,0,0,0.05,19,0)" xlink:href="#E"/><use transform="matrix(0.05,0,0,0.05,24,0)" xlink:href="#H"/><use transform="matrix(0.05,0,0,0.05,27.950000000000003,0)" xlink:href="#J"/><use transform="matrix(0.05,0,0,0.05,37.95,0)" xlink:href="#I"/></g><path d="M205 0l-28-72H64L36 0H1l101-248h38L239 0h-34zm-38-99l-47-123c-12 45-31 82-46 123h93" id="V"/><path d="M143 0L79-87 56-68V0H24v-261h32v163l83-92h37l-77 82L181 0h-38" id="W"/><g id="n"><use transform="matrix(0.05,0,0,0.05,0,0)" xlink:href="#V"/><use transform="matrix(0.05,0,0,0.05,12,0)" xlink:href="#z"/><use transform="matrix(0.05,0,0,0.05,21,0)" xlink:href="#W"/></g><g id="o"><use transform="matrix(0.05,0,0,0.05,0,0)" xlink:href="#M"/><use transform="matrix(0.05,0,0,0.05,5,0)" xlink:href="#J"/><use transform="matrix(0.05,0,0,0.05,15,0)" xlink:href="#B"/></g><path d="M115-194c55 1 70 41 70 98S169 2 115 4C84 4 66-9 55-30l1 105H24l-1-265h31l2 30c10-21 28-34 59-34zm-8 174c40 0 45-34 45-75s-6-73-45-74c-42 0-51 32-51 76 0 43 10 73 51 73" id="X"/><path d="M179-190L93 31C79 59 56 82 12 73V49c39 6 53-20 64-50L1-190h34L92-34l54-156h33" id="Y"/><g id="p"><use transform="matrix(0.05,0,0,0.05,0,0)" xlink:href="#X"/><use transform="matrix(0.05,0,0,0.05,10,0)" xlink:href="#G"/><use transform="matrix(0.05,0,0,0.05,20,0)" xlink:href="#Y"/><use transform="matrix(0.05,0,0,0.05,29,0)" xlink:href="#T"/><use transform="matrix(0.05,0,0,0.05,43.95,0)" xlink:href="#A"/><use transform="matrix(0.05,0,0,0.05,53.95,0)" xlink:href="#I"/><use transform="matrix(0.05,0,0,0.05,63.95,0)" xlink:href="#E"/></g><path d="M30-248c87 1 191-15 191 75 0 78-77 80-158 76V0H30v-248zm33 125c57 0 124 11 124-50 0-59-68-47-124-48v98" id="Z"/><g id="q"><use transform="matrix(0.05,0,0,0.05,0,0)" xlink:href="#Z"/><use transform="matrix(0.05,0,0,0.05,12,0)" xlink:href="#G"/><use transform="matrix(0.05,0,0,0.05,22,0)" xlink:href="#Y"/><use transform="matrix(0.05,0,0,0.05,31,0)" xlink:href="#T"/><use transform="matrix(0.05,0,0,0.05,45.95,0)" xlink:href="#A"/><use transform="matrix(0.05,0,0,0.05,55.95,0)" xlink:href="#I"/><use transform="matrix(0.05,0,0,0.05,65.95,0)" xlink:href="#E"/></g><g id="r"><use transform="matrix(0.05,0,0,0.05,0,0)" xlink:href="#H"/><use transform="matrix(0.05,0,0,0.05,3.95,0)" xlink:href="#I"/><use transform="matrix(0.05,0,0,0.05,13.949999999999998,0)" xlink:href="#M"/><use transform="matrix(0.05,0,0,0.05,18.95,0)" xlink:href="#J"/><use transform="matrix(0.05,0,0,0.05,28.950000000000003,0)" xlink:href="#B"/><use transform="matrix(0.05,0,0,0.05,34.9,0)" xlink:href="#T"/><use transform="matrix(0.05,0,0,0.05,49.85,0)" xlink:href="#G"/><use transform="matrix(0.05,0,0,0.05,59.85,0)" xlink:href="#E"/><use transform="matrix(0.05,0,0,0.05,64.85,0)" xlink:href="#H"/><use transform="matrix(0.05,0,0,0.05,68.8,0)" xlink:href="#J"/><use transform="matrix(0.05,0,0,0.05,78.8,0)" xlink:href="#I"/><use transform="matrix(0.05,0,0,0.05,88.8,0)" xlink:href="#z"/></g><path d="M108 0H70L1-190h34L89-25l56-165h34" id="aa"/><g id="s"><use transform="matrix(0.05,0,0,0.05,0,0)" xlink:href="#B"/><use transform="matrix(0.05,0,0,0.05,5.95,0)" xlink:href="#A"/><use transform="matrix(0.05,0,0,0.05,15.949999999999998,0)" xlink:href="#R"/><use transform="matrix(0.05,0,0,0.05,24.95,0)" xlink:href="#A"/><use transform="matrix(0.05,0,0,0.05,34.95,0)" xlink:href="#H"/><use transform="matrix(0.05,0,0,0.05,38.900000000000006,0)" xlink:href="#aa"/><use transform="matrix(0.05,0,0,0.05,47.900000000000006,0)" xlink:href="#A"/><use transform="matrix(0.05,0,0,0.05,57.900000000000006,0)" xlink:href="#L"/></g><path d="M197 0v-115H63V0H30v-248h33v105h134v-105h34V0h-34" id="ab"/><g id="t"><use transform="matrix(0.05,0,0,0.05,0,0)" xlink:href="#ab"/><use transform="matrix(0.05,0,0,0.05,12.950000000000001,0)" xlink:href="#J"/><use transform="matrix(0.05,0,0,0.05,22.950000000000003,0)" xlink:href="#E"/><use transform="matrix(0.05,0,0,0.05,27.950000000000003,0)" xlink:href="#A"/><use transform="matrix(0.05,0,0,0.05,37.95,0)" xlink:href="#N"/></g><g id="u"><use transform="matrix(0.05,0,0,0.05,0,0)" xlink:href="#P"/><use transform="matrix(0.05,0,0,0.05,10,0)" xlink:href="#J"/><use transform="matrix(0.05,0,0,0.05,20,0)" xlink:href="#E"/><use transform="matrix(0.05,0,0,0.05,25,0)" xlink:href="#A"/><use transform="matrix(0.05,0,0,0.05,35,0)" xlink:href="#N"/></g><path d="M160-131c35 5 61 23 61 61C221 17 115-2 30 0v-248c76 3 177-17 177 60 0 33-19 50-47 57zm-97-11c50-1 110 9 110-42 0-47-63-36-110-37v79zm0 115c55-2 124 14 124-45 0-56-70-42-124-44v89" id="ac"/><g id="v"><use transform="matrix(0.05,0,0,0.05,0,0)" xlink:href="#ac"/><use transform="matrix(0.05,0,0,0.05,12,0)" xlink:href="#J"/><use transform="matrix(0.05,0,0,0.05,22,0)" xlink:href="#J"/><use transform="matrix(0.05,0,0,0.05,32,0)" xlink:href="#W"/></g><path d="M115-194c53 0 69 39 70 98 0 66-23 100-70 100C84 3 66-7 56-30L54 0H23l1-261h32v101c10-23 28-34 59-34zm-8 174c40 0 45-34 45-75 0-40-5-75-45-74-42 0-51 32-51 76 0 43 10 73 51 73" id="ad"/><g id="w"><use transform="matrix(0.05,0,0,0.05,0,0)" xlink:href="#ad"/><use transform="matrix(0.05,0,0,0.05,10,0)" xlink:href="#J"/><use transform="matrix(0.05,0,0,0.05,20,0)" xlink:href="#J"/><use transform="matrix(0.05,0,0,0.05,30,0)" xlink:href="#W"/></g><g id="x"><use transform="matrix(0.05,0,0,0.05,0,0)" xlink:href="#M"/><use transform="matrix(0.05,0,0,0.05,5,0)" xlink:href="#N"/><use transform="matrix(0.05,0,0,0.05,8.95,0)" xlink:href="#H"/><use transform="matrix(0.05,0,0,0.05,12.899999999999999,0)" xlink:href="#O"/><use transform="matrix(0.05,0,0,0.05,22.9,0)" xlink:href="#P"/><use transform="matrix(0.05,0,0,0.05,32.9,0)" xlink:href="#E"/></g></defs></g></svg>